<svg width="379" height="379" viewBox="0 0 379 379" fill="none" xmlns="http://www.w3.org/2000/svg">
<path d="M156.855 125.755C156.855 125.755 156.061 130.959 154.501 130.893C152.941 130.828 152.89 123.568 152.89 123.568L156.855 125.755Z" fill="#3A3A3A"/>
<path d="M153.604 129.735C153.662 129.925 153.745 130.107 153.852 130.274C153.932 130.325 153.976 130.435 154.093 130.471C154.181 130.527 154.276 130.568 154.377 130.595C154.438 130.617 154.505 130.617 154.566 130.595C154.632 130.595 154.69 130.558 154.763 130.537C155.097 130.379 155.377 130.125 155.565 129.808C155.808 129.432 155.999 129.025 156.133 128.598C156.251 128.202 156.315 127.793 156.323 127.381C156.323 126.856 156.243 126.346 156.243 125.879C156.243 125.733 156.52 125.617 156.84 125.675C157.02 125.711 157.186 125.799 157.316 125.929C157.445 126.059 157.534 126.224 157.569 126.404C157.754 127.686 157.516 128.994 156.891 130.128C156.69 130.487 156.466 130.833 156.221 131.163C155.941 131.556 155.554 131.859 155.106 132.038C154.584 132.221 154.016 132.221 153.495 132.038C153.238 131.951 152.993 131.831 152.766 131.681C152.557 131.524 152.373 131.338 152.22 131.127C151.891 130.65 151.676 130.104 151.593 129.531C151.493 128.757 151.475 127.975 151.542 127.198C151.578 126.615 151.542 126.032 151.622 125.442C151.623 125.309 151.643 125.176 151.68 125.048C151.701 124.961 151.738 124.878 151.791 124.806C151.844 124.733 151.91 124.672 151.987 124.625C152.063 124.578 152.149 124.547 152.237 124.533C152.326 124.52 152.417 124.524 152.504 124.545H152.766C153.036 124.611 153.211 124.873 153.335 125.216C153.442 125.694 153.479 126.185 153.444 126.674C153.444 127.133 153.444 127.585 153.408 128.029C153.361 128.604 153.423 129.183 153.59 129.735H153.604Z" fill="#3A3A3A"/>
<path d="M159.304 162.052C159.304 162.052 173.028 162.97 172.336 169.187C171.643 175.404 163.364 171.483 162.504 175.856C161.644 180.229 159.304 162.052 159.304 162.052Z" fill="#3A3A3A"/>
<path d="M74.0363 348.687L73.3658 347.849C73.2856 347.754 73.1836 347.674 73.1034 347.579C72.8264 347.215 72.5713 346.85 72.2871 346.508C72.1592 346.358 72.0121 346.226 71.8498 346.114C71.653 345.968 71.4125 345.866 71.3031 345.618C71.1938 345.371 72.0903 344.715 72.3454 344.89C72.772 345.226 73.1265 345.645 73.3876 346.121C73.5714 346.387 73.7841 346.631 74.0217 346.85L74.6923 347.659C74.8308 347.82 74.9692 347.987 75.115 348.14C75.3412 348.381 75.5848 348.605 75.8439 348.811C76.0522 348.939 76.2689 349.054 76.4925 349.153L76.631 349.226C76.7914 349.336 76.7986 349.438 76.6747 349.7L76.5946 349.875C76.5551 349.96 76.4909 350.031 76.4103 350.08C76.3297 350.128 76.2364 350.15 76.1427 350.145C75.6397 350.061 75.1757 349.821 74.8162 349.459C74.5392 349.219 74.2914 348.949 74.0436 348.687H74.0363Z" fill="#3A3A3A"/>
<path d="M74.6557 344.241L73.5114 342.783L73.0814 342.266C72.5931 341.639 72.0975 341.012 71.6237 340.385C71.405 340.109 71.1718 339.846 70.9386 339.584C70.6265 339.261 70.339 338.915 70.0786 338.549C69.9255 338.308 70.5231 338.265 70.8657 338.651C71.4634 339.343 72.0464 340.05 72.5931 340.801C72.9138 341.253 73.3219 341.676 73.6645 342.106L74.8379 343.563L75.5668 344.452C75.9312 344.904 76.2956 345.356 76.6746 345.786C77.0536 346.216 77.2868 346.428 77.5857 346.756L77.7825 346.967C78.023 347.244 78.0667 347.353 78.0011 347.514C77.991 347.549 77.9763 347.584 77.9574 347.616C77.8918 347.718 77.7169 347.667 77.5201 347.492C76.8968 346.941 76.3214 346.339 75.8 345.691L74.6193 344.234L74.6557 344.241Z" fill="#3A3A3A"/>
<path d="M76.1864 342.849L74.8235 340.779L74.2987 340.05C73.7084 339.168 73.1253 338.286 72.5058 337.434C72.2288 337.055 71.9227 336.705 71.6166 336.348C71.2009 335.922 70.8138 335.469 70.4577 334.992C70.2463 334.678 71.1865 334.416 71.6967 334.941C72.541 335.857 73.2975 336.85 73.9562 337.907C74.3497 338.541 74.8526 339.124 75.29 339.744L76.7476 341.799L77.615 343.068C78.0596 343.702 78.4896 344.35 78.956 344.962C79.3132 345.436 79.6849 345.866 80.1149 346.311C80.1951 346.406 80.2898 346.5 80.37 346.602C80.6688 346.981 80.698 347.149 80.5304 347.411C80.4974 347.471 80.4584 347.527 80.4137 347.579C80.268 347.754 79.9983 347.703 79.7286 347.462C78.9277 346.7 78.2162 345.849 77.6077 344.926L76.1937 342.863L76.1864 342.849Z" fill="#3A3A3A"/>
<path d="M72.8044 334.919C72.5493 334.555 72.3015 334.19 72.0318 333.833C71.9371 333.709 71.8059 333.607 71.7111 333.476C71.3759 333.017 71.0479 332.55 70.6835 332.113C70.5162 331.925 70.3279 331.756 70.1222 331.61C69.8671 331.413 69.561 331.282 69.3934 330.962C69.2986 330.765 70.3628 329.876 70.6762 330.123C71.2234 330.559 71.6813 331.096 72.0245 331.705C72.2661 332.05 72.5368 332.375 72.8336 332.674C73.1178 333.031 73.3875 333.403 73.6644 333.775L74.1455 334.46C74.3933 334.81 74.6338 335.189 74.8743 335.48C75.1029 335.717 75.3463 335.938 75.6032 336.144C75.6542 336.195 75.7125 336.238 75.7562 336.289C75.9239 336.493 75.9166 336.61 75.7562 336.843L75.625 336.996C75.5569 337.074 75.4647 337.127 75.3631 337.147C75.2615 337.167 75.1562 337.152 75.0638 337.106C74.533 336.804 74.0573 336.415 73.6571 335.954C73.351 335.626 73.0668 335.284 72.768 334.948L72.8044 334.919Z" fill="#3A3A3A"/>
<path d="M68.7958 325.933C68.5262 325.51 68.2565 325.088 67.9795 324.679C67.8775 324.526 67.739 324.403 67.6443 324.249C67.2871 323.717 66.9154 323.171 66.5729 322.653C66.4002 322.43 66.2075 322.222 65.9971 322.034C65.6994 321.822 65.4508 321.549 65.2682 321.232C65.1735 321.013 66.223 320.372 66.551 320.664C67.1156 321.171 67.591 321.77 67.9577 322.435C68.2195 322.813 68.5069 323.174 68.8177 323.513C69.1311 323.907 69.4299 324.322 69.7288 324.723L70.2754 325.452C70.5669 325.816 70.8293 326.181 71.1427 326.553C71.4011 326.803 71.679 327.032 71.9736 327.238L72.1631 327.383C72.3745 327.588 72.3599 327.726 72.1048 328.032L71.9299 328.244C71.8496 328.355 71.7332 328.436 71.6005 328.472C71.4677 328.507 71.3266 328.496 71.201 328.44C70.5978 328.122 70.0668 327.683 69.6413 327.15C69.2988 326.771 69.0291 326.341 68.723 325.94L68.7958 325.933Z" fill="#3A3A3A"/>
<path d="M71.0042 341.909C71.0042 340.794 71.0625 339.686 71.0917 338.578C71.0917 338.177 71.0917 337.776 71.0917 337.375C71.0917 335.961 71.1427 334.547 71.0334 333.141C70.9863 332.519 70.8987 331.9 70.771 331.289L70.494 330.167C70.3811 329.786 70.3006 329.396 70.2535 329.001C70.2025 328.498 71.4197 328.797 71.7112 329.73C72.1116 331.38 72.2857 333.076 72.2287 334.773C72.2287 335.779 72.2797 336.821 72.2724 337.842C72.2651 338.862 72.2724 340.087 72.1922 341.202C72.1922 341.887 72.1412 342.572 72.1412 343.257C72.1412 344.292 72.1412 345.334 72.2141 346.355C72.2943 347.149 72.4255 347.914 72.5567 348.687C72.5567 348.862 72.615 349.022 72.6514 349.197C72.7535 349.831 72.6951 350.05 72.5567 350.225C72.5567 350.261 72.4911 350.312 72.4546 350.341C72.4182 350.371 72.1777 350.196 71.9809 349.737C71.7295 349.037 71.5345 348.318 71.3978 347.586C71.2739 346.858 71.1864 346.078 71.1354 345.32C71.048 344.19 71.0261 343.053 71.0188 341.931L71.0042 341.909Z" fill="#3A3A3A"/>
<path d="M73.9924 343.892C73.9414 343.199 73.9122 342.5 73.8904 341.807C73.8904 341.552 73.8904 341.304 73.8904 341.078C73.8904 340.189 73.8904 339.293 73.9487 338.404C73.9487 338.01 73.9487 337.616 73.9487 337.223C73.9109 336.719 73.9354 336.212 74.0216 335.714C74.0945 335.408 74.8452 335.845 74.8379 336.406C74.8379 337.42 74.8379 338.418 74.7358 339.438C74.7154 340.061 74.7349 340.684 74.7942 341.304C74.7942 341.989 74.8743 342.675 74.9326 343.36C74.9326 343.775 75.0128 344.198 75.0711 344.613C75.1327 345.25 75.2275 345.882 75.3554 346.508C75.472 346.989 75.6177 347.449 75.7417 347.915L75.8291 348.228C75.9239 348.615 75.9093 348.753 75.7635 348.884C75.7355 348.917 75.7037 348.947 75.6688 348.972C75.5594 349.052 75.4064 348.921 75.2606 348.651C75.0415 348.243 74.8468 347.822 74.6775 347.39C74.5271 346.942 74.4054 346.484 74.3131 346.02C74.1654 345.33 74.0608 344.631 73.9997 343.928L73.9924 343.892Z" fill="#3A3A3A"/>
<path d="M76.5288 343.745C76.5288 343.206 76.5944 342.681 76.6308 342.156C76.6308 341.96 76.6308 341.777 76.6308 341.581C76.6892 340.91 76.7693 340.247 76.7985 339.584C76.8045 339.292 76.7924 339 76.762 338.709C76.6844 338.345 76.6574 337.972 76.6819 337.601C76.7256 337.361 77.7023 337.521 77.7824 337.987C77.8955 338.775 77.8955 339.576 77.7824 340.363C77.752 340.849 77.752 341.336 77.7824 341.821C77.7824 342.339 77.7824 342.856 77.746 343.381C77.746 343.694 77.746 344.015 77.746 344.328C77.7441 344.816 77.7806 345.304 77.8553 345.786C77.939 346.138 78.0462 346.484 78.176 346.821L78.2562 347.032C78.3509 347.309 78.3072 347.419 78.1031 347.564L77.9646 347.667C77.9207 347.689 77.8727 347.702 77.8235 347.706C77.7743 347.71 77.7249 347.704 77.6781 347.688C77.6312 347.673 77.588 347.648 77.5509 347.615C77.5137 347.583 77.4834 347.543 77.4617 347.499C77.0277 346.888 76.7522 346.18 76.66 345.436C76.5743 344.896 76.5353 344.35 76.5434 343.804L76.5288 343.745Z" fill="#3A3A3A"/>
<path d="M167.431 346.282C167.292 346.013 167.183 345.728 167.059 345.451C167.008 345.349 166.942 345.269 166.898 345.167C166.738 344.817 166.585 344.438 166.396 344.125C166.306 343.978 166.201 343.841 166.082 343.717C165.936 343.564 165.747 343.447 165.681 343.221C165.616 342.995 166.41 342.594 166.6 342.798C166.927 343.155 167.176 343.578 167.329 344.037C167.449 344.29 167.588 344.534 167.744 344.766C167.882 345.043 168.021 345.327 168.145 345.612L168.371 346.144C168.495 346.406 168.604 346.669 168.75 346.916L169.114 347.456C169.145 347.492 169.172 347.531 169.194 347.572C169.233 347.627 169.249 347.695 169.24 347.761C169.23 347.827 169.196 347.888 169.143 347.929L169.07 348.002C169.022 348.039 168.963 348.059 168.903 348.059C168.842 348.059 168.783 348.039 168.735 348.002C168.556 347.878 168.385 347.742 168.225 347.594C168.08 347.44 167.955 347.269 167.853 347.084C167.686 346.822 167.54 346.545 167.387 346.282H167.431Z" fill="#3A3A3A"/>
<path d="M163.99 346.799C163.75 346.303 163.502 345.815 163.305 345.305C163.225 345.123 163.13 344.948 163.058 344.758C162.81 344.102 162.576 343.439 162.329 342.783C162.219 342.484 162.11 342.2 162.001 341.916C161.846 341.549 161.726 341.168 161.644 340.779C161.6 340.538 162.059 340.72 162.241 341.121C162.562 341.85 162.904 342.579 163.189 343.308C163.382 343.756 163.604 344.192 163.852 344.613L164.581 346.034C164.741 346.325 164.894 346.617 165.062 346.901C165.317 347.331 165.572 347.761 165.849 348.177C166.126 348.592 166.33 348.767 166.578 349.051L166.745 349.241C166.92 349.503 166.928 349.62 166.84 349.78C166.84 349.816 166.84 349.86 166.782 349.889C166.724 349.919 166.541 349.962 166.33 349.831C165.733 349.391 165.209 348.86 164.778 348.257C164.471 347.787 164.191 347.3 163.939 346.799H163.99Z" fill="#3A3A3A"/>
<path d="M160.958 348.549C160.754 348.002 160.543 347.463 160.339 346.924C160.259 346.727 160.157 346.545 160.084 346.341C159.821 345.648 159.566 344.949 159.289 344.263C159.162 343.962 159.019 343.667 158.859 343.382C158.631 343.03 158.446 342.654 158.305 342.259C158.24 341.997 159.085 341.924 159.333 342.347C159.765 343.098 160.119 343.892 160.39 344.715C160.579 345.213 160.795 345.7 161.039 346.173C161.264 346.705 161.49 347.237 161.724 347.769C161.869 348.097 162.008 348.425 162.154 348.746C162.371 349.244 162.615 349.731 162.883 350.204C163.091 350.558 163.323 350.899 163.575 351.224L163.735 351.443C163.802 351.539 163.832 351.655 163.82 351.772C163.808 351.888 163.755 351.996 163.67 352.077C163.642 352.119 163.61 352.158 163.575 352.193C163.545 352.218 163.509 352.234 163.471 352.242C163.433 352.25 163.394 352.248 163.356 352.237C163.234 352.226 163.118 352.18 163.021 352.106C162.72 351.85 162.459 351.55 162.248 351.217C162.03 350.888 161.835 350.545 161.665 350.189C161.41 349.657 161.184 349.11 160.937 348.571L160.958 348.549Z" fill="#3A3A3A"/>
<path d="M157.824 348.06L157.212 346.603C157.132 346.428 157.045 346.253 156.979 346.07L156.323 344.124C156.221 343.84 156.112 343.563 155.995 343.286C155.831 342.937 155.707 342.57 155.623 342.193C155.572 341.96 156.134 342.076 156.352 342.463C156.707 343.151 157.021 343.859 157.292 344.584C157.473 345.023 157.685 345.45 157.927 345.859C158.145 346.34 158.371 346.814 158.597 347.317L159.02 348.191C159.246 348.621 159.464 349.073 159.698 349.496C159.931 349.919 160.142 350.108 160.332 350.429L160.448 350.648C160.58 350.932 160.565 351.048 160.448 351.194C160.423 351.23 160.397 351.264 160.368 351.296C160.266 351.391 160.098 351.34 159.909 351.187C159.356 350.732 158.891 350.178 158.539 349.554C158.269 349.095 158.058 348.6 157.81 348.097L157.824 348.06Z" fill="#3A3A3A"/>
<path d="M162.387 348.687L161.964 348.447L161.804 348.388C161.629 348.279 161.461 348.155 161.294 348.039L161.06 347.9C160.951 347.854 160.852 347.787 160.769 347.703C160.725 347.645 160.995 347.412 161.104 347.477C161.299 347.605 161.484 347.746 161.658 347.9C161.77 347.986 161.889 348.062 162.015 348.126L162.423 348.359L162.678 348.498C162.817 348.563 162.948 348.629 163.079 348.68C163.187 348.714 163.296 348.74 163.407 348.76H163.48C163.568 348.76 163.59 348.818 163.582 348.906V348.964C163.577 348.994 163.56 349.02 163.536 349.038C163.511 349.056 163.481 349.063 163.451 349.059C163.234 349.042 163.022 348.988 162.824 348.899C162.671 348.84 162.525 348.767 162.38 348.702L162.387 348.687Z" fill="#3A3A3A"/>
<path d="M161.687 345.969C161.279 345.772 160.878 345.568 160.47 345.379L160.011 345.182C159.486 344.941 158.954 344.715 158.407 344.511C158.17 344.413 157.926 344.331 157.678 344.263C157.365 344.169 157.044 344.096 156.738 343.986C156.432 343.877 156.848 343.746 157.227 343.812C157.897 343.944 158.552 344.147 159.18 344.416C159.552 344.577 159.96 344.708 160.346 344.868C160.732 345.029 161.192 345.226 161.607 345.415L162.372 345.765L163.538 346.297C163.837 346.428 164.143 346.53 164.442 346.647L164.646 346.72C164.894 346.822 164.952 346.887 164.96 347.026C164.963 347.057 164.963 347.089 164.96 347.12C164.96 347.215 164.814 347.244 164.624 347.193C164.037 347.037 163.465 346.832 162.912 346.581L161.68 345.984L161.687 345.969Z" fill="#3A3A3A"/>
<path d="M163.335 344.628L161.724 343.899C161.527 343.811 161.323 343.738 161.126 343.636C160.448 343.294 159.778 342.907 159.107 342.55C158.808 342.39 158.51 342.237 158.203 342.091C157.803 341.921 157.426 341.701 157.081 341.435C156.877 341.253 157.562 340.779 157.985 341.012C158.714 341.413 159.486 341.829 160.237 342.295C160.708 342.553 161.195 342.782 161.695 342.98L163.305 343.709L164.311 344.132C164.821 344.343 165.332 344.562 165.849 344.744C166.257 344.883 166.673 344.97 167.081 345.079C167.168 345.079 167.263 345.116 167.35 345.145C167.678 345.254 167.766 345.349 167.744 345.611C167.748 345.67 167.748 345.728 167.744 345.786C167.708 345.976 167.518 346.071 167.263 346.034C166.492 345.887 165.737 345.662 165.011 345.364C164.457 345.145 163.903 344.912 163.356 344.679L163.335 344.628Z" fill="#3A3A3A"/>
<path d="M163.262 343.44L161.731 342.631L161.163 342.361L159.18 341.341L158.291 340.918C157.906 340.748 157.531 340.556 157.169 340.342C156.943 340.204 157.387 340.065 157.824 340.269C158.597 340.626 159.37 340.998 160.135 341.399C160.587 341.639 161.09 341.844 161.593 342.069L163.167 342.835L164.122 343.323L165.579 344.052C165.951 344.249 166.308 344.409 166.709 344.591L166.95 344.715C167.256 344.883 167.329 344.97 167.307 345.138C167.314 345.176 167.314 345.216 167.307 345.255C167.307 345.378 167.103 345.393 166.869 345.255C166.199 344.956 165.528 344.584 164.843 344.212L163.313 343.389L163.262 343.44Z" fill="#3A3A3A"/>
<path d="M161.454 346.624L160.288 345.815C160.149 345.72 159.989 345.648 159.851 345.546C159.37 345.174 158.903 344.817 158.429 344.409C158.22 344.239 157.998 344.086 157.766 343.949C157.452 343.805 157.175 343.591 156.957 343.323C156.833 343.14 157.722 342.426 158.028 342.645C158.592 343.019 159.115 343.451 159.588 343.935C159.904 344.214 160.248 344.458 160.616 344.664L161.767 345.429C162.008 345.589 162.248 345.742 162.496 345.888C162.868 346.107 163.225 346.333 163.626 346.515C163.941 346.631 164.262 346.728 164.588 346.806L164.799 346.857C165.055 346.952 165.098 347.069 165.011 347.39C165.011 347.462 164.974 347.543 164.945 347.615C164.918 347.723 164.855 347.818 164.766 347.885C164.677 347.951 164.568 347.985 164.457 347.98C163.828 347.898 163.221 347.692 162.671 347.375C162.248 347.156 161.848 346.908 161.439 346.646L161.454 346.624Z" fill="#3A3A3A"/>
<path d="M160.645 348.265L159.595 347.602L159.202 347.361C158.765 347.062 158.327 346.749 157.905 346.421L157.336 345.998C157.068 345.831 156.823 345.63 156.607 345.4C156.483 345.262 156.906 345.145 157.176 345.349L158.633 346.421C158.941 346.63 159.26 346.822 159.588 346.997L160.667 347.602L161.337 347.966C161.673 348.148 162.015 348.338 162.358 348.505C162.7 348.673 162.912 348.724 163.196 348.833L163.378 348.906C163.597 349.008 163.648 349.088 163.59 349.292C163.59 349.336 163.59 349.387 163.59 349.431C163.558 349.502 163.499 349.557 163.427 349.586C163.355 349.614 163.275 349.614 163.203 349.584C162.693 349.414 162.204 349.187 161.746 348.906L160.667 348.279L160.645 348.265Z" fill="#3A3A3A"/>
<path d="M159.02 350.706L158.422 350.291C158.349 350.24 158.269 350.211 158.196 350.16L157.431 349.613C157.313 349.54 157.192 349.475 157.066 349.416C156.898 349.364 156.744 349.274 156.615 349.154C156.534 349.066 156.943 348.615 157.125 348.709C157.451 348.867 157.753 349.071 158.021 349.314C158.199 349.444 158.387 349.561 158.582 349.664L159.202 350.058L159.581 350.298C159.768 350.426 159.963 350.543 160.164 350.648C160.325 350.718 160.49 350.777 160.66 350.823L160.769 350.859C160.9 350.918 160.915 350.976 160.856 351.151L160.813 351.268C160.795 351.324 160.758 351.372 160.71 351.406C160.661 351.439 160.602 351.454 160.543 351.45C160.222 351.392 159.915 351.274 159.639 351.1L159.012 350.714L159.02 350.706Z" fill="#3A3A3A"/>
<path d="M243.573 347.069C242.953 347.273 242.341 347.491 241.729 347.725C241.503 347.812 241.292 347.921 241.073 348.009C240.286 348.308 239.506 348.628 238.748 348.986C238.405 349.139 238.085 349.328 237.764 349.51C237.368 349.781 236.954 350.025 236.525 350.239C236.248 350.356 236.27 349.685 236.729 349.365C237.555 348.82 238.431 348.357 239.346 347.98C239.9 347.754 240.439 347.448 240.986 347.193C241.532 346.937 242.21 346.668 242.83 346.42L243.974 345.975L245.716 345.327C246.16 345.159 246.576 344.919 247.028 344.78C247.122 344.738 247.22 344.704 247.319 344.678C247.698 344.561 247.837 344.605 247.975 344.751L248.063 344.846C248.136 344.948 248.026 345.137 247.786 345.298C247.425 345.543 247.048 345.762 246.656 345.954C246.262 346.128 245.854 346.296 245.446 346.464L243.588 347.112L243.573 347.069Z" fill="#3A3A3A"/>
<path d="M244.725 348.87L243.209 349.358L242.662 349.555L240.694 350.16C240.403 350.254 240.118 350.364 239.841 350.473C239.485 350.625 239.12 350.754 238.748 350.859C238.515 350.925 238.683 350.539 239.076 350.32C239.781 349.949 240.512 349.63 241.263 349.365C241.707 349.205 242.159 348.994 242.611 348.811L244.069 348.236L244.994 347.886C245.461 347.711 245.942 347.565 246.401 347.368C246.751 347.222 247.086 347.04 247.429 346.873L247.662 346.778C247.968 346.69 248.077 346.705 248.194 346.822C248.224 346.842 248.251 346.867 248.274 346.895C248.34 346.982 248.274 347.12 248.07 347.274C247.801 347.504 247.502 347.698 247.181 347.849C246.868 348.017 246.54 348.163 246.212 348.316L245.483 348.629L244.717 348.892L244.725 348.87Z" fill="#3A3A3A"/>
<path d="M240.898 346.202L239.863 346.574L239.492 346.719C239.054 346.887 238.61 347.055 238.172 347.244C237.983 347.324 237.793 347.419 237.611 347.514C237.377 347.652 237.133 347.774 236.882 347.878C236.722 347.929 236.737 347.514 237.013 347.361C237.5 347.097 238.007 346.873 238.529 346.69C238.843 346.581 239.149 346.428 239.47 346.304C239.79 346.18 240.162 346.034 240.512 345.91L241.161 345.677L242.145 345.342L242.873 345.058L243.034 344.999C243.238 344.934 243.311 344.934 243.384 344.999C243.456 345.065 243.384 344.999 243.427 345.043C243.471 345.087 243.427 345.167 243.26 345.24C242.837 345.459 242.378 345.655 241.919 345.852L240.876 346.224L240.898 346.202Z" fill="#3A3A3A"/>
<path d="M244.535 351.42C244.142 351.515 243.755 351.602 243.376 351.704C243.23 351.741 243.107 351.814 242.968 351.85C242.474 351.963 241.987 352.106 241.51 352.28C241.307 352.361 241.113 352.466 240.935 352.593C240.713 352.778 240.468 352.933 240.206 353.053C240.024 353.111 239.681 352.36 239.958 352.09C240.448 351.677 241.023 351.376 241.642 351.209C242.006 351.114 242.334 350.917 242.691 350.8C243.048 350.684 243.478 350.56 243.872 350.451L244.601 350.247C244.96 350.151 245.313 350.031 245.658 349.889C245.914 349.759 246.158 349.605 246.386 349.43C246.437 349.394 246.481 349.35 246.532 349.321C246.729 349.204 246.824 349.241 247.013 349.503L247.137 349.678C247.201 349.759 247.236 349.859 247.236 349.962C247.236 350.065 247.201 350.166 247.137 350.247C246.726 350.639 246.226 350.927 245.679 351.085C245.293 351.23 244.892 351.333 244.506 351.449L244.535 351.42Z" fill="#3A3A3A"/>
<path d="M240.374 350.574L239.324 349.263C239.2 349.102 239.054 348.956 238.931 348.796L237.619 347.098C237.415 346.85 237.203 346.617 236.992 346.369C236.695 346.092 236.428 345.785 236.197 345.451C236.066 345.232 236.766 345.035 237.087 345.378C237.656 345.982 238.18 346.627 238.654 347.309C238.938 347.717 239.31 348.082 239.637 348.468L240.716 349.758L241.387 350.538C241.729 350.932 242.065 351.332 242.429 351.697C242.793 352.061 243.019 352.229 243.318 352.491L243.522 352.659C243.748 352.892 243.785 353.009 243.712 353.176L243.668 353.293C243.602 353.41 243.427 353.395 243.209 353.293C242.584 352.877 242.012 352.387 241.503 351.835C241.11 351.434 240.723 351.019 240.359 350.582L240.374 350.574Z" fill="#3A3A3A"/>
<path d="M241.751 348.388C241.474 348.016 241.204 347.659 240.949 347.251C240.862 347.105 240.745 346.981 240.658 346.836L239.717 345.32C239.575 345.099 239.419 344.887 239.251 344.686C239.02 344.443 238.826 344.168 238.675 343.869C238.595 343.672 239.338 343.447 239.586 343.738C240.03 344.257 240.42 344.818 240.752 345.414C240.97 345.768 241.213 346.104 241.481 346.42C241.751 346.792 242.028 347.149 242.29 347.535C242.451 347.769 242.618 347.995 242.793 348.213C243.048 348.556 243.32 348.884 243.609 349.197L244.338 349.853L244.499 349.992C244.688 350.181 244.71 350.276 244.63 350.451C244.613 350.491 244.594 350.53 244.572 350.567C244.499 350.691 244.338 350.706 244.149 350.611C243.575 350.336 243.063 349.949 242.64 349.474C242.312 349.132 242.013 348.745 241.722 348.403L241.751 348.388Z" fill="#3A3A3A"/>
<path d="M244.098 346.734C243.945 346.472 243.821 346.188 243.675 345.925C243.624 345.823 243.544 345.75 243.493 345.656C243.325 345.306 243.165 344.927 242.975 344.628C242.891 344.484 242.782 344.356 242.655 344.249C242.494 344.103 242.29 344.016 242.247 343.768C242.203 343.52 243.201 342.879 243.405 343.039C243.748 343.374 243.998 343.79 244.134 344.249C244.247 344.51 244.394 344.755 244.572 344.978L245.023 345.772C245.111 345.94 245.191 346.108 245.286 346.268C245.417 346.512 245.571 346.744 245.745 346.96C245.891 347.113 246.066 347.245 246.219 347.383L246.321 347.47C246.43 347.602 246.408 347.689 246.262 347.893L246.16 348.024C246.112 348.092 246.044 348.143 245.966 348.172C245.888 348.2 245.804 348.205 245.723 348.185C245.504 348.118 245.293 348.025 245.096 347.908C244.918 347.786 244.756 347.642 244.615 347.478C244.404 347.245 244.229 346.982 244.039 346.749L244.098 346.734Z" fill="#3A3A3A"/>
<path d="M231.62 56.6165L231.285 63.5259C231.248 64.3641 231.285 65.2096 231.219 66.0477C231.052 69.0069 230.877 71.966 230.775 74.9178C230.724 76.2297 230.775 77.5489 230.775 78.8536C230.775 80.5226 230.891 82.1917 230.775 83.868C230.738 84.3855 230.403 84.3345 230.046 83.9118C229.562 83.2798 229.276 82.5192 229.222 81.7252C228.982 78.2832 229.011 74.8276 229.31 71.3902C229.477 69.3275 229.426 67.1775 229.506 65.0638L229.783 58.1106L229.936 53.825C229.995 51.6385 230.06 49.4956 230.024 47.3528C230.024 45.6838 229.863 44.0585 229.761 42.4185C229.761 42.0614 229.71 41.6897 229.696 41.3399C229.623 39.9988 229.696 39.5615 230.111 39.2481C230.191 39.1689 230.279 39.0981 230.374 39.0367C230.673 38.8836 230.964 39.4157 231.146 40.4142C231.415 41.9161 231.597 43.4322 231.693 44.9549C231.81 46.5074 231.831 48.0744 231.824 49.6414C231.824 51.9664 231.737 54.306 231.664 56.631L231.62 56.6165Z" fill="#3A3A3A"/>
<path d="M305.868 187.255C305.77 194.986 306.052 202.717 306.713 210.447C306.954 213.261 307.289 216.067 307.624 218.865C308.812 228.749 310.678 238.544 312.602 248.362C313.462 252.735 314.337 257.108 315.19 261.394C316.261 266.947 317.325 272.538 317.915 278.157C318.09 279.914 317.915 279.702 317.434 278.259C316.717 275.864 316.136 273.431 315.692 270.971C314.665 265.308 313.448 259.681 312.303 254.018C311.159 248.355 310.007 242.677 308.98 236.941C307.755 230.082 306.443 222.932 305.627 215.841C304.713 208.04 304.209 200.196 304.118 192.343C304.06 187.513 304.145 182.683 304.373 177.853C304.716 170.565 305.416 163.276 305.919 156.032C306.319 150.42 306.531 144.909 306.56 139.37C306.56 138.146 306.56 136.958 306.56 135.726C306.494 131.171 306.56 129.728 306.997 128.722C307.078 128.491 307.18 128.269 307.303 128.059C307.639 127.592 308.091 129.443 308.302 132.818C308.849 142.84 307.996 153.371 307.165 163.852C306.545 171.651 305.977 179.442 305.94 187.248L305.868 187.255Z" fill="#3A3A3A"/>
<path d="M309.373 352.033C282.362 352.259 276.575 339.868 276.575 339.868C276.575 339.868 287.326 348.891 297.858 349.598C308.389 350.305 314.082 350.327 314.082 350.327L313.2 350.881C312.054 351.608 310.73 352.007 309.373 352.033Z" fill="#3A3A3A"/>
<path d="M245.366 354.38C245.366 354.38 227.4 350.575 229.229 344.511C231.059 338.447 246.35 342.624 248.821 344.344C248.821 344.344 235.833 342.988 235.519 346.53C235.17 350.371 245.366 354.38 245.366 354.38Z" fill="#3A3A3A"/>
<path d="M269.761 295.481C269.761 295.481 267.982 306.589 269.761 314.431C271.539 322.274 273.514 336.297 271.998 340.772C269.52 348.111 259.047 347.66 252.319 345.072C252.319 345.072 265.752 351.078 269.542 348.111C273.332 345.145 276.291 341.909 275.562 335.378C274.833 328.848 270.395 315.35 270.067 308.681C269.739 302.012 269.761 295.481 269.761 295.481Z" fill="#3A3A3A"/>
<path d="M230.213 270.257C230.709 262.494 231.066 254.688 231.358 246.933C231.431 244.091 231.511 241.248 231.584 238.406C231.868 228.392 231.97 218.37 231.737 208.356C231.693 206.133 231.591 203.91 231.511 201.687C231.431 199.464 231.285 197.248 231.117 195.047C231.015 193.64 230.913 192.219 230.818 190.805L230.476 186.563C230.192 183.743 230.002 180.915 229.747 178.087C229.608 176.323 229.747 176.549 230.104 178.006C230.773 180.44 231.273 182.916 231.598 185.419C231.933 188.334 232.254 191.191 232.473 194.092C232.691 196.993 232.83 199.923 232.961 202.795C233.224 208.625 233.267 214.456 233.216 220.287C233.151 227.276 233.129 234.558 232.925 241.708C232.706 249.565 232.356 257.429 231.955 265.279C231.686 270.111 231.365 274.95 230.906 279.768C230.25 287.056 229.346 294.381 228.493 301.633C227.837 307.245 227.254 312.756 226.861 318.302C226.795 319.527 226.715 320.722 226.671 321.946C226.402 326.509 226.423 327.945 226.117 328.951C226.066 329.175 226.003 329.396 225.928 329.614C225.818 329.84 225.695 329.49 225.549 328.659C225.483 328.244 225.403 327.704 225.33 327.056C225.257 326.407 225.25 325.649 225.221 324.803C225.221 323.542 225.184 322.274 225.221 320.999C225.257 319.723 225.337 318.448 225.439 317.165C225.622 314.607 225.862 312.019 226.168 309.432C226.722 304.25 227.371 299.01 227.983 293.769C228.88 285.978 229.71 278.15 230.17 270.315L230.213 270.257Z" fill="#3A3A3A"/>
<path d="M58.0744 282.472C58.5208 287.242 59.2313 291.985 60.2026 296.677C60.5671 298.39 61.019 300.073 61.4344 301.779C62.1632 304.76 63.0233 307.733 63.9926 310.649L67.0538 319.431C67.9576 322.048 68.8249 324.708 69.5319 327.376C69.9692 329.096 70.3992 330.823 70.7126 332.565C71.0325 334.308 71.2515 336.067 71.3686 337.835C71.4415 338.935 71.1645 338.826 70.7126 337.951C70.4276 337.365 70.1793 336.761 69.9692 336.144C69.6212 335.298 69.3433 334.426 69.1383 333.535C68.7374 331.8 68.322 330.08 67.8264 328.389C67.3308 326.698 66.8643 324.985 66.3031 323.287C65.2171 319.912 63.8906 316.589 62.7536 313.12C61.3615 309.031 59.9694 304.658 58.9272 300.328C57.7984 295.558 56.9395 290.728 56.3543 285.861C56.2013 284.359 56.0264 282.865 55.8952 281.364C55.764 279.862 55.6328 278.361 55.5745 276.859C55.2829 272.304 55.2684 267.727 55.3485 263.208C55.3485 261.452 55.436 259.71 55.4579 257.975C55.4797 256.24 55.6109 254.513 55.7567 252.778C55.8223 252.013 55.8733 251.27 55.9535 250.497C56.3179 247.662 56.6094 246.78 57.054 246.219C57.1435 246.087 57.2461 245.965 57.3601 245.854C57.6735 245.621 57.7829 246.802 57.7173 248.886C57.659 250.424 57.6298 251.991 57.5496 253.558C57.4695 255.125 57.4622 256.721 57.4257 258.325C57.3383 261.517 57.2508 264.761 57.3164 268.004C57.3747 272.822 57.6152 277.661 58.1254 282.464L58.0744 282.472Z" fill="#3A3A3A"/>
<path d="M75.6689 355.845C76.4709 355.967 77.2868 355.967 78.0887 355.845C92.928 352.12 104.713 357.936 105.056 357.805C105.23 357.753 105.379 357.637 105.472 357.48C105.565 357.324 105.596 357.138 105.559 356.96C105.493 356.821 105.4 356.697 105.284 356.595C105.169 356.494 105.034 356.417 104.888 356.369C99.9614 354.073 94.0213 352.499 88.5549 353.09C84.1763 353.562 79.8581 354.485 75.6689 355.845Z" fill="#3A3A3A"/>
<path d="M130.733 274.439C131.878 279.41 132.191 284.221 134.13 288.871C136.28 293.973 139.385 298.885 140.828 304.242C143.058 312.493 146.571 322.463 146.812 330.991C147.074 340.269 144.975 338.279 144.946 338.658C144.917 339.037 138.925 303.936 134.684 295.481C130.442 287.027 130.733 274.439 130.733 274.439Z" fill="#3A3A3A"/>
<path d="M104.67 308.666C104.67 309.009 107.826 330.415 109.852 336.049C111.878 341.683 112.942 349.248 111.674 352.12C110.406 354.991 110.136 353.723 110.136 353.723C110.136 353.723 108.336 334.773 107.009 327.776C105.683 320.779 104.67 308.666 104.67 308.666Z" fill="#3A3A3A"/>
<path d="M111.513 357.134C111.739 357.061 112.818 356.063 113.817 356.136C114.815 356.209 123.328 358.111 129.312 356.755C132.832 355.954 137.796 352.892 140.033 349.86C140.033 349.86 133.35 356.573 128.67 357.717C123.991 358.862 111.513 357.134 111.513 357.134Z" fill="#3A3A3A"/>
<path d="M100.143 198.195C100.253 201.147 100.471 204.077 100.712 207.029C100.792 208.108 100.916 209.179 100.982 210.258C101.259 214.074 101.259 217.906 100.982 221.723C100.858 223.421 100.624 225.104 100.406 226.774C100.119 228.907 99.813 231.035 99.4875 233.158C99.3854 233.821 99.247 233.719 99.1449 233.158C99.0237 232.19 99.0237 231.211 99.1449 230.243C99.7304 225.916 100.093 221.561 100.231 217.196C100.275 214.565 99.9977 211.825 99.779 209.135C99.5458 206.169 99.2761 203.195 99.1085 200.207C99.021 198.363 98.9409 196.563 98.7514 194.733C98.4817 191.978 98.11 189.223 97.6654 186.505C97.3155 184.391 96.8782 182.336 96.5211 180.244C96.4409 179.785 96.3534 179.333 96.2879 178.866C96.04 177.132 96.0546 176.571 96.2879 176.162C96.3332 176.068 96.3868 175.978 96.4482 175.893C96.645 175.696 96.9147 176.381 97.177 177.627C97.9788 181.323 98.6347 185.251 99.2543 189.231C99.6843 192.19 99.9831 195.193 100.173 198.203L100.143 198.195Z" fill="#3A3A3A"/>
<path d="M152.431 341.573C152.431 341.573 167.948 342.506 168.312 346.522C168.655 350.37 156.228 352.426 155.878 352.12C155.529 351.813 164.989 355.764 171.024 352.12C177.059 348.475 177.78 346.646 173.145 344.51C168.509 342.375 155.762 339.736 152.431 341.573Z" fill="#3A3A3A"/>
<path d="M164.894 292.071C164.495 290.363 164.2 288.632 164.012 286.889C163.83 285.176 163.655 283.456 163.546 281.736C163.276 278.303 163.159 274.863 163.087 271.423C163.043 268.915 162.984 266.408 163.006 263.908C163.094 255.082 163.538 246.292 163.611 237.502C163.611 233.603 163.56 229.689 163.342 225.841C163.116 220.899 162.387 215.95 162.088 210.979C161.993 209.427 162.343 209.595 162.853 210.863C163.64 212.947 164.164 215.121 164.413 217.335C164.712 219.871 164.989 222.437 165.142 224.988C165.295 227.539 165.346 230.09 165.375 232.655C165.419 237.757 165.288 242.859 165.076 248.012C164.828 254.149 164.763 260.519 164.777 266.773C164.747 273.643 165.105 280.51 165.849 287.341C166.133 289.416 166.541 291.473 167.073 293.499C167.584 295.54 168.167 297.581 168.757 299.614C170.557 305.773 172.481 311.946 174.223 318.091C175.586 322.872 176.927 327.566 177.868 332.427C178.05 333.498 178.232 334.555 178.421 335.641C178.611 336.727 178.611 337.507 178.677 338.214C178.726 338.801 178.726 339.391 178.677 339.978C178.673 340.65 178.519 341.312 178.225 341.917C178.135 342.117 178.025 342.307 177.897 342.485C177.707 342.675 177.525 342.354 177.372 341.632C177.292 341.275 177.226 340.816 177.161 340.262C177.095 339.708 177.022 339.074 176.913 338.353C175.798 329.803 173.166 320.948 170.535 312.114C168.582 305.518 166.432 298.944 164.792 292.129L164.894 292.071Z" fill="#3A3A3A"/>
<path d="M155.171 154.282C154.637 150.827 154.083 147.37 153.51 143.91L152.825 140.142L150.587 126.819C150.244 124.844 149.858 122.876 149.45 120.93C148.969 118.43 148.386 115.93 148.153 113.379C148.08 112.585 148.43 112.65 148.882 113.226C149.599 114.157 150.098 115.238 150.339 116.389L151.17 120.201C151.433 121.476 151.651 122.759 151.899 124.042C152.351 126.615 152.774 129.195 153.145 131.79C153.597 134.902 154.275 138.101 154.829 141.265C155.436 144.749 156.019 148.235 156.578 151.724C156.921 153.91 157.256 156.016 157.599 158.167L157.978 160.608L158.16 161.804C158.233 162.197 158.284 162.583 158.386 162.977C158.743 164.551 159.224 166.118 159.705 167.678C160.434 170.105 161.316 172.459 161.891 174.966C162.03 175.513 162.161 176.052 162.256 176.621C162.606 178.735 162.38 179.536 161.87 179.923C161.764 180.026 161.647 180.116 161.52 180.192C161.323 180.265 161.155 180.09 161.031 179.726C160.883 179.2 160.771 178.664 160.696 178.122C160.266 175.928 159.704 173.762 159.013 171.636C158.342 169.449 157.599 167.19 156.95 164.85C156.697 163.958 156.49 163.053 156.33 162.139L155.922 159.522L155.084 154.289L155.171 154.282Z" fill="#3A3A3A"/>
<path d="M140.15 57.367C139.866 54.8744 139.596 52.3744 139.37 49.8672C139.29 48.9562 139.159 48.0451 139.093 47.134C138.86 43.9077 138.767 40.6692 138.816 37.4185V35.232L138.903 33.0454C138.964 31.198 139.238 29.3637 139.72 27.5791C139.88 27.0252 140.128 27.1637 140.339 27.6957C140.634 28.4788 140.732 29.3223 140.624 30.1519C140.317 33.7962 140.164 37.4404 140.164 41.1575C140.164 42.2726 140.223 43.4096 140.31 44.5539C140.398 45.6982 140.507 46.8425 140.609 47.9795C140.835 50.4794 141.09 52.9794 141.389 55.4866L141.95 60.1002C142.256 62.4325 142.548 64.7794 142.89 67.0899C143.16 68.8828 143.495 70.632 143.787 72.4104C143.852 72.7967 143.925 73.183 143.976 73.5766C144.166 75.0343 144.115 75.5299 143.75 75.887C143.673 75.9726 143.587 76.0506 143.495 76.1203C143.204 76.2952 142.876 75.7267 142.664 74.6626C142.045 71.5212 141.549 68.1904 141.075 64.8304C140.745 62.3281 140.412 59.8233 140.077 57.316L140.15 57.367Z" fill="#3A3A3A"/>
<path d="M139.581 91.0039C138.852 91.0039 138.204 92.8989 137.985 93.4164C137.256 95.1656 137.599 97.7166 139.909 96.4557C141.177 95.7268 138.291 95.5665 139.18 93.2925C140.07 91.0185 139.589 91.0112 139.581 91.0039Z" fill="#3A3A3A"/>
<path d="M139.589 95.7702C139.589 95.7702 136.739 100.027 138.35 101.499C139.96 102.971 141.994 101.499 141.994 101.499C141.994 101.499 138.43 101.565 139.946 98.2774C141.462 94.9904 140.675 95.7702 140.675 95.7702H139.589Z" fill="#3A3A3A"/>
<path d="M141.134 101.44C141.134 101.44 139.589 105.354 142.03 106.812C143.794 107.861 145.558 105.675 145.558 105.675C145.558 105.675 141.695 105.58 142.643 102.854C143.59 100.128 142.577 100.806 142.577 100.806L141.134 101.44Z" fill="#3A3A3A"/>
<path d="M158.24 200.353C158.24 200.353 157.817 201.941 159.698 202.787C161.578 203.632 164.187 202.401 164.187 202.401C164.187 202.401 160.623 202.838 159.814 201.606L159.005 200.374L158.24 200.353Z" fill="#3A3A3A"/>
<path d="M159.377 200.352C155.733 201.635 154.603 197.313 155.361 197.24L157.212 197.051C157.212 197.051 155.754 198.982 158.342 199.733L159.377 200.352Z" fill="#3A3A3A"/>
<path d="M156.316 184.938C156.316 184.938 158.998 186.06 158.91 187.022C158.823 187.984 153.524 190.207 152.62 192.816C151.717 195.426 153.291 196.803 154.77 197.24C154.77 197.24 152.846 193.91 155.069 192.175C157.292 190.44 162.146 188.378 162.474 187.022C162.977 184.938 156.316 184.938 156.316 184.938Z" fill="#3A3A3A"/>
<path d="M156.87 111.514C156.87 111.514 161.636 110.209 162.555 114.087C163.473 117.964 164.362 124.924 166.585 124.852C168.808 124.779 169.69 121.601 170.033 117.767C170.375 113.933 175.339 107.658 179.508 106.157C183.677 104.655 194.296 102.25 199.638 106.157C204.981 110.063 208.385 113.409 206.322 119.823C204.259 126.236 197.984 139.13 201.781 143.729C205.578 148.328 215.053 149.465 216.744 148.831C217.652 148.497 218.577 148.209 219.514 147.971C219.514 147.971 215.935 146.469 216.599 143.7C217.262 140.93 217.517 138.168 222.007 131.958C226.496 125.748 228.289 116.317 223.989 109.568C219.616 102.702 212.021 100.202 204.055 100.909C203.982 100.909 203.968 92.9646 197.612 87.7242C190.739 82.0683 176.767 78.3658 161.651 89.1381C154.034 94.568 156.695 96.638 156.826 103.533C156.957 110.428 157.103 112.024 157.103 112.024" fill="#3A3A3A"/>
<path d="M186.927 155.536C185.031 156.82 182.988 157.872 180.841 158.67C180.062 158.978 179.266 159.243 178.458 159.464C175.593 160.157 172.616 160.253 169.712 159.749C169.078 159.625 168.436 159.544 167.81 159.37C167.179 159.238 166.556 159.072 165.944 158.874C165.55 158.75 165.157 158.633 164.77 158.495L163.626 158.021C162.873 157.695 162.153 157.297 161.476 156.833C161.053 156.549 161.294 156.272 161.84 156.104C162.574 155.965 163.332 156.036 164.027 156.308C164.756 156.571 165.485 156.862 166.25 157.037C167.015 157.212 167.708 157.489 168.487 157.686C170.008 158.055 171.56 158.275 173.123 158.342C175.061 158.365 176.989 158.054 178.822 157.424C180.871 156.784 182.83 155.887 184.653 154.756C185.792 154.049 186.89 153.278 187.94 152.445C189.532 151.166 191.012 149.755 192.364 148.225C192.882 147.635 193.363 147.016 193.822 146.381C194.281 145.747 194.733 145.128 195.185 144.486L195.761 143.641C196.49 142.606 196.869 142.358 197.335 142.329C197.439 142.319 197.544 142.319 197.649 142.329C197.947 142.38 197.875 142.956 197.466 143.852C196.8 145.173 196.033 146.44 195.17 147.642C194.244 148.852 193.244 150.004 192.175 151.09C190.56 152.725 188.799 154.209 186.913 155.521L186.927 155.536Z" fill="#3A3A3A"/>
<path d="M204.004 111.119C202.98 109.753 201.659 108.636 200.141 107.854C198.519 107.041 196.806 106.423 195.039 106.01C191.483 105.097 187.767 104.993 184.165 105.704C181.588 106.274 179.168 107.406 177.081 109.02C175.239 110.463 173.669 112.223 172.445 114.217C172.168 114.727 171.833 115.267 171.592 115.74C171.362 116.219 171.198 116.726 171.104 117.249C170.928 118.424 170.83 119.61 170.812 120.799C170.794 122.171 170.473 123.522 169.872 124.756C169.689 125.096 169.463 125.412 169.202 125.696C168.891 126.015 168.516 126.263 168.101 126.425C167.668 126.574 167.204 126.61 166.753 126.527C166.357 126.455 165.978 126.314 165.63 126.112C164.391 125.389 163.439 124.262 162.934 122.919C162.668 122.28 162.496 121.604 162.423 120.915L162.27 119.057C162.201 118.003 162.055 116.955 161.833 115.923C161.658 114.971 161.241 114.08 160.623 113.335C160.318 113.025 159.94 112.795 159.524 112.668C159.108 112.54 158.666 112.519 158.24 112.606C157.77 112.685 157.309 112.807 156.862 112.971C156.43 113.162 156.023 113.407 155.652 113.7C154.707 114.538 153.988 115.601 153.563 116.791C153.137 117.981 153.019 119.259 153.218 120.507C153.426 121.735 154.021 122.864 154.916 123.728C155.377 124.163 155.888 124.54 156.44 124.851C157.017 125.151 157.623 125.395 158.247 125.58C159.836 126.01 159.639 126.309 158.079 126.396C156.967 126.4 155.867 126.151 154.865 125.667C153.31 124.922 152.111 123.595 151.527 121.972C150.997 120.385 150.908 118.684 151.269 117.05C151.629 115.416 152.427 113.91 153.575 112.694C154.175 112.061 154.877 111.534 155.652 111.134C156.05 110.933 156.468 110.775 156.899 110.66C157.321 110.556 157.75 110.478 158.182 110.427C158.905 110.356 159.636 110.428 160.332 110.638C160.572 110.733 160.805 110.842 161.06 110.952C161.909 111.439 162.601 112.157 163.058 113.022C163.754 114.469 164.174 116.034 164.297 117.635C164.377 118.364 164.428 119.093 164.471 119.822L164.515 120.339C164.515 120.514 164.515 120.682 164.559 120.806C164.583 121.114 164.637 121.419 164.719 121.717C165.008 122.798 165.692 123.732 166.636 124.333C166.797 124.439 166.978 124.509 167.168 124.538C167.286 124.559 167.407 124.538 167.511 124.479C167.892 124.2 168.175 123.807 168.32 123.357C168.881 122.074 168.823 120.376 168.947 118.561C168.997 117.601 169.166 116.651 169.449 115.733C169.609 115.262 169.814 114.808 170.062 114.377L170.732 113.182C172.162 110.686 174.121 108.534 176.472 106.876C178.823 105.219 181.508 104.098 184.34 103.59C186.314 103.217 188.326 103.09 190.331 103.211C192.318 103.321 194.289 103.633 196.213 104.144C198.162 104.632 200.04 105.367 201.803 106.331C202.364 106.644 202.845 107.06 203.363 107.388C203.862 107.778 204.332 108.204 204.769 108.663C205.216 109.113 205.624 109.601 205.987 110.121L206.475 110.959C206.635 111.236 206.737 111.549 206.876 111.841C207.716 114.237 207.83 116.829 207.204 119.29C206.438 122.934 204.937 126.258 203.756 129.625C203.144 131.287 202.657 132.992 202.299 134.727C201.918 136.402 201.869 138.135 202.153 139.829C202.385 141.101 202.881 142.31 203.61 143.378C204.354 144.42 205.305 145.299 206.402 145.958C208.668 147.25 211.243 147.9 213.851 147.839C214.999 147.835 216.145 147.732 217.276 147.533C218.174 147.387 219.062 147.189 219.937 146.942L221.73 146.454C222.41 146.226 223.119 146.094 223.836 146.06C224.078 146.039 224.322 146.039 224.565 146.06C224.856 146.111 224.638 146.439 223.967 146.986C222.915 147.774 221.744 148.389 220.498 148.808C218.012 149.657 215.39 150.037 212.765 149.931C209.981 149.851 207.271 149.025 204.915 147.54C203.695 146.727 202.639 145.691 201.803 144.486C200.979 143.258 200.4 141.882 200.097 140.434C199.624 137.633 199.837 134.76 200.717 132.059C201.796 128.189 203.414 124.647 204.456 121.075C205.017 119.373 205.324 117.598 205.367 115.806C205.377 114.975 205.261 114.147 205.024 113.35C204.912 112.962 204.769 112.584 204.594 112.22C204.507 112.038 204.398 111.87 204.296 111.695C204.205 111.512 204.095 111.338 203.968 111.178L204.004 111.119Z" fill="#3A3A3A"/>
<path d="M226.453 106.039C227.582 107.676 228.457 109.475 229.047 111.374C229.337 112.314 229.559 113.274 229.711 114.246C229.875 115.21 229.977 116.184 230.017 117.161C230.017 117.89 230.017 118.583 230.017 119.29C230.017 119.997 229.907 120.704 229.842 121.403C229.46 123.861 228.737 126.253 227.692 128.51C227.415 129.056 227.174 129.632 226.861 130.164L225.942 131.753C225.265 132.803 224.536 133.743 223.821 134.668C222.555 136.308 221.422 138.045 220.432 139.865C219.842 140.976 219.398 142.16 219.113 143.385C218.977 143.946 218.918 144.522 218.938 145.098C218.931 145.661 219.022 146.221 219.208 146.753C219.507 147.394 219.208 147.649 218.384 147.27C217.826 146.969 217.355 146.53 217.014 145.995C216.58 145.214 216.407 144.315 216.518 143.429C216.606 142.634 216.803 141.854 217.102 141.111C217.37 140.408 217.681 139.721 218.034 139.056C218.727 137.792 219.501 136.575 220.352 135.412C221.176 134.267 222.036 133.182 222.859 132.103C223.275 131.571 223.676 131.039 224.04 130.507L225.097 128.845C226.649 125.998 227.557 122.846 227.757 119.61C227.891 117.84 227.798 116.059 227.48 114.312L227.371 113.656C227.32 113.437 227.254 113.226 227.196 113.014L226.839 111.732C226.547 110.897 226.199 110.084 225.797 109.297C224.021 105.845 221.143 103.085 217.619 101.455C216.085 100.812 214.459 100.416 212.801 100.281C210.22 100.132 207.63 100.338 205.105 100.894C204.536 101.003 203.997 101.141 203.428 101.251C202.688 101.445 201.927 101.552 201.162 101.571C200.776 101.597 200.39 101.516 200.047 101.338C199.919 101.278 199.794 101.21 199.675 101.134C199.398 100.901 200.178 100.362 201.694 99.7566C204.057 98.9536 206.501 98.4086 208.982 98.1313C211.646 97.8198 214.345 98.0327 216.927 98.7581C217.408 98.933 217.903 99.0715 218.384 99.2756C218.865 99.4797 219.339 99.6764 219.784 99.9388C220.674 100.432 221.526 100.99 222.335 101.608C222.744 101.903 223.131 102.227 223.494 102.577C223.858 102.927 224.222 103.241 224.601 103.612C225.295 104.348 225.936 105.132 226.518 105.959L226.453 106.039Z" fill="#3A3A3A"/>
<path d="M164.224 85.4284C166.079 84.2113 168.079 83.2318 170.178 82.513C172.258 81.8086 174.405 81.3202 176.585 81.0553C177.379 80.9678 178.174 80.8658 178.968 80.8294C179.759 80.7674 180.552 80.7528 181.344 80.7856C184.138 80.8716 186.91 81.295 189.602 82.0465C190.273 82.2506 190.936 82.462 191.599 82.6806C192.262 82.8993 192.933 83.1762 193.56 83.4969C194.846 84.0987 196.068 84.8314 197.204 85.6835C199.217 87.1725 200.964 88.9911 202.372 91.0624C203.781 93.0391 204.685 95.3315 205.003 97.7386C205.088 98.5351 205.1 99.3377 205.039 100.136C204.959 101.135 204.543 100.96 204.048 100.18C203.8 99.7939 203.538 99.2619 203.21 98.6569C202.881 97.9882 202.589 97.3021 202.335 96.6016C201.344 93.9024 199.778 91.451 197.746 89.4173C195.713 87.3835 193.263 85.816 190.564 84.8234C187.054 83.604 183.343 83.072 179.632 83.2564C175.546 83.3072 171.52 84.2448 167.831 86.0042C165.581 87.1169 163.552 88.6282 161.84 90.4647C160.527 91.8164 159.481 93.4039 158.757 95.1439C158.063 96.895 157.74 98.7714 157.81 100.654C157.81 102.112 158.05 103.569 158.225 105.107C158.487 106.687 158.465 108.302 158.16 109.874C157.99 110.62 157.692 111.33 157.278 111.973C156.748 112.823 155.99 113.507 155.091 113.948C154.684 114.179 154.204 114.244 153.75 114.13C153.585 114.097 153.423 114.045 153.269 113.977C153.072 113.853 153.153 113.591 153.444 113.248C153.59 113.074 153.787 112.877 153.998 112.636L154.362 112.272C154.479 112.141 154.603 111.995 154.741 111.856C155.126 111.444 155.443 110.975 155.682 110.464C155.92 109.961 156.073 109.422 156.134 108.868C156.243 107.609 156.199 106.341 156.002 105.093C155.849 103.73 155.645 102.294 155.609 100.785C155.549 99.2323 155.696 97.6784 156.046 96.1643C156.332 95.0212 156.745 93.9138 157.278 92.8626C157.813 91.8296 158.45 90.8529 159.18 89.9472C160.608 88.178 162.29 86.6305 164.173 85.3555L164.224 85.4284Z" fill="#3A3A3A"/>
<path d="M166.301 293.36C165.855 291.507 165.51 289.631 165.266 287.741C165.084 285.875 164.865 284.017 164.756 282.151C164.457 278.419 164.333 274.687 164.275 270.963C164.231 268.244 164.165 265.526 164.209 262.814C164.348 253.252 164.88 243.74 164.872 234.236C164.872 230.024 164.741 225.774 164.34 221.635C163.888 216.292 163.043 210.935 162.824 205.52C162.766 203.836 163.203 204.026 163.801 205.396C164.716 207.632 165.328 209.98 165.623 212.378C165.98 215.111 166.352 217.845 166.614 220.607C166.76 221.992 166.848 223.384 166.928 224.783L167.073 228.945C167.212 234.499 167.073 240.053 166.848 245.606C166.563 252.246 166.476 259.148 166.476 265.919C166.396 273.346 166.779 280.77 167.62 288.149C167.973 290.389 168.437 292.61 169.012 294.803C169.581 296.99 170.193 299.228 170.82 301.429C172.722 308.119 174.69 314.847 176.33 321.581C177.591 326.829 178.808 332.004 179.165 337.426C179.252 338.622 179.276 339.821 179.238 341.02C179.21 342.643 178.927 344.251 178.4 345.786C178.226 346.194 178.019 346.586 177.78 346.96C177.58 347.219 177.333 347.439 177.051 347.608C176.856 347.766 176.641 347.896 176.41 347.995C176.111 348.075 176.053 347.659 176.184 346.909C176.315 346.158 176.527 345.006 176.723 343.512C176.953 341.212 176.953 338.895 176.723 336.595C176.505 334.241 176.148 331.865 175.696 329.475C174.785 324.693 173.568 319.868 172.241 315.051C170.302 307.879 168.036 300.751 166.235 293.382L166.301 293.36Z" fill="#3A3A3A"/>
<path d="M155.361 152.103C154.8 148.372 154.224 144.64 153.604 140.923C153.386 139.56 153.087 138.211 152.876 136.856L150.514 122.483C150.15 120.355 149.72 118.234 149.29 116.142C148.688 113.454 148.243 110.733 147.956 107.994C147.89 107.133 148.32 107.17 148.911 107.797C149.767 108.757 150.362 109.922 150.638 111.179L151.542 115.289C151.826 116.66 152.059 118.044 152.271 119.429C152.752 122.199 153.196 124.976 153.575 127.782C154.034 131.142 154.785 134.582 155.375 137.986C156.022 141.737 156.644 145.495 157.241 149.261C157.606 151.579 157.97 153.896 158.327 156.214C158.612 157.971 158.823 159.734 159.173 161.433C159.523 163.131 159.938 164.88 160.346 166.593C160.98 169.268 161.738 171.855 162.263 174.559C162.38 175.157 162.504 175.74 162.584 176.352C162.883 178.633 162.642 179.457 161.986 179.902C161.85 180.014 161.701 180.109 161.542 180.186C161.294 180.266 161.082 180.069 160.922 179.683C160.728 179.12 160.591 178.539 160.514 177.948C160.135 175.66 159.581 173.284 159.005 170.857C158.429 168.429 157.839 165.944 157.249 163.459C157.037 162.526 156.833 161.586 156.651 160.602C156.469 159.618 156.352 158.699 156.199 157.745L155.31 152.111L155.361 152.103Z" fill="#3A3A3A"/>
<path d="M140.463 56.6094C140.354 53.5264 140.288 50.4506 140.245 47.3676C140.245 46.2452 140.165 45.1228 140.165 44.0004C140.201 40.0354 140.325 36.0705 140.595 32.1056L140.762 29.4672C140.799 28.5853 140.857 27.7034 140.937 26.8287L141.083 25.1378C141.149 24.5766 141.236 24.0154 141.316 23.4542C141.392 22.8904 141.496 22.3309 141.63 21.7778C141.768 21.2239 141.958 20.6773 142.147 20.1379C142.388 19.4601 142.774 19.6715 143.102 20.3566C143.295 20.7759 143.439 21.2161 143.532 21.6685C143.581 21.9379 143.608 22.211 143.612 22.4848C143.641 22.7878 143.641 23.0929 143.612 23.3959L143.444 25.0504C143.386 25.597 143.371 26.1655 143.328 26.7194C143.284 27.2733 143.218 27.8273 143.16 28.3885L143.036 30.0648L142.89 31.7485L142.774 33.4467L142.511 36.8504C142.409 38.2133 142.38 39.6054 142.402 41.0121C142.424 42.4188 142.446 43.8254 142.475 45.2248C142.475 48.3005 142.577 51.3836 142.694 54.4666C142.752 56.3616 142.854 58.2639 142.949 60.1589C143.124 63.0232 143.284 65.9095 143.576 68.752C143.809 70.9385 144.188 73.125 144.523 75.3116C144.603 75.7853 144.676 76.2518 144.756 76.7693C145.004 78.5622 144.909 79.1453 144.326 79.6045C144.205 79.7216 144.07 79.8244 143.925 79.9106C143.459 80.1438 142.978 79.4514 142.686 78.1468C141.858 74.1362 141.298 70.0748 141.01 65.9896C140.748 62.8993 140.58 59.7944 140.42 56.6896L140.463 56.6094Z" fill="#3A3A3A"/>
<path d="M149.909 102.549C148.981 103.563 147.98 104.508 146.914 105.377C146.497 105.749 146.043 106.077 145.558 106.353L145.157 106.521C145.026 106.579 144.822 106.616 144.654 106.667C144.315 106.747 143.964 106.762 143.619 106.711C143.284 106.655 142.967 106.52 142.694 106.317C142.422 106.114 142.202 105.849 142.052 105.544C141.899 105.247 141.796 104.927 141.746 104.597C141.701 104.335 141.684 104.068 141.695 103.803C141.718 103.324 141.794 102.85 141.921 102.389C142.109 101.572 142.424 100.79 142.854 100.071C143.389 99.2216 144.118 98.5121 144.982 98.0009C145.237 97.8479 145.485 98.1467 145.594 98.6131C145.734 99.1341 145.663 99.689 145.398 100.158C145.259 100.341 145.142 100.523 145.026 100.698C144.93 100.865 144.823 101.026 144.705 101.179C144.503 101.47 144.335 101.783 144.202 102.112C143.939 102.771 143.777 103.466 143.721 104.174C143.706 104.219 143.7 104.266 143.705 104.313C143.711 104.36 143.727 104.405 143.752 104.445C143.777 104.485 143.811 104.519 143.851 104.544C143.891 104.569 143.937 104.585 143.984 104.59C144.082 104.595 144.179 104.574 144.268 104.531C144.458 104.436 144.641 104.326 144.814 104.203C145.791 103.461 146.692 102.623 147.504 101.703C148.024 101.134 148.51 100.535 148.962 99.9105C149.662 99.0097 150.2 97.9935 150.55 96.9076C150.664 96.5868 150.694 96.242 150.637 95.9064C150.579 95.5708 150.437 95.2555 150.222 94.9908C150.157 94.9106 150.04 94.8814 149.967 94.8158C149.895 94.7502 149.836 94.7065 149.763 94.6555C149.716 94.5704 149.689 94.4757 149.683 94.3785C149.637 94.1377 149.637 93.8905 149.683 93.6497C149.683 93.5039 149.683 93.3582 149.734 93.227C149.756 93.1154 149.804 93.0105 149.873 92.9207C149.943 92.8308 150.032 92.7585 150.135 92.7095C150.436 92.5532 150.785 92.5168 151.112 92.6074C151.742 92.8709 152.273 93.3277 152.628 93.9121C152.978 94.5066 153.166 95.1826 153.174 95.8727C153.163 96.9875 152.888 98.0838 152.373 99.0723C151.707 100.343 150.89 101.527 149.938 102.6L149.909 102.549Z" fill="#3A3A3A"/>
<path d="M141.17 100.005H141.221L141.411 99.9175C141.542 99.8592 141.666 99.8228 141.797 99.7499C142.062 99.6104 142.32 99.4571 142.57 99.2907C143.086 98.939 143.573 98.5466 144.027 98.1173C144.384 97.8039 144.683 97.4322 145.026 97.0969C145.634 96.4952 146.21 95.8627 146.753 95.2019C147.03 94.8666 147.292 94.5314 147.533 94.1815C147.763 93.8658 147.975 93.5373 148.167 93.1976C148.406 92.535 148.511 91.8311 148.473 91.1276C148.463 90.7168 148.377 90.3114 148.218 89.9323C148.05 89.6262 147.999 89.546 147.686 89.4294C147.511 89.3711 147.373 88.9703 147.686 88.5548C147.788 88.4174 147.923 88.3075 148.078 88.235C148.233 88.1625 148.404 88.1296 148.575 88.1394C148.821 88.1577 149.059 88.2331 149.27 88.3597C149.481 88.4862 149.66 88.6603 149.792 88.8682C150.162 89.4783 150.379 90.1682 150.427 90.8798C150.477 91.4802 150.457 92.0843 150.368 92.6801C150.328 92.9888 150.263 93.2935 150.171 93.5911C150.121 93.7752 150.058 93.9554 149.982 94.1305L149.763 94.5459C149.473 95.0279 149.139 95.4817 148.765 95.9016C147.912 96.8928 147.169 97.9934 146.243 98.9555C145.215 100.039 144.019 100.95 142.701 101.652L142.037 101.951L141.141 102.213C140.839 102.274 140.527 102.254 140.235 102.155C139.943 102.057 139.683 101.883 139.479 101.652C139.183 101.286 138.993 100.844 138.933 100.377C138.903 100.171 138.886 99.9645 138.882 99.7572C138.888 99.5572 138.905 99.3577 138.933 99.1595C139.082 98.4398 139.361 97.7533 139.756 97.1333C140.277 96.2132 140.901 95.355 141.615 94.5751C141.775 94.4147 141.921 94.2398 142.103 94.0868C142.832 93.5911 143.145 93.5693 143.517 93.7734C143.602 93.8107 143.683 93.8572 143.758 93.9118C143.984 94.094 143.867 94.4876 143.568 95.0051C143.344 95.3842 143.101 95.7515 142.839 96.1057C142.613 96.4701 142.38 96.8345 142.154 97.1625C141.719 97.7721 141.382 98.4459 141.156 99.1595C141.098 99.3348 141.059 99.5156 141.039 99.6989C141.039 99.9831 141.039 99.8884 141.039 99.9175C141.039 99.9467 141.039 99.9977 141.119 99.9613L141.17 100.005Z" fill="#3A3A3A"/>
<path d="M140.952 94.3635H140.995H141.068C141.128 94.3778 141.19 94.3778 141.25 94.3635C141.441 94.2986 141.619 94.1998 141.775 94.072C142.231 93.6919 142.653 93.2724 143.036 92.8184C143.349 92.4612 143.685 91.9875 144.064 91.6304C145.412 90.3768 146.775 89.4438 147.271 87.9861C147.387 87.6763 147.446 87.3478 147.446 87.0168C147.437 86.6824 147.381 86.3511 147.278 86.0328C147.178 85.6602 146.985 85.319 146.717 85.0416C146.615 84.9357 146.488 84.8568 146.348 84.8123C146.208 84.7677 146.059 84.7589 145.915 84.7865C145.696 84.7865 145.514 84.5095 145.674 84.0577C145.729 83.919 145.813 83.7941 145.922 83.692C146.03 83.5899 146.16 83.5132 146.301 83.4673C146.515 83.3967 146.742 83.3764 146.964 83.408C147.187 83.4397 147.399 83.5223 147.584 83.6495C148.154 84.0828 148.58 84.6769 148.809 85.355C149.021 85.9486 149.125 86.5758 149.115 87.2063C149.05 88.4406 148.561 89.6146 147.73 90.5298C146.833 91.5429 145.959 92.454 145.237 93.3359C144.516 94.2178 143.721 95.6973 141.943 96.3824C141.657 96.4605 141.364 96.5094 141.068 96.5282C140.756 96.5166 140.448 96.4525 140.157 96.3387C139.599 96.1138 139.139 95.6979 138.86 95.1653C138.492 94.4543 138.381 93.6381 138.546 92.8548C138.609 92.4916 138.707 92.1352 138.838 91.7907C138.982 91.463 139.145 91.1442 139.326 90.8359C139.875 89.9036 140.58 89.0727 141.411 88.3797C141.593 88.2339 141.768 88.0809 141.965 87.9497C142.694 87.527 143.051 87.5561 143.422 87.9497C143.513 88.0441 143.599 88.1439 143.677 88.2485C143.785 88.4502 143.816 88.6844 143.764 88.9071C143.711 89.1298 143.58 89.3258 143.393 89.4584C142.803 90.0342 142.263 90.5808 141.79 91.1275C141.36 91.6217 141.029 92.1931 140.813 92.8111C140.691 93.157 140.661 93.5287 140.726 93.8898C140.751 93.9408 140.771 93.9946 140.784 94.0501C140.82 94.0501 140.828 94.1376 140.85 94.1522C140.871 94.1667 140.85 94.2105 140.893 94.1959C140.937 94.1813 140.893 94.1959 140.937 94.1959L140.952 94.3635Z" fill="#3A3A3A"/>
<path d="M156.119 191.162C157.372 190.382 158.641 189.704 159.843 188.975C160.432 188.638 161.001 188.268 161.549 187.867C161.794 187.683 162.025 187.48 162.241 187.263C162.381 187.119 162.497 186.954 162.584 186.774C162.605 186.718 162.605 186.656 162.584 186.599C162.567 186.592 162.55 186.587 162.533 186.585L162.358 186.432L162.256 186.344C161.955 186.114 161.61 185.948 161.243 185.856C160.414 185.641 159.567 185.5 158.714 185.433C157.817 185.353 156.906 185.28 155.966 185.142C155.474 185.085 154.987 184.995 154.508 184.872C153.851 184.757 153.258 184.407 152.839 183.888C152.677 183.584 152.61 183.238 152.646 182.895C152.683 182.552 152.821 182.228 153.043 181.964C153.348 181.519 153.717 181.121 154.136 180.783C155.546 179.739 157.22 179.113 158.969 178.976C161.11 178.671 163.293 178.922 165.31 179.704C165.936 179.967 165.754 180.142 165.164 180.229C164.261 180.358 163.35 180.428 162.438 180.441C161.432 180.441 160.434 180.492 159.464 180.608C158.516 180.723 157.586 180.956 156.695 181.301C155.891 181.593 155.181 182.097 154.639 182.758L154.559 182.846L154.515 182.889C154.507 182.91 154.502 182.932 154.502 182.955C154.502 182.978 154.507 183 154.515 183.021C154.539 183.065 154.574 183.103 154.617 183.13C154.617 183.13 154.741 183.174 154.792 183.203L155.113 183.29C156.243 183.56 157.562 183.589 158.881 183.757C159.544 183.83 160.222 183.917 160.915 184.063C161.666 184.196 162.386 184.47 163.036 184.872C163.156 184.958 163.271 185.053 163.378 185.156L163.422 185.2C163.614 185.348 163.781 185.525 163.917 185.725C164.089 185.938 164.211 186.187 164.275 186.454C164.319 186.717 164.311 186.987 164.249 187.248C164.188 187.508 164.075 187.753 163.917 187.969C163.456 188.592 162.886 189.125 162.234 189.544C161.075 190.375 159.872 191.038 158.699 191.73C157.97 192.175 157.198 192.627 156.512 193.108C156.17 193.344 155.844 193.602 155.536 193.88C155.391 194.01 155.254 194.148 155.128 194.296C155.026 194.414 154.936 194.541 154.858 194.675C154.812 194.751 154.784 194.836 154.776 194.924C154.769 195.013 154.782 195.102 154.814 195.184C154.847 195.267 154.898 195.341 154.964 195.4C155.029 195.46 155.108 195.503 155.193 195.528C155.431 195.592 155.676 195.622 155.922 195.615C156.228 195.605 156.532 195.573 156.833 195.52C158.094 195.265 159.318 194.854 160.477 194.296C162.261 193.479 163.903 192.382 165.339 191.045C165.595 190.77 165.815 190.464 165.995 190.134C166.205 189.713 166.362 189.268 166.461 188.808C166.487 188.663 166.529 188.521 166.585 188.385C166.616 188.265 166.663 188.15 166.724 188.042C166.771 187.942 166.824 187.845 166.884 187.751C166.979 187.627 167.117 187.707 167.328 188.006C167.641 188.48 167.794 189.042 167.766 189.609C167.722 190.184 167.563 190.744 167.299 191.257C167.036 191.743 166.716 192.195 166.345 192.605C165.63 193.35 164.813 193.988 163.917 194.5C162.212 195.594 160.362 196.445 158.422 197.029C157.633 197.265 156.818 197.402 155.995 197.437C155.44 197.464 154.886 197.372 154.37 197.168C154.206 197.107 154.054 197.021 153.918 196.912C153.772 196.819 153.637 196.709 153.517 196.584C153.394 196.462 153.291 196.322 153.211 196.169C153.145 196.016 153.087 195.856 153.007 195.703C152.924 195.362 152.911 195.009 152.967 194.664C153.024 194.318 153.149 193.987 153.335 193.691C153.581 193.287 153.888 192.923 154.246 192.612C154.838 192.095 155.472 191.627 156.141 191.213L156.119 191.162Z" fill="#3A3A3A"/>
<path d="M160.455 198.333C161.408 198.208 162.343 197.981 163.247 197.656C163.582 197.532 163.896 197.349 164.231 197.211C165.418 196.728 166.542 196.101 167.576 195.345C168.013 195 168.394 194.59 168.706 194.128C169.095 193.571 169.404 192.963 169.624 192.32C169.697 192.124 169.923 192.124 170.171 192.32C170.322 192.464 170.437 192.641 170.506 192.838C170.602 193.068 170.627 193.322 170.579 193.567C170.39 194.461 169.953 195.285 169.318 195.943C168.752 196.58 168.09 197.126 167.358 197.561C166.483 198.049 165.659 198.661 164.748 199.106C163.743 199.588 162.687 199.957 161.6 200.207C160.913 200.364 160.212 200.455 159.508 200.476C158.929 200.493 158.351 200.406 157.802 200.221C157.495 200.107 157.212 199.934 156.972 199.711C156.843 199.596 156.728 199.467 156.629 199.325C156.542 199.186 156.483 199.07 156.403 198.938C156.261 198.703 156.169 198.442 156.131 198.17C156.094 197.898 156.112 197.621 156.184 197.357C156.366 196.872 156.702 196.46 157.139 196.183C157.281 196.076 157.429 195.979 157.584 195.892C158.174 195.651 158.386 195.688 158.67 195.892L158.852 196.008C159.027 196.14 158.932 196.489 158.619 196.883C158.305 197.277 158.152 197.422 157.999 197.612C157.928 197.692 157.88 197.791 157.861 197.896C157.852 197.906 157.848 197.919 157.848 197.933C157.848 197.946 157.852 197.959 157.861 197.969C157.814 197.943 157.765 197.921 157.715 197.903H157.781C157.861 197.908 157.941 197.908 158.021 197.903C158.021 197.903 158.101 197.947 158.145 198.005C158.32 198.231 158.291 198.115 158.364 198.151C158.618 198.237 158.883 198.291 159.151 198.312C159.578 198.337 160.006 198.31 160.426 198.231L160.455 198.333Z" fill="#3A3A3A"/>
<path d="M166.447 202.146C165.665 202.383 164.872 202.58 164.071 202.736C163.779 202.78 163.502 202.889 163.196 202.918C162.657 202.991 162.113 203.013 161.571 202.984C161.283 202.98 160.996 202.941 160.718 202.867C160.432 202.799 160.155 202.696 159.894 202.561C159.633 202.424 159.403 202.235 159.216 202.007C159.032 201.761 158.918 201.468 158.888 201.162C158.834 200.536 158.963 199.908 159.26 199.354C159.34 199.194 159.574 199.274 159.778 199.485C159.888 199.596 159.974 199.728 160.03 199.874C160.087 200.019 160.112 200.175 160.106 200.331C160.078 200.548 160.078 200.769 160.106 200.987C160.113 201.091 160.157 201.189 160.23 201.264C160.349 201.366 160.488 201.443 160.638 201.49C160.849 201.577 161.068 201.599 161.301 201.672C161.957 201.73 162.619 201.671 163.254 201.497C163.992 201.347 164.722 201.159 165.441 200.936C165.893 200.79 166.345 200.644 166.789 200.462C167.46 200.21 168.11 199.908 168.735 199.558C169.197 199.278 169.623 198.943 170.003 198.56C170.098 198.479 170.164 198.392 170.244 198.326C170.338 198.215 170.47 198.143 170.614 198.124C170.758 198.105 170.904 198.141 171.024 198.224L171.264 198.326C171.512 198.443 171.57 198.756 171.352 199.135C171.048 199.628 170.646 200.052 170.171 200.382C169.72 200.729 169.231 201.022 168.713 201.256C167.97 201.607 167.206 201.911 166.425 202.167L166.447 202.146Z" fill="#3A3A3A"/>
<path d="M173.575 349.351C173.958 349.08 174.325 348.788 174.675 348.476C175.018 348.177 175.324 347.747 175.615 347.492C175.642 347.466 175.659 347.432 175.666 347.396C175.672 347.36 175.667 347.322 175.652 347.288C175.517 347.013 175.332 346.766 175.105 346.559C174.504 346.023 173.841 345.561 173.13 345.182C172.256 344.73 171.358 344.326 170.441 343.972C167.13 342.686 163.665 341.841 160.135 341.457C158.562 341.283 156.979 341.224 155.397 341.283C153.386 341.37 151.374 341.574 149.362 341.858C148.736 341.939 148.772 341.742 149.253 341.414C150.047 340.902 150.929 340.544 151.855 340.357C153.953 339.932 156.093 339.746 158.232 339.803C160.378 339.813 162.517 340.058 164.61 340.532C167.188 341.041 169.716 341.773 172.168 342.718C173.334 343.205 174.446 343.813 175.484 344.533C176.041 344.926 176.532 345.403 176.942 345.947C177.052 346.114 177.151 346.286 177.241 346.465C177.34 346.679 177.401 346.908 177.423 347.142C177.472 347.615 177.336 348.087 177.044 348.462L176.133 349.489C174.815 350.762 173.27 351.775 171.578 352.478C169.065 353.51 166.391 354.097 163.677 354.212C161.609 354.374 159.529 354.313 157.474 354.03C157.021 353.977 156.571 353.899 156.126 353.797C154.464 353.33 154.02 352.922 153.83 352.397C153.782 352.28 153.746 352.158 153.721 352.033C153.721 351.661 154.45 351.618 155.587 351.793C157.33 352.05 159.087 352.208 160.849 352.266C162.639 352.334 164.432 352.241 166.206 351.989C168.815 351.648 171.309 350.707 173.494 349.242L173.575 349.351Z" fill="#3A3A3A"/>
<path d="M136.79 306.05C135.442 301.56 133.962 297.107 132.614 292.559C132.359 291.743 132.133 290.89 131.885 290.052C131.637 289.214 131.455 288.325 131.294 287.472C130.252 281.422 130.012 275.329 129.706 269.294C129.633 267.953 129.552 266.612 129.458 265.278C129.363 263.945 129.297 262.567 129.283 261.226C129.181 257.771 129.494 254.36 129.611 250.964C129.611 249.9 129.895 250.031 130.216 250.927C130.667 252.405 130.913 253.938 130.945 255.483L131.017 258.107C131.017 258.974 131.017 259.841 131.017 260.701C131.017 262.436 131.112 264.09 131.251 265.854C131.491 269.36 131.652 272.851 131.856 276.35C132.113 280.594 132.715 284.811 133.656 288.959C134.829 293.456 136.389 297.96 137.803 302.479C138.678 305.27 139.538 308.062 140.347 310.875C141.571 315.131 142.664 319.454 143.575 323.761C143.969 325.43 144.253 327.106 144.625 328.761L145.055 331.268C145.201 332.099 145.354 332.937 145.434 333.783C145.514 334.628 145.631 335.24 145.689 336.013C145.864 338.819 145.689 339.73 145.164 340.328C145.065 340.471 144.95 340.603 144.822 340.721C144.443 340.984 144.049 339.861 143.816 337.879C143.75 337.15 143.634 336.421 143.503 335.656C143.371 334.89 143.299 334.198 143.204 333.411C142.956 331.91 142.713 330.396 142.475 328.87C141.892 325.831 141.28 322.755 140.514 319.687C139.406 315.131 138.124 310.583 136.717 306.072L136.79 306.05Z" fill="#3A3A3A"/>
<path d="M124.195 357.594C124.686 357.553 125.173 357.477 125.653 357.368C126.127 357.273 126.608 357.2 127.074 357.091L128.474 356.69C128.707 356.617 128.94 356.559 129.203 356.479L129.873 356.216C130.533 355.958 131.177 355.664 131.805 355.335C134.099 354.279 136.212 352.867 138.065 351.151C138.466 350.757 138.86 350.349 139.253 349.941C139.451 349.743 139.631 349.528 139.793 349.3L140.317 348.636C141.25 347.529 141.95 346.26 142.868 345.123C143.153 344.774 143.364 344.949 143.408 345.43C143.441 346.136 143.277 346.838 142.934 347.456C141.423 350.193 139.307 352.549 136.746 354.343C135.974 354.875 135.172 355.386 134.392 355.954C133.612 356.523 132.737 356.931 131.877 357.346C130.929 357.779 129.956 358.154 128.962 358.469L127.453 358.928L125.923 359.248C125.296 359.39 124.66 359.492 124.02 359.555C123.387 359.648 122.75 359.709 122.111 359.737L120.653 359.81L119.196 359.773H118.467L117.738 359.715L116.28 359.598C115.551 359.489 114.822 359.445 114.094 359.343L112.986 359.176C112.616 359.138 112.25 359.067 111.892 358.964C111.572 358.877 111.251 358.804 110.938 358.709C110.501 358.604 110.1 358.382 109.779 358.068C109.591 357.89 109.47 357.654 109.436 357.397C109.436 357.281 109.385 357.171 109.385 357.084C109.385 356.821 109.976 356.661 110.843 356.727C112.089 356.938 113.343 357.128 114.596 357.361L116.513 357.623L118.452 357.798C118.933 357.798 119.421 357.798 119.91 357.835H120.639H121.367C121.849 357.835 122.337 357.835 122.825 357.769L124.283 357.587L124.195 357.594Z" fill="#3A3A3A"/>
<path d="M107.14 333.651C106.652 330.736 106.062 327.857 105.544 324.905C105.355 323.834 105.121 322.77 104.976 321.691L104.247 316.028C103.984 314.14 103.744 312.238 103.569 310.328C103.416 308.637 103.27 306.924 103.219 305.226C103.129 303.048 103.286 300.867 103.686 298.725C103.809 298.054 103.984 298.171 104.145 298.725C104.381 299.665 104.516 300.628 104.546 301.597C104.655 303.783 104.662 305.904 104.881 308.061C105.1 310.219 105.398 312.376 105.61 314.577C105.756 315.896 105.967 317.23 106.178 318.579C106.39 319.927 106.608 321.261 106.827 322.595C107.308 325.51 107.927 328.425 108.489 331.341C108.831 333.141 109.116 334.985 109.407 336.785C109.852 339.526 110.289 342.303 110.61 345.065C110.922 347.198 111.071 349.352 111.054 351.508C111.054 351.995 111.027 352.481 110.974 352.966C110.77 354.751 110.457 355.291 110.027 355.575C109.933 355.646 109.833 355.707 109.728 355.757C109.407 355.845 109.371 355.116 109.414 353.877C109.459 350.035 109.172 346.197 108.554 342.405C108.336 340.947 108.095 339.489 107.825 338.032C107.556 336.574 107.352 335.065 107.097 333.658L107.14 333.651Z" fill="#3A3A3A"/>
<path d="M102.039 199.048C102.162 202.867 102.177 206.693 102.039 210.505C101.995 211.905 102.039 213.297 101.922 214.689C101.638 219.587 101.069 224.477 100.399 229.317C100.122 231.467 99.8447 233.624 99.6698 235.76C99.4074 238.5 99.2617 241.248 99.1523 243.996C99.1159 244.849 98.8827 244.725 98.6276 243.996C98.248 242.802 98.0682 241.553 98.0955 240.301C98.132 237.443 98.3287 234.608 98.6057 231.788C98.8827 228.967 99.3346 226.175 99.648 223.369C100.071 220.009 100.165 216.482 100.282 213.02C100.413 209.215 100.433 205.406 100.34 201.592C100.282 199.237 100.18 196.905 99.9468 194.58C99.6115 191.052 99.0867 187.51 98.4891 184.019C98.0372 181.308 97.4614 178.662 97.0314 175.951C96.9367 175.36 96.8419 174.777 96.769 174.172C96.5358 171.927 96.6378 171.191 97.0387 170.681C97.1154 170.557 97.2058 170.442 97.3084 170.339C97.6363 170.105 97.9789 170.995 98.2704 172.591C99.1523 177.343 100.049 182.35 100.836 187.466C101.448 191.292 101.847 195.149 102.031 199.019L102.039 199.048Z" fill="#3A3A3A"/>
<path d="M86.5505 352.127C88.3362 352.04 90.1291 352.047 91.9221 352.127C92.5708 352.127 93.2267 352.127 93.8827 352.215C96.1939 352.421 98.4748 352.886 100.683 353.6C101.687 353.902 102.662 354.292 103.598 354.766C104.829 355.322 105.904 356.17 106.732 357.237C106.98 357.579 106.732 357.718 106.258 357.681C105.675 357.62 105.114 357.426 104.619 357.113C103.581 356.458 102.471 355.927 101.31 355.531C100.141 355.076 98.9457 354.692 97.731 354.379C96.1928 354.045 94.6256 353.862 93.0518 353.833C91.3171 353.738 89.5679 353.738 87.8114 353.796C86.7327 353.84 85.6249 353.898 84.5826 354.008C82.9518 354.152 81.3293 354.378 79.7212 354.686C78.4822 354.941 77.2941 355.312 76.077 355.655L75.2971 355.895C74.3059 356.158 73.9706 356.143 73.6353 355.793C73.5543 355.716 73.4788 355.633 73.4094 355.546C73.2199 355.261 73.5552 354.875 74.2694 354.562C75.3502 354.098 76.4605 353.706 77.593 353.388C78.7518 353.097 79.9399 352.856 81.1352 352.659C82.9135 352.375 84.7138 352.2 86.514 352.076L86.5505 352.127Z" fill="#3A3A3A"/>
<path d="M57.8996 281.393C58.5215 287.146 59.3864 292.874 60.4943 298.579C60.8733 300.656 61.4053 302.711 61.8353 304.781C62.6443 308.426 63.4679 312.07 64.5612 315.612C65.6545 319.154 66.8425 322.711 67.9941 326.297C69.0218 329.467 70.013 332.689 70.8439 335.903C72.0173 340.181 71.4561 344.54 72.5348 348.468C72.9429 349.649 72.666 349.664 71.9226 348.731C70.8592 347.077 70.2069 345.193 70.0203 343.235C69.8653 341.138 69.5658 339.053 69.1238 336.996C68.5626 334.934 67.9868 332.871 67.3527 330.823C66.0918 326.72 64.5904 322.653 63.3295 318.433C62.6006 315.911 61.8208 313.331 61.1429 310.714C60.8004 309.41 60.4942 308.098 60.1736 306.786C59.8529 305.474 59.554 304.169 59.2844 302.857C58.0526 297.092 57.0468 291.269 56.3034 285.423L55.9681 282.719L55.6984 280.008C55.5017 278.2 55.3778 276.364 55.2466 274.585C54.8749 269.097 54.8093 263.572 54.9769 258.121C55.0554 253.918 55.3473 249.721 55.8515 245.548C55.9754 244.63 56.1066 243.733 56.2305 242.808C56.4206 241.597 56.6958 240.401 57.0541 239.229C57.1967 238.681 57.4442 238.166 57.7829 237.713C57.8833 237.561 57.998 237.42 58.1255 237.29C58.4608 237.021 58.4462 238.449 58.1255 240.934C57.9433 242.778 57.7538 244.652 57.5643 246.539C57.4914 247.48 57.4258 248.434 57.3529 249.389L57.2509 250.847L57.1853 252.304L57.0104 255.22C57.0104 256.189 56.9521 257.159 56.9156 258.135C56.8282 260.074 56.9156 262.035 56.85 263.966C56.9102 269.8 57.2727 275.626 57.936 281.422L57.8996 281.393Z" fill="#3A3A3A"/>
<path d="M228.683 271.86C229.251 263.113 229.674 254.316 229.995 245.548C230.089 242.341 230.155 239.142 230.228 235.942C230.512 224.652 230.592 213.348 230.155 202.08C229.987 197.08 229.623 192.058 229.164 187.117C228.61 180.754 227.706 174.42 226.919 168.086C226.664 166.111 226.839 166.345 227.364 167.963C228.318 170.651 229.049 173.412 229.55 176.22C230.053 179.464 230.541 182.714 230.884 185.972C231.066 187.605 231.183 189.238 231.314 190.878C231.445 192.517 231.569 194.143 231.649 195.783C231.86 199.062 231.977 202.342 232.086 205.629C232.196 208.916 232.203 212.189 232.181 215.505C232.181 223.391 232.181 231.598 231.97 239.659C231.729 248.515 231.343 257.377 230.877 266.226C230.578 271.677 230.191 277.122 229.747 282.559C229.084 290.795 228.224 299.046 227.56 307.209C226.992 313.462 226.749 319.741 226.831 326.02C226.868 327.398 226.955 328.731 227.087 330.094C227.211 331.879 227.433 333.655 227.75 335.415C227.91 336.207 228.022 337.007 228.085 337.813C228.085 338.075 228.158 338.418 228.143 338.593C228.143 338.892 227.808 338.593 227.283 337.755C226.582 336.435 226.076 335.021 225.782 333.556C225.195 330.708 224.901 327.806 224.907 324.898C224.849 321.982 224.944 319.067 225.097 316.101C225.41 310.219 225.957 304.286 226.496 298.353C227.305 289.541 228.129 280.701 228.683 271.867V271.86Z" fill="#3A3A3A"/>
<path d="M271.524 279.148C271.284 284.979 271.029 290.868 270.905 296.713C270.847 299.628 270.817 302.544 270.905 305.459C270.983 308.319 271.387 311.16 272.107 313.928C272.618 315.962 273.281 317.995 273.871 320.08C274.462 322.164 274.972 324.278 275.395 326.392C276.229 330.166 276.579 334.03 276.437 337.893C276.343 339.897 275.904 341.869 275.139 343.724C274.325 345.652 272.908 347.265 271.102 348.323C270.196 348.81 269.231 349.175 268.23 349.409C267.244 349.627 266.237 349.729 265.227 349.715C263.276 349.66 261.339 349.377 259.455 348.869C255.782 347.854 252.183 346.59 248.682 345.087C247.13 344.46 245.607 343.818 244.032 343.345C242.476 342.852 240.874 342.515 239.251 342.339C237.655 342.163 236.042 342.222 234.463 342.514C233.688 342.686 232.932 342.93 232.203 343.243C231.839 343.384 231.485 343.552 231.146 343.746C230.821 343.9 230.518 344.096 230.243 344.329C229.953 344.581 229.771 344.935 229.736 345.318C229.701 345.701 229.814 346.083 230.053 346.384C230.579 347.212 231.253 347.936 232.043 348.519C233.701 349.768 235.517 350.792 237.444 351.566C239.379 352.372 241.381 353.006 243.427 353.461C245.466 353.936 247.551 354.18 249.644 354.19C250.942 354.19 251.51 354.19 251.496 354.321C251.481 354.452 250.854 354.715 249.717 354.919C245.863 355.534 241.916 355.161 238.245 353.833C236.093 353.104 234.033 352.126 232.108 350.917C231.099 350.282 230.169 349.529 229.339 348.673C228.884 348.182 228.502 347.63 228.202 347.033C227.818 346.293 227.7 345.444 227.866 344.627C228.078 343.788 228.585 343.053 229.295 342.557L229.74 342.244L230.133 342.025C230.403 341.887 230.658 341.727 230.935 341.61C232.025 341.103 233.177 340.741 234.36 340.531C236.669 340.151 239.028 340.196 241.321 340.662C243.547 341.098 245.723 341.76 247.815 342.638C249.856 343.461 251.853 344.292 253.879 345.057C255.884 345.83 257.931 346.492 260.009 347.04C262.013 347.608 264.092 347.871 266.175 347.82C267.387 347.749 268.574 347.447 269.673 346.931C270.748 346.43 271.687 345.681 272.414 344.744C273.871 342.827 274.454 340.254 274.6 337.682C274.695 335.048 274.515 332.413 274.061 329.817C273.638 327.193 273.055 324.562 272.399 322.004C271.67 319.176 270.723 316.377 270.03 313.433C269.684 311.962 269.421 310.473 269.243 308.972C269.061 307.471 269.003 305.962 268.952 304.475C268.835 298.513 269.061 292.602 269.265 286.691C269.566 279.403 269.867 272.132 270.169 264.877C270.599 253.872 270.992 242.808 270.992 231.882C270.992 227.64 270.912 223.43 270.752 219.251C270.584 215.068 270.351 210.899 269.935 206.737C269.87 205.819 269.739 204.922 269.637 204.018C269.535 203.115 269.433 202.204 269.301 201.285C268.39 194.492 267.8 192.415 267.589 190.921C267.538 190.579 267.45 190.141 267.436 189.93C267.326 189.201 268.893 191.708 270.154 196.723C271.001 200.468 271.59 204.267 271.918 208.093C272.287 211.951 272.542 215.838 272.683 219.754C273.011 227.611 272.997 235.57 272.844 243.536C272.618 255.366 272.115 267.231 271.619 279.068L271.524 279.148Z" fill="#3A3A3A"/>
<path d="M303.688 351.551C302.347 351.391 301.006 351.333 299.687 351.048C298.361 350.852 297.047 350.582 295.751 350.239C295.27 350.123 294.797 350.013 294.294 349.911C293.815 349.82 293.344 349.688 292.887 349.518C291.248 348.992 289.644 348.364 288.084 347.637C287.304 347.273 286.51 346.952 285.752 346.551L283.521 345.29C282.166 344.605 280.927 343.702 279.644 342.922L278.419 342.135L277.282 341.238C276.554 340.633 275.825 339.999 275.096 339.328C274.666 338.906 274.972 338.68 275.613 338.702C276.508 338.761 277.369 339.069 278.099 339.591C278.852 340.171 279.641 340.704 280.46 341.187C281.269 341.69 282.056 342.222 282.843 342.747C283.631 343.272 284.498 343.687 285.314 344.204L286.553 344.933C286.969 345.188 287.413 345.356 287.843 345.582C288.273 345.808 288.886 346.07 289.418 346.311C289.951 346.559 290.501 346.769 291.065 346.938C292.195 347.273 293.317 347.666 294.454 347.965L296.342 348.424C296.968 348.596 297.603 348.734 298.244 348.84L300.161 349.168C300.482 349.219 300.802 349.284 301.123 349.321L302.092 349.416C302.887 349.489 303.688 349.576 304.483 349.634L306.888 349.7C308.105 349.736 309.322 349.649 310.532 349.62C311.742 349.591 312.959 349.438 314.177 349.233C315.102 349.095 316.021 348.942 316.924 348.716L318.28 348.403L319.621 348.053L320.802 347.747C322.259 347.426 322.835 347.506 323.243 347.747C323.341 347.796 323.434 347.854 323.52 347.922C323.732 348.133 323.192 348.548 322.15 349.066C320.539 349.752 318.867 350.289 317.158 350.669C315.401 351.108 313.612 351.4 311.808 351.544C310.467 351.712 309.104 351.69 307.748 351.755C307.07 351.755 306.392 351.755 305.715 351.712C305.037 351.668 304.352 351.712 303.681 351.617L303.688 351.551Z" fill="#3A3A3A"/>
<path d="M307.515 189.5C307.495 198.657 308.001 207.807 309.031 216.905C309.41 220.236 309.92 223.523 310.416 226.839C312.128 238.501 314.06 250.206 315.794 261.904C316.574 267.1 317.369 272.319 318.054 277.486C318.491 280.781 319.14 284.046 319.665 287.384C320.265 290.707 320.545 294.08 320.503 297.457C320.393 299.563 320.189 299.25 319.934 297.493C319.679 295.737 319.081 292.53 318.44 288.813C317.886 285.467 317.179 282.122 316.654 278.711L315.146 268.573C314.106 261.819 313.064 255.043 312.019 248.245C310.78 240.104 309.227 231.671 307.967 223.319C306.595 214.12 305.789 204.847 305.554 195.55C305.408 189.826 305.462 184.107 305.714 178.393C306.108 169.741 306.99 161.097 307.544 152.555C307.994 146.006 308.111 139.437 307.894 132.876C307.857 131.418 307.748 130.034 307.66 128.583C307.602 127.242 307.493 126.127 307.442 125.201C307.391 124.276 307.384 123.51 307.354 122.884C307.286 122.009 307.379 121.129 307.631 120.289C307.71 120.012 307.81 119.741 307.93 119.48C308.12 119.188 308.367 119.582 308.659 120.544C309.066 122.014 309.349 123.516 309.504 125.034C310.155 131.084 310.367 137.174 310.139 143.255C309.949 149.428 309.468 155.645 308.98 161.862C308.251 171.097 307.522 180.309 307.588 189.558L307.515 189.5Z" fill="#3A3A3A"/>
<path d="M161.418 187.67C161.456 187.503 161.456 187.328 161.418 187.16C161.418 187.08 161.352 187.022 161.345 186.942C161.308 186.657 161.279 186.344 161.214 186.038C161.184 185.907 161.124 185.784 161.039 185.681C160.937 185.535 160.769 185.418 160.856 185.192C160.944 184.966 162.394 184.58 162.482 184.733C162.66 185.041 162.727 185.402 162.671 185.754C162.671 186.001 162.802 186.169 162.861 186.395C162.931 186.66 162.98 186.931 163.007 187.204C163.021 187.391 163.021 187.578 163.007 187.765C162.969 188.053 162.893 188.335 162.781 188.603C162.686 188.793 162.708 189.041 162.584 189.194C162.563 189.232 162.538 189.269 162.511 189.303C162.38 189.405 162.263 189.376 162.001 189.194L161.826 189.07C161.666 188.952 161.54 188.793 161.461 188.611C161.35 188.384 161.29 188.135 161.286 187.882C161.286 187.831 161.345 187.802 161.359 187.685L161.418 187.67Z" fill="#3A3A3A"/>
<path d="M230.665 55.9246L230.49 64.1386C230.49 65.1372 230.49 66.143 230.49 67.1415C230.403 70.6691 230.279 74.1894 230.286 77.7098C230.286 79.2768 230.374 80.8438 230.454 82.3817C230.52 83.3729 230.578 84.3641 230.673 85.3481C230.716 85.8364 230.753 86.332 230.775 86.8058C230.797 87.2795 230.862 87.7751 230.884 88.2635C230.884 88.8757 230.52 88.883 230.053 88.4238C229.389 87.7216 228.967 86.825 228.85 85.8656C228.335 81.7713 228.201 77.638 228.45 73.5189C228.559 71.0554 228.45 68.4971 228.45 65.9826L228.559 57.6884C228.559 55.9901 228.603 54.2846 228.595 52.5864C228.595 50.0136 228.595 47.4262 228.493 44.8825C228.406 42.9001 228.202 40.9613 227.998 39.0518C227.954 38.629 227.896 38.2063 227.867 37.7763C227.714 36.1874 227.794 35.6772 228.224 35.2691C228.314 35.1693 228.414 35.079 228.523 34.9994C228.858 34.7953 229.251 35.4148 229.506 36.5955C229.908 38.375 230.19 40.1793 230.352 41.9963C230.556 43.8403 230.622 45.7061 230.665 47.572C230.724 50.3489 230.709 53.1331 230.702 55.9027L230.665 55.9246Z" fill="#3A3A3A"/>
<path d="M189.58 126.01C188.851 122.891 183.4 122.279 180.878 122.366C179.712 122.403 179.704 124.225 180.878 124.188C182.284 124.136 183.688 124.321 185.032 124.735C185.892 124.997 187.591 125.464 187.824 126.491C188.093 127.636 189.85 127.147 189.58 126.01Z" fill="#3A3A3A"/>
<path d="M187.576 127.431C187.328 129.056 185.389 130.565 183.728 130.033C178.115 128.276 188.545 121.09 187.576 127.431Z" fill="#3A3A3A"/>
<path d="M201.526 130.893C201.46 127.03 197.262 127.249 194.456 126.848C193.305 126.681 192.809 128.437 193.968 128.605C195.666 128.838 199.66 128.444 199.704 130.893C199.704 131.135 199.8 131.367 199.971 131.537C200.142 131.708 200.373 131.804 200.615 131.804C200.856 131.804 201.088 131.708 201.259 131.537C201.43 131.367 201.526 131.135 201.526 130.893Z" fill="#3A3A3A"/>
<path d="M199.339 131.921C199.048 133.539 197.641 134.603 196.067 133.823C191.541 131.586 200.622 124.866 199.339 131.921Z" fill="#3A3A3A"/>
<path d="M193.494 113.81C191.847 108.81 186.206 108.671 182.066 110.552C180.783 111.127 181.898 113.015 183.166 112.439C185.943 111.178 190.229 110.887 191.381 114.393C191.818 115.719 193.932 115.121 193.494 113.81Z" fill="#3A3A3A"/>
<path d="M200.353 118.729C200.821 118.442 201.354 118.273 201.902 118.239C202.451 118.205 203 118.305 203.501 118.532C204.82 119.028 205.389 116.914 204.084 116.418C203.301 116.108 202.457 115.984 201.618 116.058C200.779 116.131 199.969 116.399 199.252 116.841C198.079 117.607 199.172 119.502 200.353 118.729Z" fill="#3A3A3A"/>
<path d="M191.337 139.683C191.257 140.715 191.011 141.726 190.608 142.679L190.338 143.233C190.235 143.422 190.113 143.601 189.974 143.765C189.851 143.921 189.706 144.058 189.544 144.173C189.397 144.305 189.235 144.42 189.063 144.516C188.729 144.697 188.371 144.827 187.999 144.902C187.26 145.039 186.497 144.947 185.812 144.64C185.288 144.427 184.777 144.184 184.282 143.911C183.691 143.595 183.142 143.206 182.649 142.752C182.51 142.599 182.685 142.322 183.006 142.11C183.174 141.991 183.368 141.912 183.572 141.882C183.776 141.852 183.984 141.87 184.18 141.936C185.47 142.511 186.366 143.262 187.277 143.328C187.57 143.342 187.858 143.255 188.093 143.08C188.232 143 188.305 142.89 188.429 142.81C188.553 142.73 188.611 142.57 188.72 142.453C189.16 141.763 189.441 140.984 189.544 140.172C189.631 139.631 189.684 139.086 189.704 138.539C189.739 137.69 189.712 136.84 189.624 135.995C189.523 135.349 189.384 134.709 189.209 134.079C189.171 133.937 189.145 133.794 189.128 133.649C189.118 133.535 189.118 133.42 189.128 133.306C189.145 133.218 189.177 133.134 189.223 133.058C189.299 132.928 189.411 132.822 189.544 132.752C189.604 132.712 189.667 132.678 189.733 132.65C189.923 132.57 190.171 132.759 190.462 133.117C190.744 133.673 190.946 134.267 191.06 134.88C191.189 135.504 191.284 136.134 191.344 136.768C191.428 137.738 191.44 138.712 191.381 139.683H191.337Z" fill="#3A3A3A"/>
<path d="M175.863 148.371C175.376 148.597 174.985 148.99 174.763 149.48C174.541 149.97 174.502 150.522 174.654 151.038C174.731 151.289 174.858 151.521 175.027 151.721C175.197 151.92 175.405 152.084 175.639 152.201C175.873 152.318 176.129 152.387 176.391 152.402C176.652 152.418 176.914 152.38 177.161 152.292C177.694 152.111 178.161 151.774 178.5 151.324C178.84 150.874 179.036 150.333 179.063 149.77C179.039 149.308 178.846 148.871 178.521 148.542C178.196 148.212 177.761 148.014 177.299 147.984C176.06 147.897 175.251 148.983 174.989 150.069C174.726 151.155 176.446 151.694 176.745 150.557C176.745 150.433 176.811 150.309 176.847 150.186C176.884 150.062 176.891 150.076 176.847 150.186L176.92 150.047C176.92 150.003 176.971 149.96 177 149.923C176.92 150.018 176.928 150.011 177 149.923L177.139 149.792C176.964 149.96 177.139 149.792 177.197 149.792C177 149.923 177.139 149.836 177.197 149.792C176.993 149.879 177.051 149.792 177.197 149.792C177 149.748 177.343 149.792 177.197 149.792C177.059 149.726 177.394 149.836 177.197 149.792C177.336 149.858 177.416 149.967 177.197 149.792L177.299 149.894C177.124 149.734 177.226 149.814 177.299 149.894C177.168 149.683 177.248 149.814 177.299 149.894C177.219 149.661 177.299 149.777 177.299 149.894C177.299 150.011 177.299 149.93 177.299 149.792C177.302 149.831 177.302 149.87 177.299 149.909C177.301 149.947 177.301 149.986 177.299 150.025C177.35 149.894 177.35 149.909 177.299 150.025C177.248 150.156 177.095 150.302 177.226 150.149L177.051 150.339C176.991 150.403 176.922 150.459 176.847 150.506C176.847 150.506 176.497 150.681 176.694 150.594H176.556C176.687 150.594 176.702 150.594 176.6 150.594C176.374 150.528 176.497 150.594 176.6 150.594C176.352 150.514 176.68 150.659 176.541 150.594C176.403 150.528 176.658 150.739 176.505 150.557C176.352 150.375 176.629 150.688 176.505 150.557C176.483 150.525 176.463 150.491 176.446 150.455C176.497 150.579 176.505 150.601 176.446 150.506C176.443 150.467 176.443 150.428 176.446 150.39C176.446 150.528 176.446 150.55 176.446 150.448C176.446 150.207 176.388 150.514 176.446 150.382C176.505 150.251 176.483 150.258 176.505 150.2C176.395 150.484 176.651 150.033 176.505 150.244C176.505 150.244 176.753 150.011 176.6 150.127C176.694 150.06 176.794 150.002 176.898 149.952C177.093 149.811 177.223 149.599 177.263 149.361C177.303 149.124 177.247 148.881 177.11 148.684C176.984 148.48 176.784 148.331 176.552 148.27C176.32 148.209 176.073 148.24 175.863 148.356V148.371Z" fill="#3A3A3A"/>
<path d="M246.35 106.208C246.35 106.47 246.008 106.426 245.454 106.208C245.208 106.082 244.992 105.905 244.82 105.69C244.765 105.517 244.728 105.339 244.71 105.158C244.71 105.063 245.206 103.992 245.359 103.613C245.516 103.262 245.719 102.933 245.964 102.636L247.378 100.807C247.482 100.669 247.611 100.55 247.757 100.457C248.237 100.114 248.645 99.6808 248.959 99.1817C249.031 99.1068 249.072 99.0082 249.076 98.9047C249.362 98.3267 249.741 97.7998 250.198 97.345C250.65 97.0535 251.037 96.7182 251.452 96.3975C251.51 96.3538 251.532 96.2736 251.656 96.2809C251.948 96.2809 252.006 96.1643 252.115 96.0476C252.267 95.8835 252.438 95.739 252.625 95.6176C252.762 95.561 252.908 95.5337 253.056 95.5375C253.194 95.5375 253.456 95.7853 253.471 95.8363C253.486 95.8873 253.69 96.0258 253.821 96.106C253.867 96.134 253.911 96.1657 253.952 96.2007C253.937 96.7332 253.846 97.2608 253.682 97.7677L253.172 98.6132C252.91 99.0359 252.64 99.4805 252.596 99.5826C252.531 99.6757 252.443 99.7509 252.341 99.8012C252.297 99.8012 251.539 101.12 251.496 101.164C251.284 101.39 251.16 101.689 250.767 101.784C250.694 101.784 250.665 101.864 250.628 101.915C250.309 102.33 249.953 102.715 249.564 103.066C249.387 103.266 249.222 103.475 249.069 103.693C249.069 103.73 248.981 103.744 248.938 103.773C248.885 103.804 248.836 103.84 248.792 103.883C248.373 104.344 247.984 104.831 247.626 105.34C247.553 105.472 246.897 105.851 246.846 106.004C246.795 106.157 246.35 106.106 246.35 106.208Z" fill="#3A3A3A"/>
<path d="M251.933 115.887C251.736 115.996 251.612 115.726 251.525 115.216C251.506 114.981 251.538 114.745 251.62 114.524C251.729 114.409 251.849 114.304 251.977 114.21C252.05 114.159 253.136 114.057 253.507 114.006C253.86 113.971 254.215 113.983 254.564 114.043C255.293 114.145 255.971 114.232 256.663 114.349C256.818 114.373 256.968 114.422 257.108 114.495C257.591 114.725 258.112 114.863 258.646 114.903C258.735 114.938 258.834 114.938 258.923 114.903C259.511 114.888 260.096 114.982 260.65 115.18C261.065 115.427 261.495 115.61 261.918 115.814C261.976 115.814 262.049 115.814 262.093 115.93C262.188 116.171 262.334 116.164 262.472 116.2C262.666 116.255 262.852 116.333 263.026 116.433C263.126 116.518 263.208 116.622 263.267 116.739C263.339 116.841 263.267 117.162 263.208 117.191C263.15 117.22 263.15 117.446 263.143 117.585C263.135 117.723 263.143 117.694 263.143 117.731C262.705 117.939 262.242 118.089 261.765 118.175L260.861 118.117C260.417 118.117 259.943 118.059 259.848 118.066C259.745 118.051 259.648 118.011 259.564 117.949C259.513 117.949 258.172 117.862 258.106 117.833C257.837 117.752 257.552 117.782 257.326 117.527C257.306 117.507 257.282 117.492 257.256 117.482C257.23 117.472 257.201 117.467 257.173 117.468C256.71 117.38 256.254 117.256 255.81 117.097C255.571 117.034 255.327 116.988 255.082 116.958C255.04 116.938 255.001 116.914 254.965 116.885C254.917 116.858 254.865 116.836 254.812 116.82C254.269 116.682 253.715 116.587 253.157 116.535C253.026 116.535 252.429 116.215 252.297 116.222C252.166 116.229 252.013 115.887 251.933 115.887Z" fill="#3A3A3A"/>
<path d="M302.748 80.9016C302.877 80.7563 302.973 80.5844 303.029 80.3979C303.084 80.2115 303.098 80.0152 303.069 79.8229C303.005 79.2324 302.845 78.6563 302.595 78.1174C302.493 77.9 302.378 77.6883 302.253 77.4833C302.128 77.3207 302.013 77.1503 301.91 76.9731C301.463 76.3642 300.843 75.9037 300.131 75.6516C299.418 75.3995 298.647 75.3672 297.916 75.5591C297.227 75.7211 296.621 76.1278 296.21 76.7034C295.732 77.4628 295.479 78.3424 295.482 79.2398C295.438 79.5387 295.066 79.5824 294.665 79.3346C294.428 79.1786 294.231 78.9688 294.09 78.7223C293.932 78.4042 293.869 78.0476 293.907 77.6947C294.01 77.0014 294.262 76.3389 294.648 75.7535C295.033 75.1681 295.541 74.6739 296.138 74.3055C297.294 73.5676 298.692 73.3064 300.037 73.5767C301.647 73.8805 303.07 74.8111 303.995 76.1641C304.429 76.8469 304.777 77.5815 305.029 78.3506C305.337 79.2029 305.403 80.1237 305.219 81.0109C304.892 82.091 304.15 82.9977 303.156 83.5327C301.874 84.3199 300.554 84.7207 299.417 85.3621C298.596 85.8084 297.893 86.4459 297.369 87.2207C297.275 87.3737 297.209 87.5341 297.107 87.6726C297.037 87.7874 296.959 87.897 296.874 88.0006C296.788 88.0766 296.689 88.136 296.582 88.1755C296.353 88.2777 296.104 88.3251 295.853 88.314C295.725 88.321 295.596 88.321 295.467 88.314C295.363 88.309 295.263 88.2758 295.177 88.218C295.091 88.1602 295.022 88.08 294.979 87.986C294.815 87.6831 294.751 87.3361 294.796 86.9947C295.087 85.8052 295.809 84.7661 296.823 84.0794C297.699 83.4621 298.643 82.9462 299.636 82.5415C300.307 82.25 300.955 81.9876 301.502 81.7106C301.954 81.5136 302.359 81.223 302.69 80.8579L302.748 80.9016Z" fill="#3A3A3A"/>
<path d="M295.321 92.5997C295.392 93.0722 295.302 93.5548 295.066 93.97C294.879 94.2835 294.632 94.5562 294.337 94.7717C294.176 94.9184 294 95.0479 293.812 95.158C293.645 95.2455 293.477 95.2965 293.317 95.3621L293.025 95.486H292.916C292.574 95.4448 292.243 95.3411 291.939 95.1799C291.712 95.0537 291.527 94.8636 291.407 94.6332C291.353 94.5076 291.316 94.3752 291.298 94.2396C291.29 94.1256 291.29 94.0112 291.298 93.8971C291.387 93.5435 291.527 93.2047 291.713 92.8913C291.91 92.5487 292.092 92.1624 292.508 92.0531C292.639 92.0531 292.909 92.3738 293.135 92.782C293.36 93.1901 293.565 93.5545 293.484 93.6639C293.404 93.7732 293.178 94.0647 293.098 94.1449C293.018 94.2251 293.142 94.1886 292.879 94.1449H292.624C292.566 94.1402 292.508 94.1402 292.449 94.1449H292.377C292.471 94.072 292.493 93.9991 292.602 93.7878C292.602 93.7513 292.602 93.8315 292.675 93.8388H292.872L292.479 93.9335C292.632 93.8534 292.77 93.7513 292.909 93.6711C293.138 93.5606 293.332 93.3891 293.47 93.1755C293.491 93.1261 293.498 93.0716 293.489 93.0185C293.48 92.9654 293.455 92.9162 293.419 92.8767C293.357 92.7915 293.274 92.7237 293.178 92.6799C293.076 92.6799 293.076 92.6799 293.062 92.607C293.047 92.5341 293.12 92.6653 293.149 92.6799L293.193 92.7455L293.331 92.9933C293.331 93.037 293.397 93.0808 293.419 93.1318C293.455 93.314 293.295 93.4452 292.872 93.6347L292.573 93.7732C292.431 93.845 292.272 93.8769 292.112 93.8653C291.953 93.8538 291.8 93.7993 291.67 93.7076C291.491 93.525 291.357 93.3039 291.277 93.0613C291.198 92.8187 291.175 92.561 291.21 92.3082C291.235 92.0754 291.306 91.8498 291.418 91.6446C291.531 91.4394 291.683 91.2586 291.866 91.1129C292.265 90.8 292.77 90.6561 293.273 90.712C293.79 90.7755 294.27 91.0118 294.636 91.3826C294.988 91.7317 295.227 92.1787 295.321 92.6653V92.5997Z" fill="#3A3A3A"/>
<path d="M213.916 52.9942C214.243 52.8262 214.52 52.5747 214.718 52.2653C214.937 51.8804 215.072 51.4529 215.112 51.0117C215.13 50.8324 215.13 50.6517 215.112 50.4724C215.123 50.2952 215.123 50.1175 215.112 49.9403C215.108 49.3307 214.958 48.7308 214.674 48.1911C214.396 47.6549 213.947 47.2267 213.399 46.9739C212.878 46.7596 212.305 46.7038 211.752 46.8136C211.024 47.0175 210.323 47.3036 209.66 47.6663C209.434 47.7538 209.237 47.4695 209.215 47.0614C209.201 46.8089 209.255 46.5573 209.374 46.3337C209.492 46.1101 209.669 45.9232 209.886 45.7932C210.811 45.2701 211.874 45.0437 212.932 45.1445C213.486 45.2059 214.02 45.3806 214.503 45.6577C214.986 45.9348 215.406 46.3084 215.739 46.7553C216.506 47.7606 216.948 48.9759 217.007 50.2391C217.039 50.9041 216.97 51.5701 216.803 52.2143C216.617 52.9165 216.25 53.5574 215.739 54.0729C215.126 54.6613 214.374 55.0829 213.552 55.2973C212.422 55.6472 211.314 55.7274 210.323 56.0262C209.624 56.1982 208.987 56.5645 208.486 57.083C208.392 57.1778 208.348 57.3017 208.268 57.3891C208.005 57.739 207.823 57.8046 207.24 57.7244C207.109 57.7244 206.985 57.7244 206.868 57.688C206.77 57.6734 206.678 57.6343 206.599 57.5745C206.52 57.5146 206.457 57.4358 206.417 57.3454C206.359 57.2158 206.329 57.0755 206.329 56.9336C206.329 56.7917 206.359 56.6514 206.417 56.5218C206.601 56.0243 206.904 55.579 207.298 55.2245C207.672 54.888 208.095 54.6103 208.552 54.4009C209.345 54.0497 210.181 53.8046 211.037 53.672C212.017 53.5807 212.977 53.3347 213.88 52.9432L213.916 52.9942Z" fill="#3A3A3A"/>
<path d="M204.077 61.7262C204.157 61.7262 204.237 61.5732 204.201 61.3618C204.162 61.3134 204.121 61.2671 204.077 61.2233L205.061 61.6606H204.995C204.715 61.6024 204.423 61.6383 204.164 61.7627C204.126 61.7997 204.099 61.8463 204.085 61.8975C204.071 61.9488 204.071 62.0029 204.084 62.0542C204.084 62.2145 204.252 62.3457 204.135 62.6008C203.864 62.7669 203.556 62.8645 203.239 62.8851C202.802 62.9507 202.335 62.8851 202.277 62.6519C202.161 62.1822 202.205 61.6875 202.401 61.2452C202.502 61.0081 202.652 60.7951 202.842 60.6205C203.032 60.4458 203.257 60.3135 203.501 60.2321C203.907 60.0769 204.324 59.9503 204.748 59.8531L205.396 59.7656L205.622 60.2467L205.659 60.3123C205.901 60.7834 205.996 61.3171 205.928 61.8428C205.884 62.2 205.737 62.5366 205.506 62.8122C205.313 63.0563 205.043 63.2284 204.74 63.3005C204.559 63.3404 204.371 63.3361 204.193 63.2879C204.014 63.2397 203.849 63.149 203.713 63.0236C203.54 62.8661 203.395 62.6814 203.283 62.4769C203.177 62.3079 203.098 62.1235 203.049 61.9303C203.015 61.859 202.993 61.7827 202.984 61.7044C202.984 61.4274 203.166 61.3472 203.632 61.3472H203.953C204.245 61.365 204.528 61.4552 204.777 61.6096C204.838 61.6934 204.915 61.765 205.003 61.821L205.09 61.8793H205.032C204.964 61.9023 204.898 61.9315 204.835 61.9667L204.704 62.0178C204.66 62.0365 204.618 62.061 204.58 62.0906C204.544 62.1344 204.514 62.1635 204.5 62.1635C204.485 62.1635 204.42 62.2947 204.427 62.2291C204.41 62.0923 204.346 61.9658 204.245 61.872C204.159 61.7996 204.06 61.7451 203.953 61.7116L204.077 61.7262Z" fill="#3A3A3A"/>
<path d="M142.971 158.305C142.73 156.425 142.468 154.551 142.162 152.678L141.797 150.638C141.418 148.225 141.017 145.813 140.536 143.415C140.332 142.351 140.077 141.294 139.807 140.244C139.479 138.903 139.079 137.569 138.889 136.192C138.758 135.339 139.968 136.192 140.39 137.708C141.119 140.448 141.761 143.203 142.227 146.024C142.511 147.715 142.956 149.442 143.262 151.162C143.619 153.05 143.889 154.952 144.159 156.862C144.319 158.035 144.465 159.209 144.603 160.382C144.822 162.168 144.975 163.961 145.157 165.732C145.303 167.109 145.463 168.458 145.573 169.821C145.573 170.12 145.638 170.418 145.645 170.717C145.689 171.847 145.645 172.211 145.317 172.459C145.257 172.523 145.188 172.579 145.113 172.627C144.887 172.736 144.669 172.284 144.545 171.475C144.188 169.063 143.86 166.534 143.612 163.99C143.408 162.102 143.189 160.2 142.92 158.312L142.971 158.305Z" fill="#3A3A3A"/>
<path d="M155.142 254.228L155.383 249.943L155.426 248.376C155.536 246.539 155.652 244.731 155.762 242.873C155.805 242.057 155.805 241.24 155.805 240.431C155.767 239.391 155.786 238.35 155.864 237.312C155.937 236.663 156.891 237.487 156.928 238.689C156.985 240.821 156.929 242.955 156.76 245.081C156.665 246.357 156.68 247.691 156.629 249.002L156.425 253.325L156.308 255.977C156.25 257.319 156.17 258.667 156.148 259.993C156.148 261.028 156.148 262.049 156.206 263.069V263.74C156.206 264.585 156.104 264.855 155.871 265.03C155.819 265.076 155.763 265.117 155.703 265.154C155.528 265.234 155.375 264.884 155.295 264.272C155.093 262.374 154.998 260.466 155.011 258.558C155.011 257.1 155.011 255.642 155.091 254.228H155.142Z" fill="#3A3A3A"/>
<path d="M242.815 224.536C242.815 221.934 242.815 219.332 242.75 216.73C242.75 215.782 242.648 214.835 242.611 213.887C242.538 212.233 242.429 210.534 242.414 208.843V203.807C242.414 202.349 242.334 200.833 242.203 199.368C242.032 197.5 241.713 195.647 241.248 193.829C241.102 193.261 241.285 193.275 241.605 193.698C242.105 194.412 242.452 195.22 242.626 196.074C243.471 199.952 243.5 203.887 243.529 207.772C243.529 208.938 243.529 210.119 243.661 211.3C243.792 212.48 243.865 213.705 243.923 214.9C244.069 217.531 244.134 220.17 244.164 222.801C244.164 224.426 244.164 226.044 244.164 227.662C244.164 230.118 244.113 232.582 244.083 235.009C244.083 236.904 244.178 238.755 244.156 240.621V241.853C244.156 243.391 244.047 243.879 243.792 244.207C243.743 244.287 243.684 244.36 243.617 244.426C243.427 244.571 243.26 243.945 243.165 242.822C242.844 239.477 242.822 235.949 242.801 232.422L242.757 224.536H242.815Z" fill="#3A3A3A"/>
<path d="M298.936 163.553C299.14 162.321 299.33 161.089 299.497 159.858C299.563 159.406 299.585 158.954 299.643 158.502C299.854 156.92 300.073 155.332 300.233 153.735C300.306 153.006 300.336 152.321 300.357 151.614C300.349 150.707 300.388 149.799 300.474 148.896C300.54 148.335 301.305 149.049 301.349 150.106C301.398 151.978 301.306 153.852 301.072 155.711C300.926 156.826 300.868 157.992 300.744 159.136C300.605 160.39 300.438 161.636 300.263 162.89L299.935 165.193C299.774 166.352 299.57 167.518 299.432 168.669C299.322 169.566 299.286 170.462 299.213 171.352C299.213 171.548 299.213 171.745 299.169 171.942C299.089 172.671 298.973 172.889 298.645 173.006C298.572 173.039 298.497 173.064 298.419 173.079C298.171 173.123 298.01 172.795 298.01 172.248C298.028 170.587 298.152 168.929 298.382 167.285C298.528 166.038 298.725 164.792 298.907 163.546L298.936 163.553Z" fill="#3A3A3A"/>
</svg>
