<svg width="520" height="520" viewBox="0 0 520 520" fill="none" xmlns="http://www.w3.org/2000/svg">
<path d="M187.4 495.7C187.4 495.42 187.43 495.18 187.46 494.47C187.46 494.4 187.46 494.45 187.46 494.44H187.5H187.61H187.72H187.73H187.75L188.04 494.38C188.4 494.31 188.73 494.27 189.06 494.23C189.71 494.16 190.34 494.12 190.96 494.08C192.21 494.01 193.45 493.97 194.69 493.94L202.09 493.78C203.88 493.73 205.69 493.64 207.42 493.5C207.78 493.47 208.21 493.42 208.41 493.36C208.41 493.36 208.41 493.31 208.44 493.42C208.48 493.56 208.55 493.69 208.63 493.81C208.66 493.9 208.75 493.98 208.78 494.02C208.78 494.03 208.82 494.05 208.83 494.04C208.82 494.04 208.81 494.04 208.81 494.04C208.78 494.05 208.74 494.07 208.72 494.1C208.71 494.11 208.7 494.13 208.69 494.14C208.44 494.44 208.61 494.23 208.55 494.3H208.53L208.5 494.35C208.42 494.43 208.35 494.52 208.29 494.61C208.27 494.65 208.29 494.63 208.29 494.63C208.19 494.6 208.07 494.54 207.89 494.51C207.21 494.37 206.43 494.29 205.66 494.24C204.11 494.13 202.53 494.09 200.95 494.06C197.79 494 194.62 494.04 191.45 494.06C188.64 494.07 185.81 494.14 183.02 494.19C179.43 494.25 175.82 494.35 172.23 494.07C171.11 493.97 171.28 493.75 172.23 493.55C173.18 493.35 174.92 493.11 176.97 493.06C184.27 492.89 191.58 492.41 198.98 492.55C201.2 492.58 203.45 492.58 205.76 492.68C206.34 492.71 206.91 492.74 207.51 492.82C207.8 492.85 208.12 492.91 208.44 492.97C208.63 493.03 208.77 493.05 208.99 493.15C209.11 493.21 209.23 493.28 209.35 493.36C209.41 493.41 209.51 493.52 209.57 493.62C209.66 493.73 209.72 494.1 209.65 494.27C209.47 494.73 209.31 494.73 209.21 494.83C208.88 495 208.74 495 208.57 495.05C208.4 495.09 208.25 495.11 208.1 495.13C207.8 495.17 207.51 495.2 207.22 495.23C206.64 495.29 206.07 495.32 205.5 495.36C200.51 495.63 195.54 495.64 190.63 495.97C189.89 496.03 189.12 496.09 188.44 496.22C188.34 496.24 188.32 496.24 188.17 496.29C188.03 496.35 187.89 496.34 187.74 496.34H187.43H187.38H187.33H187.28C187.2 495.95 187.53 497.23 186.75 495.38C187.56 494.63 187.08 495.14 187.22 494.99H187.26C187.42 494.96 187.37 494.97 187.42 494.97H187.57L188.72 494.95L193.31 494.9C197.94 494.85 202.59 494.82 207.18 494.71C210.75 494.63 214.25 494.38 217.77 494.24C218.55 494.21 219.31 494.15 220.09 494.15C221.54 494.12 222.5 494.15 223.17 494.27C223.84 494.37 224.23 494.51 224.55 494.72C224.7 494.81 224.89 494.9 224.97 494.99C225.27 495.28 224.08 495.65 221.96 495.96C215.65 496.66 208.99 496.7 202.31 496.8C199.83 496.82 197.34 496.84 194.85 496.86L191.12 496.88H189.25L188.32 496.9H187.86H187.63H187.52H187.47H187.45C187.45 496.9 187.46 497.03 187.44 496.63C187.43 496.38 187.38 496 187.39 495.91C187.39 495.85 187.38 495.79 187.36 495.73L187.4 495.7Z" fill="#231F20"/>
<path opacity="0.2" d="M93 269.95C92.19 269.63 84.8 274.44 82.02 276.61C79.24 278.77 73.65 285.41 68.47 285.29C63.29 285.17 51.84 282.23 50.43 281.22C49.02 280.21 52.23 278.57 52.23 278.57C52.23 278.57 39.41 277.36 40.07 276.2C40.73 275.04 61.35 274.94 66.52 272.87C71.69 270.8 89.08 259.27 89.08 259.27L93 269.96V269.95Z" fill="#231F20"/>
<path opacity="0.2" d="M51.1701 282.21C51.1701 282.21 50.9401 288.81 52.7501 288.82C54.5601 288.83 52.7501 282.89 52.7501 282.89L51.1701 282.21Z" fill="#231F20"/>
<path opacity="0.2" d="M55.6802 283.81C55.6802 283.81 56.1102 290.48 57.4802 291.09C58.8502 291.7 58.4202 286.92 58.6102 286.48C58.8002 286.04 59.2802 285.29 59.2802 285.29L55.6802 283.82V283.81Z" fill="#231F20"/>
<path opacity="0.2" d="M292.06 152.44C292.06 152.44 302.06 146.49 305.71 142.04C309.36 137.59 316.94 119.71 319.2 114.49C321.46 109.26 340.23 100.67 341.63 101.21C343.03 101.75 341.63 105.54 340.11 106.73C338.59 107.92 337.2 108.86 337.2 108.86C337.2 108.86 348.7 108.53 348.87 109.98C349.04 111.43 347.98 113.83 344.33 113.82C340.68 113.81 333.72 115.62 330.07 120.7C330.07 120.7 328.9 123.68 331.2 122.73C333.5 121.78 339.76 116.76 341.63 117.96C343.49 119.17 344.06 119.89 342.82 121.39C341.58 122.89 336.06 126.86 334.2 127.81C332.34 128.75 330.87 134.21 328.44 135.28C326.01 136.36 325.53 136.99 324.38 136.62C323.22 136.25 296.62 168.98 296.62 168.98L292.06 152.46V152.44Z" fill="#231F20"/>
<path opacity="0.2" d="M193.44 155.6C193.44 155.6 185.11 155.74 182.29 153.36C179.47 150.98 177.9 145.47 183 140.83C188.1 136.19 189.65 140.92 193.74 145.52C197.82 150.12 198.59 149.83 200.61 144.83C202.63 139.83 196.89 130.7 198.87 121.02C200.85 111.34 204.54 113.88 204.54 113.88C212.72 120.33 222.47 115.78 224.35 117.26C226.23 118.74 229.44 126.33 230.27 128.31C231.1 130.29 241.19 132.79 242 135.71C242.81 138.63 235.34 143.6 235.34 143.6C235.34 143.6 236.01 154.2 233.07 161C230.13 167.8 222.78 172.8 213.03 175.06C203.28 177.33 193.46 171.33 188.73 167.98L188.38 157.41L193.46 155.61L193.44 155.6Z" fill="#231F20"/>
<path d="M191.25 169.47C191.09 168.34 190.9 167.21 190.6 166.11C190.5 165.7 190.32 165.33 190.2 164.93C189.82 163.51 189.36 162.09 188.7 160.77C188.43 160.17 188.02 159.65 187.67 159.11C187.18 158.43 186.65 157.81 186.22 157.07C186.09 156.83 186.32 156.64 186.71 156.56C187.1 156.49 187.69 156.53 188.13 156.86C189.66 158.04 190.57 159.75 191.19 161.49C191.55 162.54 192.11 163.54 192.46 164.61C192.83 165.79 193.13 166.98 193.36 168.19C193.5 168.93 193.62 169.68 193.72 170.42C193.88 171.55 193.96 172.69 194.05 173.82C194.1 174.7 194.25 175.56 194.26 176.44C194.26 176.63 194.3 176.83 194.28 177.02C194.12 177.74 193.92 177.95 193.49 178.06C193.39 178.08 193.29 178.12 193.2 178.13C192.89 178.16 192.63 177.84 192.45 177.34C192.18 176.59 192.11 175.86 191.96 175.11C191.84 174.36 191.67 173.62 191.64 172.86C191.52 171.74 191.42 170.6 191.21 169.47H191.27H191.25Z" fill="#231F20"/>
<path d="M212.56 123.14C212.54 123.33 212.58 123.02 212.59 122.99C212.61 122.87 212.64 122.75 212.68 122.63C212.72 122.51 212.75 122.39 212.79 122.28C212.81 122.23 212.91 121.97 212.84 122.13C213.03 121.67 213.3 121.25 213.58 120.84C214.03 120.18 214.92 119.35 215.65 118.75C217.23 117.46 219.19 116.43 221.15 115.81C221.86 115.58 222.31 114.85 222.11 114.12C221.92 113.42 221.13 112.93 220.42 113.16C217.91 113.96 215.6 115.23 213.58 116.91C211.56 118.59 210.11 120.58 209.81 123.14C209.73 123.88 210.5 124.52 211.19 124.52C212 124.52 212.48 123.89 212.57 123.14H212.56Z" fill="#231F20"/>
<path d="M229.04 150.37C230.37 152.36 233.08 153.38 235.36 152.48C235.67 152.36 235.93 152.21 236.11 151.91C236.27 151.64 236.33 151.25 236.24 150.95C236.05 150.36 235.35 149.82 234.7 150.08C234.5 150.16 234.3 150.22 234.09 150.27C234.03 150.28 233.98 150.29 233.92 150.3C233.71 150.34 234.17 150.28 234.02 150.29C233.92 150.29 233.82 150.31 233.72 150.31C233.61 150.31 233.49 150.31 233.38 150.31C233.27 150.31 232.9 150.23 233.31 150.31C233.1 150.27 232.89 150.23 232.68 150.17C232.58 150.14 232.49 150.1 232.39 150.07C232.19 150 232.61 150.17 232.47 150.11C232.42 150.09 232.37 150.06 232.32 150.04C232.13 149.95 231.94 149.84 231.77 149.71C231.7 149.66 231.57 149.53 231.83 149.76C231.8 149.73 231.76 149.7 231.73 149.67C231.64 149.6 231.56 149.52 231.48 149.44C231.4 149.36 231.33 149.28 231.25 149.19C231.14 149.06 231.3 149.25 231.32 149.28C231.29 149.22 231.24 149.17 231.2 149.11C230.84 148.57 230.08 148.28 229.49 148.66C228.95 149.01 228.65 149.79 229.04 150.37Z" fill="#231F20"/>
<path d="M63.58 438.54C63.58 438.54 53.05 454.63 55.25 454.11C57.45 453.59 63.58 447.6 63.58 447.6C63.58 447.6 70.08 465.34 75.37 467.77C80.66 470.19 78.23 465.72 75.9 461.5C73.57 457.28 67.67 445.72 68.43 443.08L69.18 440.44L63.58 438.54Z" fill="#231F20"/>
<path d="M77.1202 471.48C74.6602 470.6 70.5302 465.79 69.8002 464.76C68.3602 462.92 67.0402 461.01 65.8402 459.02C64.9602 457.57 64.0702 456.11 63.3702 454.55C63.0802 453.92 62.8102 453.27 62.5702 452.6C62.4602 452.28 62.3002 451.85 62.3102 451.86C62.2802 451.77 62.2602 451.66 62.2302 451.57L62.1302 451C62.0002 451 61.8702 451.17 61.7402 451.27L61.3102 451.65L60.1002 452.77C59.6802 453.15 59.2402 453.53 58.7902 453.9C58.1702 454.4 57.4302 454.98 56.7502 455.34C56.0502 455.71 55.4202 455.89 54.8002 455.84C54.4902 455.82 54.1502 455.71 53.8802 455.48C53.6102 455.25 53.4402 454.94 53.3302 454.63C53.2502 454.36 53.2102 454.08 53.2002 453.81C53.2002 453.12 53.4102 452.34 53.7602 451.54C53.9302 451.14 54.1302 450.76 54.3202 450.37L54.7502 449.58C55.3402 448.54 55.9602 447.53 56.5902 446.55C57.4902 445.16 58.3702 443.76 59.3702 442.44C59.8602 441.78 60.3702 441.13 60.8902 440.49L61.6802 439.55C61.9602 439.25 62.3002 438.99 62.6002 438.71C63.4202 438.06 63.5202 438.28 63.4402 439.3C63.3902 439.8 63.3802 440.56 63.1102 441.28C62.8702 442.02 62.5002 442.83 61.9902 443.61C60.8802 445.35 59.6602 447 58.5502 448.7C57.9902 449.54 57.4502 450.39 56.9602 451.24C56.6302 451.83 56.7102 451.66 56.6602 451.72C56.6402 451.74 56.6102 451.78 56.5802 451.83C56.5402 451.88 56.5202 451.99 56.5602 452.05C56.6002 452.1 56.6602 452.1 56.7302 452.09C56.8202 452.06 56.8602 452.07 57.0402 451.95C57.5002 451.57 57.9602 451.17 58.4202 450.76L58.9902 450.23L59.6702 449.56C60.3002 448.91 60.9502 448.17 61.6002 447.66C61.9202 447.43 62.2202 447.31 62.4802 447.23C62.7402 447.18 62.9702 447.06 63.2302 447.2L63.7602 447.7C63.9402 447.96 64.1102 448.38 64.2902 448.71C64.3902 449.13 64.5302 449.51 64.6702 449.91L64.8702 450.5C64.9202 450.69 65.0402 450.93 65.0702 451C65.2502 451.43 65.4302 451.86 65.6402 452.28C66.0302 453.13 66.4702 453.97 66.9202 454.79C67.9702 456.71 69.1802 458.56 70.4802 460.35C71.1302 461.24 71.8202 462.11 72.5202 462.96C72.8702 463.38 73.2402 463.8 73.5902 464.21L74.1002 464.79C74.5402 465.26 75.0302 465.76 75.6302 466.2C75.9302 466.4 76.2802 466.65 76.6502 466.6C76.8402 466.56 76.9102 466.36 76.9002 466.2C76.8902 466.04 76.8502 465.87 76.8002 465.71C76.6402 465.22 76.4102 464.75 76.1702 464.26L75.7902 463.51L75.3102 462.61C74.3002 460.75 73.2902 458.89 72.2802 457.04C70.7302 454.14 69.0902 451.32 68.0302 448.11C67.8002 447.4 67.5602 446.71 67.4102 445.95C67.1002 444.56 67.1802 443.55 67.3502 442.88C67.6602 442.2 67.9102 441.85 68.2302 441.59C68.3702 441.47 68.5102 441.32 68.6302 441.27C68.8302 441.18 68.9702 441.42 69.1202 441.88C69.1702 442.11 69.3302 442.41 69.4802 442.74C69.6602 443.07 69.7202 443.45 69.8402 443.88C70.5102 446.42 71.7402 448.96 73.0702 451.53C74.3702 454.12 75.8402 456.71 77.3402 459.35L78.1802 460.83L79.6002 463.38C80.6702 465.35 81.6302 467.4 81.6702 468.64C81.7202 468.98 81.6302 469.18 81.6202 469.46L81.4302 470.11C81.2902 470.54 81.0702 470.93 80.4302 471.43C79.8002 471.84 79.3502 471.91 78.8402 471.94C78.3302 471.94 77.7902 471.86 77.1502 471.61L77.1002 471.48H77.1202Z" fill="#231F20"/>
<path d="M174.01 471.72C174.01 471.72 171.14 487.64 172.71 487.5C174.28 487.36 176.74 479.59 176.74 479.59C176.74 479.59 195.2 494.36 198.12 493.85C201.05 493.35 203.62 494.98 200.38 490.13C197.36 485.6 180.76 473.73 180.43 470.85C180.1 467.97 174.02 471.71 174.02 471.71L174.01 471.72Z" fill="#231F20"/>
<path d="M200.5 495.99C199.04 496.12 196.82 495.27 194.9 494.33C194.32 494.06 194.15 493.96 193.87 493.8L193.07 493.36C192.54 493.06 192.02 492.75 191.5 492.45C189.43 491.21 187.44 489.89 185.49 488.51C184.07 487.51 182.61 486.55 181.24 485.46C180.5 484.88 179.77 484.27 179.06 483.65L178 482.7C177.9 482.61 177.8 482.48 177.69 482.4L177.32 481.97C177.21 482.06 177.18 482.25 177.11 482.4L176.92 482.93L176.42 484.48C175.91 486.05 175.38 487.62 174.76 488.71C174.46 489.25 174.15 489.66 173.83 489.98C173.5 490.3 173.2 490.59 172.7 490.72C172.19 490.84 171.64 490.48 171.42 490.13C171.28 489.95 171.16 489.77 171.09 489.57C171 489.38 170.91 489.19 170.86 488.99L170.71 488.34L170.62 487.6C170.52 487.16 170.58 486.49 170.57 485.91C170.55 485.33 170.66 484.64 170.7 484C170.73 483.68 170.75 483.35 170.8 483.02L170.88 482.34C171.11 480.62 171.32 478.9 171.7 477.22C171.88 476.38 172.07 475.54 172.3 474.7L172.65 473.46C172.78 473.05 173 472.66 173.18 472.26C173.71 471.28 173.88 471.48 174.19 472.48C174.33 472.98 174.63 473.7 174.66 474.49C174.73 475.29 174.73 476.21 174.58 477.17C174.33 478.96 173.99 480.72 173.72 482.48L173.63 483.14L173.61 483.3C173.61 483.3 173.61 483.31 173.61 483.32C173.61 483.32 173.6 483.33 173.59 483.35C173.58 483.38 173.55 483.43 173.53 483.51C173.51 483.59 173.49 483.72 173.53 483.82C173.58 483.89 173.62 483.89 173.67 483.88C173.72 483.86 173.78 483.81 173.85 483.71C173.89 483.66 173.92 483.6 173.97 483.53L174 483.47C174 483.47 174 483.48 174.05 483.35L174.24 482.76L174.34 482.45C174.37 482.35 174.4 482.26 174.46 482.04L174.77 480.93C174.97 480.2 175.19 479.41 175.53 478.97C175.7 478.75 175.86 478.58 176.03 478.44C176.12 478.37 176.2 478.32 176.3 478.27C176.43 478.19 176.52 478.27 176.63 478.27L176.93 478.33C177.04 478.36 177.12 478.34 177.27 478.45L178.08 478.95C178.47 479.33 178.86 479.66 179.25 480.02L180.2 480.8C180.68 481.18 181.16 481.56 181.65 481.93C182.63 482.67 183.63 483.4 184.63 484.11C186.53 485.46 188.47 486.76 190.45 487.99C191.44 488.6 192.44 489.2 193.45 489.77C193.95 490.06 194.46 490.33 194.97 490.6L196.17 491.21C196.58 491.42 197.02 491.62 197.5 491.78C197.74 491.85 197.99 491.93 198.26 491.92C198.39 491.92 198.52 491.89 198.61 491.8C198.69 491.71 198.72 491.58 198.7 491.46C198.65 491.03 198.38 490.66 198.12 490.3C197.95 490.08 197.77 489.86 197.58 489.64L197.29 489.32L196.79 488.79C196.04 488.01 195.25 487.26 194.46 486.51C192.86 485.02 191.21 483.58 189.53 482.18C186.92 480.01 184.19 478.08 181.58 475.92C181 475.45 180.42 475 179.86 474.49C178.81 473.56 178.2 472.83 177.87 472.22C177.73 471.89 177.65 471.61 177.6 471.35C177.53 471.12 177.51 470.91 177.51 470.7C177.51 470.51 177.48 470.3 177.51 470.17C177.57 469.95 177.84 470.01 178.31 470.23C178.54 470.35 178.86 470.47 179.25 470.61C179.65 470.74 179.98 471.02 180.4 471.29C182.81 473 185.34 474.77 187.83 476.66C190.31 478.58 192.79 480.58 195.23 482.7C196.67 483.95 198.09 485.23 199.47 486.64L200.26 487.46C200.58 487.8 200.86 488.15 201.16 488.49C201.79 489.18 202.23 489.88 202.66 490.56L203.12 491.54L203.35 492.42C203.35 492.69 203.37 492.95 203.35 493.21L203.24 494.02C203.2 494.14 203.13 494.29 203.05 494.43C202.99 494.49 203.03 494.6 202.89 494.61L202.76 494.83C202.67 494.97 202.57 495.11 202.47 495.23C202.35 495.32 202.24 495.42 202.12 495.5C201.67 495.82 201.17 495.96 200.57 496.04L200.5 495.95V495.99Z" fill="#231F20"/>
<path d="M160.66 278.23C160.66 278.23 126.06 324.8 111.6 337.87C97.14 350.94 55.63 405.96 52.81 413.74C49.98 421.53 55.39 430.25 60.22 434.54C65.05 438.83 80.48 451.78 94.59 452.46C108.71 453.14 120.3 437.29 132.85 413.95C145.4 390.61 168.99 348.68 170.66 346.21C172.33 343.74 168.05 365.48 165.32 376.17C162.59 386.86 152.95 423.32 151.13 434.7C149.31 446.08 145.17 458.47 152.34 463.15C159.52 467.83 178.1 474.52 192.56 472.43C207.02 470.34 215.49 469.4 216.63 463.33C217.77 457.26 219.61 406.02 217.52 385.11C215.43 364.2 215.97 316.77 216 313.1C216.03 309.43 217.47 278.22 217.47 278.22C217.47 278.22 202.56 285.84 187.39 284.5C172.22 283.16 160.65 278.22 160.65 278.22L160.66 278.23Z" fill="#231F20"/>
<path d="M206.2 193.74C206.2 193.74 212.26 195.31 213.74 192.26C214.93 189.81 215.71 194.14 214.23 195.34C212.75 196.54 207.87 194.97 206.99 194.73C206.11 194.49 206.19 193.74 206.19 193.74H206.2Z" fill="#231F20"/>
<path d="M217.51 210.9C217.51 210.9 219.03 209.84 219.32 211.46C219.61 213.08 216.1 214 217.51 210.9Z" fill="#231F20"/>
<path d="M164.39 237.84C164.39 237.84 166.21 237.42 173.74 232.15C175.02 231.25 174.96 228.45 174.96 228.45L164.38 237.84H164.39Z" fill="#231F20"/>
<path d="M88.7299 266.96C88.4099 266.35 88.1099 265.74 87.8399 265.11C87.7399 264.88 87.5899 264.68 87.4999 264.44C87.2099 263.6 87.0699 262.71 86.9099 261.85C86.8299 261.47 86.7999 261.08 86.7299 260.71C86.6599 260.22 86.6199 259.73 86.7299 259.24C86.7599 259.09 86.8999 259.1 87.0899 259.21C87.2699 259.32 87.5399 259.51 87.6499 259.75C87.8599 260.16 88.0699 260.56 88.2899 260.98C88.4999 261.38 88.5699 261.82 88.6899 262.26C88.7899 262.81 89.1899 263.25 89.3999 263.77C89.6599 264.33 89.9199 264.9 90.2299 265.45C90.4199 265.79 90.6099 266.13 90.8299 266.45C91.1499 266.94 91.4799 267.44 91.8899 267.86C92.2099 268.18 92.6299 268.4 92.9499 268.7C93.0199 268.76 93.1099 268.82 93.1799 268.89C93.4299 269.15 93.4199 269.34 93.1499 269.74C93.0899 269.83 93.0399 269.93 92.9699 270.01C92.7499 270.3 92.4299 270.41 92.1199 270.32C91.6599 270.17 91.1999 270 90.8299 269.72C90.4799 269.42 90.1699 269.08 89.8799 268.72C89.4499 268.18 89.0799 267.6 88.7099 267.01L88.7499 266.98L88.7299 266.96Z" fill="#231F20"/>
<path d="M295.64 158.43C295.95 159.53 296.23 160.63 296.51 161.73C296.61 162.13 296.76 162.52 296.85 162.92C297.17 164.33 297.49 165.76 297.81 167.17C297.97 167.79 298.14 168.41 298.3 169.03C298.41 169.42 298.52 169.82 298.63 170.21C298.71 170.61 298.75 171.03 298.79 171.44C298.8 171.7 298.66 171.71 298.41 171.56C298.17 171.41 297.75 171.12 297.49 170.7C297.14 169.93 296.85 169.14 296.57 168.35C296.36 167.54 296.19 166.71 296.05 165.88C295.88 164.88 295.52 163.9 295.24 162.91C294.93 161.82 294.64 160.74 294.31 159.66C294.11 159 293.9 158.34 293.68 157.68C293.33 156.69 292.99 155.69 292.55 154.75C292.2 154.02 291.78 153.35 291.4 152.65L291.14 152.2C290.86 151.61 290.9 151.35 291.16 151.06C291.22 150.99 291.28 150.91 291.34 150.86C291.56 150.67 291.9 150.8 292.26 151.17C292.78 151.73 293.19 152.37 293.6 153.02C293.97 153.69 294.27 154.41 294.56 155.13C294.99 156.2 295.34 157.31 295.69 158.41L295.65 158.43H295.64Z" fill="#231F20"/>
<path d="M296.61 170.44C296.61 170.44 301.46 180.85 303.67 179.41C306.49 177.57 299.43 166.99 299.43 166.99L296.61 170.44Z" fill="#231F20"/>
<path d="M185.96 155.31C186.28 156.24 189.16 164.24 189.07 169.9C188.98 175.56 186.95 180.35 181.52 183.91C176.09 187.47 166.07 192.47 156.05 174.92C156.05 174.92 148.68 182.82 143.13 180.89C137.58 178.96 129.91 176.63 133.54 162.07C133.54 162.07 135.01 162.46 131.2 158.99C127.39 155.52 123.3 152.26 126.56 146.37C129.82 140.48 139.72 138.91 141.84 133.44C143.28 129.71 139.39 124.68 138.53 121.14C136.05 110.9 147.91 104.65 156.97 105.54C156.46 105.48 155.01 90.9799 166.6 85.9399C177.66 81.1299 186.51 89.3899 188.74 93.2499C188.74 93.2499 193.92 72.6099 213.22 76.5299L221.07 84.1999C221.07 84.1999 223.47 79.6399 231.34 82.6399C247.89 88.9499 240.25 114.9 221.86 117.12C221.86 117.12 208.79 117.57 203.24 112.99C203.24 112.99 198.55 114.44 197.59 119.08C196.63 123.72 199.71 137.35 199.39 141.35C199.07 145.35 198.47 148.3 197.29 147.83C195.61 147.16 194.66 144.83 191.03 140.84C186.12 135.44 180.46 139.12 179.07 145.78C179.07 145.78 179.47 150.91 182.31 153.38C185.15 155.85 185.98 155.33 185.98 155.33L185.96 155.31Z" fill="#231F20"/>
<path d="M236.15 156.8C235.34 159.65 234.02 162.37 232.3 164.78L231.33 166.08C231 166.51 230.63 166.9 230.27 167.3C227.61 170.03 224.35 172.04 220.92 173.41C220.16 173.73 219.4 174.03 218.62 174.28L217.46 174.69L216.29 175.03C215.3 175.35 214.29 175.61 213.27 175.82C212.26 176.06 211.2 176.09 210.15 175.98C209.49 175.92 209.56 175.77 210.04 175.35C210.35 175.08 210.68 174.79 211.02 174.5C211.43 174.19 211.93 173.99 212.47 173.78C214.43 173.25 216.37 172.73 218.23 172C220.09 171.29 221.97 170.58 223.73 169.61C225.86 168.48 227.72 166.75 229.3 164.89C231.04 162.84 232.38 160.45 233.31 157.89C233.87 156.31 234.26 154.66 234.51 152.99C234.87 150.45 234.93 147.84 234.62 145.3C234.39 143.32 233.85 141.43 233.27 139.56C233.16 139.14 233 138.75 232.89 138.33C232.79 137.94 232.68 137.63 232.62 137.35C232.56 137.07 232.57 136.83 232.56 136.63C232.56 136.23 232.62 135.97 232.74 135.73C232.8 135.62 232.84 135.49 232.9 135.41C233.07 135.16 233.64 135.66 234.37 136.72C234.82 137.54 235.23 138.4 235.59 139.29C235.92 140.19 236.2 141.12 236.43 142.06C236.89 143.95 237.22 145.93 237.26 147.92C237.36 150.88 237 153.89 236.23 156.78H236.17L236.15 156.8Z" fill="#231F20"/>
<path d="M239.47 138.34C239.98 137.55 240.46 136.72 240.56 136.11C240.59 135.89 240.52 135.76 240.5 135.65C240.52 135.58 240.47 135.52 240.43 135.44C240.35 135.34 240.29 135.24 240.18 135.14C239.99 134.93 239.74 134.7 239.49 134.49C238.97 134.07 238.44 133.61 237.86 133.21C237.35 132.85 236.8 132.55 236.24 132.27C235.54 131.89 234.85 131.45 234.25 130.84C234.07 130.65 234.22 130.45 234.55 130.29C234.88 130.14 235.41 129.94 235.88 130.02C236.29 130.11 236.71 130.18 237.11 130.3C237.49 130.46 237.87 130.63 238.25 130.81C239 131.18 239.74 131.61 240.42 132.17C240.82 132.53 241.26 132.82 241.74 133.19C241.98 133.38 242.22 133.56 242.49 133.88C242.74 134.17 242.94 134.58 243.08 134.94C243.16 135.35 243.27 135.79 243.22 136.15C243.22 136.34 243.2 136.53 243.18 136.71L243.06 137.22C242.89 137.89 242.64 138.47 242.34 139.01C241.98 139.68 241.55 140.27 241.13 140.85C240.48 141.73 239.74 142.51 239.07 143.33C238.54 143.96 238.13 144.69 237.57 145.32C237.45 145.46 237.33 145.6 237.19 145.72C237.05 145.83 236.93 145.91 236.82 145.97C236.69 146.01 236.55 145.99 236.44 145.98C236.21 145.94 236.01 145.84 235.8 145.68C235.7 145.61 235.61 145.54 235.53 145.47C235.29 145.25 235.27 144.77 235.35 144.2C235.9 142.85 236.83 141.86 237.67 140.75C238.29 139.94 238.92 139.13 239.4 138.3L239.46 138.33L239.47 138.34Z" fill="#231F20"/>
<path d="M201.23 142.29C201.23 143.57 201.06 144.96 200.51 146.29C200.36 146.63 200.25 146.93 199.98 147.33C199.73 147.71 199.53 148.07 199.12 148.42C198.94 148.59 198.77 148.78 198.58 148.94L197.94 149.28C197.5 149.47 197.01 149.55 196.53 149.47C195.59 149.36 194.74 148.63 194.16 147.91C194.03 147.74 193.87 147.54 193.77 147.39L193.51 146.98C193.34 146.71 193.2 146.44 193.04 146.17L192.24 144.64C191.99 144.16 191.76 143.68 191.55 143.43C190.56 142.26 189.44 141.23 188.24 140.5C187.18 139.89 186.03 139.58 184.94 139.84C183.84 140.06 182.83 140.82 182.03 141.79C181.23 142.77 180.63 143.98 180.27 145.24C180.1 145.9 179.97 146.45 180.02 147.07C180.02 147.68 180.15 148.31 180.34 148.92C180.69 150 181.32 151 182.11 151.84C182.9 152.7 183.93 153.28 184.96 153.81C186.32 154.46 187.85 154.69 189.38 154.86C190.15 154.92 190.93 155.01 191.72 154.98C192.11 154.96 192.52 155.03 192.92 155.02C193.33 155.02 193.72 154.98 194.14 155.04C195.21 155.26 195.07 155.16 194.29 155.74C193.9 156.03 193.33 156.42 192.59 156.81C191.84 157.12 190.92 157.46 189.87 157.5C188.03 157.7 186.11 157.32 184.29 156.65C182.45 155.99 180.78 154.75 179.53 153.19C178.28 151.62 177.42 149.7 177.29 147.6C177.22 146.57 177.42 145.41 177.72 144.54C177.85 144.07 178.06 143.64 178.23 143.19C178.45 142.76 178.66 142.33 178.91 141.92C179.5 140.94 180.25 140.03 181.13 139.22C182.04 138.43 183.16 137.8 184.4 137.5C185.66 137.2 186.95 137.37 188.14 137.69C189.28 138.11 190.33 138.69 191.21 139.4C191.67 139.81 192.2 140.18 192.59 140.63L193.22 141.29C193.43 141.52 193.63 141.69 193.87 142.04C194.65 143.19 195.05 144.17 195.61 145.11C195.74 145.35 195.88 145.55 196.02 145.77C196.13 145.93 196.23 146.07 196.3 146.16C196.44 146.33 196.65 146.52 196.9 146.49C197.15 146.45 197.3 146.28 197.47 146.04C197.56 145.88 197.66 145.78 197.75 145.56C197.83 145.34 197.95 145.14 198.02 144.91C198.75 142.63 198.21 139.82 197.63 137.15C196.71 133.06 195.57 128.79 195.65 124.36C195.68 120.94 196.59 117.46 198.53 114.54C198.98 113.92 199.37 113.27 199.9 112.71C200.14 112.45 200.38 112.22 200.59 112.01C200.82 111.82 201.03 111.65 201.22 111.5C201.61 111.21 201.93 110.96 202.24 110.83C202.86 110.57 203.29 110.52 203.71 110.59C203.9 110.62 204.12 110.63 204.26 110.69C204.73 110.89 204.13 111.92 203 113.39C201.32 115.57 199.84 117.81 199.2 120.39C198.51 122.93 198.46 125.7 198.88 128.56C199.17 130.68 199.68 132.85 200.18 135.09C200.67 137.34 201.24 139.64 201.29 142.26H201.22L201.23 142.29Z" fill="#231F20"/>
<path d="M246.56 92.9102C246.99 95.6402 246.77 98.4002 246.06 100.98C245.34 103.56 244.13 105.95 242.59 108.06C242.04 108.84 241.43 109.58 240.83 110.31C240.16 110.98 239.55 111.72 238.81 112.32C233.74 116.7 227.2 118.94 220.74 119.08C217.87 119.13 214.97 118.89 212.21 118.18C208.67 117.3 205.19 115.73 202.53 113.2C201.7 112.41 202.04 112.27 203.07 112.45C203.58 112.54 204.3 112.66 205.03 112.95C205.79 113.19 206.67 113.46 207.52 113.91C210.64 115.32 213.95 116.28 217.37 116.53C220.78 116.8 224.25 116.43 227.59 115.5C228.09 115.34 228.58 115.19 229.08 115.03C229.58 114.87 230.05 114.62 230.54 114.42C231.53 114.03 232.42 113.45 233.35 112.92C235.11 111.73 236.82 110.42 238.19 108.83C241.32 105.45 243.39 101.01 243.59 96.4402C243.67 93.6402 242.99 90.8202 241.52 88.4202C240.39 86.6102 238.84 85.0702 237.08 83.8002L235.7 82.9202C235.47 82.7602 235.24 82.6602 235.01 82.5502C234.78 82.4402 234.56 82.3102 234.3 82.2402C233.34 81.8502 232.29 81.7202 231.25 81.6502C227.96 81.5702 224.79 82.9402 222.25 84.9402C221.67 85.3602 221.19 85.8802 220.65 86.3502C219.69 87.2802 219.1 87.9302 218.54 88.2802C218.03 88.6802 217.6 88.8202 217.11 88.8402C216.89 88.8502 216.64 88.9002 216.46 88.8802C216.15 88.8402 216.08 88.5202 216.2 87.9302C216.31 87.3402 216.67 86.5202 217.34 85.6002C219.37 82.9302 222.27 80.6802 225.73 79.4302C227.46 78.8102 229.33 78.4802 231.26 78.5102C233.18 78.5402 235.19 78.9702 237.02 79.9402C239.39 81.2502 241.6 83.0102 243.31 85.2502C245.02 87.4702 246.18 90.1502 246.64 92.9002L246.56 92.9202V92.9102Z" fill="#231F20"/>
<path d="M205.03 74.68C202.78 74.63 200.46 75.12 198.35 76.13L197.77 76.4L197.24 76.76C196.89 77 196.53 77.23 196.17 77.45C194.96 78.34 193.83 79.34 192.87 80.54C191.92 81.75 191.14 83.12 190.55 84.56C190.02 85.85 189.73 87.23 189.57 88.6C189.35 90.39 189.67 92.08 189.37 93.94C189.16 94.56 189.11 94.51 188.56 94.12C187.95 93.75 187.06 92.88 186.9 91.7C186.47 87.55 187.67 83.31 190.12 79.95C191.55 77.95 193.3 75.97 195.41 74.57C197.73 73.04 200.39 72.07 203.13 71.72C203.98 71.63 204.82 71.54 205.68 71.6C206.11 71.62 206.53 71.61 206.95 71.65L208.21 71.85C210.75 72.3 213.16 73.45 215.17 75.04C215.91 75.71 216.73 76.28 217.37 77.04L218.39 78.13L219.24 79.35C219.48 79.72 219.78 80.05 219.95 80.45C220.55 81.97 220.51 82.54 219.84 83.11C219.69 83.24 219.55 83.39 219.39 83.49C218.86 83.81 218.1 83.43 217.49 82.59C217.26 82.28 217.07 81.95 216.82 81.66C216.56 81.38 216.34 81.07 216.11 80.78C215.87 80.49 215.69 80.16 215.44 79.9C215.18 79.64 214.93 79.37 214.69 79.1C214.24 78.51 213.63 78.12 213.11 77.63C212.86 77.36 212.53 77.22 212.23 77.01C211.93 76.82 211.65 76.59 211.34 76.41C209.5 75.33 207.31 74.74 205.05 74.75V74.67L205.03 74.68Z" fill="#231F20"/>
<path d="M158.46 84.1498C159.62 82.9998 161 82.1098 162.38 81.2998C163.81 80.5698 165.28 79.8998 166.83 79.5098C167.95 79.1998 169.08 78.8898 170.24 78.7898C174.33 78.3998 178.51 79.4798 181.85 81.7098C182.62 82.1698 183.3 82.7498 184 83.2798C184.63 83.8998 185.33 84.4598 185.88 85.1498C187.37 86.8098 188.73 88.7598 188.92 91.0498C189.02 91.7398 188.71 91.7398 188.06 91.4098C187.73 91.2498 187.3 91.0098 186.84 90.7298C186.43 90.4198 185.95 90.0898 185.6 89.6498L184.69 88.5098C184.4 88.1298 184.1 87.7498 183.76 87.4198C183.12 86.7098 182.41 86.0898 181.67 85.4998C180.22 84.2998 178.55 83.3498 176.72 82.6498C174.5 81.8398 171.94 81.8598 169.55 82.2498C166.91 82.6998 164.3 83.6898 162.13 85.3398C160.79 86.3398 159.56 87.5298 158.62 88.9298C157.14 91.0098 156.18 93.5098 155.93 96.0798C155.68 98.0798 156.04 100.06 156.44 101.99C156.55 102.42 156.68 102.82 156.77 103.25C156.89 104.06 157 104.59 156.94 105C156.87 105.42 156.71 105.7 156.43 105.98C156.3 106.11 156.19 106.26 156.06 106.35C155.65 106.66 154.98 106.13 154.34 104.94C153.42 103.16 153 101.12 152.79 99.0098C152.55 96.8898 152.83 94.6698 153.39 92.5398C154.27 89.3698 156.02 86.3798 158.42 84.0998L158.48 84.1598L158.46 84.1498Z" fill="#231F20"/>
<path d="M133.98 138.34C135.96 137.17 137.87 135.87 138.58 134.29C138.79 133.9 138.84 133.49 138.89 133.11C138.89 132.7 138.86 132.26 138.73 131.78C138.49 130.83 138.02 129.81 137.47 128.81C136.66 127.33 135.61 125.93 134.71 124.26C133.04 121.19 132.59 117.55 133.21 114.22C133.82 110.87 135.44 107.76 137.8 105.36C139.89 103.23 142.58 101.63 145.51 100.98C149.22 100.12 153.42 100.58 156.4 102.89C157.25 103.75 157.03 103.77 155.92 103.96C155.64 104.03 155.32 104.05 154.96 104.12C154.57 104.25 154.22 104.21 153.81 104.24C153.01 104.27 152.15 104.26 151.26 104.16C149.71 103.92 148.15 103.86 146.66 104.16C145.16 104.43 143.75 105.01 142.43 105.78C139.8 107.36 137.69 109.96 136.56 113.03C135.89 114.86 135.69 116.92 136 118.9C136.17 119.89 136.44 120.85 136.83 121.78C137.2 122.66 137.78 123.59 138.33 124.53C139.55 126.63 141 128.76 141.62 131.54C141.73 132.25 141.82 132.99 141.69 133.77C141.6 134.54 141.33 135.23 141.02 135.89C140.34 137.19 139.37 138.19 138.36 139.03C135.86 141.07 133.11 142.37 130.69 143.99C128.88 145.2 127.18 146.63 126.53 148.47C126.2 149.38 126.17 150.37 126.37 151.36C126.58 152.35 126.96 153.37 127.51 154.18C128.39 155.49 129.69 156.55 131.1 157.38C132.51 158.21 134.05 158.82 135.63 159.25C136.32 159.45 137.02 159.56 137.73 159.69C140.37 160.07 141.19 160.22 141.83 160.89C141.98 161.04 142.17 161.19 142.26 161.34C142.42 161.59 142.22 161.84 141.68 162.08C141.15 162.32 140.27 162.52 139.14 162.54C135.79 162.49 132.38 161.52 129.31 159.66C127.78 158.73 126.32 157.54 125.14 155.9C124.83 155.51 124.59 155.03 124.34 154.56C124.13 154.1 123.95 153.67 123.78 153.21C123.48 152.26 123.22 151.25 123.22 150.15C123.17 148.52 123.73 146.83 124.59 145.53C125.45 144.21 126.52 143.21 127.58 142.38C129.74 140.73 131.92 139.52 133.94 138.31L133.99 138.37L133.98 138.34Z" fill="#231F20"/>
<path d="M143.7 182.69C143 182.69 142.31 182.5 141.62 182.4C140.96 182.19 140.26 182.05 139.65 181.75C139.03 181.48 138.39 181.23 137.82 180.87L136.95 180.36C136.67 180.17 136.41 179.96 136.14 179.77C135.74 179.49 135.34 179.2 134.99 178.87C134.63 178.54 134.23 178.26 133.93 177.87C131.63 175.32 130.23 172.02 130.07 168.64C130.07 167.89 130.04 167.14 130.15 166.39C130.19 165.64 130.36 164.91 130.53 164.19C130.61 163.71 130.81 163.28 130.96 162.82L131.21 162.14C131.3 161.92 131.43 161.72 131.54 161.5C131.79 161.09 132.06 160.69 132.38 160.34C132.71 160 133.11 159.71 133.47 159.41C133.95 159.06 134.14 159.36 134.25 160.03C134.3 160.37 134.35 160.8 134.37 161.27C134.36 161.71 134.35 162.19 134.23 162.62C132.79 165.37 132.65 168.44 133.36 171.58C133.84 173.47 135.15 175.15 136.6 176.51C138.19 178.01 140.2 179.21 142.35 179.64C143.67 179.94 145.06 179.89 146.42 179.62C148.48 179.22 150.49 178.26 152.22 176.96C153.56 175.94 154.68 174.7 155.75 173.42C155.98 173.13 156.22 172.87 156.46 172.59C156.92 172.09 157.27 171.78 157.58 171.62C157.91 171.47 158.2 171.47 158.54 171.54C158.7 171.57 158.86 171.59 159 171.64C159.22 171.73 159.32 171.94 159.32 172.27C159.32 172.6 159.23 173.07 158.95 173.54C157.44 176.47 154.86 178.97 151.7 180.73C149.35 182.02 146.56 182.86 143.7 182.71V182.64V182.69Z" fill="#231F20"/>
<path d="M188.34 178.67C186.75 181.66 184.19 184.06 181.31 185.59C180.26 186.15 179.19 186.68 178.07 187.05C176.08 187.68 174.04 188.04 171.97 188.09C169.9 188.16 167.78 187.83 165.84 187.04C164.12 186.35 162.56 185.28 161.25 184.04C160.42 183.22 159.63 182.35 159.05 181.35C158.77 180.84 158.52 180.32 158.33 179.78C158.17 179.22 157.99 178.68 157.88 178.12C157.79 177.4 157.73 177.53 158.16 177.98C158.38 178.2 158.69 178.51 159.11 178.84C159.33 179.01 159.55 179.19 159.78 179.36C160 179.55 160.2 179.77 160.42 179.98C160.81 180.36 161.15 180.75 161.47 181.16C161.81 181.55 162.15 181.94 162.53 182.28C163.27 182.98 164.07 183.6 164.93 184.1C166.66 185.08 168.62 185.68 170.71 185.85C173.24 186.03 175.95 185.33 178.34 184.31C180.99 183.19 183.36 181.42 185 179.07C186.01 177.63 186.75 175.99 187.2 174.25C187.9 171.62 188.04 168.8 187.67 166.06C187.42 163.92 186.74 161.9 186.04 159.89C185.88 159.45 185.69 159.03 185.55 158.58C185 156.92 185.06 156.31 185.68 155.69C185.81 155.55 185.93 155.39 186.05 155.29C186.44 154.97 187.27 155.45 187.92 156.66C189.71 160.27 190.65 164.56 190.66 168.98C190.67 170.62 190.46 172.29 190.13 173.93C189.75 175.57 189.18 177.18 188.39 178.7L188.33 178.67H188.34Z" fill="#231F20"/>
<path d="M210.99 196.67C209.69 196.55 208.48 196.24 207.32 195.9C206.89 195.78 206.46 195.7 206.05 195.54C204.6 195 203.2 194.38 201.84 193.69C201.24 193.39 200.62 193.12 200.01 192.86C199.22 192.55 198.43 192.2 197.75 191.65C197.54 191.48 197.68 191.26 198.01 191.08C198.34 190.91 198.86 190.74 199.34 190.85C200.17 191.09 200.96 191.41 201.76 191.71C202.55 192.02 203.34 192.34 204.09 192.77C205 193.25 206.04 193.49 207.03 193.78C208.12 194.09 209.21 194.37 210.31 194.5C210.98 194.57 211.66 194.63 212.3 194.53C212.55 194.52 212.78 194.46 213.01 194.4C213.11 194.37 213.28 194.35 213.33 194.32C213.39 194.29 213.46 194.28 213.51 194.23C213.75 194.08 213.95 193.66 214.01 193.19C214.1 192.45 213.98 191.67 213.84 190.9C213.81 190.73 213.76 190.56 213.74 190.39C213.61 189.75 213.78 189.5 214 189.27C214.06 189.22 214.1 189.16 214.16 189.12C214.32 189 214.62 189.2 214.96 189.66C215.33 190.38 215.65 191.15 215.84 192.02C216.02 192.9 216.1 193.87 215.5 195.12C215.23 195.57 214.8 196.07 214.21 196.31C214.05 196.39 213.96 196.4 213.88 196.43L213.61 196.5L213.07 196.63L212.01 196.73H211V196.67H210.99Z" fill="#231F20"/>
<path d="M88.7998 263.9C87.4998 260.33 86.6498 256.63 86.2198 252.92L86.1198 252.23L86.0698 251.88V251.79L86.0498 251.63V251.3C86.0898 250.42 86.3498 249.86 86.5898 249.3C87.0998 248.26 87.7098 247.48 88.3298 246.71C89.5698 245.2 90.9398 243.91 92.3198 242.66C97.8798 237.72 103.83 233.47 109.85 229.32C114.25 226.31 118.67 223.33 123.18 220.52C131.14 215.56 139.27 210.87 147.55 206.46C155.84 202.07 164.25 197.89 173.06 194.48C176.98 193.02 180.95 191.59 185.3 191.04C185.86 191 186.39 190.94 187.02 190.97C187.61 191 188.17 191.09 188.72 191.2C189.81 191.43 190.83 191.75 191.84 192.09C193.85 192.78 195.76 193.6 197.66 194.41C200.1 195.45 202.51 196.5 204.95 197.41C207.38 198.31 209.88 199.11 212.3 199.33C213.51 199.43 214.67 199.33 215.62 198.92C216.59 198.48 217.34 197.68 217.8 196.66C218.25 195.64 218.45 194.44 218.44 193.22C218.44 191.99 218.14 190.77 217.79 189.57C217.35 188.06 216.95 187.45 217.08 187.42C217.17 187.42 217.76 187.95 218.62 189.14C219.08 189.72 219.47 190.53 219.84 191.5C220.2 192.48 220.5 193.65 220.53 195.02C220.56 196.38 220.24 198 219.18 199.49L218.76 200.04L218.26 200.53C217.93 200.88 217.52 201.11 217.11 201.38C216.27 201.87 215.29 202.19 214.37 202.3C212.71 202.54 211.19 202.3 209.75 202.04C208.31 201.75 206.94 201.35 205.61 200.91C202.95 200.02 200.42 198.95 197.93 197.89C195.44 196.84 192.98 195.76 190.57 194.91C189.37 194.49 188.15 194.15 187.11 194.04C186.83 194.01 186.66 194.01 186.37 194.02C186.08 194.05 185.79 194.05 185.49 194.09C184.89 194.15 184.27 194.26 183.66 194.37C181.17 194.87 178.65 195.65 176.15 196.54C173.65 197.43 171.17 198.42 168.7 199.47C163.76 201.58 158.89 203.9 154.04 206.32C142.45 212.13 130.86 219.15 119.7 226.32C113.57 230.28 107.52 234.38 101.72 238.77C98.8298 240.97 95.9798 243.24 93.3598 245.69C92.0698 246.92 90.7998 248.2 89.7898 249.55C89.2998 250.2 88.8698 251 88.8698 251.41C88.8398 251.45 88.8798 251.74 88.9098 251.95L88.9898 252.62L89.1598 253.96C89.7698 258.33 90.9198 262.64 92.8998 266.55L93.2598 267.29L93.6798 267.99L94.5298 269.39L95.4998 270.7C95.6598 270.92 95.8198 271.14 95.9898 271.35L96.5298 271.95C97.9398 273.6 99.6198 275 101.48 276.09C104.28 277.73 107.52 278.8 110.72 278.24C113.94 277.8 117.05 276.38 119.97 274.75C125.82 271.41 131.1 267.08 136.16 262.63C144.03 255.67 151.19 248.23 158.67 240.96C160.32 239.36 161.92 237.78 163.63 236.2C166.8 233.28 169.01 231.46 170.68 230.35C171.5 229.77 172.2 229.38 172.79 229.08C173.4 228.8 173.93 228.64 174.41 228.51C174.84 228.39 175.37 228.18 175.63 228.13C176.46 227.93 174.03 230.46 169.43 234.62C162.6 240.82 155.91 247.65 148.9 254.38C141.87 261.09 134.65 267.88 126.41 273.68C123.34 275.8 120.11 277.8 116.52 279.28C114.7 279.97 112.83 280.62 110.78 280.84C110.28 280.93 109.76 280.94 109.24 280.95C108.72 280.96 108.2 280.99 107.67 280.92C107.14 280.89 106.63 280.8 106.13 280.7C105.62 280.62 105.13 280.48 104.64 280.33C100.74 279.19 97.3398 276.85 94.7098 273.93C92.0498 271.02 90.1098 267.56 88.7698 263.96L88.8298 263.92L88.7998 263.9Z" fill="#231F20"/>
<path d="M261.47 162.97C266.57 158.98 271.77 155.04 277.4 151.64C279.45 150.4 281.55 149.2 283.8 148.24L284.54 147.93C284.8 147.83 284.98 147.72 285.41 147.6C285.77 147.5 286.09 147.46 286.34 147.42C286.61 147.39 286.7 147.35 287.19 147.31C287.99 147.19 288.84 147.47 289.5 147.84C290.12 148.25 290.6 148.74 290.97 149.23C291.71 150.22 292.19 151.24 292.6 152.25C293.01 153.26 293.36 154.27 293.67 155.28C294.91 159.32 295.81 163.35 297.06 167.26C297.61 168.99 298.24 170.69 299.01 172.3C299.77 173.91 300.69 175.43 301.86 176.59C302.04 176.79 302.24 176.96 302.44 177.11L302.74 177.35C302.84 177.43 302.87 177.43 302.93 177.47C303.14 177.59 303.4 177.75 303.63 177.63C303.85 177.49 303.89 177.2 303.91 176.97C303.93 176.8 303.94 176.13 303.91 175.61C303.84 174.51 303.68 173.38 303.48 172.25C303.36 171.69 303.3 171.12 303.24 170.54C303.17 169.96 303.09 169.39 302.99 168.81C302.74 167.38 302.92 167.49 303.71 168.55C304.1 169.08 304.63 169.85 305.25 170.83C305.79 171.83 306.19 173.07 306.43 174.5C306.52 175.14 306.6 175.79 306.62 176.49V176.76L306.61 177.16C306.61 177.41 306.56 177.72 306.53 178.02C306.41 178.59 306.23 179.15 305.93 179.57C305.35 180.43 304.19 180.89 303.17 180.59C302.91 180.56 302.65 180.4 302.4 180.26L301.63 179.85L301.25 179.65L301.03 179.48L300.59 179.13C298.37 177.21 297.17 174.85 296.16 172.55C294.23 167.9 293.2 163.15 292 158.51C291.64 157.13 291.25 155.74 290.77 154.41C290.29 153.09 289.72 151.78 288.98 150.81C288.61 150.35 288.21 150.02 287.89 149.94C287.81 149.94 287.73 149.91 287.65 149.9C287.56 149.92 287.47 149.93 287.38 149.93C286.96 150.01 286.56 150.06 286.32 150.12C286.17 150.16 286.15 150.16 285.98 150.24L285.49 150.46L284.5 150.89C283.84 151.17 283.2 151.52 282.56 151.83C276.91 154.73 271.66 158.56 266.52 162.49C263.36 164.92 260.24 167.42 257.14 169.94C252.43 173.75 247.67 177.57 242.81 181.17C239.01 183.94 235.26 186.7 230.87 188.67C230.38 188.88 229.89 189.08 229.41 189.29C228.9 189.46 228.39 189.62 227.87 189.79C225.9 190.29 224.48 190.37 223.51 190.16C223.03 190.05 222.65 189.97 222.36 189.78C222.08 189.56 221.88 189.32 221.71 189.11C221.56 188.91 221.36 188.72 221.29 188.59C221.17 188.36 221.53 188.25 222.21 188.06C222.38 188.03 222.57 187.93 222.76 187.95C222.96 187.92 223.19 187.89 223.42 187.86C223.66 187.83 223.91 187.83 224.18 187.8C224.46 187.75 224.75 187.7 225.06 187.65C228.74 186.99 232.37 184.94 235.88 182.71C239.39 180.42 242.85 177.85 246.26 175.17C251.33 171.19 256.35 167.02 261.45 162.94L261.5 162.99L261.47 162.97Z" fill="#231F20"/>
<path d="M330.29 107.91C328.17 109.09 326.05 110.3 324.02 111.57C323.51 111.89 323.01 112.21 322.53 112.54L321.84 113.03C321.64 113.18 321.39 113.38 321.34 113.44C321.16 113.77 320.86 114.11 320.66 114.66L320.33 115.42L320.04 116.26C319.48 117.89 319.04 119.65 318.48 121.35C316.54 127.41 313.76 133.37 309.82 138.45C308.91 139.55 308.09 140.73 307.08 141.74L305.64 143.31C305.18 143.85 304.61 144.29 304.11 144.78C303.44 145.39 302.79 146.03 302.1 146.62L299.89 148.23L298.78 149.01C298.39 149.25 298 149.48 297.59 149.67L296.36 150.26C295.95 150.45 295.51 150.59 295.09 150.75C294.02 151.12 294.15 151.04 294.79 150.28C295.41 149.47 296.5 147.99 298.06 146.78C299.4 145.62 300.79 144.54 302.05 143.33C302.68 142.72 303.38 142.18 303.96 141.52L305.75 139.59C308.03 136.92 310.08 134.04 311.83 130.93C313.93 127.19 315.29 122.9 316.6 118.64C316.98 117.46 317.33 116.28 317.77 115.07C317.96 114.48 318.25 113.85 318.51 113.24C318.62 112.94 318.88 112.6 319.06 112.29C319.17 112.13 319.25 111.98 319.38 111.81C319.56 111.61 319.69 111.5 319.83 111.37C320.91 110.49 321.95 109.87 323.02 109.19C324.08 108.53 325.16 107.9 326.23 107.29C328.88 105.77 331.57 104.32 334.28 102.92C335.66 102.21 337.06 101.51 338.48 100.86L339.56 100.38L340.11 100.15L340.78 99.8898C341.3 99.6998 341.83 99.5198 342.31 99.5098C342.55 99.5098 342.78 99.5098 342.99 99.6498C343.14 99.8298 343.26 100.05 343.39 100.24L343.64 100.96C343.68 101.22 343.73 101.48 343.76 101.73C343.75 102 343.76 102.26 343.73 102.53C343.67 102.8 343.65 103 343.58 103.21C343.33 104.06 342.88 104.78 342.39 105.42C341.2 106.93 339.76 108.05 338.31 109.12C336.85 110.17 335.35 111.12 333.82 112.02C333.15 112.42 332.5 112.82 331.8 113.17C330.52 113.84 329.65 114.21 328.98 114.38C328.33 114.56 327.91 114.59 327.51 114.52C327.33 114.49 327.11 114.49 326.99 114.44C326.57 114.29 327.42 113.35 329.15 112.08C331.71 110.33 334.48 108.85 336.98 107.06C338.22 106.17 339.41 105.22 340.29 104.18C340.72 103.66 341.06 103.13 341.22 102.65C341.27 102.54 341.3 102.4 341.31 102.32C341.32 102.29 341.31 102.32 341.31 102.3C341.31 102.3 341.36 102.28 341.25 102.32L340.85 102.49L340.04 102.85C338.96 103.35 337.87 103.89 336.78 104.45C334.61 105.56 332.45 106.74 330.32 107.95L330.28 107.9L330.29 107.91Z" fill="#231F20"/>
<path d="M345.09 111.83C345.44 111.77 345.78 111.71 346.12 111.63L346.58 111.51L346.7 111.49C346.84 111.46 347.04 111.39 347.19 111.22C347.21 111.19 347.23 111.16 347.25 111.13C347.3 111 347.13 110.98 347.06 110.96C346.98 110.93 346.87 110.9 346.73 110.87C346.65 110.86 346.62 110.84 346.47 110.83L345.72 110.79C344.72 110.74 343.71 110.67 342.71 110.59C341.81 110.52 340.91 110.46 340.01 110.39C339.43 110.35 338.84 110.28 338.27 110.11C337.98 110.02 337.69 109.95 337.42 109.8C337.15 109.64 336.89 109.46 336.65 109.26C336.36 108.99 336.49 108.91 336.86 108.8C337.04 108.75 337.3 108.66 337.57 108.56C337.86 108.43 338.15 108.35 338.44 108.39C339.5 108.39 340.58 108.56 341.69 108.61C342.8 108.69 343.94 108.73 345.09 108.87C345.84 108.95 346.27 108.96 347.68 108.97C348.26 108.99 348.88 109 349.31 109.13C349.74 109.26 350.07 109.41 350.23 109.67C350.3 109.74 350.31 109.9 350.41 110C350.41 110.14 350.44 110.28 350.41 110.42C350.28 111.25 349.86 111.98 349.07 112.57C348.32 113.17 347.19 113.62 346.63 113.76C345.64 114.04 344.65 114.23 343.66 114.33C342.16 114.49 340.66 114.5 339.18 114.49C338.03 114.49 336.89 114.56 335.71 114.46C335.45 114.43 335.19 114.44 334.93 114.36C333.96 114.12 333.7 113.76 333.71 113.2C333.71 113.07 333.71 112.94 333.73 112.83C333.81 112.46 334.27 112.24 334.88 112.22C336.72 112.16 338.69 112.29 340.68 112.2C342.15 112.16 343.63 112.01 345.04 111.78V111.83H345.09Z" fill="#231F20"/>
<path d="M335.87 125.12C338.05 123.98 340.25 122.77 341.62 121.1C341.85 120.8 342.04 120.47 342.15 120.15C342.24 119.99 342.25 119.83 342.3 119.67C342.33 119.57 342.33 119.54 342.34 119.51C342.34 119.48 342.35 119.44 342.35 119.41C342.36 119.31 342.32 119.2 342.23 119.13C342.14 119.07 342.06 119.02 341.71 119C341.09 118.96 340.33 119.1 339.63 119.3C338.33 119.63 336.99 120.71 335.54 121.49C334.26 122.22 332.94 122.96 331.46 123.43C330.51 123.7 329.45 123.96 328.36 123.68C328.09 123.64 327.84 123.52 327.59 123.4C327.34 123.28 327.08 123.18 326.89 122.99C326.43 122.68 326.24 122.11 325.98 121.7C325.69 121.14 325.83 121.19 326.35 121.36C326.63 121.41 326.92 121.63 327.45 121.49C327.69 121.44 327.83 121.53 328.03 121.53C328.22 121.53 328.4 121.53 328.57 121.58C329.21 121.6 329.88 121.64 330.64 121.43C331.39 121.22 332.17 120.88 332.94 120.5C333.72 120.09 334.5 119.65 335.29 119.17C336.11 118.7 336.88 118.22 337.91 117.76C338.54 117.49 339.14 117.34 339.76 117.19C340.38 117.05 341.02 116.94 341.74 116.95C342.42 116.93 343.61 117.19 344.12 118.02C344.66 118.81 344.49 120.01 344.27 120.57C343.75 122.09 342.71 123.13 341.69 124.01C340.65 124.88 339.53 125.59 338.4 126.24C337.71 126.64 337.01 127.01 336.32 127.38L335.32 127.94L334.87 128.22C334.76 128.3 334.65 128.39 334.57 128.49C334.29 128.83 333.97 129.37 333.68 129.87C333.38 130.38 333.07 130.9 332.74 131.41C332.09 132.44 331.37 133.45 330.52 134.35C329.87 135.07 329.12 135.7 328.3 136.27C327.45 136.78 326.52 137.23 325.5 137.41C325.06 137.48 324.62 137.62 324.17 137.58C323.75 137.58 323.4 137.55 323.11 137.52C322.83 137.45 322.62 137.33 322.44 137.24C322.09 137.05 321.94 136.79 321.85 136.48C321.81 136.35 321.74 136.22 321.73 136.12C321.67 135.82 322.4 135.41 323.37 135.4C324.81 135.36 326.12 135.01 327.27 134.25C328.42 133.48 329.42 132.35 330.3 131.05C330.97 130.07 331.54 129.03 332.25 127.85L332.57 127.37C332.65 127.23 332.88 126.98 333.04 126.8C333.21 126.61 333.44 126.46 333.62 126.32L334.1 126.02C334.71 125.67 335.26 125.38 335.82 125.07L335.85 125.12H335.87Z" fill="#231F20"/>
<path d="M303.75 158.96L307.16 154.91C307.57 154.41 307.93 153.88 308.35 153.39C309.84 151.67 311.33 149.95 312.82 148.23C313.5 147.48 314.14 146.69 314.77 145.91C315.17 145.41 315.62 144.93 316.06 144.46L316.4 144.11L316.8 143.81C317.07 143.62 317.33 143.43 317.61 143.23C317.95 143 317.97 143.09 317.9 143.47C317.85 143.74 317.81 144.02 317.76 144.27C317.72 144.46 317.69 144.63 317.66 144.8C317.64 144.89 317.61 144.98 317.6 145.08L317.47 145.32C317.13 145.88 316.8 146.45 316.44 146.99C316.06 147.52 315.67 148.04 315.27 148.55C314.5 149.6 313.63 150.58 312.71 151.53C311.62 152.67 310.71 154.05 309.71 155.31L306.38 159.47L304.33 162.03C303.3 163.33 302.22 164.6 301.24 165.92C300.47 166.94 299.83 168.04 299.1 169.08C298.93 169.31 298.79 169.54 298.61 169.76C297.94 170.57 297.59 170.71 296.99 170.49C296.85 170.44 296.71 170.4 296.58 170.34C296.17 170.12 296.14 169.54 296.5 168.85C297.51 166.78 298.98 164.95 300.41 163.05C301.48 161.64 302.62 160.28 303.73 158.89L303.78 158.92L303.75 158.96Z" fill="#231F20"/>
<path d="M50.3099 272.5C53.9899 272.38 57.6499 272.31 61.2699 272.08C62.5899 272 63.8999 271.82 65.1899 271.67C66.2999 271.54 67.4999 271.38 68.3599 271.09C69.3199 270.74 70.3599 270.18 71.3699 269.63C73.3899 268.51 75.3799 267.26 77.3199 265.96C79.0399 264.8 80.7199 263.55 82.3299 262.26C83.3599 261.43 84.3599 260.57 85.3499 259.7C85.8399 259.26 86.3399 258.84 86.8499 258.45C87.3399 258.04 87.8499 257.63 88.2799 257.26C88.5099 257.03 88.6099 257.1 88.7999 257.09C88.9699 257.09 89.1699 257.34 89.1599 257.84C89.1599 258.78 88.6599 260.33 87.5199 261.44C85.4399 263.34 83.2699 265.04 81.0199 266.66C78.7499 268.24 76.3999 269.71 73.9399 271.05C72.4399 271.84 71.0199 272.7 69.2799 273.44C68.2899 273.82 67.4599 273.95 66.5699 274.11C65.6999 274.25 64.8399 274.37 63.9899 274.44C60.2499 274.79 56.5399 274.88 52.8499 275.02C50.5799 275.1 48.2999 275.17 46.0499 275.3C44.9399 275.37 43.8399 275.44 42.7499 275.55C42.1999 275.6 41.6699 275.67 41.1499 275.76C40.8999 275.81 40.6299 275.85 40.4099 275.92C40.1699 275.97 39.9699 276.07 39.8899 276.1L39.7699 275.7C39.7699 275.7 39.6899 275.63 39.6399 275.63C39.6099 275.63 39.6599 275.63 39.6399 275.63C39.7399 275.61 39.8299 275.53 40.0499 275.33C40.0499 275.3 40.1399 275.39 40.2399 275.43C40.4499 275.53 40.7099 275.62 40.9799 275.7C41.5199 275.87 42.0999 276.01 42.6699 276.14C45.2399 276.67 47.8599 276.83 50.4699 277.15C51.0499 277.22 51.6199 277.26 52.1999 277.34C54.3499 277.71 54.9999 278.04 55.3199 278.81C55.3899 278.98 55.4999 279.16 55.5299 279.33C55.6199 279.89 54.6799 280.13 53.1099 280.02C50.7699 279.87 48.3999 279.54 45.9599 279.19C44.7399 279.02 43.5299 278.75 42.2499 278.58C41.6099 278.48 40.9699 278.36 40.2799 278.19C39.9399 278.1 39.5799 277.98 39.1399 277.78C38.9099 277.66 38.6899 277.58 38.2799 277.22L38.1299 277.07C38.1299 277.07 38.0399 276.97 37.9599 276.86C37.8199 276.65 37.7199 276.47 37.6399 276.19C37.5599 275.88 37.5499 275.49 37.6099 275.21C37.6699 274.95 37.7899 274.68 37.9299 274.46C38.7799 273.59 38.1699 274.22 38.3599 274.02L38.3699 274.01H38.3899L38.4299 273.97L38.5199 273.92L38.6999 273.82C38.8199 273.76 38.9599 273.68 39.0199 273.66C39.1899 273.6 39.3699 273.53 39.5199 273.48C39.7999 273.4 40.0999 273.32 40.3499 273.28C40.8799 273.17 41.3599 273.1 41.8499 273.04C42.8199 272.92 43.7599 272.84 44.7099 272.77C46.5899 272.64 48.4499 272.55 50.3099 272.47V272.54V272.5Z" fill="#231F20"/>
<path d="M70.95 285.56C70.2 285.89 69.34 286.06 68.54 286.3C67.68 286.42 66.86 286.62 65.95 286.6C64.25 286.59 62.7 286.36 61.12 286.11C59.98 285.92 58.84 285.75 57.71 285.5C56.06 285.13 54.43 284.68 52.81 284.08C52 283.77 51.2 283.44 50.41 282.98C50.1 282.79 49.41 282.38 49 281.95C48.55 281.51 48.24 281.02 48.11 280.47C48 280.03 48.13 279.52 48.43 279.18C48.71 278.83 49.12 278.57 49.58 278.36C49.87 278.22 50.2 278.12 50.51 278.02L50.93 277.91L51.28 277.84C51.75 277.76 52.21 277.69 52.67 277.65C53.59 277.56 54.51 277.53 55.43 277.56C56.6 277.58 57.78 277.7 58.93 278.03C59.5 278.2 60.08 278.36 60.6 278.67C61.12 278.98 61.61 279.34 62.06 279.75C62.58 280.3 62.43 280.28 61.81 280.17C61.49 280.13 61.05 280.1 60.51 280.14C60.25 280.14 59.96 280.21 59.68 280.2C59.4 280.19 59.12 280.16 58.83 280.12C57.15 279.94 55.43 279.84 53.74 279.97C53.32 280 52.9 280.05 52.49 280.11C52.1 280.16 51.63 280.27 51.36 280.33C51.32 280.32 51.11 280.29 51.07 280.44C51.07 280.5 51.08 280.56 51.12 280.63C51.14 280.67 51.17 280.7 51.2 280.74C51.32 280.82 51.5 280.96 51.67 281.05C52.72 281.71 54.03 282.19 55.34 282.58C56.67 282.96 58.03 283.29 59.39 283.55C60.89 283.84 62.4 284.08 63.91 284.23C64.66 284.3 65.42 284.35 66.12 284.33C66.46 284.33 66.82 284.25 67.17 284.2C67.52 284.13 67.89 284.12 68.24 283.99C70 283.58 71.69 282.75 73.32 281.84C75.79 280.43 78.15 278.74 80.39 276.94C82.14 275.55 83.71 274 85.51 272.62C85.9 272.31 86.29 272.01 86.72 271.73C88.33 270.71 89.11 270.71 89.65 271.02C89.78 271.09 89.92 271.16 90.01 271.24C90.15 271.39 90.07 271.61 89.85 271.88C89.74 272.02 89.59 272.16 89.42 272.32C89.24 272.49 89.04 272.7 88.8 272.9C85.97 275.38 82.82 278.15 79.39 280.69C76.84 282.58 74.1 284.35 70.97 285.59L70.94 285.54L70.95 285.56Z" fill="#231F20"/>
<path d="M258.37 210.82C261.62 207.75 265.04 204.72 268.62 201.97C269.92 200.97 271.19 199.92 272.52 198.96C277.23 195.58 282.19 192.55 287.34 189.89C289.63 188.72 291.94 187.57 294.27 186.52C295.76 185.84 297.28 185.21 298.84 184.66L301.14 183.88C301.53 183.74 301.94 183.63 302.38 183.56C302.82 183.5 303.28 183.41 303.76 183.5C304.35 183.64 304.55 183.84 304.52 183.92C304.49 184.02 304.2 184.07 303.8 184.31C303.41 184.56 302.95 184.88 302.4 185.35C301.87 185.78 300.99 186.26 300.17 186.59C297.16 187.83 294.17 189.12 291.24 190.55C288.3 191.98 285.42 193.54 282.54 195.18C279.1 197.14 275.8 199.65 272.55 202.07C268.97 204.76 265.54 207.56 262.27 210.63C260.25 212.51 258.26 214.43 256.26 216.35C253.22 219.26 250.07 222.1 246.78 224.73C244.22 226.76 241.67 228.75 238.83 230.39C238.22 230.78 237.59 231.1 236.95 231.44C235.76 232.08 234.91 232.37 234.28 232.47C233.65 232.58 233.24 232.51 232.86 232.31C232.68 232.22 232.47 232.14 232.35 232.02C231.94 231.64 232.77 230.81 234.41 229.92C236.84 228.54 239.28 227.09 241.64 225.41C243.99 223.73 246.29 221.9 248.53 219.95C251.85 217.04 255.06 213.91 258.32 210.77L258.37 210.81V210.82Z" fill="#231F20"/>
<path d="M56.8901 289.57C56.9901 289.73 57.0901 289.95 57.1401 290.03C57.2301 290.17 57.2301 290.2 57.2501 290.24C57.3001 290.33 57.3801 290.44 57.5101 290.5C57.6101 290.55 57.6801 290.46 57.7201 290.4C57.8001 290.3 57.8101 290.16 57.7901 289.9L57.6201 288.99L57.5801 288.7C57.5801 288.58 57.5701 288.44 57.5801 288.35C57.6001 288.17 57.6201 288 57.6501 287.83C57.7501 287.22 57.8601 286.61 58.1101 286.02C58.3601 285.27 59.0201 284.46 59.9201 284.36C60.2001 284.34 60.2001 284.53 60.1601 284.85C60.1001 285.17 60.1301 285.65 60.0501 285.91C59.9901 286.16 59.8901 286.38 59.8001 286.63C59.7201 286.88 59.6601 287.16 59.5701 287.45C59.4901 287.74 59.4301 288.04 59.3801 288.34V288.4L59.3701 288.43C59.4301 288.43 58.8501 288.43 59.1001 288.43H59.1101H59.1601H59.2601H59.3601C59.3601 288.43 59.3601 288.55 59.3601 288.61C59.3701 288.76 59.3901 288.92 59.4101 289.1C59.4601 289.53 59.7501 290.43 59.7701 291.07C59.8001 291.74 59.6801 292.27 59.1801 292.67C58.5901 293.02 57.8701 292.97 57.2501 292.67C57.0901 292.62 56.9401 292.51 56.7901 292.41C56.6401 292.31 56.4901 292.22 56.3501 292.07L55.9401 291.67L55.6301 291.29C55.1801 290.7 54.8901 290.13 54.6501 289.49C54.2801 288.54 54.1501 287.5 54.1901 286.49C54.2201 285.71 54.2701 284.89 54.5901 284.15C54.6601 283.99 54.7101 283.82 54.7901 283.66C55.2001 283.14 55.4501 283.07 55.8601 283.22C55.9501 283.25 56.0401 283.28 56.1201 283.31C56.3601 283.43 56.4901 283.83 56.4301 284.22C56.2701 285.41 56.0701 286.31 56.2001 287.34C56.2901 288.08 56.5301 288.86 56.9501 289.53L56.9101 289.56L56.8901 289.57Z" fill="#231F20"/>
<path d="M52.1 286.49C52.28 286.8 52.49 287.09 52.72 287.36L53.03 287.75C53.09 287.82 53.15 287.8 53.22 287.88C53.26 287.91 53.34 287.97 53.38 287.94C53.55 287.96 53.59 287.81 53.59 287.69C53.59 287.54 53.56 287.39 53.47 287.15C53.33 286.69 53.13 286.24 52.97 285.77C52.86 285.47 52.75 285.16 52.7 284.81C52.66 284.47 52.65 284.06 52.89 283.71C53.04 283.49 53.15 283.68 53.29 283.89C53.4 284.11 53.65 284.28 53.74 284.51C53.91 284.96 54.24 285.47 54.53 286C54.71 286.26 55.48 287.83 55.35 288.59C55.32 289.19 55.16 289.66 54.63 290.1C54.26 290.27 53.96 290.29 53.58 290.12C53.32 290.02 53.06 289.94 52.77 289.75C52.49 289.59 52.22 289.44 51.98 289.22L51.61 288.92C51.5 288.82 51.44 288.75 51.35 288.66C51.19 288.49 51.03 288.32 50.89 288.13C50.53 287.69 50.24 287.19 49.97 286.69C49.57 285.92 49.34 285.07 49.21 284.2C49.11 283.53 49.02 282.83 49.13 282.12C49.16 281.97 49.18 281.81 49.23 281.66C49.46 281.12 49.72 281.03 50.16 281.15C50.26 281.18 50.37 281.2 50.47 281.24C50.79 281.37 50.97 281.7 50.99 282.03C51.06 282.53 51.04 282.93 51.13 283.35C51.15 283.76 51.2 284.17 51.31 284.59C51.47 285.21 51.72 285.86 52.12 286.45L52.08 286.48L52.1 286.49Z" fill="#231F20"/>
<path d="M198.38 469.86C201.03 469.57 203.66 469.15 206.21 468.54C207.48 468.22 208.74 467.88 209.92 467.43C211.11 467.01 212.24 466.46 213.09 465.84C213.31 465.69 213.52 465.53 213.63 465.38L213.86 465.16C213.93 465.08 213.98 464.97 214.05 464.88C214.3 464.48 214.53 463.95 214.73 463.38C215.13 462.24 215.41 460.96 215.65 459.68C216.11 457.09 216.39 454.41 216.6 451.71C217 446.32 217.09 440.87 217.13 435.42C217.16 429.97 217.11 424.51 217.01 419.05C216.87 411.08 216.57 403.11 216.35 395.15C215.57 367.05 214.62 338.92 214.96 310.76C215.07 298.28 215.61 285.67 216.87 273.33C218.39 257.46 220.86 241.59 224.78 226.15C226.13 221.36 225.94 222.01 225.58 226.21C225.22 230.42 224.59 238.15 223.31 247.19C222.09 255.19 221.05 263.21 220.14 271.24C219.27 279.28 218.62 287.34 218.26 295.42C217.63 311.59 217.7 327.9 217.83 344.25C218.01 363.82 218.93 384.18 219.48 404.22C219.77 415.24 220.02 426.26 219.92 437.31C219.87 442.84 219.71 448.36 219.28 453.91C219.05 456.68 218.75 459.46 218.12 462.26C217.77 463.66 217.43 465.06 216.59 466.48C216.39 466.85 216.1 467.17 215.8 467.48C215.52 467.82 215.2 468.04 214.88 468.29C214.57 468.55 214.25 468.75 213.92 468.93C213.59 469.11 213.27 469.33 212.94 469.47C209.68 471.05 206.28 471.81 202.89 472.45C199.49 473.06 196.07 473.42 192.65 473.62C185.8 474 178.91 473.69 172.13 472.57C167 471.71 161.88 470.33 157.15 467.88C154.81 466.62 152.57 465.05 150.76 462.99C150.28 462.51 149.92 461.9 149.5 461.36C149.29 461.11 149.11 460.75 148.92 460.41C148.78 460.07 148.61 459.73 148.52 459.39C148.09 458.02 147.93 456.67 147.85 455.34C147.71 452.68 147.89 450.08 148.15 447.49C148.42 444.91 148.8 442.36 149.22 439.82C150.07 434.74 151.12 429.72 152.22 424.74C155.68 409.24 159.5 394.18 163.22 378.98C164.02 375.63 164.81 372.35 165.62 368.97C167.13 362.71 168.09 358.59 168.88 355.72C169.69 352.86 170.3 351.23 170.94 349.95C171.23 349.37 171.54 348.58 171.77 348.25C172.14 347.69 172.22 348.72 172.04 351.08C171.86 353.44 171.36 357.11 170.36 361.74C167.47 375.49 163.89 389.43 160.42 403.58C158.69 410.66 156.94 417.78 155.38 424.95C153.83 432.12 152.35 439.35 151.51 446.55C151.22 449.22 151 451.9 151.09 454.45C151.14 455.72 151.26 456.97 151.54 458.02C151.69 458.53 151.87 458.97 152.06 459.28C152.42 459.74 152.74 460.22 153.12 460.67C154.68 462.45 156.75 463.9 159.01 465.06C161.28 466.23 163.76 467.13 166.3 467.83C171.4 469.25 176.77 469.94 182.15 470.23C187.53 470.46 192.96 470.41 198.31 469.79L198.35 469.87L198.38 469.86Z" fill="#231F20"/>
<path d="M88.14 452.94C82.83 451.42 77.86 449.14 73.15 446.43C68.44 443.72 64.01 440.51 60.04 436.73C58.06 434.83 56.2 432.79 54.59 430.51C52.98 428.24 51.62 425.71 50.81 422.91C50.63 422.2 50.42 421.51 50.34 420.76C50.29 420.39 50.23 420.03 50.19 419.66L50.16 418.54C50.15 418.17 50.14 417.8 50.19 417.4C50.22 417.01 50.27 416.62 50.35 416.26C50.48 415.51 50.69 414.81 50.92 414.12C51.87 411.39 53.25 409.01 54.68 406.7C58.96 400.03 63.86 393.99 68.79 388L81.9 372.28C86.23 367.04 90.44 361.66 94.77 356.36C103.4 345.77 112.21 335.33 121.01 324.9C128.81 315.64 136.63 306.3 144.12 296.92L147.71 292.39L151.24 287.81C152.41 286.28 153.53 284.72 154.68 283.17C155.8 281.61 156.88 280.03 157.94 278.44L159.43 276.02C159.7 275.62 159.9 275.21 160.1 274.8L160.71 273.57C161.51 271.89 162.13 270.01 162.85 268.26C164.23 264.69 165.31 261.05 166.02 257.33C166.58 255.02 166.73 253.98 166.84 254.05C166.94 254.12 167.02 255.3 167.11 257.38C167.22 259.46 166.91 262.43 166.15 265.93C165.76 267.67 165.27 269.55 164.63 271.5C164.29 272.48 164 273.44 163.55 274.48C163.31 275 163.06 275.53 162.81 276.07C162.56 276.61 162.3 277.15 161.99 277.62L160.4 280.23C159.85 281.08 159.28 281.89 158.71 282.72C157.6 284.4 156.4 285.98 155.23 287.59C152.87 290.78 150.44 293.92 147.98 297.01C143.06 303.2 138 309.27 132.92 315.33C122.74 327.4 112.54 339.49 102.29 351.64C99.26 355.29 96.19 358.98 93.19 362.76C90.18 366.52 87.16 370.37 84.07 374.15C77.91 381.74 71.56 389.22 65.54 396.8C62.26 400.98 59.01 405.21 56.34 409.69C55.03 411.93 53.84 414.27 53.31 416.62C52.82 418.88 53.24 421.43 54.12 423.74C55.03 426.08 56.42 428.27 58.03 430.29C59.64 432.31 61.48 434.18 63.44 435.92C67.36 439.4 71.75 442.37 76.39 444.87C79.24 446.41 82.2 447.76 85.23 448.87C88.26 449.99 91.39 450.83 94.54 451.23C96.11 451.4 97.7 451.5 99.22 451.3C100.73 451.13 102.18 450.67 103.58 449.98C106.37 448.6 108.83 446.49 111.09 444.21C114.5 440.71 117.47 436.74 120.29 432.67C123.1 428.59 125.71 424.36 128.23 420.07C133.26 411.5 137.93 402.71 142.54 393.96C149.7 380.35 156.45 366.84 164.25 353.7C165.98 350.81 167.69 348 169.57 345.16C176.56 334.65 179.81 331.99 182.13 330.46C182.68 330.13 183.35 329.65 183.71 329.5C184.33 329.26 183.84 330.14 182.54 331.99C181.24 333.84 179.22 336.73 176.61 340.45C172.77 345.97 169.21 351.82 165.76 357.81C162.29 363.8 158.93 369.94 155.61 376.17C148.95 388.63 142.45 401.44 135.43 414.07C132.82 418.76 130.13 423.42 127.26 428.01C124.38 432.59 121.37 437.12 117.89 441.38C116.15 443.51 114.3 445.57 112.25 447.5C110.2 449.42 107.94 451.21 105.3 452.56C103.99 453.24 102.54 453.78 101.02 454.08C99.49 454.43 98.01 454.44 96.54 454.43C93.63 454.31 90.86 453.75 88.17 453V452.92L88.14 452.94Z" fill="#231F20"/>
<path d="M184.3 282.42C185.97 282.61 187.63 282.92 189.31 282.93L191.83 283.04C192.67 283.09 193.51 282.99 194.35 282.97C195.58 282.92 196.8 282.81 198.01 282.62C199.08 282.46 200.17 282.41 201.22 282.19L204.41 281.56L207.55 280.69C208.58 280.36 209.6 279.97 210.63 279.6C212.42 278.87 214.18 278.02 215.84 277.05C216.91 276.42 217.98 275.79 219.05 275.16C219.58 274.83 220.12 274.53 220.69 274.26L221.54 273.84C221.83 273.71 222.15 273.62 222.45 273.51C223.23 273.27 223.18 273.38 222.82 274.04C222.49 274.74 221.85 275.99 220.69 276.9C220.17 277.29 219.63 277.67 219.09 278.03C218.55 278.41 218.01 278.78 217.43 279.08C216.26 279.69 215.13 280.36 213.91 280.87L212.1 281.67C211.49 281.92 210.86 282.13 210.23 282.35C209.6 282.56 208.99 282.81 208.35 282.98L206.42 283.48C204.9 283.92 203.3 284.2 201.73 284.59C200.15 284.94 198.52 285.13 196.92 285.37L194.26 285.51C193.37 285.54 192.49 285.64 191.6 285.57L188.94 285.47L187.61 285.42L186.29 285.26L183.05 284.87C181.97 284.75 180.92 284.46 179.85 284.27L177.44 283.79C176.64 283.63 175.86 283.36 175.07 283.15L172.71 282.49C171.92 282.28 171.13 282.08 170.37 281.8C169.18 281.4 167.98 281.03 166.78 280.68L164.98 280.15L163.23 279.5C162.71 279.31 162.2 279.14 161.69 278.93C160.75 278.51 160.14 278.21 159.77 277.88C159.41 277.52 159.26 277.21 159.18 276.85C159.15 276.69 159.08 276.52 159.08 276.38C159.08 276.15 159.31 276.04 159.74 275.99C160.16 275.95 160.8 275.94 161.5 276.17C163.64 276.71 165.67 277.66 167.86 278.24C170.02 278.9 172.16 279.72 174.38 280.24C176.02 280.66 177.64 281.19 179.32 281.46C180.99 281.76 182.64 282.21 184.33 282.33V282.4L184.3 282.42Z" fill="#231F20"/>
<path d="M218.68 211.84C218.68 211.84 218.82 211.86 218.86 211.72C218.9 211.59 218.88 211.41 218.81 211.27C218.75 211.16 218.66 211.15 218.61 211.09C218.48 210.97 218.21 210.91 217.88 210.99C217.55 211.07 217.21 211.3 216.97 211.61C216.73 211.88 216.6 212.27 216.53 212.66C216.45 213.17 216.48 213.72 216.4 214.3C216.37 214.48 216.16 214.5 215.9 214.38C215.64 214.27 215.29 214.01 215.18 213.64C215 212.99 214.91 212.25 215.07 211.47C215.15 211.1 215.29 210.67 215.57 210.33C215.83 209.99 216.15 209.71 216.52 209.5C216.96 209.25 217.43 209.02 217.99 208.93C218.54 208.83 219.17 208.89 219.71 209.19C220.85 209.86 221.37 211.12 221.08 212.37C220.89 213.15 220.29 213.77 219.65 214.05C218.79 214.47 217.68 214.37 216.92 213.84C216.82 213.76 216.71 213.69 216.63 213.6C216.03 213.06 215.57 212.2 215.57 211.31C215.57 211.11 215.57 210.91 215.62 210.7C215.72 210.32 215.91 210.1 216.15 210.04C216.37 209.97 216.6 210.05 216.88 210.23C217.01 210.31 217.13 210.39 217.24 210.49C217.59 210.82 217.79 211.24 217.97 211.41C218.09 211.58 218.21 211.74 218.3 211.77C218.38 211.79 218.42 211.76 218.43 211.75C218.43 211.75 218.41 211.75 218.46 211.77C218.55 211.8 218.56 211.77 218.65 211.84H218.67H218.68Z" fill="#231F20"/>
<path d="M217.65 126.24C218.24 127.49 219.22 128.58 220.3 129.43C221.47 130.35 222.83 131.15 224.31 131.42C225.79 131.69 227.35 131.47 228.58 130.47C229.89 129.41 230.25 127.83 229.77 126.24C229.52 125.42 229.13 124.64 228.72 123.89C228.54 123.55 228.35 123.22 228.17 122.88C228.09 122.72 228 122.56 227.92 122.39C227.89 122.33 227.86 122.27 227.84 122.21C227.92 122.39 227.87 122.29 227.83 122.16C227.6 121.53 226.98 121.1 226.29 121.29C225.68 121.46 225.19 122.19 225.42 122.83C225.84 123.98 226.54 125 227.06 126.11C227.1 126.18 227.22 126.46 227.2 126.42C227.18 126.38 227.28 126.65 227.31 126.73C227.35 126.86 227.39 126.99 227.43 127.13C227.45 127.21 227.5 127.67 227.49 127.41C227.49 127.54 227.49 127.66 227.49 127.79C227.49 127.93 227.5 127.74 227.51 127.72C227.5 127.79 227.47 127.86 227.47 127.92C227.44 128.12 227.54 127.8 227.42 128.06C227.4 128.11 227.36 128.15 227.34 128.2C227.45 128.03 227.32 128.23 227.28 128.27C227.19 128.37 227.09 128.46 227 128.56C226.85 128.72 226.95 128.61 227 128.57C226.94 128.61 226.88 128.65 226.82 128.69C226.72 128.76 226.61 128.81 226.5 128.87C226.37 128.94 226.54 128.86 226.56 128.85C226.48 128.88 226.4 128.91 226.31 128.93C226.19 128.97 226.07 128.99 225.95 129.02C225.89 129.03 225.71 129.04 225.97 129.02C225.92 129.02 225.86 129.03 225.81 129.03C225.68 129.03 225.56 129.03 225.43 129.03C225.36 129.03 225.28 129.03 225.21 129.02C225.18 129.02 224.88 128.98 225.05 129C225.16 129.02 224.84 128.96 224.77 128.94C224.64 128.91 224.51 128.88 224.38 128.84C224.25 128.8 224.12 128.76 223.99 128.71C223.92 128.68 223.84 128.65 223.77 128.62C223.89 128.67 223.81 128.64 223.74 128.6C223.18 128.33 222.65 128.02 222.14 127.66C221.94 127.52 222.05 127.59 222.09 127.63C222.01 127.57 221.93 127.5 221.85 127.43C221.72 127.32 221.6 127.21 221.48 127.1C221.23 126.87 220.98 126.62 220.76 126.36C220.72 126.31 220.45 125.99 220.58 126.16C220.49 126.04 220.4 125.91 220.32 125.79C220.14 125.52 219.98 125.24 219.84 124.94C219.55 124.33 218.67 124.17 218.13 124.49C217.5 124.86 217.39 125.59 217.68 126.2L217.65 126.24Z" fill="#231F20"/>
<path d="M411.73 80.2499C415.28 78.1299 418.8 75.9199 422.29 73.6899L426.09 71.1899C430.61 68.3399 435.11 65.4499 439.57 62.4999C441.55 61.1899 443.49 59.8099 445.43 58.4699C446.67 57.5999 447.9 56.7199 449.14 55.8499C450.39 54.9899 451.64 54.1299 453.11 53.5899C454.03 53.2499 453.92 53.3199 453.46 54.0499C453.22 54.4099 452.95 54.9999 452.51 55.5699C452.29 55.8599 452.07 56.1799 451.79 56.4699C451.5 56.7499 451.19 57.0299 450.84 57.2899C448.37 59.1499 445.91 61.0199 443.37 62.7899C440.82 64.5399 438.22 66.2499 435.58 67.8999C432.41 69.8699 429.29 72.1799 426.11 74.2899C422.62 76.6199 419.06 78.8399 415.49 81.0599C413.28 82.4099 411.06 83.7399 408.82 85.0499C407.98 85.5499 407.1 86.0099 406.24 86.4899C405.81 86.7299 405.38 86.9699 404.93 87.1799L403.52 87.8899C402.88 88.2499 402.32 88.3399 401.75 88.4899L400.9 88.7099C400.76 88.7199 400.61 88.8399 400.49 88.7699C400.4 88.6699 400.36 88.5599 400.31 88.4499C400.11 88.0099 400.01 87.3699 400.01 86.6699L399.98 84.8299C399.93 81.8299 399.69 78.8999 399.25 76.0299C399.15 75.3999 399.01 74.7999 398.89 74.1799C398.36 71.9099 398.32 71.2699 398.58 70.5399C398.64 70.3799 398.65 70.1899 398.7 70.0699C398.78 69.8699 399.03 69.9299 399.46 70.2599C399.89 70.5799 400.35 71.2399 400.75 72.1399C401.75 74.8399 402.13 77.6499 402.37 80.4699C402.48 81.8799 402.55 83.2999 402.59 84.7099V85.2399L402.6 85.3699L403.65 84.8399C404.55 84.3899 405.45 83.8499 406.35 83.3599C408.14 82.3299 409.94 81.2799 411.71 80.1699L411.75 80.2199L411.73 80.2499Z" fill="#231F20"/>
<path d="M389.28 73.04C389.23 72.33 390.44 75.32 392.13 75.45C395.35 75.7 444.71 55.92 446.41 54.04C446.99 53.39 446.87 54.07 447.04 53.55C447.41 52.43 419.89 63.01 413.36 65.21C406.83 67.41 389.28 73.04 389.28 73.04Z" fill="#231F20"/>
<path d="M401.6 67.4598C406.57 65.9498 411.53 64.3898 416.46 62.7698C418.26 62.1898 420.03 61.4998 421.83 60.9098C428.16 58.7798 434.5 56.6598 440.73 54.2698C443.51 53.2498 446.23 52.0398 448.94 50.8998C450.65 50.1098 452.37 49.3298 454.11 48.5798C454.99 48.2298 455.81 47.7698 456.71 47.4498C457.6 47.1198 458.5 46.8098 459.41 46.5398C460.56 46.1998 460.44 46.3198 459.68 47.0298C459.3 47.3798 458.78 47.9298 458.1 48.5198C457.76 48.8098 457.41 49.1498 456.99 49.4398C456.57 49.7198 456.11 49.9898 455.63 50.2398C453.88 51.0798 452.15 51.9798 450.37 52.7598C448.59 53.5298 446.79 54.2698 444.99 55.0098C441.38 56.4498 437.74 57.8298 434.03 59.0698C429.61 60.5898 425.08 62.3498 420.57 63.8998C415.61 65.6098 410.61 67.2298 405.61 68.8298C402.53 69.7898 399.44 70.7598 396.36 71.7198L390.8 73.4098L387.98 74.2598C386.7 74.6298 385.42 75.0098 384.15 75.3798C383.68 75.3998 383.2 75.4298 382.73 75.4498C382.52 75.4498 382.37 75.4498 382.17 75.4298C382.04 75.3598 382.06 75.1998 382.06 75.1098C382.06 75.0098 382.09 74.9098 382.11 74.8098C382.2 74.4398 382.32 74.0598 382.54 73.6098C382.76 73.1598 383.11 72.6398 383.49 72.1098C383.87 71.5798 384.28 71.0498 384.7 70.4998L385.69 69.2698C386.87 67.8198 388.07 66.3898 389.3 64.9798C389.84 64.3598 390.36 63.7398 390.92 63.1298C393 60.8598 393.86 60.2998 394.7 60.1998C394.89 60.1798 395.11 60.1198 395.25 60.1398C395.49 60.1798 395.43 60.4598 395.17 60.9698C394.91 61.4798 394.44 62.2298 393.74 63.0998C391.91 65.4698 390.04 67.8798 388.14 70.3298L387.44 71.2498L387.09 71.7098C387.01 71.8098 387.06 71.7398 387.05 71.7698V71.8298C387.05 71.8498 387.1 71.8198 387.1 71.8198C387.14 71.7998 387.21 71.7798 387.27 71.7598C389.52 71.0798 391.77 70.3998 394.03 69.7198L401.54 67.3998L401.57 67.4598H401.6Z" fill="#231F20"/>
<path d="M420.49 53.0899L429.95 51.1799L433.39 50.4099L445.58 47.9499C447.38 47.5699 449.18 47.1599 450.96 46.7399C453.24 46.1899 455.54 45.6599 457.9 45.4999C458.64 45.4499 458.58 45.6599 458.04 46.0799C457.77 46.2899 457.38 46.5599 456.9 46.8499C456.42 47.1299 455.84 47.3699 455.19 47.5599C452.91 48.2799 450.57 48.7399 448.24 49.2999C445.91 49.8299 443.56 50.3299 441.19 50.7799C438.36 51.3199 435.47 52.1399 432.59 52.8199C429.43 53.5599 426.26 54.2799 423.08 54.9499L417.21 56.1899C414.25 56.8199 411.26 57.3799 408.32 58.0199C406.03 58.4999 403.82 59.1299 401.55 59.6099C401.05 59.7199 400.57 59.8499 400.06 59.9299C398.19 60.2799 397.55 60.1299 397.05 59.6499C396.94 59.5399 396.8 59.4299 396.72 59.3099C396.47 58.9199 397.17 58.4099 398.5 57.9699C400.49 57.4199 402.52 56.8099 404.61 56.3699C406.7 55.8999 408.82 55.4699 410.95 55.0199C414.11 54.3599 417.29 53.7099 420.47 53.0499L420.49 53.1099V53.0899Z" fill="#231F20"/>
<path d="M384.63 170.27C390.44 169.14 396.17 168.02 401.6 166.06C407 164.1 412.13 161.33 416.1 157.3C419.01 154.42 421 150.73 422.16 146.83C423.19 143.39 423.36 139.68 422.45 136.24C421.55 132.79 419.39 129.76 416.53 127.45C413.69 125.11 410.32 123.35 406.87 121.78C403.46 120.14 399.86 118.94 396.28 117.54C393.11 116.32 389.93 115.02 386.89 113.43C383.86 111.84 380.88 109.96 378.62 107.24C377.16 105.53 376.18 103.26 376.15 100.92C376.17 98.5799 377.05 96.3799 378.23 94.4999C379.4 92.5899 380.97 90.9599 382.67 89.5699C384.37 88.1799 386.21 86.9899 388.06 85.8699C390.38 84.4899 390.17 84.8399 388.37 86.2699C387.48 86.9899 386.2 87.9799 384.74 89.2599C383.29 90.5399 381.69 92.1099 380.34 94.0499C379.18 95.7799 378.25 97.7099 378 99.6399C377.73 101.57 378.2 103.49 379.32 105.13C380.41 106.79 382 108.18 383.74 109.38C385.48 110.59 387.37 111.62 389.32 112.56C393.23 114.43 397.37 115.92 401.53 117.46C403.6 118.22 405.75 119.09 407.75 120.03C409.78 120.96 411.82 121.95 413.8 123.09C416.15 124.46 418.47 126.08 420.43 128.17C422.42 130.22 423.92 132.83 424.78 135.6C425.65 138.39 425.8 141.35 425.48 144.22C425.15 147.09 424.34 149.89 423.06 152.46C421.67 155.27 419.77 157.89 417.5 160.03C415.26 162.21 412.72 164.04 410.04 165.56C404.66 168.62 398.78 170.48 392.89 171.84C385.63 173.48 378.31 174.42 371.26 176.24C360.58 178.89 350.62 184.43 342.7 191.99C336.5 197.83 331.73 204.84 328.19 212.4C327.49 214.11 326.71 215.73 326.14 217.5C325.55 219.11 325.05 220.45 324.74 221.6C324.39 222.74 324.07 223.66 323.8 224.41C323.35 225.94 322.94 226.79 322.44 227.46C322.21 227.76 321.96 228.18 321.77 228.34C321.44 228.62 321.31 228.05 321.37 226.75C321.4 226.1 321.49 225.27 321.62 224.28C321.75 223.29 322.06 222.17 322.37 220.9C324.27 213.36 327.87 206.06 332.57 199.44C334.98 196.18 337.61 193 340.61 190.18C342.05 188.7 343.66 187.41 345.23 186.06C346.01 185.38 346.87 184.81 347.69 184.17C348.53 183.56 349.33 182.91 350.22 182.37C355.33 178.93 360.96 176.21 366.85 174.31C372.74 172.43 378.74 171.36 384.6 170.2L384.63 170.28V170.27Z" fill="#231F20"/>
<path d="M464.8 34.35C464.8 34.57 464.54 34.62 464.13 34.59C464 34.59 463.66 34.42 463.64 34.34C463.59 34.19 463.55 34.04 463.53 33.89C463.51 33.8 463.84 32.65 463.95 32.25C464.05 31.86 464.22 31.51 464.39 31.17C464.77 30.49 465.1 29.78 465.55 29.14C465.64 29 465.76 28.87 465.9 28.76C466.37 28.37 466.72 27.91 467.04 27.41C467.09 27.33 467.17 27.26 467.16 27.13C467.14 26.92 468.15 25.65 468.34 25.55C468.82 25.28 469.26 24.98 469.72 24.7C469.79 24.66 469.82 24.58 469.94 24.6C470.21 24.65 470.3 24.52 470.43 24.42C470.61 24.29 470.82 24.19 471.05 24.11C471.17 24.08 471.33 24.11 471.48 24.11C471.61 24.11 471.74 24.35 471.74 24.4C471.73 24.53 471.87 24.58 471.95 24.66C471.98 24.69 472.01 24.72 472.03 24.75C472.05 24.81 471.69 26.13 471.59 26.2C471.59 26.2 471.52 26.3 471.42 26.43C471.32 26.57 471.19 26.74 471.06 26.94C470.81 27.32 470.55 27.72 470.49 27.81C470.44 27.9 470.33 27.94 470.23 27.99C470.18 28.01 469.43 29.18 469.39 29.23C469.18 29.43 469.07 29.71 468.74 29.81C468.67 29.83 468.65 29.88 468.61 29.93C468.33 30.34 467.97 30.69 467.63 31.06C467.46 31.25 467.32 31.46 467.16 31.66C467.13 31.7 467.08 31.72 467.04 31.74C466.99 31.78 466.93 31.81 466.9 31.85C466.55 32.34 466.12 32.77 465.85 33.31C465.79 33.43 465.26 33.88 465.21 34.03C465.18 34.11 464.78 34.23 464.79 34.33L464.8 34.35Z" fill="#231F20"/>
<path d="M470.55 40.7799C470.37 40.8499 470.24 40.6599 470.14 40.3299C470.11 40.2199 470.14 39.9099 470.2 39.8699C470.3 39.7899 470.39 39.6999 470.49 39.6499C470.54 39.6299 471.44 39.4399 471.74 39.3399C472.04 39.2499 472.33 39.2099 472.62 39.1799C473.22 39.1199 473.82 39.0299 474.42 38.9499C474.55 38.9299 474.69 38.9299 474.82 38.9599C475.28 39.0699 475.74 39.0399 476.2 38.9599C476.28 38.9499 476.35 38.9599 476.42 38.8699C476.53 38.7399 477.77 38.6099 477.93 38.6599C478.34 38.7799 478.74 38.8299 479.15 38.8999C479.21 38.9099 479.26 38.8799 479.33 38.9599C479.47 39.1499 479.59 39.1199 479.71 39.1199C479.88 39.1199 480.06 39.1499 480.23 39.1899C480.32 39.2099 480.42 39.3099 480.51 39.3899C480.6 39.4599 480.61 39.7499 480.59 39.7799C480.53 39.8799 480.62 40.0099 480.65 40.1199C480.66 40.1599 480.67 40.2099 480.67 40.2399C480.68 40.3099 479.71 41.0299 479.6 41.0399C479.58 41.0399 478.13 41.3699 477.92 41.4199C477.83 41.4499 477.74 41.4099 477.65 41.3899C477.59 41.3899 476.42 41.5799 476.38 41.5899C476.13 41.5699 475.89 41.6499 475.63 41.4799C475.58 41.4499 475.53 41.4599 475.48 41.4599C475.06 41.4999 474.63 41.4299 474.2 41.3699C473.98 41.3399 473.77 41.3599 473.55 41.3499C473.51 41.3499 473.47 41.3199 473.43 41.3099C473.38 41.2899 473.33 41.2699 473.28 41.2699C472.77 41.2699 472.25 41.1599 471.74 41.1899C471.62 41.1899 471.06 40.9899 470.92 40.9999C470.84 40.9999 470.6 40.7499 470.53 40.7899L470.55 40.7799Z" fill="#231F20"/>
</svg>
