<?xml version="1.0" encoding="UTF-8"?><svg id="Layer_1" xmlns="http://www.w3.org/2000/svg" width="520" height="520" viewBox="0 0 520 520"><defs><style>.cls-1,.cls-2,.cls-3,.cls-4{fill:#231f20;}.cls-5{fill:#242021;}.cls-6{opacity:.25;}.cls-2{opacity:.15;}.cls-3{opacity:.3;}.cls-4{opacity:.2;}</style></defs><path class="cls-1" d="M312.33,477.49c.38,0,.69.19.97.34.09.05.07.19-.03.23-.21.07-.42.16-.63.24-.13.05-2.18.64-2.88.71-.67.11-1.35.17-2.02.21-1.37.09-2.74.21-4.11.33-.3.03-.61.03-.91.01-1.05-.06-2.09.02-3.13.12-.17.02-.35.02-.51.11-.27.14-3.09.35-3.46.32-.92-.07-1.84-.08-2.76-.11-.13,0-.27.04-.4-.04-.3-.19-.57-.13-.86-.13-.39,0-.79,0-1.19-.02-.2-.02-.4-.11-.6-.17-.18-.06-.12-.35-.06-.39.17-.11,0-.22-.02-.34-.01-.04-.02-.09-.02-.12.01-.06,2.2-.9,2.45-.94.02,0,.23-.05.55-.1.32-.05.75-.12,1.19-.19.87-.14,1.78-.28,1.98-.31.19-.04.4,0,.6,0,.1-.01,2.73-.38,2.84-.4.55-.02,1.1-.15,1.66.02.11.03.22.02.33.01.95-.06,1.9-.01,2.85.01.48.01.97-.02,1.45-.03.09,0,.18.02.26.03.11.01.22.04.33.03,1.14-.03,2.29.05,3.43-.02.26-.05,1.53.26,1.83.27.17,0,.73.31.88.29Z"/><path class="cls-1" d="M358.53,477.46c-.52-.07-.94-.31-1.33-.46-.12-.05-.1-.14.05-.18.29-.06.59-.16.89-.26.05-.02.26-.04.58-.19.31-.08.72-.08,1.15-.14.87-.09,1.83-.2,2.32-.27.95-.16,1.89-.13,2.84-.13l5.77.02c.43,0,.85.03,1.28.09,1.46.17,2.92.26,4.38.26.24,0,.49.03.73-.05.39-.13,4.36.02,4.87.1.65.1,1.28.19,1.91.29.64.12,1.27.23,1.91.35.18.03.38.02.54.12.38.24.77.23,1.17.28.55.07,1.09.16,1.64.26.27.05.53.17.8.26.24.08.1.31.01.33-.25.07-.05.19-.03.29,0,.03.01.08,0,.1,0,.02-.21.05-.52.11-.32.06-.72.13-1.14.2-.84.17-1.72.31-1.89.31-.04,0-1.22.07-2.45.15-1.22.02-2.5.05-2.77.05-.27.02-.55-.05-.82-.09-.13-.02-3.81.06-3.96.05-.76-.05-1.53.02-2.28-.22-.15-.05-.3-.04-.46-.04-1.31-.01-2.61-.19-3.92-.3-.67-.06-1.34-.07-2.01-.11-.12,0-.24-.04-.36-.06-.15-.02-.3-.06-.45-.07-1.58-.1-3.13-.19-4.75-.29-.36-.03-2.09-.4-2.51-.41-.12,0-.37-.09-.61-.16-.13-.04-.26-.07-.35-.1-.1-.04-.19-.08-.24-.09Z"/><path class="cls-1" d="M251.63,479.35c-.1.06-.21.04-.32-.08-.11-.1-.21-.2-.31-.26-.06-.04-.06-.13-.01-.2.11-.11.21-.28.32-.45.07-.05,1.27-.5,1.68-.68.4-.16.81-.2,1.22-.26.83-.1,1.67-.21,2.51-.28.19-.02.37-.01.56.02.64.09,1.28.07,1.92.01.11,0,.22,0,.32-.07.17-.13,1.91-.14,2.14-.08.61.15,1.11.27,1.66.41.08.02.16,0,.23.09.15.21.33.19.5.22.24.04.47.09.7.18.11.04.22.17.32.27.1.09,0,.39-.03.42-.11.08-.04.23-.05.36,0,.04,0,.1-.01.13-.02.07-1.39.47-1.53.46-.02,0-.51,0-1.03.02-.52.02-1.05.04-1.16.05-.11.01-.23-.04-.34-.07-.05-.02-1.6.09-1.66.09-.32-.03-.64.04-.96-.12-.06-.03-.13-.02-.19-.02-.55.03-1.1-.02-1.65-.04-.28-.01-.56.03-.84.04-.05,0-.1-.02-.15-.03-.06,0-.13-.03-.19-.02-.66.06-1.34.03-2,.15-.15,0-.91-.14-1.09-.11-.1,0-.46-.18-.54-.14Z"/><path class="cls-1" d="M109.81,479.53c-.1.06-.21.04-.32-.08-.11-.1-.21-.2-.31-.26-.06-.04-.06-.13-.01-.2.11-.11.21-.28.32-.45.07-.05,1.27-.5,1.68-.68.4-.16.81-.2,1.22-.26.83-.1,1.67-.21,2.51-.28.19-.02.37-.01.56.02.64.09,1.28.07,1.92.01.11,0,.22,0,.32-.07.17-.13,1.91-.14,2.14-.08.61.15,1.11.27,1.66.41.08.02.17,0,.23.09.15.21.33.19.5.22.24.04.47.09.7.18.11.04.22.17.32.27.1.09,0,.39-.03.42-.11.08-.04.23-.05.36,0,.04,0,.1-.01.13-.02.07-1.39.47-1.53.46-.02,0-.51,0-1.03.02-.52.02-1.05.04-1.16.05-.11.01-.23-.04-.34-.07-.05-.02-1.6.09-1.66.09-.32-.03-.64.04-.96-.12-.06-.03-.13-.02-.19-.02-.55.03-1.1-.02-1.65-.04-.28-.01-.56.03-.84.04-.05,0-.1-.02-.15-.03-.06,0-.13-.03-.19-.02-.66.06-1.34.03-2,.15-.15,0-.91-.14-1.09-.11-.1,0-.46-.18-.54-.14Z"/><path class="cls-1" d="M351.43,157.48c-.05.16-.11.32-.17.49-.06.17.14-.29.02-.05-.04.09-.09.18-.13.27-.09.16-.18.32-.28.48-.07.12-.3.34-.32.47.02-.11.17-.21,0-.01-.06.07-.11.14-.17.2-.13.15-.26.29-.4.43s-.29.27-.44.4c-.04.03-.28.22-.1.08s-.11.08-.15.1c-.31.21-.63.39-.97.56s.31-.1-.03.01c-.08.03-.16.06-.25.09-.18.06-.37.11-.55.15-.07.01-.31.12-.11.03s-.03,0-.11,0c-.21.02-.42.02-.62,0-.06,0-.34-.07-.11,0s-.06-.02-.11-.03c-.21-.05-.42-.11-.63-.19-.74-.27-1.68.3-1.85,1.05-.19.85.26,1.55,1.05,1.85,3.94,1.46,8.2-1.88,9.31-5.57.23-.75-.27-1.67-1.05-1.85s-1.6.24-1.85,1.05h0Z"/><path class="cls-1" d="M342.58,129.09c.13-.14.26-.28.4-.41.08-.07.16-.14.23-.2-.1.09-.14.1,0,.01.15-.1.3-.2.46-.29.09-.05.18-.09.27-.14.15-.07.09-.04-.03,0,.34-.13.69-.24,1.05-.31.1-.02.2-.04.3-.05.22-.04-.36.03.03,0,.19-.01.37-.03.56-.03s.38,0,.57.01c.08,0,.17.01.25.02.04,0,.4.04.18.02-.19-.02.09.01.12.02.11.02.21.04.32.06.19.04.38.08.57.13.38.1.75.22,1.11.36.03.01.28.12.12.05-.18-.08.14.07.18.08.19.09.38.19.57.29.69.37,1.67.19,2.05-.54s.2-1.65-.54-2.05c-3.36-1.83-8.13-2.27-10.91.84-.52.58-.62,1.55,0,2.12.57.52,1.56.62,2.12,0h0Z"/><path class="cls-1" d="M386.67,173.38c-.97,0-1.97-.11-2.94-.27-.36-.06-.72-.07-1.07-.15-1.25-.26-2.41-.91-3.48-1.54-.46-.29-.92-.57-1.38-.85-.28-.18-.57-.34-.84-.54-.27-.2-.53-.42-.81-.6-.17-.12-.14-.14.06-.15.19,0,.59-.07,1.01-.02.72.15,1.35.45,1.97.65.59.2,1.18.41,1.8.63.73.24,1.53.31,2.31.43.86.13,1.74.19,2.63.21.57,0,1.15,0,1.72.01.88,0,1.75.07,2.59,0,.65-.08,1.27-.21,1.88-.35.13-.03.26-.08.4-.1.5-.09.69.04.91.47.05.1.11.19.15.29.13.31,0,.7-.39.94-.57.34-1.2.61-1.85.8-.65.2-1.31.18-1.94.21-.95.02-1.85-.03-2.73,0v-.06Z"/><path class="cls-1" d="M401.33,167.68c.12-.36.15-.81.1-1.27-.02-.17-.1-.32-.14-.49-.05-.31-.16-.61-.21-.95-.05-.35-.14-.69-.25-1.03-.09-.3-.23-.58-.36-.86-.18-.36-.33-.73-.43-1.13-.03-.12.01-.13.13-.07.11.06.32.16.5.31.59.56,1.27,1.07,1.69,1.81.13.22.28.44.39.68.13.24.27.48.36.74.21.57.34,1.19.36,1.84.01.4-.02.8-.1,1.2-.11.63-.45,1.16-.79,1.67-.28.37-.5.87-.97,1.15-.1.06-.19.14-.31.18-.43.15-.62,0-.78-.47-.04-.11-.07-.22-.1-.33-.08-.37-.02-.7.05-.9.13-.28.11-.57.2-.71.08-.17.16-.34.24-.5.09-.27.29-.47.35-.86h.05Z"/><path class="cls-1" d="M400.22,166.97c-.04-.53-.13-1.23-.23-1.84-.04-.23-.14-.43-.18-.66-.13-.81-.27-1.62-.48-2.41-.09-.35-.23-.68-.38-1.01-.22-.4-.34-.85-.37-1.34,0-.16.19-.22.46-.22.27.01.66.08.86.29.38.35.54.8.75,1.23.19.44.35.89.45,1.37.12.57.44,1.09.65,1.64.23.61.42,1.22.6,1.85.12.39.2.85.24,1.33.06.76-.17,1.5-.44,2.13-.22.49-.39.98-.66,1.41-.06.09-.1.2-.17.28-.29.29-.5.27-.92,0-.1-.06-.19-.12-.28-.19-.29-.22-.42-.55-.4-.86.04-.46.15-.82.2-1.16.03-.17.06-.32.07-.46.02-.14.08-.24.1-.35.08-.32.15-.49.04-1.02l.06-.02Z"/><path class="cls-1" d="M339.51,150.95c-.17.42-.36.81-.61,1.2-.09.14-.13.3-.23.43-.38.45-.8.85-1.32,1.09-.22.12-.42.26-.63.38-.24.2-.61.23-.94.11-.11-.04-.13-.24-.13-.49,0-.25,0-.61.04-.76.06-.3.2-.34.32-.48.13-.11.24-.24.47-.3.27-.09.33-.37.46-.58.15-.23.29-.49.4-.79.07-.18.14-.37.17-.56.06-.29.16-.6.13-.92-.02-.24-.18-.48-.21-.72-.01-.05-.04-.1-.04-.16,0-.2.13-.28.58-.36l.31-.05c.34-.05.65.01.8.16.22.22.43.46.54.71.09.26.12.53.13.81.03.42-.08.85-.21,1.27h-.05Z"/><path class="cls-1" d="M333.03,150.37c.21-1.12.48-2.18.75-3.23.1-.38.11-.78.23-1.16.46-1.31.93-2.63,1.39-3.94.19-.58.37-1.17.52-1.76.1-.38.18-.76.3-1.13.15-.37.38-.71.62-1.05.16-.21.39-.1.65.18.25.28.63.77.71,1.24-.04.79-.14,1.56-.26,2.33-.12.77-.4,1.51-.69,2.25-.37.88-.39,1.88-.59,2.81-.24,1.02-.5,2.05-.7,3.07-.12.62-.23,1.26-.27,1.84,0,.26-.09.57.15.74.2.2.44.35.82.41.54.07,1.07-.25,1.68-.59.14-.08.27-.18.43-.25.3-.13.55-.19.78-.09.22.11.39.32.52.65.06.15.12.29.16.44.06.25.03.48,0,.71-.03.22-.08.47-.23.59-.44.41-1.11.9-2.1,1.17-.5.12-1.08.2-1.69.1-.3-.03-.6-.12-.89-.22l-.48-.21c-.18-.07-.31-.19-.46-.28-.27-.18-.53-.37-.77-.58-.6-.63-.83-1.54-.8-2.43.02-.65.08-1.08.14-1.59h.07Z"/><path class="cls-1" d="M356.3,171.35c-3.56-1.16-6.92-3.03-9.7-5.54l-1.46-1.43c-.24-.24-.49-.47-.73-.71l-.62-.8c-.72-.96-1.46-1.89-1.99-2.96-.58-1.03-1.18-2.05-1.63-3.12-.93-2.14-1.65-4.35-2.2-6.59-.48-1.99-.89-4.01-1.14-6.02-.16-1.3-.21-2.61-.18-3.91.05-1.3.15-2.62.65-3.87.3-.78.4-.64.71.06.31.71,1.01,1.96,1.08,3.35.1,1.24.27,2.48.46,3.7.13,1.23.31,2.45.55,3.67.46,2.44,1.14,4.84,1.98,7.2.26.7.56,1.4.9,2.09.35.68.77,1.31,1.16,1.96l.6.97.72.88c.5.57.91,1.22,1.46,1.73,2.23,2.46,5.05,4.36,8.18,5.6,1.94.71,3.94,1.34,6.03,1.62,3.14.49,6.39.57,9.55.18,1.23-.17,2.43-.4,3.61-.72l.44-.12c.19-.05.41-.09.62-.12.42-.05.85-.05,1.28.01.85.12,1.71.51,2.35,1.03.46.35.94.69,1.4,1.16.87.89,1.25,1.72,1.33,2.26.1.56-.09.94-.44,1.33-.16.17-.29.37-.45.49-.53.44-1.46-.22-2.19-1.11-.29-.32-.59-.58-.98-.88l-.6-.45-.32-.23c-.09-.06-.12-.07-.19-.1-.23-.1-.46-.14-.69-.14-.11,0-.22.02-.33.05l-.08.02-.22.05-.45.1c-2.39.54-4.86.83-7.36.88-3.71.09-7.49-.39-11.11-1.51l.02-.08Z"/><path class="cls-1" d="M381.33,471.92c-2.56-1.91-10.75-2.57-14.52-1.54s-.56-1.79.85-2.35,10.07-1.79,10.07-1.79l4.8.66-1.2,5.02Z"/><g class="cls-6"><path class="cls-5" d="M185.32,289.62v-.03c.14-.29.03-.54.01-.82-.03-.27-.05-.54-.04-.82.05-.54.02-1.1.12-1.65.07-.56.21-1.11.4-1.65.09-.27.2-.54.32-.8.08-.28.19-.56.31-.84.24-.55.53-1.1.87-1.63h0c.04-.06.07-.13.05-.16l-.13-.34c-.09-.33-.15-.63-.18-.92,0-.03-.03-.05-.09-.04l-.45.03c-.08,0-.21.04-.34.11-.72.41-1.42.91-2.04,1.51-.65.58-1.11,1.32-1.53,2.08-.42.76-.73,1.58-.98,2.43-.28.85-.33,1.75-.32,2.65,0,.13.07.24.16.27l.44.14c.13.04.26.05.38.02l.4-.07s.07,0,.1.03l.26.22c.07.06.16.08.24.07.22-.04.45.08.55.29l.05.09c.03.06.09.11.15.12.06.01.12,0,.18-.05.05-.04.11-.04.14,0,.08.09.2.08.3-.01l.1-.1s.08-.04.11-.04c.03,0,.06.04.06.07l.02.22c0,.06.04.09.1.08.05-.01.11-.07.14-.14l.07-.15c.03-.07.06-.14.08-.21"/></g><path class="cls-3" d="M201.74,229.35s9.43-5.77,15.62-5.18c6.18.59,18.82,2.59,21.08,2.55s4.71-.28,4.71-.28c0,0,2.03-8.27,3.74-9.11s9.02-.46,12.86,1.54c3.84,2,5.76,7.64,5.76,7.64,0,0,.82,4.63,1.66,1.79.83-2.84,3.94-7.81,3.89-8.26s2.22-1.78,1.84-3.83c-.37-2.06-7.17-6.37-7.87-6.79s-4.19-1.31-4.19-1.31c0,0-9.27,4.99-12.21,3.23s-3.89-2.93-1.49-4.12,8.47-3.62,6.48-4.94-11.11-.39-11.94-1.37-3.73-1.14-6.02,1.43c-2.29,2.57-7.55,7.58-8.97,8.09s-12.16.45-12.16.45c0,0-17.18-2.12-16.23,3.3.95,5.42,3.45,15.16,3.45,15.16Z"/><path class="cls-1" d="M249.36,204.1l.58-.34c.19-.08.36-.17.51-.26.11-.07.15-.17.24-.23.14-.1.26-.19.33-.32.11-.12.16-.31.1-.53-.05-.2-.21-.35-.38-.51-.23-.18-.49-.34-.78-.54-.09-.07-.06-.19.06-.34.12-.14.37-.34.63-.34.45.02.96.11,1.37.44.42.31.79.86.82,1.49.03.73-.18,1.47-.54,1.95-.41.51-.85.87-1.32,1.12-.27.15-.53.29-.79.45-.39.24-.79.47-1.16.72-.28.21-.5.49-.75.72-.06.05-.1.12-.17.15-.26.13-.41.08-.67-.15-.06-.05-.12-.1-.17-.16-.18-.19-.23-.44-.16-.69.21-.74.63-1.26,1.06-1.78.36-.33.77-.59,1.16-.89l.03.04Z"/><path class="cls-1" d="M262.05,210.14c-.62-.01-1.27.06-1.93.22-.24.05-.47.16-.72.22-.9.22-1.82.44-2.72.65-.42.1-.82.21-1.23.31-.53.13-1.1.16-1.65,0-.17-.05-.14-.22,0-.42.14-.2.36-.47.62-.59.46-.23.91-.32,1.39-.46.48-.14.97-.28,1.49-.39.62-.13,1.21-.48,1.86-.67.71-.22,1.46-.39,2.24-.47.48-.05.96-.05,1.43-.03.72.03,1.42.18,2.11.3.53.1,1.08.14,1.62.27.12.03.24.05.35.09.42.17.49.35.38.79-.03.1-.05.2-.08.3-.12.33-.4.51-.71.5-.93,0-1.72-.28-2.57-.41-.62-.11-1.25-.19-1.87-.17v-.04Z"/><path class="cls-1" d="M244.43,224.06c-.29.57-.65,1.15-1.1,1.68-.16.19-.28.42-.48.6-.66.64-1.55,1.12-2.43,1.28-.39.08-.79.16-1.19.13-.51-.02-1.08-.15-1.42-.58-.11-.13.07-.32.31-.5.24-.17.51-.4.67-.43.29-.02.55-.16.83-.2.28-.04.58-.11.91-.2.39-.1.63-.51.89-.86.3-.39.55-.85.82-1.34.16-.3.32-.62.45-.95.22-.52.43-1.04.65-1.56.17-.41.22-.88.46-1.28.05-.09.09-.19.15-.27.24-.31.43-.34.78-.17.08.04.16.07.24.11.25.15.36.41.37.67-.02.39.05.79,0,1.13-.04.35-.09.71-.18,1.08-.19.52-.42,1.08-.68,1.68l-.05-.02Z"/><path class="cls-1" d="M241.76,226.17c-.58.29-1.19.48-1.79.62-.22.05-.42.14-.64.17-.77.1-1.52.07-2.25.04-.32-.02-.64,0-.95.02-.4.07-.81-.02-1.2-.21-.12-.06-.1-.27.02-.52.11-.24.31-.56.53-.65.39-.2.77-.12,1.14-.15.38,0,.75.01,1.13.05.46.05.9-.13,1.32-.25.47-.13.93-.28,1.36-.51.27-.13.52-.29.76-.48.37-.27.73-.57.99-.96.2-.3.26-.67.34-1,.02-.07.03-.15.06-.22.09-.26.29-.27.73-.19l.29.05c.16.04.28.11.4.21.11.1.22.25.22.4.12.91-.37,1.7-.92,2.37-.42.5-.94.92-1.52,1.22l-.03-.04Z"/><path class="cls-1" d="M221.62,222.89c1.97.11,3.96.33,5.93.75.71.15,1.42.24,2.1.43l3.49.98c1.15.29,2.36.56,3.53.75,1.04.15,2.1.26,3.13.24.66,0,1.32-.09,1.98-.13.66-.04,1.35.02,2.04-.06.42-.08.42.06.14.37-.14.15-.34.4-.6.67-.26.3-.59.58-1,.78-.35.18-.73.31-1.1.38-.38.09-.75.15-1.13.21-.76.11-1.52.17-2.27.18-1.51-.03-2.97-.34-4.36-.68-1.74-.41-3.52-.71-5.18-1.11-1.82-.45-3.59-.73-5.48-.86-1.15-.09-2.31-.12-3.46-.11-1.75.03-3.53.1-5.24.4-1.34.22-2.59.7-3.84,1.09l-.81.29c-1.03.31-1.38.27-1.85-.32-.11-.13-.23-.25-.32-.39-.3-.46-.02-1.04.75-1.51,1.14-.64,2.37-1.2,3.66-1.52,1.29-.34,2.62-.54,3.95-.69,1.98-.21,3.97-.25,5.97-.2v.07Z"/><path class="cls-1" d="M201.21,214.19c-.16.68-.41,1.39-.5,2.13-.04.27-.01.54-.05.81-.12.97-.18,1.97-.18,2.98,0,.45.06.89.12,1.33.09.56.19,1.12.17,1.71,0,.18-.18.19-.41.09-.22-.11-.52-.33-.65-.64-.43-1.11-.83-2.24-.89-3.46,0-.73-.2-1.47-.24-2.22-.04-.83-.01-1.67.1-2.5.09-.51.19-1.02.33-1.54.21-.79.58-1.58,1.11-2.3.42-.56.88-1.15,1.62-1.51.16-.08.32-.16.51-.2.7-.13.96.13.96.81,0,.16,0,.31-.02.46-.08.52-.3.91-.42,1.08-.36.54-.62.76-.93,1.3-.23.41-.45.99-.58,1.68h-.06Z"/><path class="cls-1" d="M200.84,214.76c-.13.64-.23,1.31-.29,1.98-.02.24.01.48,0,.72-.07.86-.18,1.73-.18,2.6,0,.38.04.77.08,1.14.06.48.14.96.13,1.46,0,.16-.14.16-.31.07-.17-.1-.42-.29-.53-.56-.38-.95-.72-1.93-.78-2.96-.04-.61-.21-1.23-.28-1.86-.07-.69-.1-1.38-.11-2.07,0-.43,0-.86.01-1.29.03-.66.14-1.32.19-1.99.04-.52-.03-1.07.01-1.63.01-.12,0-.25.03-.38.1-.46.36-.52,1.02-.31.15.05.3.09.44.14.47.19.84.52.9.8.16.81.06,1.49-.03,2.29-.07.58-.12,1.2-.23,1.84h-.06Z"/><path class="cls-1" d="M206.31,211.35c-.52.01-1.04.06-1.55.17-.19.03-.36.12-.55.16-.66.16-1.31.39-1.94.69-.28.12-.53.31-.79.48-.31.24-.6.5-.95.71-.11.06-.2-.04-.22-.22-.03-.18,0-.44.15-.64.56-.66,1.22-1.29,2.06-1.59.49-.19.96-.47,1.47-.65.56-.2,1.13-.34,1.71-.43.36-.06.72-.1,1.07-.13.54-.05,1.09-.03,1.63-.05.42,0,.84-.06,1.27-.05.09,0,.19-.01.28,0,.35.04.42.23.41.61,0,.09,0,.18-.02.26-.04.28-.23.5-.47.6-.7.14-1.36.19-2.04.13-.5-.03-1.02-.05-1.53-.01v-.03Z"/><path class="cls-1" d="M199.94,213.38c.24-.3.5-.56.76-.82.09-.1.16-.21.26-.3.35-.32.77-.55,1.16-.77.17-.1.33-.22.49-.33.2-.14.41-.29.67-.34.08-.02.13.09.15.23.02.14.01.34-.07.45-.3.38-.55.75-.91,1.03-.21.17-.36.42-.52.64-.19.24-.37.48-.54.74-.1.16-.22.31-.31.48-.14.25-.29.51-.36.79-.05.22,0,.46.02.68,0,.05.01.1,0,.14-.02.17-.14.21-.52.2h-.27c-.3-.03-.53-.14-.61-.31-.26-.52-.13-1.03.03-1.51.13-.36.31-.69.51-1.02l.03.02Z"/><g class="cls-6"><path class="cls-5" d="M203.11,264.05l-.06-.32c-1.09-5.68-2.11-11.38-3.27-17.04l-6.6-33.68c-2.4-11.19-4.71-22.39-7.2-33.56h0c-.15-.66-.29-1.22-.34-1.3l-.54-.97c-.54-1.15-1.08-2.3-1.36-3.5-.03-.13-.03.01,0,.41.09.99.06,2,.15,2.98.05.52.19,1.48.36,2.52,1.02,6.25,2.13,12.47,3.22,18.7,1.11,6.23,2.13,12.47,3.32,18.68l3.58,18.63,3.6,18.62c.18.9.39,1.68.51,1.91l.59,1.15c.16.32.29.43.37.32l.25-.36s.07.07.13.29l.56,1.91c.15.52.27.78.33.73.15-.14.54,1,.98,2.91l.19.82c.14.59.26,1.02.35,1.21.09.19.13.11.11-.21-.01-.29.06-.18.17.25.24.92.38,1.07.32.33l-.06-.76c-.02-.24,0-.31.06-.19.05.12.14.43.22.82.16.73.32,1.45.39,2.2.08.6.14,1,.19.98.02-.02.05-.46,0-1.08-.03-.46-.05-.91-.14-1.36-.12-.68-.24-1.37-.36-2.07"/></g><g class="cls-6"><path class="cls-5" d="M187.36,276.67l-.03-.12-.41-1.67c-.14-.55-.32-1.1-.47-1.65-.31-1.1-.62-2.2-.9-3.3-.53-2.18-1.04-4.37-1.37-6.54-.36-2.22-.44-4.17-.06-6.29.33-2.09.99-4.15,1.98-5.89,1.02-1.72,2.19-3.27,3.97-3.81h0c.21-.05.38-.19.4-.24.09-.2.2-.39.32-.57.42-.47.95-.74,1.49-.91.06-.02,0-.06-.15-.12-.4-.15-.83-.33-1.28-.53-.24-.07-.7-.14-1.22-.15-1.5.22-2.98.88-4.13,1.85-1.17.95-2.05,2.15-2.68,3.4-1.29,2.51-2.01,5.15-2.31,7.86-.16,1.34-.16,2.83-.02,4.14.12,1.34.33,2.63.57,3.91.47,2.56,1.12,5.05,1.81,7.52.1.36.24.66.35.73l.51.38c.14.11.26.12.36.06l.31-.21s.07.02.11.1l.42.71c.12.19.22.28.28.24.17-.1.48.31.77,1.04l.13.31c.09.22.18.38.26.45.07.06.12.02.13-.12.01-.12.07-.09.15.07.17.35.29.38.3.07v-.32c0-.1.04-.14.08-.1.04.04.1.16.15.31.09.28.19.56.23.86.05.24.1.39.15.37.03-.02.07-.21.05-.46-.01-.19-.01-.37-.06-.55-.05-.27-.11-.54-.18-.82"/></g><path class="cls-1" d="M186.48,280.19c-.76-.43-1.45-.96-2.03-1.56-.22-.22-.45-.41-.64-.64-.64-.86-1.16-1.78-1.41-2.77-.13-.43-.25-.86-.34-1.29-.14-.54-.19-1.12-.06-1.68.04-.17.14-.15.29-.02.14.13.39.36.53.62.37.98.95,1.76,1.33,2.66.23.55.72.97,1.15,1.37.48.45,1.01.84,1.59,1.15.36.19.74.36,1.14.47.6.18,1.23.31,1.85.28.49-.03.94-.25,1.36-.45.09-.04.18-.11.27-.15.35-.12.51.02.8.59l.2.39c.21.44.17.88-.14,1.17-.93.74-2.2.91-3.38.77-.88-.13-1.73-.45-2.52-.85l.02-.05Z"/><path class="cls-1" d="M180.07,285.77c.22-.64.49-1.24.82-1.8.11-.21.18-.43.32-.63.23-.35.51-.66.78-.96.3-.28.61-.55.93-.79.27-.23.54-.45.8-.68.18-.14.34-.29.53-.41.19-.11.4-.2.63-.24.15-.02.28.27.35.62.07.35.12.75-.03.89-.5.54-.91,1.08-1.48,1.56-.36.28-.52.73-.73,1.13-.23.44-.45.9-.6,1.39-.1.3-.18.6-.22.92-.07.47-.12.96-.03,1.42.08.36.35.67.54.96.04.07.1.12.14.19.14.24-.08.42-.6.72l-.36.21c-.4.22-.83.25-1.14.06-.8-.61-1.01-1.61-1.02-2.53-.01-.7.12-1.38.29-2.03h.06Z"/><path class="cls-1" d="M195.98,249.31c-.05.75-.18,1.48-.44,2.21-.09.26-.14.53-.27.77-.46.85-1.1,1.56-1.84,2.11-.34.23-.67.46-1.02.66-.43.3-.99.4-1.52.25-.17-.05-.16-.26-.09-.54.07-.27.17-.69.3-.88.11-.19.24-.28.38-.39.13-.11.25-.21.37-.33.23-.24.54-.41.86-.64.39-.27.53-.76.69-1.18.19-.47.31-.97.36-1.52.03-.33.03-.68-.01-1.02-.06-.52-.15-1.06-.39-1.54-.18-.38-.53-.66-.8-.97-.06-.07-.14-.12-.19-.2-.2-.26-.09-.46.39-.85l.32-.26c.35-.27.8-.38,1.09-.21.86.49,1.32,1.38,1.59,2.32.21.7.29,1.46.29,2.22h-.06Z"/><path class="cls-1" d="M196.42,251.46c-.12.26-.24.51-.37.76-.04.09-.05.19-.1.27-.18.3-.4.59-.59.86-.08.12-.17.25-.23.38-.08.16-.15.34-.35.44-.06.03-.25-.08-.43-.23-.18-.15-.37-.34-.37-.44,0-.18.01-.34.04-.5.03-.16.15-.27.27-.4.16-.15.13-.37.19-.55.06-.2.13-.42.19-.63.04-.13.07-.26.09-.4.03-.2.07-.41.06-.61-.02-.16-.15-.31-.24-.45-.02-.03-.05-.06-.07-.09-.02-.12.11-.18.55-.27l.3-.06c.34-.06.64-.05.78.05.4.3.48.69.5,1.06-.02.28-.12.56-.2.83h-.04Z"/><path class="cls-1" d="M285.2,215.41c.75-.57,1.56-1.05,2.44-1.41.32-.14.62-.31.95-.41,1.18-.3,2.41-.28,3.56-.12.52.06,1.02.22,1.5.36.62.19,1.24.47,1.69.96.14.15,0,.3-.25.43-.26.12-.63.27-.94.25-.55-.06-1.08-.04-1.59,0-.51.04-1.01-.08-1.55-.1-.66-.06-1.28.28-1.9.47-.69.22-1.35.55-1.99.98-.39.26-.77.55-1.11.89-.52.5-1.03,1.05-1.4,1.68-.31.48-.47,1.03-.66,1.56-.04.12-.07.24-.13.35-.24.4-.43.48-.9.38-.11-.02-.22-.03-.32-.06-.34-.09-.54-.4-.55-.81-.03-.62.14-1.19.33-1.76.2-.57.48-1.13.86-1.62.54-.75,1.2-1.43,1.93-2.04l.04.04Z"/><path class="cls-1" d="M282.63,221.94c-.48.62-.99,1.21-1.55,1.77-.2.2-.36.44-.58.63-.78.64-1.6,1.24-2.55,1.6-.4.18-.8.35-1.2.53-.52.19-1.07.34-1.64.27-.19-.11-.17-.14-.09-.38.09-.23.25-.55.48-.73.41-.31.77-.62,1.16-.88.39-.26.74-.58,1.19-.77.54-.26.91-.77,1.32-1.21.45-.48.88-1,1.27-1.57.24-.35.49-.69.7-1.07.33-.56.66-1.13.88-1.75.17-.48.2-1,.28-1.51.02-.11.03-.22.07-.33.15-.39.34-.46.9-.36.13.02.25.04.38.07.41.1.7.39.75.74.17,1.05-.21,1.98-.6,2.93-.31.7-.7,1.37-1.12,2.03l-.05-.03Z"/><path class="cls-1" d="M342.6,416.65c-.52-.84-1.06-1.62-1.71-2.19-.24-.21-.51-.34-.77-.49-.9-.53-2.14-.9-3.43-.94-.57-.03-1.14.04-1.69.14-.71.15-1.42.27-2.18.36-.24.02-.29-.18-.19-.49.1-.3.35-.75.77-.99.73-.44,1.56-.64,2.4-.74.84-.1,1.68-.1,2.53.05,1,.17,2.16.3,3.15.93,1.07.66,1.83,1.56,2.48,2.44.4.54.77,1.11,1.12,1.68.54.86.98,1.78,1.45,2.66.37.69.79,1.34,1.13,2.05.07.16.16.3.22.47.21.61.08.86-.41,1.14-.11.06-.23.14-.34.18-.39.17-.81.02-1.1-.33-.81-1.07-1.42-2.2-2-3.37-.45-.86-.92-1.72-1.47-2.52l.04-.03Z"/><path class="cls-1" d="M307.1,457.56c-.48-.88-1.07-1.73-1.79-2.44-.26-.27-.58-.46-.86-.71-1.01-.85-2.18-1.56-3.47-2.01-.57-.23-1.17-.33-1.77-.4-.77-.1-1.54-.2-2.36-.27-.25-.03-.24-.14-.05-.34.19-.19.56-.53,1.06-.69.44-.12.89-.25,1.35-.29.45,0,.91.01,1.36.08.91.1,1.78.42,2.58.87.94.54,1.97.99,2.85,1.66.97.74,1.81,1.63,2.51,2.6.44.6.82,1.22,1.16,1.88.51.99.88,2.03,1.23,3.06.29.8.55,1.6.72,2.43.04.18.09.36.1.55.07.7-.1.93-.58,1.1-.11.04-.22.08-.34.11-.38.07-.72-.18-.9-.61-.57-1.31-1.16-2.53-1.57-3.81-.35-.94-.78-1.85-1.29-2.72l.05-.03Z"/><path class="cls-1" d="M434.21,287.29s3.09,8.48,5.36,17.29c2.27,8.82-3.83,28.71-4.99,30.59s-7.8,8.38-15.34,12.77c-10.41,6.05-40.49,4.34-40.49,4.34l-24.58.53-1-4s-6.02-22.76-3.67-25.3,19.18,0,20.04-1.84.83-2.23-4.38-2.88c-3.65-.45-14.27-2.62-19.91,2.71-1.41,1.33.22,14.86,1.99,23.98,2.6,13.4,15.61,60.75,15.61,60.75,0,0-10.25,3.06-13.92,3.93s-29.4,3.69-34.45,3.09-6.37-7.04-6.37-7.04l-4.1-45.16,2.05-41.33,8.13-23.99s5.46-6.97,9.47-8.16,12.53-3.94,16.42-2.33c3.89,1.61,10.79,3.61,10.79,3.61,0,0-1.66,10.57,2.29,8.96,2.23-.91,3.24,5.02,6.24,3.06,3.01-1.96,10.32-7.4,12.63-6.5s6.55-3.76,7.4-3.69,9.4-6.55,12.6,1.42,22.73,1.42,22.73,1.42l19.44-6.23Z"/><path class="cls-1" d="M301.99,323.5s-1.34,3.67-2.19,13.55c-.85,9.88,1.69,78.49,6.21,79.62s15.08.69,15.08.69l-5.83,26.28-1.21,6.82s-16.85-.7-30.66-2.56c-13.8-1.87-16.53-6.25-16.53-6.25l4.19-30.09,8.89-38.93,6.87-23.83,7.11-16.18,8.06-9.13Z"/><path class="cls-1" d="M394.68,293.38c-.6-.64-1.16-1.32-1.54-2.07-.15-.27-.32-.52-.44-.8-.43-.98-.76-1.97-1.04-2.95-.14-.43-.27-.86-.41-1.29-.19-.54-.37-1.08-.49-1.64-.04-.17.05-.18.19-.07.14.11.35.32.5.62.49,1.05,1.12,2.03,1.57,3.06.26.63.7,1.19,1.1,1.73.45.6.88,1.18,1.38,1.71.31.32.65.63,1.01.89.55.39,1.15.75,1.79.93.5.13,1.03.07,1.5,0,.11,0,.21-.04.31-.05.19,0,.32,0,.42.1.1.11.18.27.26.52.04.11.08.22.11.33.1.34-.03.76-.42.94-1.16.52-2.54.2-3.63-.33-.83-.4-1.56-.97-2.2-1.58l.03-.04Z"/><path class="cls-1" d="M388.28,280.45c.11.71.22,1.41.34,2.12.04.26.14.51.17.79.05.91.11,2.03-.31,3.1-.19.49-.49.94-.87,1.28-.47.42-1.32.67-1.93.25-.18-.13-.03-.32.16-.54.2-.21.34-.57.4-.7.08-.1.12-.24.17-.35.08-.08.15-.18.21-.27.09-.13.21-.49.29-.87.12-.49-.18-1.09-.27-1.68-.13-.68-.27-1.36-.4-2.04-.09-.42-.17-.85-.28-1.27-.15-.64-.3-1.28-.47-1.91-.15-.49-.41-.93-.6-1.4-.04-.11-.1-.2-.13-.31-.12-.41,0-.59.47-.78.11-.05.21-.1.32-.13.37-.12.73-.04.93.21.61.73,1.04,1.57,1.38,2.45.19.67.32,1.37.48,2.06l-.05.02Z"/><path class="cls-1" d="M412.67,239.99c-.35-.61-.7-1.22-1.05-1.82-.13-.22-.3-.41-.43-.63-.23-.39-.42-.8-.62-1.21-.19-.39-.44-.83-.62-1.29-.16-.41-.34-.81-.43-1.27-.2-.55.04-1.4.64-1.71.18-.1.24.07.3.3.03.23.21.53.28.67.17.25.15.57.34.96.16.39.35.76.59,1.23.28.57.74,1.04,1.08,1.58.37.6.74,1.2,1.11,1.8.23.37.46.74.68,1.11.36.55.69,1.12,1.09,1.63.31.4.7.73,1.05,1.09.08.08.17.15.23.24.23.34.19.53-.12.85-.07.07-.14.15-.21.22-.25.23-.59.26-.87.09-.85-.5-1.37-1.28-1.92-2.05-.4-.58-.76-1.18-1.14-1.78l.04-.03Z"/><path class="cls-1" d="M368.49,227.16c-.56,1.18-1.18,2.34-1.84,3.46-.23.41-.44.84-.7,1.24-.94,1.39-2.04,2.66-3.13,3.9-.48.56-.95,1.12-1.42,1.67-.32.34-.6.72-.94,1.03-.37.29-.76.56-1.15.83-.25.16-.29.07-.24-.23.06-.28.13-.82.37-1.31.18-.45.52-.76.78-1.14l.81-1.1c.54-.74,1.09-1.47,1.66-2.2.7-.86,1.14-1.94,1.73-2.9.62-1.07,1.21-2.17,1.74-3.3.33-.69.63-1.4.9-2.12.41-1.09.78-2.2,1.06-3.32.09-.44.16-.88.22-1.32.06-.44.05-.89.15-1.32.04-.19.05-.38.09-.57.23-.7.44-.91.78-1.03.08-.03.16-.07.23-.08.23-.05.41.28.58.86.27.87.27,1.74.19,2.62-.09.87-.22,1.76-.43,2.62-.36,1.27-.85,2.51-1.38,3.73l-.05-.02Z"/><path class="cls-1" d="M338.75,256.05c-2.42.88-4.95,1.57-7.6,1.76l-.99.09-1.02-.02c-.67-.03-1.37,0-2-.12l-1.92-.26c-.64-.09-1.24-.25-1.86-.36-.9-.18-1.8-.35-2.68-.57-.88-.22-1.77-.4-2.64-.67-3.05-.91-6.05-1.92-9.01-3.02-2.95-1.11-5.87-2.31-8.78-3.5-2.57-1.08-5.2-2.05-7.74-3.15-3.27-1.39-6.58-2.71-9.66-4.54-.95-.59-.83-.49.11-.32.95.14,2.74.32,4.7.92,6.92,2.19,13.65,4.72,20.44,7.29,4.05,1.55,8.4,2.8,12.66,3.83l1.76.43,1.76.34c1.18.27,2.33.35,3.5.51,2.24.17,4.57-.18,6.84-.76,2.8-.73,5.52-1.94,8.12-3.33,3.94-2.13,7.71-4.72,11.15-7.62,2.68-2.25,5.06-4.74,7.43-7.26.51-.56,1.02-1.11,1.54-1.68,1.97-2.06,2.75-2.56,3.84-2.37.25.04.52.05.73.13.69.27.32,1.54-1,3.22-3.99,4.92-8.86,9.56-14.32,13.59-4.06,2.98-8.45,5.66-13.32,7.52l-.04-.08Z"/><path class="cls-1" d="M376.15,182.4c-.38-1.04-.67-2.3-.46-3.6.05-.47.18-.93.35-1.36.2-.35.4-.7.63-1,.26-.29.48-.57.76-.84.62-.53,1.32-.84,1.99-1.07.6-.21,1.17-.38,1.74-.54.74-.15,1.5-.19,2.23-.32.23-.03.22.01.07.17-.15.16-.44.43-.81.72l-.97.67c-.32.2-.66.32-.97.49-.62.31-1.17.62-1.63.97-.27.2-.53.5-.77.83-.19.33-.38.67-.47,1.01-.26.73-.22,1.57.05,2.48.16.55.38,1.13.63,1.69.4.88.79,1.77,1.19,2.64.3.7.67,1.36.9,2.11.05.16.13.32.14.49.03.65-.07.87-.39,1.05-.07.04-.14.09-.2.11-.21.09-.51-.12-.76-.49-.42-.53-.67-1.09-1.01-1.63l-.49-.83-.44-.87c-.45-.88-.91-1.8-1.35-2.85l.05-.02Z"/><path class="cls-1" d="M360.37,107.62c-.58,2.17-.97,11.13-9.14,15.52s-21.35,1.36-21.78-6.54c-.49-8.83,6.16-17.75,15.28-21.96,9.12-4.21,14.05-2.1,14.88.31s.76,12.67.76,12.67Z"/><path class="cls-1" d="M368.66,89.46c-3.69,3.21-5.98,5.56-7.16,13.47-1.18,7.91.12,13.87,3.81,16.39,3.69,2.52,6.79,4.32,9.9,5.62,3.11,1.3,6.16,1.17,6.16,1.17,0,0-.65,6.04-.15,8.27s4.14,3.15,4.14,3.15c0,0,4.5-4.49,5.82-4.13,1.32.36,4.24,1.3,5.19,3.53s1.4,4.25-.66,6.66c-2.06,2.42-4.44,3.49-4.44,3.49,0,0-1.49,4.97,3.28,7.48,4.77,2.51,13.15,2.1,15.27,1.05s9.08-10.89,9.08-10.89c0,0,3.75-13.6,3.79-14.16s1.1-7.11-.67-11.96c-1.78-4.85-2.35-11.23-6.06-14.99s-2.14-5.73-10.57-11.48-18.32-7.45-22.88-7.91c-4.56-.47-13.84,5.25-13.84,5.25Z"/><path class="cls-1" d="M372.17,475.26c4.35.66,8.85.93,13.33.96,1.64,0,3.27-.12,4.9-.18,2.88-.1,5.76-.3,8.56-.72,1.4-.2,2.8-.46,4.05-.88.3-.1.64-.23.85-.34.15-.07.29-.15.41-.26.28-.21.32-.63.1-.9-.17-.36-1.46-1.11-2.56-1.55-1.15-.48-2.36-.84-3.57-1.2-1.56-.45-3.16-.79-4.77-1.14-1.6-.39-3.19-.78-4.79-1.17-.99-.24-.84-.53.08-.84.92-.29,2.63-.65,4.58-.51,3.42.47,6.82,1.05,10.23,2.53.43.19.86.41,1.3.66.22.14.44.26.66.42l.46.34c.16.13.29.28.44.41.57.56,1.01,1.23,1.14,1.96.14.73.02,1.51-.35,2.14-.37.64-.98,1.15-1.66,1.55-.37.23-.58.31-.81.42-.24.11-.47.19-.69.28-.92.33-1.8.54-2.69.72-2.11.42-4.22.7-6.34.95-2.12.24-4.25.43-6.36.5-4.65.15-9.29.04-13.93-.41-2.86-.29-5.71-.68-8.57-1.5-.78-.23-1.55-.51-2.33-.89-.39-.21-.78-.42-1.16-.73-.37-.29-.8-.73-1.04-1.22-.37-.8-.61-1.69-.46-2.66.15-.97.71-1.78,1.31-2.33,1.22-1.13,2.6-1.67,3.94-2.18,3.27-1.12,6.51-1.79,9.8-2.25.73-.1,1.43-.22,2.17-.28,2.72-.22,3.62.01,4.21.85.13.19.31.39.38.58.23.66-.8,1.16-2.72,1.46-2.84.44-5.74.91-8.57,1.57-1.41.33-2.8.7-4.08,1.18-1.25.45-2.47,1.14-2.9,1.65-.14.2-.14.26-.16.3-.03.02.06.3.13.49,0,0-.05-.03.13.12.15.11.39.26.68.39.57.27,1.27.5,2,.7,1.46.41,3.05.7,4.65.92v.09Z"/><path class="cls-1" d="M383.77,429.2l1.76-17.92c.21-2.18.31-4.37.53-6.55.79-7.68,1.58-15.36,2.47-23.03.4-3.4.72-6.83,1.04-10.22.46-4.34.83-8.72,1.99-12.98.39-1.33.39-1.14.6.04.25,1.19.76,3.37.73,5.89-.08,2.23-.14,4.46-.26,6.68-.16,2.22-.33,4.44-.49,6.66-.17,2.22-.36,4.45-.57,6.67-.24,2.22-.53,4.45-.82,6.67-.7,5.33-.98,10.92-1.46,16.39-.54,6.02-1.08,12.04-1.63,18.06-.34,3.71-.68,7.41-1.02,11.12-.5,5.61-1.07,11.25-1.48,16.83-.33,4.34-.46,8.61-.7,12.9-.05.95-.07,1.88-.15,2.83-.29,3.53-.64,4.63-1.67,5.29-.23.15-.47.36-.69.43-.74.26-1.24-1.24-1.2-3.83.11-7.69.72-15.75,1.36-23.85.51-6.01,1.03-12.06,1.55-18.08h.09Z"/><path class="cls-1" d="M433.96,339.36c-2.22,3.04-5.05,5.45-8.16,7.34-3.1,1.9-6.45,3.27-9.84,4.29-2.48.76-4.98,1.39-7.52,1.8-8.94,1.45-17.92,1.32-26.8.95-3.94-.18-7.89-.36-11.8-.53-5.01-.24-10.02-.46-14.99-.74-1.55-.3-1.36-.45-.05-1.03,1.32-.57,3.8-1.1,6.71-1.08,2.58.03,5.15.08,7.71.17,2.55.13,5.11.26,7.66.39,5.1.25,10.2.47,15.32.51,6.12.04,12.48-.6,18.51-1.96,3.32-.74,6.57-1.74,9.63-3.13,3.06-1.38,5.91-3.21,8.31-5.51,2.95-2.83,5.05-6.44,6.44-10.35,2.12-5.93,2.85-12.39,2.79-18.71-.08-4.93-.83-9.73-1.91-14.44-.2-1.05-.56-2.03-.8-3.07-.5-1.92-.86-3.16-.94-4.09-.08-.93.06-1.54.35-2.11.13-.26.23-.58.37-.75.24-.3.62-.11,1.16.49.54.6,1.27,1.63,1.74,3.09,1.57,4.28,2.58,8.86,3.13,13.56.55,4.7.65,9.53.21,14.37-.35,3.59-1.12,7.16-2.18,10.66-1.17,3.48-2.76,6.87-4.96,9.92l-.07-.04Z"/><path class="cls-1" d="M298.06,479.56c-4.88.69-9.77,1.06-14.75.86-.91-.05-1.83-.09-2.75-.18-.93-.09-1.86-.18-2.83-.44-.33-.07-.68-.19-1.02-.31-.36-.11-.66-.26-1.1-.47-.23-.09-.44-.28-.65-.43-.2-.17-.45-.29-.6-.49l-.47-.6c-.15-.21-.25-.44-.38-.66-.11-.48-.21-.99-.11-1.48.1-.49.3-.96.59-1.38.12-.23.3-.41.47-.6.17-.18.36-.42.49-.51.28-.24.56-.48.85-.67,1.13-.81,2.28-1.41,3.44-1.97,2.31-1.11,4.67-1.96,7.03-2.81,2.61-.91,5.21-1.88,7.8-2.73l1.46-.51.36-.13c.12-.04.26-.09.28-.11.09-.06.22-.07.26-.19.15-.24-.07-1.67-.3-2.78-.21-1.18-.51-2.36-.79-3.55-.18-1.07-.02-1.01.69-.28.35.36.78.92,1.25,1.62.23.35.47.74.69,1.17.11.22.22.45.33.68.09.24.17.49.24.76.13.48.25.98.33,1.54l.06.55c.02.23-.03.46-.03.69-.02.47-.21.85-.38,1.27-.29.22-.51.52-.85.69l-.52.24c-.17.12-.21.11-.32.16l-1.1.48-2.17.9c-1.45.57-2.9,1.08-4.34,1.63-2.89,1.08-5.76,2.2-8.51,3.41-1.07.47-2.13,1.03-3.01,1.67-.23.16-.43.32-.61.49-.12.1-.15.13-.18.17-.03.04-.08.07-.1.12-.12.15-.21.37-.11.56.06.14.18.25.31.33.07.05.1.06.28.14.15.08.33.15.53.21.74.27,1.62.45,2.49.58,2.26.32,4.65.32,7.02.25,2.38-.08,4.76-.29,7.13-.58,2.92-.36,5.84-.85,8.67-1.56,1.07-.27,2.14-.56,3.17-.92,1.02-.35,2.06-.74,2.87-1.26,1.49-.76,1.57-3.1,1.35-5.16-.42-3.31-1.59-6.52-2.68-9.76-.24-.72-.52-1.41-.75-2.14-.85-2.72-.86-3.7-.11-4.52.17-.19.32-.41.5-.54.6-.41,1.46.53,2.23,2.43,1.15,2.84,2.31,5.81,3.21,9.02.46,1.6.81,3.27,1,5.06.09.9.13,1.83.06,2.83-.08,1-.24,2.08-.81,3.24-.22.43-.49.86-.84,1.26-.19.19-.39.38-.59.57-.19.16-.36.26-.54.39-.71.48-1.35.77-1.99,1.06-1.27.54-2.5.91-3.74,1.26-2.46.67-4.91,1.14-7.37,1.53l-.02-.08Z"/><path class="cls-1" d="M266.94,444.74c-.29-.22-.57-.44-.86-.72-.38-.34-.72-.78-1.02-1.22-.19-.54-.43-1.08-.39-1.68v-.44c-.02-.13,0-.19,0-.29l.02-.52c.04-.67.1-1.32.16-1.96.13-1.28.28-2.54.44-3.8.32-2.51.69-5.01,1.08-7.5.81-4.97,1.7-9.92,2.64-14.86.73-3.81,1.38-7.63,2.19-11.42,1.41-6.68,3.01-13.33,4.75-19.93,1.74-6.61,3.58-13.19,5.64-19.71,1.86-5.78,3.79-11.57,6.03-17.18,1.45-3.6,3.06-7.16,5.01-10.56,1.93-3.38,4.27-6.73,7.67-8.93.52-.34.95-.51,1.22-.61.27-.1.4-.12.4-.07,0,.05-.11.17-.32.36-.22.19-.53.44-.87.82-.71.72-1.6,1.83-2.44,3.31-.43.73-.85,1.56-1.3,2.42-.46.86-.95,1.77-1.45,2.72-1.78,3.38-3.22,6.98-4.58,10.6-1.4,3.61-2.64,7.3-3.84,11.02-2.33,7.45-4.57,14.97-6.7,22.57-1.27,4.55-2.38,9.24-3.42,13.98-1.04,4.74-2.04,9.51-3.01,14.25-2.13,10.41-4.12,20.9-5.56,31.39-.11.85-.21,1.71-.29,2.55-.04.42-.07.84-.09,1.24,0,.19,0,.23,0,.35,0,.1.01.21.09.28.09.13.16.2.3.34.17.16.36.32.58.47.42.3.89.58,1.4.84.99.52,2.08.94,3.18,1.33,2.21.78,4.52,1.38,6.84,1.91,4.8,1.08,9.7,1.87,14.6,2.49,4.91.6,9.85,1.07,14.71,1.15h1.41s.69-.03.69-.03l.34-.02.2-.02c.26-.03.53-.04.76-.16.16-.21.16-.5.22-.74l.18-1.22.18-1.4.34-2.82c.44-3.77.88-7.54,1.47-11.32.26-1.67.51-3.3.86-4.98,1.32-6.21,2.44-8.12,3.84-9.01.33-.2.7-.48.97-.55.95-.18.36,2.2-.58,6.54-1.4,6.48-2.23,13.33-3.15,20.32l-.35,2.65-.2,1.34-.11.69-.09.51c-.04.22-.08.43-.14.64l-.16.63c-.07.2-.17.37-.26.55-.08.19-.2.34-.3.5-.1.17-.24.31-.41.42-.57.53-1.44.69-2.31.78l-.66.05-.43.02-.72.02h-1.41c-3.7-.04-7.3-.32-10.92-.67-5.37-.53-10.72-1.27-16.06-2.32-2.67-.53-5.34-1.13-8-1.91-1.33-.39-2.66-.82-4-1.36-1.34-.55-2.67-1.14-4.04-2.11l.04-.08Z"/><path class="cls-1" d="M340.14,443.63c-1.89,1.5-3.83,2.93-5.87,4.25-2.06,1.31-4.16,2.56-6.62,3.45-.91.33-1.84.66-3.03.73-.16,0-.29,0-.49,0-.19-.01-.4-.01-.58-.04-.36-.11-.74-.17-1.07-.33-.33-.18-.66-.35-.92-.62-.14-.13-.28-.24-.41-.38l-.28-.48c-.32-.57-.49-1.22-.52-1.87-.01-.64.07-1.13.19-1.61.25-.94.61-1.74,1.01-2.47.8-1.47,1.73-2.73,2.68-3.97,1.92-2.44,3.96-4.7,5.97-6.94.89-.99,1.76-2,2.55-3.04.39-.51.77-1.04,1.07-1.55.15-.25.3-.5.38-.7.07-.13.04-.14.08-.23l.05-.45c.32-3.13-.7-6.34-1.94-9.43-.4-.96-.04-1.04.79-.45.79.59,2.17,1.85,2.98,3.84.7,1.75,1.18,3.67,1.23,5.69.01.25,0,.51,0,.76v.38c-.02.14-.08.43-.12.63-.21.77-.46,1.27-.72,1.72-.54.89-1.09,1.62-1.65,2.35-2.23,2.85-4.66,5.32-6.96,7.9-1.37,1.53-2.63,3.22-3.53,4.95-.44.84-.74,1.77-.75,2.35,0,.18.05.35.15.49.12.13.28.21.45.25.05-.01.23.04.46.01.2,0,.44-.04.67-.08.47-.09.98-.24,1.48-.42,1-.39,2.01-.91,3-1.47,1.98-1.13,3.89-2.46,5.73-3.87,2.28-1.74,4.47-3.6,6.53-5.59.77-.76,1.53-1.53,2.24-2.32.68-.79,1.43-1.62,1.7-2.39l.13-.29c.03-.11.05-.23.08-.34.05-.23.11-.45.15-.69.02-.5.11-.98.07-1.5-.02-.51-.02-1.03-.1-1.55-.05-.52-.12-1.04-.23-1.56-.58-3.25-1.8-6.35-2.94-9.49-.26-.69-.53-1.36-.77-2.07-.87-2.64-.89-3.61-.04-4.46.18-.19.35-.42.53-.54.6-.4,1.61.44,2.38,2.29,1.21,2.74,2.34,5.66,3.23,8.76.45,1.55.85,3.15,1.12,4.83.28,1.68.49,3.41.28,5.39-.01.35-.1.75-.19,1.14-.1.39-.14.76-.34,1.19-.18.4-.35.86-.56,1.2-.22.35-.43.65-.64.93-.84,1.11-1.69,1.99-2.57,2.89-1.76,1.75-3.58,3.36-5.46,4.91l-.06-.06Z"/><path class="cls-1" d="M331.55,413.73c-3.61.44-7.23.8-10.88,1.04-1.83.12-3.66.2-5.52.21-.93,0-1.87-.01-2.83-.07-.48-.03-.97-.07-1.47-.14-.12-.01-.25-.04-.39-.06-.16-.03-.4-.07-.59-.12l-.59-.16-.56-.22c-.1-.05-.17-.12-.26-.18l-.13-.09-.06-.05h-.02s-.08.06.06-.09h0s-.03-.04-.03-.04l-.41-.48c-.17-.41-.35-.82-.43-1.29l-.18-.85-.15-.77c-.19-1.02-.36-2.03-.51-3.04-.32-2.02-.6-4.04-.86-6.06-.53-4.04-.98-8.08-1.38-12.12-.55-5.58-1.18-11.16-1.54-16.76-.33-4.94-.54-9.88-.66-14.83-.07-4.95,0-9.9.2-14.86.22-4.95.53-9.91,1.17-14.83.31-2.46.66-4.92,1.1-7.37.39-2.46.84-4.91,1.4-7.34.96-4.32,2.27-8.61,4.13-12.7,1.84-4.08,4.3-8.04,7.86-11.02,1.12-.97,2.4-1.78,3.73-2.47,1.38-.67,2.72-1.14,4.1-1.58,2.77-.86,5.65-1.38,8.56-1.51,1.45-.06,2.91-.04,4.36.09.72.1,1.44.18,2.15.33.36.06.71.14,1.07.2.35.11.7.19,1.05.29,2.79.75,5.48,1.86,7.91,3.36,1.52.93,2.06,1.5,1.95,1.58-.13.12-.93-.23-2.35-.65-1.41-.43-3.44-.91-5.88-1.18-1.22-.13-2.53-.21-3.91-.24-.69-.03-1.39-.06-2.11-.02-.71-.06-1.45-.04-2.19-.07-2.65-.03-5.29.28-7.86.91-.64.17-1.27.36-1.91.54-.63.2-1.25.44-1.88.66-.62.23-1.13.49-1.69.75-.52.32-1.08.58-1.57.96-2.04,1.4-3.79,3.3-5.25,5.49-1.47,2.18-2.67,4.59-3.69,7.12-1.98,5.07-3.46,10.47-4.54,15.98-.97,5.54-1.43,11.18-1.93,16.84-.55,6.78-.65,13.74-.53,20.74.07,7,.39,14.05.82,21.03.34,5.74.87,11.48,1.54,17.19.33,2.86.69,5.71,1.1,8.56.21,1.42.42,2.84.66,4.25.12.7.24,1.41.38,2.09l.16.74c.03.14.06.32.23.34.18.1,1.29.24,2.18.29.93.05,1.88.06,2.83.05,1.91-.03,3.83-.13,5.75-.26,9.4-.72,18.82-2.03,28.08-3.87,1.75-.36,3.5-.74,5.22-1.16,1.72-.43,3.45-.9,5.03-1.56.2-.08.38-.17.57-.26.16-.08.25-.12.36-.19.19-.13.45-.26.48-.52,0-.12-.06-.24-.09-.35l-.13-.43-.4-1.29-1.57-5.17c-2.08-6.9-4.04-13.82-5.9-20.72-1.48-5.36-2.82-10.7-4.1-16.05-.64-2.67-1.22-5.36-1.82-8.04-.52-2.7-1.12-5.39-1.56-8.12-.37-2.41-.88-4.74-1.13-7.2-.61-4.52-.64-7.58-.6-9.7.14-2.14.51-3.37,1-4.33.23-.44.46-1.01.69-1.25.39-.41.72.32.98,1.93.13.81.24,1.84.33,3.06.17,1.24.34,2.67.49,4.29,1.03,9.6,3.13,19.4,5.41,29.29.59,2.47,1.16,4.95,1.8,7.43.6,2.48,1.18,4.98,1.81,7.48,1.22,5,2.54,9.99,3.88,14.99,1.01,3.71,2.04,7.42,3.1,11.12l.4,1.39.15.5c.07.24.11.45.15.68.04.22.07.45.09.67l.03.33c-.04.1-.03.22-.06.32-.1.44-.34.82-.62,1.16-.16.16-.33.31-.51.46l-.58.4-.62.33c-.12.06-.19.1-.25.12l-.19.09c-.26.12-.51.21-.76.31-1.99.71-3.88,1.25-5.8,1.75-3.82.99-7.66,1.68-11.5,2.36-3.84.65-7.7,1.22-11.56,1.7l-.03-.07Z"/><path class="cls-1" d="M165.82,114.78c-.03-3.36-.04-6.73-.16-10.09-.04-1.23-.18-2.45-.21-3.68l-.04-1.65c0-.46-.04-.94-.02-1.38l.21-1.21c.02-.22.12-.34.17-.51.16-.09.33-.19.49-.26l.5-.24c.09-.04.17-.08.26-.12l.33-.03c.45-.05.88-.07,1.31-.07h.6s.41,0,.41,0l6.54.21,1.45.04h.36c.1.02.14.01.21.02h.37s.17,0,.17,0c.05-.01.15.03.12-.05v-.33c.02-.11-.02-.23-.05-.35l-.05-.18-.02-.09v-.18c-.03-1.22-.07-2.45-.1-3.68,0-.61,0-1.23,0-1.84l.03-.92c.02-.31.11-.62.16-.93.17-.77.22-.68.57-.05.43.62.99,1.79,1.18,3.19l.5,3.74.06.47.08.89.08.97.02.24-.04.18-.08.36-.16.71-.08.35s0,.07-.03.08h-.1s-.2.04-.2.04c-.53.06-1.05.12-1.63.21l-.84.12c-.17.03-.19.04-.28.03h-.23s-.94-.02-.94-.02l-1.88-.04c-1.25-.05-2.5-.09-3.76-.14l-1.12-.03h-.56c-.12,0-.14,0-.18,0h-.11c-.16,0-.26-.01-.39,0-.06,0-.13,0-.19.02-.06.02-.02.11-.03.16l.05,1.21c.02.78.05,1.55.07,2.32l.17,10.2.07,6.28c.05,3.17,0,6.36.07,9.51.05,2.45.23,4.85.26,7.29,0,.54.04,1.06.03,1.6-.04,2.01-.38,2.64-1.1,3.02-.17.09-.34.2-.5.25-.55.15-.97-.69-1.13-2.13-.17-2.14-.31-4.34-.41-6.57-.09-2.23-.12-4.49-.16-6.76-.06-3.38-.12-6.77-.18-10.16h.08Z"/><path class="cls-1" d="M123.91,153.16c3.4.24,6.92.33,10.41.39,1.28.02,2.55-.05,3.83-.03l13.53.28c2,.04,4.01,0,6-.06,1.28-.04,2.56-.02,3.84.01l.96.04.96.14c.64.09,1.28.21,1.92.33.8.16.69.34.01.7-.34.18-.81.43-1.39.7-.29.13-.6.27-.93.4-.17.07-.34.12-.51.2-.18.03-.35.05-.54.08-1.29.13-2.59.31-3.89.41-1.3.05-2.6.08-3.9.11-2.61.03-5.22.05-7.85-.14-3.15-.19-6.41,0-9.63,0-3.54-.02-7.08-.08-10.64-.22-1.1-.04-2.19-.1-3.31-.19l-.86-.09c-.15-.02-.27-.02-.45-.05l-.54-.12c-.37-.06-.69-.24-1.01-.43-.31-.18-.5-.36-.76-.54-1.38-1.1-2.53-2.28-3.71-3.46-1.16-1.18-2.32-2.36-3.47-3.54-1.79-1.81-3.66-3.49-5.46-5.26-.4-.39-.81-.75-1.19-1.16-1.42-1.51-1.71-2.15-1.36-3.05.08-.2.13-.42.22-.59.31-.53,1.34-.32,2.47.68,3.41,2.93,6.69,6.32,10.01,9.62,1.23,1.21,2.48,2.45,3.71,3.53.6.51,1.3,1.08,1.41,1.04.03,0,.07,0,.1.02.03,0,.05.03.18.03l.59.06c.38.04.8.07,1.24.09v.08Z"/><path class="cls-1" d="M268.75,227.6c-.23.35-.48.68-.72,1.01-.09.12-.13.26-.23.37-.34.41-.72.73-1.14,1.1-.19.16-.38.33-.63.46-.34.11-.72.03-.97-.14-.08-.06-.05-.08.03-.12.08-.04.22-.14.29-.29.07-.11.11-.24.12-.35.02-.09.06-.12.1-.19.09-.13.2-.3.37-.49.2-.23.27-.55.41-.83.15-.3.3-.61.44-.92.08-.19.17-.39.23-.59.11-.3.24-.6.26-.92.02-.25-.1-.51-.18-.76-.02-.05-.05-.11-.06-.16-.03-.2.12-.25.7-.26h.4c.45-.01.81.1.93.28.34.54.3,1.12.16,1.66-.1.41-.26.79-.47,1.16h-.05Z"/><path class="cls-1" d="M371.95,295.94c-.87.07-1.72,0-2.44-.09l-.62-.07s-.03,0-.05,0l-.19.06-.39.15c-1.05.4-2.09,1.13-3.07,2.04-.36.33-.7.69-1.04,1.07l-.52.57-.82.86c-.65.69-1.35,1.27-2,1.52-.63.25-1.32.32-2.01-.06-.75-.48-.98-1.26-1.08-2.17-.04-.46,0-.96.05-1.46.08-.49.18-1.07.29-1.47.37-1.34.88-2.61,1.56-3.83.44-.76.93-1.54,1.67-2.23.64-.57,1.27-1.17,1.99-1.62.91-.61,1.87-1.17,2.9-1.59,1.02-.43,2.14-.71,3.27-.63.71.05.62.33.16.83-.27.31-.57.65-.87.99-.34.36-.75.68-1.21.96-.83.47-1.6,1.05-2.34,1.66-.36.32-.72.63-1.11.9l-.56.44-.28.23c-.07.06-.11.09-.17.16-.49.47-1.01,1.3-1.45,2.12-.22.42-.43.86-.62,1.3-.1.22-.19.45-.27.67l-.12.33-.06.09c-.13.25-.3.73-.05,1.01.23.13.46-.09.62-.24l.25-.26.53-.6c.97-1.09,2.02-2.22,3.33-3.15.65-.46,1.36-.88,2.15-1.16.19-.08.39-.14.6-.2.25-.08.55-.12.82-.12.57,0,.85.08,1.22.11,1.66.24,3.18.06,4.52-.76.49-.33.97-.69,1.39-1.14.4-.39.91-1.01,1.46-1.48,1.11-.97,2.4-1.67,3.72-2.17,2.06-.79,4.16-1.23,6.29-1.42.47-.04.93-.09,1.4-.1,1.75,0,2.29.24,2.59,1.04.07.17.16.34.2.49.12.5-.62,1.03-1.81,1.1-1.77.17-3.55.34-5.24.7-1.69.35-3.3.9-4.57,1.8-.24.16-.47.33-.68.53-.23.18-.42.39-.61.59l-.79.84c-.28.32-.64.59-.96.88-1.38,1.11-3.19,1.86-4.96,2v-.07Z"/><path class="cls-1" d="M352.95,298.04c.02-.35.04-.71.11-1.06.03-.17.05-.36.1-.52l.09-.34c.12-.41.25-.81.39-1.2.28-.77.6-1.51.94-2.23.25-.53.44-1.07.72-1.58.5-.89,1.03-1.76,1.65-2.61.16-.21.32-.43.5-.64.17-.21.41-.45.6-.62.39-.37.82-.7,1.28-.97.79-.5,1.6-.96,2.44-1.32.54-.23,1.1-.44,1.68-.58.58-.14,1.2-.18,1.8.01.37.11.3.28.03.6-.14.15-.32.37-.51.61-.2.21-.43.36-.68.48-.92.37-1.78.9-2.58,1.48-.4.29-.78.6-1.14.92-.39.3-.78.57-1.09.87-.84.87-1.39,2.2-1.97,3.38-.64,1.32-1.23,2.7-1.58,4.06-.08.31-.13.45-.15.72-.01.23,0,.52.2.68.31.19.74.13,1.04-.12.16-.12.29-.26.42-.44.06-.07.15-.21.24-.35.09-.14.18-.28.26-.43.52-.93.83-1.99,1.47-3.04.15-.23.26-.47.46-.69.74-.81,1.32-.78,1.73-.38.1.09.2.16.27.25.11.15.12.35.1.58-.02.24-.1.43-.2.68-.35.65-.72,1.43-1.12,2.33-.21.45-.42.91-.68,1.4-.12.24-.28.5-.43.75-.04.1-.24.34-.37.53-.15.19-.27.41-.46.57-1.03,1.13-2.41,1.47-3.63,1.17-.61-.13-1.17-.54-1.47-1.07-.33-.51-.5-1.15-.52-1.87l.07-.02Z"/><path class="cls-1" d="M349.2,296.06l.06-.88c.05-.31.12-.64.17-.95.12-.63.31-1.28.44-1.9.25-.8.52-1.45.82-2.16.22-.5.36-1.03.61-1.52.96-1.91,2.35-3.35,3.76-4.64.63-.57,1.27-1.14,1.9-1.71.41-.35.81-.74,1.3-1.03.51-.26,1.04-.5,1.75-.55.5,0,.35.42.25.91-.1.48-.14,1.15-.47,1.58-.14.18-.31.36-.49.5l-.53.49-1.06,1.02c-.69.71-1.44,1.36-2.2,2.03-.44.4-.82.88-1.1,1.39-.16.25-.27.5-.38.75l-.37.86c-.27.64-.55,1.27-.78,1.93l-.5,1.35c-.13.4-.28.9-.3,1.41,0,.19,0,.4.09.59.08.2.29.25.46.22.35-.06.61-.37.84-.69.17-.26.32-.59.41-.87.11-.31.1-.45.3-.92.09-.21.15-.44.27-.64.2-.38.42-.59.68-.67.25-.08.5-.06.82.05.15.05.3.08.43.14.43.2.61.72.56,1.38-.11.45-.24.9-.43,1.33-.29.61-.75,1.46-1.25,2.19-.49.76-1.01,1.39-1.54,1.82-.53.44-1.02.63-1.54.71-.2.04-.39.03-.62.03-.22,0-.46,0-.66-.16-.23-.08-.47-.15-.65-.29-.18-.14-.31-.28-.44-.43-.47-.59-.72-1.45-.7-2.62l.07-.05Z"/><path class="cls-1" d="M371.91,213.41l-.63,2.56-.56,2.59c-.38,1.72-.71,3.47-1.04,5.21-.25,1.27-.38,2.56-.61,3.83-.84,4.49-1.58,9.02-2.49,13.52-.37,2-.75,4.02-1.09,6.02-.5,2.55-1.01,5.14-2.08,7.55-.36.74-.48.59-.67-.16-.23-.77-.44-2.1-.22-3.55.26-2.62.71-5.19,1.11-7.79.41-2.6.81-5.21,1.38-7.82.66-3.12.97-6.43,1.49-9.66.57-3.55,1.23-7.1,1.96-10.64.49-2.17.97-4.34,1.56-6.49.22-.81.41-1.64.66-2.45l.75-2.42c.46-1.63,1.11-3.2,1.63-4.79.93-2.44,1.76-4.9,2.97-7.24.26-.52.46-1.06.8-1.54,1.23-1.8,1.8-2.25,2.67-2.17.2.02.41.01.58.07.57.2.49,1.19-.17,2.52-.25.49-.5.98-.75,1.48-.21.52-.42,1.04-.66,1.55-.46,1.03-.98,2.02-1.36,3.1-.4,1.08-.9,2.1-1.27,3.21-.39,1.1-.77,2.2-1.16,3.3-1.02,3.34-2.01,6.72-2.75,10.19h-.07Z"/><path class="cls-1" d="M356.85,207.27l-5.21,4.92c-.63.61-1.21,1.27-1.86,1.85-2.3,2.07-4.66,4.12-7.2,5.92-1.09.84-2.24,1.63-3.33,2.45-.74.48-1.45,1.01-2.21,1.46-.79.41-1.6.76-2.43,1.08-.52.19-.6-.14-.39-.7.22-.56.68-1.4,1.44-2,.65-.57,1.36-1.05,2.04-1.57.69-.51,1.33-1.08,2.01-1.6,1.34-1.08,2.64-2.21,4.04-3.28,1.67-1.27,3.11-2.95,4.62-4.49l5-5.14c1.03-1.06,2.07-2.12,3.12-3.17,1.62-1.57,3.24-3.15,4.85-4.7.63-.6,1.22-1.24,1.81-1.88l1.82-1.87c.27-.28.52-.56.83-.81,1.12-.91,1.65-.98,2.4-.45.17.12.36.23.51.37.5.47.38,1.28-.26,2.07-1.98,2.28-4.24,4.37-6.49,6.6-1.68,1.66-3.38,3.33-5.06,4.99l-.06-.05Z"/><path class="cls-1" d="M272.77,211.99l.52.46c.14.11.27.25.38.4l.09.11.02.03h0s0,0,0,0c.04-.04.01,0,.02-.02h0s0,.02,0,.02l.03.06.13.25c.38.64.53,1.4.48,2.14-.11,1.43-.78,2.33-1.47,3.07-.26.26-.51.52-.8.74-.14.12-.29.22-.44.33-.13.09-.42.25-.64.33-.4.2-.85.17-1.28.1-.21,0-.44-.12-.61-.17-.14-.05-.27-.1-.39-.15-.5-.2-.98-.41-1.46-.63-.95-.43-1.89-.85-2.82-1.31-.83-.4-1.67-.75-2.51-1.1-1.09-.42-2.14-.95-3.12-1.61-.3-.21-.16-.39.22-.5.38-.11,1.04-.21,1.69-.06,1.17.25,2.26.66,3.38,1.03,1.11.37,2.21.81,3.27,1.32.64.3,1.32.54,1.99.72l.25.06.12.03.05.02c.06,0,.11.03.17.03.14-.03.15-.03.42-.23.49-.38.93-.89,1.15-1.37.2-.53.22-.79.07-1.16-.04-.13-.56-.45-.93-.71-.39-.28-.79-.56-1.2-.84-1.23-.83-2.47-1.69-3.76-2.41-1-.57-2.08-.96-3.13-1.43-.23-.1-.47-.18-.7-.3-.82-.45-.95-.83-.73-1.59.05-.18.09-.36.16-.52.22-.55.81-.79,1.52-.64,2.05.54,3.93,1.61,5.79,2.73,1.38.85,2.72,1.72,4.08,2.72l-.04.06Z"/><path class="cls-1" d="M269,224.52c-.43.22-.89.49-1.68.54-.79.01-1.23-.26-1.61-.47-.28-.16-.54-.28-.76-.46-.75-.65-1.33-1.32-1.92-1.97-.26-.3-.54-.55-.83-.79-.37-.32-.78-.56-1.01-1.05-.08-.15.06-.3.31-.44.24-.11.69-.31.95-.17.92.48,1.82.94,2.43,1.71.38.45.94.69,1.38.94.25.15.48.24.64.3.18.04.09.08.33,0,.24-.1.53-.3.78-.55.38-.37.76-.81.96-1.32.16-.4.11-.86.05-1.24,0-.09-.05-.17-.06-.25-.02-.28.17-.33.97-.4l.53-.05c.58-.05,1.11.14,1.26.56.37,1.21-.07,2.43-.74,3.34-.52.7-1.12,1.28-1.94,1.8l-.04-.05Z"/><path class="cls-1" d="M221.59,209.01c.78.01,1.55.01,2.29-.03.39,0,.73-.05,1.07-.08.16-.02.37-.03.5-.06.12-.03.24-.06.37-.08.55-.15,1.24-.48,1.84-.83.62-.34,1.21-.79,1.81-1.24.86-.68,1.65-1.52,2.52-2.31,1.54-1.39,3.17-2.86,5.05-4.06.24-.15.46-.3.72-.44l.83-.4c.27-.15.55-.25.84-.33l.85-.26c1.14-.24,2.27-.36,3.38-.33,1.96.05,3.87.31,5.72.69,1.19.23,2.36.54,3.5.95,1.13.42,2.26.87,3.2,1.73.59.55.46.51-.23.57-.71.09-2.04.47-3.3.17-2.29-.4-4.52-.93-6.74-1.1-1.1-.06-2.2-.11-3.23-.04-1.04.06-2.05.22-2.91.61l-.4.16-.43.26c-.29.17-.57.36-.85.57-.56.4-1.09.86-1.62,1.34-1.06.96-2.07,2.04-3.18,3.08-1.21,1.13-2.55,2.26-4.09,3.17-.4.21-.78.44-1.2.62l-.62.27c-.22.08-.49.15-.73.21-.52.16-.93.17-1.38.24-.45.07-.87.08-1.29.11-2.09.1-4.12.05-6.15-.05-3.07-.14-6.13-.46-9.15-.73-2.35-.22-4.68-.28-7.05-.58-.52-.05-1.04-.12-1.57-.22-.97-.17-1.63-.45-2.03-.72-.42-.33-.58-.71-.6-1.2,0-.23-.04-.46,0-.67.07-.35.35-.59.73-.72.19-.07.41-.1.65-.11.25-.01.56-.01.88.03,3.89.41,8.2.83,12.47,1.22,3.18.27,6.4.54,9.54.52v.08Z"/><path class="cls-1" d="M401.68,160.82c.24.74.52,1.46.8,2.19.1.27.28.49.38.76.37.94.78,1.89,1.29,2.77.22.4.52.74.81,1.08.4.42.69.92.92,1.49.06.19-.13.34-.46.44-.32.09-.83.16-1.16,0l-.42-.24-.21-.12-.16-.17c-.22-.22-.42-.46-.62-.7-.39-.48-.73-1.01-1-1.58-.32-.68-.87-1.24-1.28-1.89-.45-.71-.81-1.47-1.15-2.23-.2-.47-.41-.95-.61-1.42-.31-.71-.55-1.45-.89-2.15-.24-.55-.64-1.02-.93-1.56-.06-.12-.14-.23-.17-.36-.14-.47,0-.68.64-.99.14-.07.27-.14.41-.2.44-.19.98-.16,1.28.1.22.19.44.38.64.57.17.2.32.42.46.64.29.43.52.89.7,1.37.28.71.52,1.45.81,2.16l-.06.03Z"/><path class="cls-1" d="M193.07,275.34l.33,1.82.12.62.13.83c.09.56.13,1.09-.05,1.5-.13.93-.98,1.37-2.08,1.58l-.84.11-.75.08-.94.06c-.63.04-1.25.06-1.88.08-.35.01-.52,0-1.17.04-.27,0-.55.01-.82,0-.24-.06-.51-.09-.73-.18-.11-.04-.23-.06-.33-.13-.12-.04-.16-.18-.25-.26-.14-.18-.31-.36-.43-.59-.1-.24-.2-.49-.28-.74-.07-.25-.2-.55-.22-.66-.18-.61-.36-1.2-.51-1.8-.41-1.75-.87-3.48-1.21-5.24-.6-3.1-1.1-6.21-1.5-9.36-.19-1.58-.37-3.16-.35-4.85l.17-2.45c.04-.81.27-1.63.4-2.44.33-1.44.82-2.87,1.56-4.21.15-.35.41-.65.63-.97.23-.31.45-.63.7-.93l.84-.81c.14-.13.28-.27.43-.39l.48-.33c1.61-1.15,3.52-1.89,5.41-2.09.94-.1,1.88-.14,2.8-.1.46.01.92.07,1.36.17.45.1.88.13,1.31.28,1.02.45.98.38.02.99-.47.3-1.16.59-1.94.96-.77.32-1.64.53-2.53.73-.4.08-.79.15-1.16.28-.38.11-.75.21-1.09.34-.35.12-.72.22-1.03.39-.31.17-.67.28-.94.5-.28.21-.61.36-.85.61l-.76.71c-.2.29-.42.57-.65.84-.24.26-.36.63-.56.94-.42.6-.59,1.4-.89,2.11-.21.77-.37,1.57-.54,2.38l-.27,2.52c-.04.8-.02,1.68.01,2.56.2,4.24,1.3,8.67,2.21,12.98l.82,3.54.38,1.6c.03.11.06.22.1.33.04.12.2.08.31.1h.18c.08,0,.07.01.26,0l.89-.06c.6-.04,1.19-.1,1.79-.17l1.1-.12c.13-.02.28-.03.4-.1.02-.13-.01-.26-.03-.4l-.09-.52-.25-1.09-.52-2.2-.97-4.43c-.48-2.24-.93-4.5-1.26-6.81-.15-1.17-.33-2.29-.24-3.64.13-1.27.56-2.59,1.43-3.63,1.05-1.3,2.53-2.06,3.95-2.53.36-.12.72-.22,1.08-.3l.96-.21.45-.11.21-.05c.05-.03.17-.03.14-.13-.01-.16-.06-.32-.09-.46-.02-.07-.03-.14-.06-.21-.02-.06-.02-.11-.08-.32-.19-.74-.37-1.46-.56-2.2-.53-2.8-.51-3.75.31-4.52.17-.17.32-.39.47-.5.46-.36,1.45.64,2.01,2.67.3.98.59,1.97.79,3l.16.78.08.39c.03.14.08.45.11.67.04.24.06.47.09.71.04.24.05.48.03.7.02.47-.13.83-.2,1.24-.3.33-.52.54-.82.82-.35.22-.86.32-1.38.39l-.79.08c-.13.01-.26.04-.39.04-.16.02-.15.03-.23.04-.24.05-.47.1-.7.16-.91.23-1.73.56-2.35.99-.62.43-1.02.93-1.26,1.56-.12.31-.21.66-.25,1.05-.03.22-.03.31-.03.54,0,.2.02.44.03.67.2,2.18.71,4.6,1.19,6.95.48,2.38,1.11,4.74,1.55,7.16l-.07.02Z"/><path class="cls-1" d="M121.05,409.94l.28-27.43c-.01-3.34-.03-6.67-.04-10,.09-11.76.18-23.51.19-35.27,0-5.22-.11-10.46-.26-15.63-.08-3.32-.26-6.65-.27-9.98-.02-1.67-.03-3.33-.01-5,.01-.42,0-.83.03-1.25l.13-1.25.29-2.5c.28-2.08.43-1.81,1.01-.06.32.92.75,2.15,1.26,3.6.42,1.5.65,3.26.77,5.17.22,3.39.29,6.79.35,10.19.07,3.4.11,6.8.13,10.2.05,6.81.02,13.63-.15,20.48-.2,8.2.03,16.72,0,25.1-.06,9.21-.13,18.43-.19,27.65-.05,5.67-.1,11.35-.16,17.01-.06,8.59-.18,17.22-.14,25.74.02,6.63.29,13.12.4,19.67.03,1.44.06,2.85.09,4.31.01,2.7-.03,4.47-.21,5.72-.23,1.25-.51,1.97-.92,2.55-.19.26-.37.61-.55.76-.3.26-.58-.16-.84-1.14-.26-.98-.57-2.51-.65-4.49-.71-11.71-.77-24.06-.77-36.46.04-9.21.09-18.45.13-27.68h.09Z"/><path class="cls-1" d="M264.11,359.66c.05-4.94.06-9.89.04-14.85,0-1.81-.11-3.61-.11-5.42l.05-19.13c-.01-2.83-.01-5.68-.08-8.49-.04-1.8-.08-3.61-.03-5.42l.05-1.36.16-1.36c.12-.9.23-1.81.36-2.71.24-1.12.32-.97.71-.02.2.47.45,1.15.75,1.96.15.41.3.85.45,1.32.08.23.13.48.22.72.03.25.06.5.09.76.67,7.34.8,14.67.54,22.1-.14,4.44.17,9.06.25,13.6.09,5,.1,10,.08,15-.02,3.08-.04,6.16-.06,9.24-.08,4.66-.16,9.35-.23,13.98-.03,1.8,0,3.58.03,5.36.01,1.78.03,3.56.04,5.34,0,.79.04,1.56-.04,2.34-.23,2.93-.58,3.84-1.43,4.41-.19.13-.38.31-.55.38-.57.24-1.09-.98-1.28-3.13-.31-3.18-.28-6.42-.28-9.71-.02-3.29.05-6.62.07-9.97.06-4.96.11-9.96.1-14.94h.09Z"/><path class="cls-1" d="M262.02,468.55c.03-1.35.02-2.71-.03-4.1-.02-.5-.13-1-.13-1.51-.01-1.81.02-3.63.19-5.44.06-.8.04-1.6.04-2.39,0-.51-.07-1.02.01-1.52.05-.25.03-.51.16-.76.14-.25.27-.49.42-.75.19-.31.24-.27.52,0,.14.13.37.33.66.55.13.11.32.24.43.37.08.13.15.27.18.41.28,1.01.27,2.01.36,3.01.05,1,.1,2-.02,3.02-.14,1.23.12,2.47.22,3.72.1,1.38.19,2.77.24,4.19.04.87.04,1.74.05,2.61.02,1.32-.05,2.64,0,3.94.02.51.08,1.01.15,1.51.07.5.16,1,.16,1.5,0,.22.04.44.03.66-.03.82-.29,1.07-1.06,1.21-.17.03-.32.08-.47.09-.44.06-1.08-.31-1.26-.9-.28-.89-.58-1.78-.64-2.68-.08-.9-.13-1.8-.15-2.71-.06-1.34-.04-2.69-.13-4.04h.08Z"/><path class="cls-1" d="M420.3,252.59c.18.98.33,1.96.46,2.99.06.52.11,1.04.13,1.62.01.23,0,.76-.07,1.16-.09.42-.23.82-.44,1.18-.16.17-.32.33-.5.48-.17.16-.35.29-.56.4-.2.11-.42.26-.6.31l-.43.17c-.55.2-1.09.37-1.61.51-1.09.3-2.15.62-3.23.84-3.79.75-7.56,1.32-11.32,2.01-1.66.3-3.32.69-4.95,1.05-1.04.24-2.09.48-3.14.72-1.04.26-2.11.41-3.16.63-.7.01-.6.07-.15-.36.22-.23.57-.47.99-.78.21-.15.45-.31.7-.46.13-.08.26-.14.39-.23.14-.06.29-.11.43-.17,4.19-1.62,8.53-2.46,12.89-3.26,2.61-.45,5.27-1.21,7.84-1.93.81-.22,1.61-.46,2.37-.73.38-.13.76-.27,1.09-.42l.29-.13c.07-.04.15-.08.2-.15.09-.09.1-.23.11-.36.01-.09,0-.45-.04-.71-.06-.57-.16-1.18-.29-1.78-.36-1.74-.84-3.51-1.35-5.25-.76-2.65-1.53-5.33-2.49-7.91-.73-2.01-1.72-3.88-2.55-5.82-.18-.43-.4-.83-.57-1.27-.66-1.6-.6-2.21.03-2.87.14-.15.27-.33.42-.44.48-.39,1.32.04,2.03,1.16,2.12,3.3,3.52,7.09,4.79,10.94.47,1.43.91,2.88,1.32,4.35.39,1.47.71,2.97,1.02,4.48l-.07.02Z"/><path class="cls-1" d="M444.14,315.33c-2.27,9.17-4.5,18.33-7.36,27.46-.47,1.47-.95,2.95-1.51,4.44-.28.75-.58,1.49-.97,2.27-.19.39-.4.78-.68,1.21l-.23.34-.33.38c-.2.27-.48.46-.73.67-.33.17-.66.36-.94.48-.25.1-.48.17-.72.25-1.74.52-3.27.69-4.84.89-1.55.17-3.09.3-4.62.39-3.06.19-6.11.3-9.15.37-6.08.15-12.15.16-18.21.16-5.38,0-10.79.07-16.12.14-6.85.18-13.73.1-20.57-.16-2.13-.17-1.86-.58-.07-1.24,1.79-.65,5.12-1.45,9.07-1.69l5.25-.28c1.75-.09,3.5-.08,5.25-.12,3.5-.04,6.99-.08,10.49-.12,6.99-.04,14-.08,21.03-.12,3.76-.02,7.58-.17,11.4-.46,1.9-.16,3.81-.33,5.68-.59.93-.13,1.85-.28,2.73-.46.44-.09.86-.2,1.25-.31l.54-.18c.17-.07.2-.1.26-.12.14-.09.17-.15.38-.47.18-.31.36-.66.53-1.03.9-1.98,1.61-4.24,2.3-6.46.68-2.24,1.31-4.51,1.92-6.79,1.21-4.56,2.34-9.16,3.44-13.77,1.34-5.67,2.67-11.36,3.95-17.05,1.94-8.62,3.92-17.29,5.73-25.88,1.41-6.68,2.58-13.28,3.97-19.91.31-1.46.57-2.9.92-4.36,1.28-5.43,2.12-7.08,3.52-7.91.32-.19.67-.46.95-.54.96-.26,1.03,2.09.27,6.06-2.26,11.78-4.8,24.22-7.5,36.69-2,9.27-4.07,18.57-6.21,27.85h-.11Z"/><path class="cls-1" d="M357.41,320.81l3.3.09c.4.01.8-.05,1.2-.03,1.42.07,2.85.14,4.27.2.63.05,1.27.05,1.89.06.4,0,.81.07,1.21.12.4.03.8.06,1.2.13.25.04.21.23,0,.44-.21.21-.59.48-1.04.55-.4.12-.8.31-1.19.42-.4.08-.8.15-1.19.21-.79.16-1.6.13-2.42.08-.98-.07-1.98.16-2.98.25-1.09.1-2.2.14-3.3.18l-2.04.07c-1.03.05-2.07.05-3.09.17-.79.09-1.56.35-2.35.54-.17.04-.34.11-.52.11-.33,0-.54-.03-.7-.19-.16-.2-.25-.46-.33-.8-.04-.16-.08-.31-.1-.45-.04-.25,0-.47.12-.72.11-.24.28-.54.51-.62.68-.39,1.38-.5,2.09-.62.71-.11,1.44-.15,2.17-.18,1.09-.04,2.19-.03,3.28-.06v.07Z"/><path class="cls-1" d="M122.53,189.05c-.02-.86-.06-1.73-.13-2.61l-.1-1.68c-.03-.39-.02-.78,0-1.17.02-.18-.02-.41.04-.56l.2-.42.1-.21.02-.05h0s0-.02,0-.02c.04.03-.08-.07.09.07h0s.01-.03.01-.03l.06-.11c.04-.08.09-.13.14-.2.06-.05.14-.09.2-.13.3-.15.62-.29,1.01-.35.37-.07.77-.11,1.16-.15l.58-.04h.34c.9-.05,1.79-.06,2.67-.07,1.29-.01,2.57-.1,3.85-.09,4.52.07,9.01.22,13.51.38,2,.07,4,.05,5.98.03,1.27-.02,2.55-.02,3.82,0,1.27.09,2.55.34,3.81.7.79.23.68.28.01.62-.34.17-.81.44-1.39.78-.58.3-1.25.56-1.98.73-1.3.14-2.59.18-3.89.24l-3.89-.02c-2.6-.04-5.2-.13-7.81-.34-3.13-.23-6.38-.06-9.56-.04-1.75.01-3.51.02-5.22.1-.22,0-.36,0-.56.02-.09,0-.19.01-.27.04-.07.05-.03.16-.05.25v.58s.04,1.25.04,1.25c.03,1.08.13,2.16.16,3.27.02.57.04,1.07.04,1.71,0,.81-.05,1.63-.39,2.25-.05.12-.14.24-.22.35-.11.08-.25.11-.37.17-.27.07-.51.18-.8.22l-.89.08c-.33.06-.46.03-.7.06-.84.04-1.66.06-2.49.08-1.65.02-3.3.03-4.93.05-2.54.04-5.03.25-7.56.34-.56.02-1.1.07-1.66.06-1.04,0-1.73-.1-2.2-.33-.47-.22-.73-.54-.92-.98-.09-.2-.21-.4-.25-.59-.15-.61.72-1.18,2.22-1.41,4.43-.4,9.12-.41,13.81-.44.87-.02,1.74,0,2.6.03l1.29.02h.32c.12,0,.04,0,.06,0h.01s.04,0,.06-.03c0,0,0,.01,0-.02v-.46s-.01-.63-.01-.63l-.05-1.29h.07Z"/><path class="cls-2" d="M83.66,198.25c0,5.46-4.58,9.88-10.23,9.88s-10.23-4.43-10.23-9.88c0-4.07,2.71-7.85,6.68-9.27,6.6-2.36,13.79,2.5,13.79,9.27Z"/><path class="cls-1" d="M73.95,195.26c1.03,2.42,2.06,4.84,3.09,7.26.26.6,1.19.78,1.71.45.63-.4.72-1.06.45-1.71-1.03-2.42-2.06-4.84-3.09-7.26-.26-.6-1.19-.78-1.71-.45-.63.4-.72,1.06-.45,1.71h0Z"/><path class="cls-1" d="M78.11,212.06c-4.67.63-9.48-.97-12.79-4.22l-.88-.92c-.3-.3-.52-.67-.78-1-.54-.66-.9-1.43-1.29-2.18-1.25-2.73-1.52-5.76-1-8.63.53-2.88,1.98-5.56,4.05-7.55,1.82-1.78,4.04-3.15,6.46-3.89,1.54-.55,3.22-.6,4.84-.45.8.15,1.62.26,2.35.64.37.16.74.31,1.1.49.34.22.63.53.96.74.8.56.62.57-.22.48-.87-.05-2.4.09-3.91.18-.67-.06-1.34.1-1.99.16-.33.05-.65.16-.96.25-.32.05-.65.09-.96.21l-.94.28c-.31.11-.6.27-.91.39-.62.22-1.16.63-1.74.95-1.07.78-2.13,1.62-2.92,2.7-.47.49-.79,1.08-1.18,1.63-.2.28-.31.6-.47.9-.14.31-.34.6-.43.93-.64,1.53-.72,3.28-.59,4.98.21,1.71.81,3.34,1.71,4.77,1.99,3.19,5.74,5.16,9.56,5.38,2.36.13,4.77-.4,6.83-1.58,1.56-.9,2.99-2.08,4.01-3.57,1.02-1.49,1.69-3.22,1.92-5.01.16-1.39.11-2.79-.24-4.11-.35-1.32-.88-2.56-1.62-3.66-.14-.26-.35-.46-.51-.69-.18-.22-.33-.47-.54-.66-1.46-1.55-1.95-2.03-2-2.97-.02-.19-.09-.39-.1-.54,0-.24.23-.31.79-.32.29-.02.61.04,1,.14.39.1.75.37,1.19.64,2.53,1.69,4.33,4.6,4.88,7.73.35,1.56.32,3.18.14,4.78-.22,1.6-.71,3.17-1.43,4.64-1.07,2.17-2.76,4.09-4.75,5.41-1.97,1.36-4.26,2.26-6.62,2.61l-.02-.07Z"/><path class="cls-1" d="M71.86,197.63c.05-.21.08-.42.1-.64.01-.11.1-.4,0-.11.01-.04.01-.09.03-.13.06-.13-.03.08-.03.08l-.02.03c-.05.07-.03.04.08-.08.03-.01-.3.19-.23.18.12-.02.27-.14.38-.19.58-.27,1.16-.52,1.74-.77.38-.16.76-.33,1.14-.49.2-.08.39-.17.59-.25.22-.09-.19.08.04-.01.11-.05.22-.09.33-.14.65-.27,1.3-.55,1.96-.8.2-.08.42-.14.62-.23.02,0,.05,0,.07-.02-.14.1-.47,0-.66-.02s0,0,.06.04c.07.04.15.08.22.12.15.09.3.18.44.29.53.42,1.25.52,1.77,0,.44-.44.53-1.35,0-1.77-.8-.63-1.73-1.37-2.78-.98-.65.24-1.29.51-1.93.78-1.61.67-3.22,1.34-4.8,2.07-.16.07-.32.14-.46.23-.43.27-.77.76-.92,1.23-.06.19-.08.4-.1.6,0,.06-.01.13-.02.19-.02.27.05-.22-.03.13-.15.66.2,1.35.87,1.54.63.17,1.39-.21,1.54-.87h0Z"/><path class="cls-1" d="M76.56,203.98c.37-.17.74-.34,1.11-.5.08-.03.16-.07.24-.1.13-.05.11-.05-.06.02.05-.02.11-.04.16-.07.17-.07.35-.14.52-.22.74-.3,1.47-.6,2.21-.9.31-.13.57-.27.75-.57.16-.27.22-.66.13-.96s-.29-.59-.57-.75-.66-.25-.96-.13c-1.59.66-3.21,1.28-4.77,2.01-.27.13-.5.47-.57.75-.08.3-.05.7.13.96.39.61,1.07.75,1.71.45h0Z"/><path class="cls-2" d="M192.25,57.61c0,5.55-5.03,10.05-11.24,10.05s-11.24-4.5-11.24-10.05c0-4.14,2.98-7.98,7.33-9.42,7.24-2.4,15.15,2.54,15.15,9.42Z"/><path class="cls-1" d="M182.42,71.49c-2.51-.24-4.98-1.14-7.09-2.54-1.05-.72-2.01-1.55-2.86-2.5-.82-.96-1.57-1.98-2.13-3.1-.85-1.62-1.49-3.34-1.77-5.14-.44-3.17-.14-6.36,1.14-9.34,1.29-2.93,3.45-5.39,6.08-7.08,2.34-1.48,5.02-2.46,7.79-2.68,1.78-.23,3.61.07,5.31.65.42.17.8.43,1.19.64.39.22.76.47,1.08.79.34.3.67.58.98.88.29.34.52.72.8,1.04.68.81.55.71-.27.34-.82-.39-2.58-.62-4.25-.7-2.77-.63-5.67-.64-8.41.43l-1.01.42c-.34.14-.64.35-.97.52-.67.31-1.24.79-1.86,1.19-.29.23-.56.48-.84.72l-.43.36-.37.41-.76.83-.65.92c-2.01,2.97-2.32,7.25-1.3,10.85.27,1,.65,1.98,1.15,2.88.48.92,1.09,1.77,1.8,2.52,1.39,1.54,3.22,2.67,5.21,3.35,2.47.78,5.21.91,7.75.21,3.87-.96,7.36-3.69,8.81-7.41,1.16-2.86,1.13-6.07.23-8.87-.09-.31-.21-.61-.34-.91-.13-.3-.24-.59-.4-.88-.44-1.12-.85-1.8-1.03-2.36-.14-.6-.2-.99-.14-1.42.02-.19,0-.4.03-.54.05-.23.31-.19.84.02.54.2,1.27.69,1.93,1.56,3.98,5.17,3.54,13.56-1.27,18.82-3.58,3.87-8.92,5.64-13.99,5.15v-.07Z"/><path class="cls-1" d="M182.94,52.44c-1.07,1.95-2.19,4.1-2.51,6.32-.16,1.1-.11,2.19.67,3.07.65.74,1.68,1.16,2.62,1.38.99.23,2.21.36,3.18-.03.63-.25,1.07-.84.87-1.54-.16-.6-.91-1.12-1.54-.87-.09.04-.19.07-.28.09-.09.02-.44.05-.08.03-.22.02-.44.03-.66.02-.1,0-.2,0-.3-.02-.07,0-.14-.01-.2-.02.16.02.17.02.02,0-.24-.05-.48-.1-.72-.17-.13-.04-.26-.09-.39-.13-.27-.09.16.09-.07-.03-.11-.06-.23-.11-.34-.18-.07-.04-.36-.29-.12-.06-.06-.06-.12-.12-.19-.17-.09-.1-.08-.08.04.07-.03-.04-.06-.09-.08-.13-.09-.23.02.25,0,.02,0-.08-.04-.46-.03-.09,0-.23,0-.45,0-.68.02-.14.01-.14,0,.01.01-.07.02-.15.04-.22.02-.11.04-.23.07-.34.14-.62.35-1.23.58-1.82.39-.99.97-2.17,1.56-3.23.33-.59.14-1.36-.45-1.71s-1.38-.14-1.71.45h0Z"/><path class="cls-1" d="M184.42,47.18s-.04.03-.05.05c0,0-.02.02-.02.03-.08.1-.16.2-.23.3-.01.02-.02.04-.04.06-.06.13-.12.26-.16.39,0,.02-.01.04-.02.07,0,.01,0,.02,0,.04-.02.13-.04.27-.05.4,0,.05,0,.1,0,.15.02.14.03.29.06.42,0,.03.01.05.02.08,0,.01,0,.02.01.03.05.12.1.24.15.35.01.02.02.04.04.07,0,.01.01.02.02.03.07.1.15.2.23.3.02.02.03.04.05.05.05.05.11.09.16.13s.11.09.17.13c.02.01.04.03.07.04.11.05.24.11.35.15.01,0,.02,0,.03.01.13.04.35.05.44.06.11.01.21,0,.33-.02s.22-.02.32-.06c.12-.05.24-.1.35-.15.01,0,.02-.01.04-.02.02-.01.05-.03.07-.04,0,0,.02-.01.03-.02.1-.07.21-.15.3-.23.02-.02.04-.03.06-.05,0,0,.02-.02.03-.03.08-.09.16-.2.23-.3.02-.02.03-.04.04-.07,0-.01.01-.02.02-.04.05-.11.1-.23.15-.35,0-.02.02-.05.02-.08.02-.13.04-.26.05-.39,0-.01,0-.03,0-.04,0-.15-.03-.29-.06-.44-.02-.08-.06-.17-.09-.24-.03-.08-.06-.17-.11-.24-.07-.1-.15-.21-.23-.3,0-.01-.02-.02-.03-.04s-.02-.02-.03-.03c-.05-.04-.12-.09-.15-.11-.04-.03-.1-.08-.15-.12-.01,0-.02-.02-.04-.02,0,0,0,0-.01,0-.09-.04-.25-.11-.34-.14-.01,0-.02,0-.03-.01,0,0-.01,0-.02,0l-.37-.05h-.01s-.03,0-.04,0c-.06,0-.22.03-.19.03-.03,0-.14.01-.2.03s-.16.06-.19.08c-.06.03-.14.05-.2.09-.16.09-.29.2-.39.35-.12.13-.2.29-.25.47-.06.18-.07.37-.02.55,0,.18.06.35.16.51l.22.28c.17.17.37.29.61.35l.37.05c.25,0,.48-.06.69-.19.01,0,.03-.02.04-.02l-.33.14s.03-.01.05-.01l-.37.05s.04,0,.06,0l-.37-.05s.04,0,.06.02l-.33-.14s.05.03.08.04l-.28-.22s.05.05.07.07l-.22-.28s.04.07.06.1l-.14-.33s.02.07.03.1l-.05-.37s0,.06,0,.09l.05-.37s-.02.08-.03.12l.14-.33s-.04.08-.07.11l.22-.28s-.06.07-.1.1l.28-.22s-.09.06-.15.09l.33-.14c-.05.02-.11.04-.16.04l.37-.05s-.1,0-.14,0l.37.05s-.08-.02-.12-.03l.33.14s-.07-.04-.1-.06l.28.22s-.06-.05-.08-.08l.22.28s-.06-.08-.08-.13l.14.33c-.02-.05-.03-.1-.04-.16l.05.37c0-.06,0-.12,0-.17l-.05.37s.02-.1.04-.14l-.14.33s.04-.08.06-.11l-.22.28s.05-.06.08-.08c.13-.12.23-.27.28-.44.09-.16.13-.34.12-.53,0-.19-.03-.37-.12-.53-.06-.17-.15-.32-.28-.44l-.28-.22c-.21-.12-.45-.19-.69-.19l-.37.05c-.23.07-.44.18-.61.35h0Z"/><path class="cls-1" d="M276.68,227.47c-.38-.09-.81-.14-1.09-.12-.06-.02-.27.12-.45.16-.69.15-1.43.23-2.2.22-.35-.01-.71,0-1.11-.05-.49-.04-1.18-.28-1.34-.88-.05-.18.45-.45.92-.73.49-.26.88-.64.87-.67,0-.03.05.01.24.06.18.05.46.11.79.18.4.08.77-.16,1.18-.29l.45-.13c.17-.04.32-.06.48-.08.31-.03.6-.03.89-.02.35.02.7.06,1.04.12.52.08,1.01.24,1.54.38.4.12.88.14,1.38.46.1.09.22.14.31.26.34.45.2.78-.34.97-.12.05-.25.09-.37.12-.43.08-.84.11-.96.2-.21.15-.33.24-.49.22-.16,0-.37-.05-.6-.1-.34-.07-.73-.19-1.12-.23v-.06Z"/><path class="cls-1" d="M334.12,102.04c-2.09,1.99-3.97,4.22-5.44,6.63-1.4,2.4-2.49,5.08-2.27,7.56.11.88.29,1.76.75,2.51.09.2.2.39.34.56l.38.54c.33.33.65.67.96,1.03,2.46,2.26,6.07,3.38,9.74,3.61,1.84.11,3.72.07,5.57-.13.92-.1,1.85-.25,2.74-.47.46-.09.87-.24,1.3-.36l.58-.23c.2-.09.4-.21.59-.31,2.88-1.47,5.13-4.06,6.74-6.92.25-.47.5-.94.74-1.41l.65-1.46c.2-.5.42-.98.64-1.48l.58-1.5c.36-1.02.71-2.04,1.01-3.08.15-.52.31-1.04.44-1.57.16-.52.39-1.04.56-1.57.48-1.32.23-1.17.4.02.05.59.35,1.48.34,2.52.03,1.05.01,2.29-.25,3.59-.1.58-.23,1.16-.37,1.73-.13.58-.29,1.15-.46,1.72-.14.58-.39,1.13-.64,1.67-.23.55-.49,1.09-.78,1.63-1.1,2.14-2.51,4.18-4.3,5.93-.89.88-1.89,1.66-2.95,2.35-.56.32-1.07.64-1.68.94-.67.31-1.27.49-1.89.68-2.4.64-4.78.93-7.19.92-2.87-.03-5.82-.35-8.71-1.28-.73-.2-1.43-.55-2.13-.84-.69-.33-1.37-.74-2.02-1.16-1.27-.94-2.45-1.97-3.34-3.37-.99-1.51-1.51-3.33-1.54-5.09-.04-1.76.33-3.44.88-5,1.15-3.1,2.98-5.77,5.03-8.16,2.53-2.95,5.49-5.47,8.66-7.65,2.43-1.61,5.01-3.04,7.81-4.01,1.39-.49,2.84-.88,4.34-1.03.37-.06.75-.06,1.13-.08.38-.03.76-.02,1.15.02.78.01,1.5.23,2.25.36.57.12,1.13.37,1.69.55.55.23,1.07.55,1.6.82.47.38.99.71,1.41,1.15.41.45.86.87,1.16,1.4,1.37,2.02,1.94,4.4,2.06,6.7.01.51.03,1.01.04,1.52-.02.5-.05,1-.07,1.51-.44,3.74-1.17,4.8-2.07,5.33-.21.12-.44.29-.62.33-.63.15-.61-1.37-.29-3.84.23-1.83.31-3.7.11-5.48-.2-1.78-.75-3.46-1.68-4.72-.92-1.28-2.3-2.08-3.94-2.49l-1.27-.23c-.42-.03-.81-.08-1.24-.05-.43.02-.85.03-1.29.11-.44.05-.88.15-1.32.25-2.64.63-5.27,1.91-7.73,3.43-2.46,1.54-4.79,3.35-6.86,5.4l-.06-.05Z"/><path class="cls-1" d="M384.94,135.13c.68-.24,1.48-.98,2.51-1.96.53-.47,1.1-1.03,2.01-1.5.19-.12.48-.21.73-.3.25-.1.53-.16.82-.18.57-.09,1.14.01,1.65.12.34.12.72.23,1.01.38l.85.47c.47.36.96.67,1.34,1.15,1.48,1.49,2.3,3.67,2.17,5.68-.09,2.02-.9,3.83-2.01,5.29-.98,1.32-2.25,2.41-3.7,3.14-.45.27-.95.43-1.45.6-.49.2-1.02.24-1.54.32-1.04.08-2.11-.04-3.05-.46-.56-.37-.41-.43.17-.71.29-.15.65-.26,1.06-.36.41-.16.84-.31,1.3-.36,3.26-.59,5.82-3.48,6.47-6.57.13-.92.08-1.91-.38-2.72-.06-.23-.25-.39-.37-.58-.15-.18-.23-.4-.44-.54-.36-.31-.67-.66-1.1-.91-.43-.32-.85-.47-1.15-.53-.07,0-.14-.01-.21-.02-.07.02-.13.04-.2.03-.14.03-.3.06-.5.17-.8.39-1.74,1.45-2.92,2.35-.73.56-1.67,1.07-2.66,1.29-.94.2-1.96.26-2.99-.01-.77-.21-1.55-.65-2.08-1.31-.54-.63-.85-1.49-.96-2.11-.29-1.34-.32-2.68-.24-3.98.14-2.01.43-3.98,1.06-5.89.13-.42.26-.84.44-1.25.19-.37.39-.65.56-.89.19-.23.39-.38.56-.5.34-.24.68-.29,1.02-.27.16,0,.31-.01.43.01.35.06.46.87.31,1.98-.14.81-.35,1.57-.54,2.34-.17.78-.33,1.55-.45,2.33-.22,1.55-.3,3.11-.08,4.51.06.25.08.51.16.75l.15.57c.09.21.13.3.28.4.14.1.42.21.79.21.18.02.39-.01.6-.06.1-.02.22-.05.31-.08.08-.04.15-.07.23-.09l.03.08Z"/><path class="cls-1" d="M417.44,110.43l-.69-1.58-.79-1.54c-.49-1.04-1.14-2-1.71-3.01-1.27-1.92-2.6-3.83-4.16-5.54-3.03-3.49-6.7-6.43-10.75-8.63-1.49-.79-3.03-1.46-4.61-2-1.58-.56-3.24-1.03-4.89-1.39-2.91-.65-5.88-1-8.8-.84-2.92.15-5.78.83-8.35,2.14-2.55,1.33-4.86,3.22-6.58,5.53-1.71,2.33-2.88,5.06-3.35,7.94-.46,2.55-.38,5.21.14,7.77.51,2.6,1.43,4.96,2.94,7.05,3.73,5.33,10.46,9.13,16.39,6.23,1.01-.31,1.52-.47,1.55-.39.03.09-.33.44-.87,1.34l-.11.18c0,.11-.07.12-.11.19-.09.11-.2.2-.31.31-.23.21-.48.44-.74.68-.14.12-.29.25-.43.38-.16.11-.33.21-.51.32-.36.21-.75.43-1.18.66-1.74.71-4.12.9-6.42.25-2.05-.57-3.79-1.7-5.4-2.9-1.61-1.21-2.97-2.68-4.18-4.25-1.23-1.56-2.18-3.34-2.91-5.24-.16-.48-.35-.97-.49-1.44l-.36-1.41c-.12-.47-.19-.96-.28-1.43-.1-.48-.16-.96-.21-1.45-.24-1.93-.24-3.91,0-5.85.24-1.94.68-3.88,1.44-5.7.74-1.82,1.71-3.56,2.92-5.12,1.22-1.54,2.64-2.91,4.2-4.07,1.87-1.35,3.96-2.49,6.18-3.25,2.22-.77,4.55-1.17,6.87-1.3,4.66-.25,9.24.63,13.54,1.96,4.8,1.5,9.25,4.03,13.09,7.21,3.81,3.22,7.13,7.01,9.69,11.27,3.23,5.19,5.3,11.11,6.1,17.15.61,4.58.51,9.26-.3,13.81-.84,4.55-2.4,8.97-4.73,12.96-1.83,3.08-4.06,5.95-6.95,8.2-1.45,1.11-3.07,2.05-4.89,2.65-.9.31-1.86.49-2.84.57-.49,0-.99.06-1.49,0l-.74-.07-.63-.09c-1.5-.21-3.05-.38-4.65-.83-3.01-.85-4.79-2.34-5.68-3.48-.88-1.19-1.1-2.04-1.09-2.8,0-.35-.02-.76.05-.99.33-.85,1.69,1.22,4.75,2.98,1.15.64,2.45,1.03,3.86,1.3.71.13,1.44.23,2.19.33l1.16.14.59.07.47.03c2.44.16,5.04-1.06,7.25-2.84,4.48-3.61,7.66-9.18,9.35-15.05,1.27-4.39,1.76-9.03,1.49-13.65-.27-4.64-1.24-9.19-3.12-13.43l.06-.04Z"/><path class="cls-1" d="M377.88,173.14c2.44-.67,4.79-1.09,7.15-1.52.86-.16,1.7-.39,2.57-.52,3.04-.46,6.09-.83,9.12-1.26,1.35-.18,2.69-.42,4.02-.67,1.71-.25,3.44-.66,5.25-.03.57.32.48.19.07.61-.21.21-.49.57-.85.86-.18.16-.37.31-.57.47-.1.08-.21.14-.32.23-.11.04-.23.08-.35.1-.85.19-1.69.42-2.54.58l-2.59.33c-1.73.21-3.48.39-5.25.53-2.11.19-4.23.79-6.34,1.23-2.31.49-4.63.98-6.88,1.6-.69.19-1.37.39-2.03.62-.3.11-.68.26-.87.34-.16.08-.36.15-.45.32-.28.41-.3,1.44-.03,2.37.25.96.67,1.95,1.18,2.89.78,1.48,1.84,2.8,2.78,4.29.21.33.44.63.63,1,.68,1.33.64,1.97-.24,2.54-.18.13-.35.27-.53.36-.3.15-.63.12-1.01,0-.21-.06-.36-.15-.5-.28-.15-.13-.3-.29-.43-.48-1.6-2.29-3.5-4.85-4.78-8.31-.12-.31-.22-.67-.31-1.03-.1-.34-.17-.73-.23-1.13-.07-.37-.08-.82-.08-1.26,0-.22,0-.44.05-.69.04-.23.08-.5.15-.78.08-.27.24-.53.35-.8.14-.25.2-.56.42-.76.17-.23.4-.41.61-.61.23-.17.5-.31.74-.46l.38-.17.26-.11.49-.19c.33-.13.63-.21.94-.32l.03.07Z"/><path class="cls-1" d="M363.08,279.49c-1.41-.33-2.8-.62-4.13-.74-1.17-.1-2.57.12-3.92.45-.99.25-1.96.62-2.94.97l-.87.32-.28.08c-.19.06-.41.13-.65.22-.24.09-.5.2-.77.34-.26.15-.6.29-.78.57-.02.28.25.31.43.36.2.04.43.06.67.06.35,0,.77-.04,1.17-.11l.63-.12,1.23-.2c1.05-.19,2.09-.42,3.14-.63,1.06-.17,2.11-.36,3.2-.4.76.24.65.15.24.79-.42.61-1.3,1.45-2.47,1.97-.98.36-1.97.66-2.96.95-.5.14-1,.28-1.51.41l-.38.09c-.22.12-.49.1-.73.15-.5.08-.99.14-1.48.19-1.95.23-3.74.23-4.74-.12-.52-.17-.87-.4-1.16-.66-.31-.26-.51-.57-.72-1.21.04-.41.14-.63.24-.89.22-.47.65-.96,1.29-1.49.65-.52,1.54-1.06,2.51-1.57.49-.25,1-.5,1.52-.74l.79-.34.7-.29c.66-.26,1.32-.51,1.99-.72,1.48-.47,2.99-.86,4.58-1.05.79-.09,1.66-.13,2.47-.04.79.07,1.56.19,2.31.34,1.86.35,3.64.83,5.41,1.21,2.67.57,5.38,1.03,7.88.27,2.06-.56,4-1.34,6-2.06.44-.16.86-.34,1.31-.48.83-.29,1.43-.32,1.85-.31.43.02.72.19.99.45.12.11.26.21.34.31.25.3-.28,1.04-1.43,1.61-1.71.83-3.55,1.49-5.44,2.14-.95.32-1.92.61-2.89.88-.45.13-1.09.28-1.66.38-.58.08-1.16.14-1.72.15-3.39.07-6.38-.83-9.25-1.42v-.07Z"/><path class="cls-1" d="M440.78,281.06c4.02-2.8,7.42-6.48,7.87-11.1.69-4.93.41-10.05-.43-15.08-.63-3.68-1.6-7.3-2.73-10.89-1.93-6.34-4.49-12.52-7.34-18.56-2.85-6.04-6.08-11.93-9.52-17.68-3.05-5.11-6.41-10.07-9.83-14.89-2.21-3.09-4.5-6.12-6.83-9.12l-.87-1.12-.24-.31c-.11-.16-.26-.29-.3-.48l-.24-.9c-.25-.95-.46-1.9-.63-2.87-.19-.96-.29-1.94-.34-2.92-.05-.98-.09-1.97,0-2.95.14-1.23.35-1.74.44-1.7.13.04.18.64.48,1.63.3.98.73,2.34,1.41,3.91.33.79.62,1.65.96,2.55.17.45.34.91.52,1.39.08.21.21.57.18.47h0s.23.26.23.26c9.92,12.2,18.5,25.39,25.48,39.61,4.15,8.5,8.28,17.51,10.81,26.95,1.38,5.18,2.33,10.52,2.47,15.95.08,1.35-.05,2.72-.06,4.08-.11,1.37-.26,2.7-.45,4.09-.5,2.89-1.93,5.52-3.73,7.66-2.24,2.65-4.98,4.7-7.83,6.42-2.87,1.72-5.88,3.11-8.94,4.33-4.65,1.83-9.45,3.21-14.29,4.33-4.84,1.1-9.74,1.93-14.66,2.41-1.92.18-3.83.32-5.78.31-.49,0-.98-.02-1.49-.05-.25-.01-.51-.04-.77-.07-.31-.06-.68-.1-1-.21-.64-.19-1.34-.49-1.57-1.15-.15-.3-.27-.62-.36-.96l-.23-.76c-1.06-3.59-2.17-7.13-3.44-10.62-.55-1.54-1.16-3.01-1.77-4.53-1.13-2.81-1.99-4.57-2.47-5.87-.5-1.29-.63-2.13-.66-2.9,0-.35-.08-.79-.03-1.05.08-.44.58-.22,1.5.58.47.4.93.99,1.51,1.7.53.73,1.09,1.63,1.62,2.66,3.18,6.14,5.32,12.87,7.27,19.57.03.08.06.08.1.07h.02s.24.02.24.02c.17.02.37.03.55.04.38.02.78.03,1.18.04,1.63,0,3.33-.11,5.03-.27,3.41-.33,6.85-.86,10.26-1.53,5.07-.98,10.1-2.26,14.97-3.94,4.85-1.69,9.59-3.78,13.65-6.63l.06.06Z"/><path class="cls-1" d="M263.82,202.74l-.52-.06h-.17s-.24.02-.24.02c-.34.04-.72.1-1.11.18-.78.16-1.59.37-2.39.6-1.6.47-3.2,1.02-4.76,1.65-1.14.46-2.22,1.05-3.29,1.59-.95.48-1.87.99-2.71,1.56-.4.27-.87.65-.92.69-.14.12-.29.27-.36.47-.07.2,0,.44.18.55.17.12.39.16.62.18.06,0,.12,0,.18.01.12,0,.24,0,.37,0,.25,0,.5-.03.76-.06.51-.06,1.04-.14,1.56-.24,1.86-.37,3.7-1.03,5.5-1.68,1.16-.43,2.29-.93,3.42-1.43,1.15-.45,2.3-.9,3.52-1.26.85-.07.74-.08.38.63-.37.69-1.16,1.89-2.42,2.72-1.14.67-2.33,1.24-3.54,1.79-1.21.54-2.44,1.06-3.73,1.41-1.29.37-2.61.68-4.02.85-.36.04-.71.08-1.08.09-.18,0-.37.02-.56.01-.25,0-.58,0-.85-.04-1.15-.1-2.22-.46-2.81-1.25-.39-.45-.59-1.05-.63-1.64-.03-.6.17-1.17.47-1.72.34-.53.78-1.04,1.26-1.48.42-.37.72-.59,1.08-.86,1.41-1,2.86-1.78,4.34-2.47,3.27-1.46,6.56-2.69,10.12-3.48.56-.11,1.11-.22,1.81-.23.6.06,1.2.08,1.77.2,1.14.22,2.22.56,3.26.97,3.14,1.23,5.94,2.98,8.75,4.57,2.18,1.25,4.38,2.35,6.57,3.41.48.24.97.41,1.45.65,1.78.84,2.26,1.19,2.38,2.09.03.2.09.42.08.61,0,.63-1.01.83-2.51.33-4.4-1.51-8.35-4.09-12.35-6.32-1.48-.83-2.97-1.61-4.46-2.28-1.49-.65-3.01-1.16-4.4-1.29v-.07Z"/><path class="cls-1" d="M287.26,210.1c.69-.16,1.48.05,2.23.3.19.06.38.13.56.2l.36.14.62.26c.81.35,1.6.71,2.38,1.07,1.56.72,3.1,1.44,4.63,2.18,1.12.54,2.28.97,3.39,1.5,3.93,1.89,7.88,3.72,11.91,5.34,1.78.73,3.62,1.34,5.45,1.87,1.18.34,2.36.63,3.53.98l1.76.51c.3.06.58.22.86.39.28.15.58.24.87.36.72.3.61.43-.09.67-.35.13-.85.26-1.49.56-.62.2-1.32.2-2.05.13-2.61-.26-5.09-1.01-7.55-1.75-2.46-.75-4.84-1.72-7.17-2.83-2.78-1.32-5.8-2.37-8.66-3.61-3.15-1.35-6.26-2.87-9.34-4.2l-.95-.39c-.12-.04-.24-.09-.37-.09-.13.02-.2.14-.29.23-.08.1-.16.2-.24.3l-.13.18-.21.31c-.28.42-.54.86-.8,1.3-1.56,2.7-2.99,5.56-4.07,8.49-.82,2.29-1.32,4.63-1.67,6.95-.08.51-.11,1.01-.18,1.52-.23,1.88-.42,2.41-1.35,2.81-.21.09-.41.22-.61.28-.65.21-1.32-.67-1.33-2.27-.04-4.74,1.62-9.28,3.35-13.68.67-1.63,1.41-3.24,2.24-4.82.41-.79.84-1.58,1.32-2.38l.44-.7c.23-.35.48-.68.73-1.01l.41-.44c.14-.14.3-.23.45-.35.16-.1.31-.21.48-.29l.13-.06h.03s0-.05.03,0h.02s.07-.01.07-.01l.28-.04.03.08Z"/><path class="cls-1" d="M243.52,219.89c.34-.79.74-1.55,1.25-2.29.26-.37.54-.73.88-1.08.34-.34.69-.69,1.34-1.02.52-.28,1.09-.43,1.67-.43.37.07.75.14,1.09.31.72.45,1.19,1.2,1.34,2.03.02.21.1.42.07.62,0,.19,0,.32,0,.47-.01.29-.05.57-.09.85-.18,1.08-.49,2.06-.83,3.02-.31.85-.61,1.69-.96,2.51-.22.53-.48,1.04-.78,1.53-.15.25-.32.49-.5.72-.18.24-.46.4-.71.57-.36.18-.31.11-.23-.2.03-.16.04-.4.02-.7,0-.28.06-.55.15-.84.17-.51.31-1.04.45-1.56.17-.51.32-1.03.46-1.55.28-1.04.55-2.08.74-3.09.06-.3.08-.6.08-.9,0-.14,0-.29-.03-.42l-.03-.22c-.04-.22-.21-.42-.45-.45h0c-.13-.02-.26,0-.38.07-.04.03-.15.08-.26.18-.11.08-.22.19-.33.29-.44.44-.83,1.02-1.17,1.63-.41.76-.77,1.59-1,2.44-.34,1.27-.57,2.7-.17,3.81.15.48.55.83.81.88.22.06.44-.04.58-.17l.36-.33c.54-.49.84-.63,1.42-.34.13.06.27.11.39.19.4.26.46.79.04,1.41-.32.42-.59.8-1.28,1.23-.71.42-1.64.55-2.45.19-1.06-.46-1.64-1.26-1.99-2.02-.34-.77-.45-1.51-.5-2.21-.08-1.88.34-3.56.95-5.18l.06.02Z"/><path class="cls-1" d="M256.39,223.11c-.24,1.02-.58,1.97-1,2.87-.43.88-.82,1.75-1.59,2.69-.29.34-.64.69-1.11.98-.47.29-1.06.45-1.58.45-.47,0-.88-.08-1.25-.19-.31-.1-.83-.28-1.21-.6-.38-.32-.67-.73-.85-1.19-.15-.52-.2-.85-.21-1.24-.01-1.46.4-2.62.82-3.77.38-1.01.79-1.99,1.25-2.94.55-1.23,1.34-2.38,2.37-3.3.33-.28.38-.14.31.25-.07.39-.15,1.08-.38,1.78-.19.63-.44,1.22-.67,1.82-.23.6-.44,1.21-.62,1.81-.37,1.2-.7,2.44-.81,3.54-.03.33-.01.64.06.87.04.18.08.27.19.37.07.05.09.05.21.1.15.05.29.08.42.1.26.03.42.02.55-.04.32-.08.82-.71,1.2-1.45.4-.75.75-1.54,1.01-2.34.33-.98.52-2.01.48-3,0-.2-.03-.4-.05-.6-.01-.1-.03-.19-.05-.29-.01-.07-.01-.13-.03-.19-.05-.24-.12-.49-.24-.72-.1-.21-.21-.41-.37-.57-.16-.17-.44-.16-.61,0-.62.62-.55,1.11-1.01,2.49-.09.26-.14.53-.24.79-.36.97-.67,1.22-1.51,1.15-.19-.02-.39-.02-.57-.05-.61-.13-.95-.7-.86-1.53.07-.61.17-1.23.34-1.85.09-.31.2-.61.33-.92l.1-.25.18-.37c.13-.24.28-.5.43-.74.6-.99,1.38-1.78,2.27-2.07.44-.16.96-.2,1.45-.1.48.12.89.27,1.24.65.23.21.46.4.66.68.2.33.4.66.55,1.03.18.35.32.73.43,1.12.05.2.14.38.16.58l.09.5c.05.26.05.52.08.78.06,1.03-.08,2.01-.28,2.93h-.07Z"/><path class="cls-1" d="M262.74,225.77c-.47,1.92-1.11,3.86-2.9,5.43-.16.15-.34.27-.52.38-.19.12-.34.24-.59.33-.43.19-.99.34-1.59.25-.27-.05-.53-.1-.75-.24-.24-.12-.45-.25-.6-.41-.18-.15-.33-.32-.43-.48-.12-.17-.23-.33-.31-.5-.34-.66-.49-1.31-.58-1.94-.08-.63-.11-1.26-.07-1.89.03-.32.06-.63.14-.96.07-.31.15-.56.22-.85.27-.98.51-1.98.86-2.97.22-.64.53-1.27.87-1.83.31-.57.76-1.03,1.14-1.55.25-.31.36-.2.41.2.03.39.1,1.16-.17,1.86-.28.6-.5,1.12-.65,1.68-.16.56-.28,1.17-.4,1.79-.12.62-.23,1.25-.38,1.88-.1.46-.13,1.05-.11,1.61.03.68.23,1.39.54,1.86.07.14.16.19.23.29.08.04.15.12.2.11.05.04.09,0,.13.03.07-.05.1,0,.21-.06,1-.35,1.94-1.86,2.37-3.39.28-.96.45-1.98.45-2.98,0-.76-.06-1.53-.27-2.22-.04-.18-.1-.35-.17-.51-.07-.16-.12-.34-.22-.47-.14-.27-.27-.41-.44-.58-.14-.11-.32-.16-.49-.11-.17.04-.31.17-.42.28-.14.17-.55.71-.83,1.18-.14.22-.24.45-.38.68-.52.84-.85,1.02-1.6.79-.17-.05-.35-.09-.51-.16-.54-.24-.71-.85-.4-1.59.23-.55.51-1.1.87-1.65.18-.28.39-.55.62-.83l.2-.21c.09-.1.19-.19.3-.28.22-.16.43-.36.67-.5.48-.29,1.01-.46,1.55-.5.55-.03,1.1.12,1.56.42.25.12.42.37.63.56.2.2.42.38.6.62l.41.66c.12.18.17.36.26.54.9,2.18.77,4.26.44,6.23h-.06Z"/><path class="cls-1" d="M263.56,228.15c.47-1.23.74-2.67.71-4.01-.01-.49-.14-.95-.24-1.35-.01-.07-.03-.14-.06-.19-.02-.04,0-.06-.02-.09-.01-.05-.04-.1-.07-.16-.06-.11-.16-.19-.29-.23-.22-.05-.4.13-.52.33-.02.03-.08.14-.15.27-.06.12-.12.25-.17.38-.11.26-.2.53-.29.81-.23.81-.41,1.66-.53,2.51-.08.55-.13,1.1-.19,1.65,0,.55-.34,1.1-.32,1.65-.02.34-.16.31-.34.02-.09-.15-.15-.36-.31-.62-.08-.15-.16-.29-.22-.42-.04-.08-.07-.15-.12-.24l-.03-.25c-.11-1.18-.15-2.37-.06-3.58.05-.61.2-1.21.38-1.82.09-.31.21-.62.34-.93.06-.12.18-.43.32-.63.13-.22.27-.43.43-.62.48-.52,1.11-.84,1.81-.83.77.05,1.51.44,2,1.09.24.31.46.74.56,1,.11.29.19.57.26.86.34,1.78.18,3.44-.18,5.07-.24,1-.58,1.99-1.14,2.94-.12.17-.25.41-.45.61-.17.22-.38.4-.59.57-.43.33-.94.5-1.46.53-.24,0-.47-.06-.71-.09-.22-.07-.44-.17-.64-.29-.18-.15-.39-.28-.51-.48-.16-.18-.28-.38-.38-.6-.17-.34-.28-.75-.36-1.12-.07-.33-.11-.63-.15-.95-.06-.62-.09-1.23-.07-1.83.01-.27.02-.53.07-.79.21-.97.51-1.23,1.25-1.21.17,0,.34,0,.49.04.53.13.84.56.88,1.19.09.94.07,1.87.13,2.67.01.19.04.4.07.52.01.04.02.02.03.02.01,0,.02-.02.02-.01h0s0,.05.05,0c.26-.34.51-.86.7-1.41l.06.02Z"/><path class="cls-1" d="M198.83,254.88l1.55,8.19.8,4.08.34,1.71c0,.05.02.11.03.17.04.04.1.05.15.06.07,0,.08.02.21,0,.27,0,.56-.02.86-.05.6-.07,1.22-.19,1.83-.35.28-.07.65-.18.84-.25.06-.02.13-.05.19-.08.08-.03.06-.11.06-.17v-.1s-.06-.41-.06-.41c-.36-2.73-.77-5.49-1.18-8.24-.64-4.01-1.29-8.02-1.93-12.02-2.22-14.14-4.7-28.23-7.07-42.35-1.07-6.26-2.26-12.53-3.51-18.7-.63-3.05-1.27-6.1-1.9-9.15l-.99-4.55-.26-1.12c-.05-.38-.12-.76-.18-1.13-.07-.37-.13-.74-.23-1.09-.05-.15-.11-.35-.15-.45-.03-.07-.06-.15-.14-.19-.1-.09-.41-.26-.73-.32-.33-.07-.73-.06-1.16-.02-.86.04-1.83.22-2.79.2-1.06-.03-1.62-.16-1.79-.21-.16-.06.08-.09.62-.22.55-.13,1.38-.48,2.43-.94.53-.23,1.11-.53,1.91-.7.4-.08.86-.15,1.39-.09.26.02.53.09.8.17.11.04.3.12.47.19l.48.27.2.17c.03.09.11.14.17.21.14.12.23.29.32.44.17.28.23.45.37.68.17.42.43.81.62,1.22.1.2.2.41.3.61.06.1.08.22.17.31l.1.33c.14.44.26.88.39,1.33,2.17,8.1,3.6,16.24,5.04,24.42,1.43,8.17,2.74,16.38,3.83,24.65,1.38,9.89,3.09,20.13,4.73,30.2l1.29,8.32.62,4.17.3,2.09.14,1.05.17,1.39c0,.27-.04.53-.07.77-.01.12-.06.23-.06.37-.08.1-.15.21-.25.29-.18.18-.41.33-.63.48l-.75.37-.6.26c-.18.07-.35.14-.53.21-.35.13-.71.25-1.07.36-.72.22-1.47.39-2.27.48-.46.03-1.09.04-1.6-.05-.51-.1-1.08-.22-1.38-.63-.14-.19-.27-.4-.4-.61-.08-.26-.18-.5-.23-.78l-.28-1.26-.42-2.08-.78-4.14c-1.24-6.8-2.48-13.6-3.72-20.39-1.86-10.29-3.72-20.63-5.56-30.84-1.47-7.93-3.07-15.68-4.57-23.52-.33-1.73-.68-3.41-.99-5.16-1.15-6.47-1.25-8.58-.62-10.11.14-.35.27-.8.44-1.01.57-.72,1.51,1.83,2.5,6.53,2.94,13.95,5.7,28.72,8.34,43.57,1.98,11.03,3.97,22.11,5.96,33.16l-.07.03Z"/><path class="cls-1" d="M192.01,290.94l-6.06-.03-3.04-.02h-1.74c-.91-.04-1.97.04-2.52-.42l-.43-.26-.1-.06-.05-.03-.03-.02h-.01s.06-.07-.07.05h0c-.06-.08-.12-.15-.15-.24-.16-.32-.26-.7-.34-1.09-.1-.82,0-1.76.11-2.64.21-1.19.48-2.31,1.1-3.47.33-.58.65-1.12,1.31-1.7.18-.14.33-.3.52-.42l.6-.3c.2-.12.4-.17.6-.21l.48-.11c1.14-.21,2.17-.32,3.2-.41,3.01-.25,5.95-.48,8.91-.56,10.42-.27,20.81-.13,31.21.16,4.61.15,9.25.24,13.84.46,2.95.14,5.9.32,8.91.83l1.15.25c.4.1.8.23,1.24.4.26.15.51.3.74.47.18.17.35.34.49.51.29.34.52.7.73,1.06.41.72.71,1.46.94,2.23.19.77.42,1.55.31,2.37-.2,1.02-.44,1.38-.47,1.35-.06-.03,0-.52-.38-1.23-.37-.7-.89-1.63-1.74-2.52-.41-.44-.9-.88-1.38-1.19-.12-.06-.24-.14-.33-.17l-.04-.02h-.02s0-.01,0-.01h0s0,0,0,0c1.12-1.39.3-.38.55-.68-.19.19-.36.39-.51.61-.11.15-.08.12-.09.13h-.01s0,.01-.02.05c-.26-.06-.52-.12-.79-.18-1.26-.26-2.75-.39-4.18-.51l-4.4-.31c-2.95-.19-5.93-.34-8.91-.46-5.96-.24-11.96-.42-17.98-.61-7.2-.21-14.71.09-22.04.44-2.01.11-4.03.22-5.99.44-.48.06-.99.11-1.44.19-.45.06-1,.19-1.17.23-.2.07-.27.15-.52.45-.2.3-.4.63-.56,1.02-.17.38-.31.8-.42,1.23-.06.21-.11.44-.15.65-.03.12-.04.21-.05.32-.03.2-.05.41-.03.63-.02.14.15.1.23.12l.31.02,2.43.1,3.04.07c4.99.08,10,.17,14.99.14,7.57-.02,15.18-.03,22.69-.19,5.84-.13,11.56-.46,17.33-.75,1.27-.07,2.51-.14,3.79-.21,4.74-.19,6.25-.09,7.31.8.24.18.55.35.7.51.48.5-1.43,1.39-4.92,1.62-10.33.87-21.23,1.06-32.17,1.16-4.06.01-8.14.02-12.21.03l-6.11-.02-6.11.04v-.08Z"/><path class="cls-1" d="M215.15,292.48l-30.02-.02c-3.65.04-7.3.08-10.95.12l-19.3-.03-19.3-.1c-5.71-.01-11.45.07-17.11.15l-5.46.1h-5.47c-3.65.01-7.3-.13-10.93-.43-2.27-.37-1.96-.45-.05-1.02.96-.3,2.32-.59,3.96-.92,1.64-.33,3.57-.6,5.67-.68l5.57-.25c1.86-.08,3.71-.08,5.57-.13,3.71-.05,7.43-.11,11.15-.16,7.44-.08,14.9-.1,22.39-.01,8.96.13,18.29-.15,27.45-.21,10.08-.04,20.16-.08,30.24-.12,6.21-.02,12.41-.03,18.61-.05,9.4-.03,18.84-.07,28.16-.1,3.63-.04,7.22-.13,10.8-.21,3.58-.1,7.15-.19,10.75-.22,1.58-.01,3.13-.09,4.73-.06,2.97.06,4.92.15,6.3.41.7.15,1.24.32,1.69.52.44.22.78.48,1.07.75.26.25.62.5.75.71.23.37-.27.65-1.35.93-.54.16-1.21.23-2.01.28-.78.03-1.77.12-2.83.14-6.39.13-12.94.27-19.59.41-6.66.08-13.43.15-20.2.18-10.07.04-20.18.08-30.28.12v-.09Z"/><path class="cls-4" d="M97.86,110.21c0,6.52-5.47,11.8-12.22,11.8s-12.22-5.28-12.22-11.8c0-4.86,3.24-9.37,7.97-11.06,7.87-2.82,16.46,2.99,16.46,11.06Z"/><path class="cls-1" d="M63.12,115.85c-.2-2.93.31-5.87,1.5-8.55.59-1.34,1.39-2.58,2.29-3.73.95-1.11,1.99-2.14,3.16-2.99,1.69-1.25,3.55-2.28,5.53-2.92,1.75-.56,3.55-.88,5.36-1.01.91-.07,1.8-.07,2.72-.02l1.39.16.69.08c.23.04.45.11.68.17,3.63.86,6.84,2.98,9.17,5.74,2.04,2.48,3.51,5.44,4.17,8.57.51,2,.47,4.12.14,6.16-.12.51-.34.99-.51,1.48l-.28.72c-.12.23-.25.45-.39.67l-.79,1.3c-.32.4-.71.75-1.01,1.13-.79.94-.7.78-.38-.21.33-1,.43-2.99.31-4.99.3-3.41-.16-6.93-1.83-10.01l-.64-1.14c-.22-.37-.51-.71-.76-1.06-.46-.75-1.12-1.33-1.68-2.01l-.99-.86c-.17-.14-.32-.3-.5-.43l-.55-.36c-.37-.23-.72-.51-1.11-.72l-1.19-.58c-1.95-.84-4.12-1.14-6.42-.93-2.27.16-4.51.76-6.55,1.68-1.13.5-2.2,1.13-3.17,1.88-.99.73-1.86,1.61-2.61,2.57-1.53,1.92-2.47,4.28-2.86,6.75-.44,3.02,0,6.23,1.44,8.97,1.03,2.11,2.61,3.93,4.47,5.38,1.86,1.46,4.08,2.43,6.36,2.98,3.57.82,7.32.41,10.49-1.05.36-.14.69-.33,1.01-.53.33-.19.66-.37.96-.6,1.23-.71,1.93-1.32,2.52-1.66.32-.15.58-.27.81-.37.24-.09.47-.13.69-.17.2-.03.43-.11.57-.12.25,0,.24.28.07.9-.15.64-.6,1.54-1.49,2.44-1.27,1.38-2.93,2.44-4.72,3.14-1.78.72-3.7,1.13-5.64,1.25-3.87.24-7.87-.63-11.32-2.65-2.57-1.47-4.78-3.6-6.37-6.1-.81-1.25-1.41-2.62-1.91-4.02-.43-1.42-.78-2.87-.89-4.36h.07Z"/><path class="cls-1" d="M73.82,108.04c.23,3.94.31,7.89.53,11.83.04.74.6,1.38,1.38,1.38.71,0,1.42-.63,1.38-1.38-.23-3.94-.31-7.89-.53-11.83-.04-.74-.6-1.38-1.38-1.38-.71,0-1.42.63-1.38,1.38h0Z"/><path class="cls-1" d="M79.28,110.22c.19,3.22.35,6.43.53,9.65.04.74.6,1.38,1.38,1.38.71,0,1.42-.63,1.38-1.38-.19-3.22-.35-6.43-.53-9.65-.04-.74-.6-1.38-1.38-1.38-.71,0-1.42.63-1.38,1.38h0Z"/><path class="cls-1" d="M85.18,112.73c.14,2.38.13,4.76.27,7.14.04.72.6,1.41,1.38,1.38.71-.03,1.42-.61,1.38-1.38-.14-2.38-.13-4.76-.27-7.14-.04-.72-.6-1.41-1.38-1.38-.71.03-1.42.61-1.38,1.38h0Z"/><path class="cls-1" d="M73.43,122.5c5.13.34,10.26-.12,15.39-.16,1.77-.01,1.77-2.76,0-2.75-5.13.04-10.26.5-15.39.16-1.77-.12-1.76,2.63,0,2.75h0Z"/><path class="cls-1" d="M386.87,181.01c.06.43.13.87.23,1.3.03.16.13.29.17.45.13.56.28,1.14.52,1.68.09.25.22.47.36.69.18.28.34.57.43.94.02.12-.12.23-.35.31-.22.07-.57.14-.79.04-.78-.34-1.26-.99-1.42-1.77-.11-.46-.41-.84-.58-1.27-.19-.48-.33-.97-.43-1.47-.07-.31-.12-.61-.17-.92-.07-.47-.14-.93-.2-1.39-.05-.36-.2-.69-.28-1.05-.02-.08-.05-.15-.05-.23-.02-.3.14-.4.55-.47.1-.02.19-.04.28-.05.31-.03.6.07.76.26.38.55.65,1.09.79,1.65.08.42.14.85.24,1.27l-.05.02Z"/><path class="cls-1" d="M395.37,180.56c0,.28,0,.57.02.85,0,.1.07.19.07.29.01.36-.03.74-.04,1.11,0,.16.05.31.1.46.07.19.2.35.1.59-.06.15-1.39.39-1.54.2-.22-.36-.36-.74-.3-1.18.05-.27-.1-.49-.15-.74-.05-.27-.08-.55-.11-.83-.02-.17-.04-.34-.07-.51-.05-.25-.07-.52-.18-.75-.08-.18-.27-.33-.4-.49-.03-.04-.08-.07-.1-.1-.07-.15.04-.23.54-.42l.34-.13c.39-.14.74-.17.89-.1.46.23.66.55.74.91.07.27.09.55.13.82h-.05Z"/><path class="cls-1" d="M107.24,193.03c0,2.33-1.95,4.22-4.36,4.22-3.37,0-5.52-3.79-3.64-6.54,2.33-3.43,8-1.76,8,2.32Z"/><path class="cls-1" d="M108.43,138.04c0,2.33-1.95,4.22-4.36,4.22-3.37,0-5.52-3.79-3.64-6.54,2.33-3.43,8-1.76,8,2.32Z"/><path class="cls-1" d="M183.56,86.66c0,2.33-1.95,4.22-4.36,4.22-3.37,0-5.52-3.79-3.64-6.54,2.33-3.43,8-1.76,8,2.32Z"/><path class="cls-1" d="M208.08,189.9c.02.27-.24.42-.65.51-.13.03-.47-.08-.5-.16-.06-.17-.12-.33-.16-.49-.02-.1.1-1.54.1-2.04,0-.48.08-.95.16-1.41l.65-2.77c.05-.2.12-.4.22-.59.33-.66.52-1.35.66-2.07.02-.12.07-.23.01-.37-.09-.22.39-2.13.52-2.35.32-.57.58-1.15.88-1.72.05-.08.04-.18.18-.23.3-.11.32-.31.4-.49.11-.25.23-.5.39-.74.08-.12.25-.21.39-.31.13-.09.44.07.47.12.07.15.26.1.4.12.05,0,.11.02.15.04.07.03.31,1.71.28,1.88.04.05-.47,2.27-.5,2.53-.02.14-.11.25-.19.37-.03.06-.38,1.85-.41,1.91-.14.35-.17.74-.47,1.04-.06.06-.07.14-.09.21-.16.63-.43,1.22-.66,1.83-.12.31-.19.63-.29.95-.02.06-.06.11-.09.16-.04.07-.09.13-.11.2-.2.76-.56,1.47-.75,2.23-.05.17-.53.93-.57,1.14-.03.11-.41.4-.4.51Z"/><path class="cls-1" d="M213.54,189.64c-.06.18-.3.16-.62.06-.1-.03-.32-.22-.32-.29,0-.13-.02-.27,0-.39.01-.07.39-1.02.49-1.38.1-.34.24-.65.43-.92.39-.53.77-1.09,1.17-1.61.09-.12.2-.22.33-.29.48-.23.84-.57,1.17-.96.05-.06.13-.11.12-.24-.01-.21.99-1.14,1.17-1.2.45-.15.85-.36,1.29-.52.06-.02.09-.09.21-.04.27.12.34,0,.46-.07.16-.1.34-.18.53-.22.1-.02.26.03.4.07.13.03.33.36.33.41,0,.14.17.24.28.36.04.04.08.09.1.13.05.08-.33,1.25-.4,1.33,0,0-.26.3-.52.61-.26.3-.54.62-.58.69-.05.08-.16.09-.25.12-.05.01-.78.97-.82,1-.2.14-.31.38-.65.39-.07,0-.09.04-.13.08-.27.33-.65.54-1.03.77-.19.12-.33.28-.5.42-.03.03-.08.03-.12.05-.05.02-.11.03-.14.07-.18.18-.39.34-.6.5-.22.15-.43.31-.61.5-.09.08-.68.32-.76.43-.05.05-.42.07-.44.15Z"/><path class="cls-1" d="M218.15,250.75c.14.18.04.42-.14.67-.06.08-.28.17-.35.13-.12-.08-.25-.15-.37-.24-.03-.03-.25-.28-.51-.56-.26-.28-.57-.59-.67-.76-.25-.32-.44-.67-.61-1.03-.35-.73-.74-1.44-1.06-2.18-.07-.16-.12-.34-.14-.52-.09-.62-.31-1.19-.57-1.75-.04-.09-.07-.2-.18-.26-.18-.11-.78-1.66-.79-1.89-.04-.55-.13-1.09-.18-1.63,0-.08-.07-.14,0-.24.16-.22.07-.37.04-.53-.06-.22-.07-.46-.06-.7,0-.12.1-.27.16-.4.06-.12.38-.17.42-.15.13.07.25-.06.37-.11.04-.02.1-.04.13-.04.04,0,.31.25.59.52.27.27.5.57.53.64,0,.02.2.46.39.92.2.46.42.94.47,1.04.06.1.04.22.05.34,0,.06.66,1.42.68,1.48.08.3.26.57.19.93-.01.07.02.13.04.18.21.49.33,1.02.48,1.55.06.27.18.52.27.78.02.05,0,.1.01.16,0,.06,0,.13.03.19.23.61.37,1.26.66,1.84.09.12.09.91.15,1.07.03.09-.09.49-.03.56Z"/><path class="cls-1" d="M227.52,244.03c.15.07.11.28,0,.54-.03.08-.21.25-.27.25-.12,0-.24,0-.34-.02-.06-.02-.88-.38-1.2-.47-.3-.09-.56-.22-.81-.36-.25-.15-.53-.26-.76-.44l-.68-.51c-.1-.08-.18-.17-.24-.29-.2-.4-.53-.68-.88-.93-.06-.04-.1-.11-.22-.08-.2.04-1.04-.76-1.09-.92-.15-.38-.28-.78-.4-1.18-.02-.06-.08-.08-.03-.19.11-.27,0-.33-.05-.43-.04-.07-.08-.15-.12-.22-.03-.08-.02-.2-.03-.31,0-.11.05-.27.07-.4.02-.12.21-.26.26-.27.11-.01.16-.14.23-.22.02-.03.06-.06.08-.08.02-.01.36-.03.74-.06.31.04.63.08.67.11.01,0,.32.17.66.35.33.18.61.43.69.46.08.04.08.14.11.23.01.04.92.66.94.69.14.18.34.29.31.63,0,.07.03.09.06.12.27.27.45.63.66.96.11.17.25.3.38.45.02.03.02.08.04.11.02.04.02.11.05.14.27.39.45.85.76,1.2.06.09.23.64.32.73.04.05.03.39.09.41Z"/><path class="cls-1" d="M340.21,142.1c.34.99.94,1.93,1.91,2.41s1.98.5,2.97.21c2.1-.62,3.8-2.41,4.72-4.35.67-1.41,1.02-2.92,1.03-4.48,0-.72-.64-1.41-1.38-1.38s-1.37.6-1.38,1.38c0,.29-.01.58-.04.86,0,.05-.02.11-.02.16,0,.2.04-.25,0-.05-.03.15-.05.31-.08.46-.1.5-.25.99-.44,1.47-.12.32.1-.2-.05.11-.05.1-.09.2-.14.3-.12.23-.25.46-.39.68-.03.05-.38.55-.38.55,0,0,.22-.27.05-.07-.04.04-.07.09-.11.13-.07.09-.15.17-.22.25-.15.16-.31.32-.47.46-.07.06-.14.12-.21.18-.04.03-.08.06-.12.1-.12.11.29-.2.06-.05-.32.21-.64.39-.98.57-.15.08.3-.11.14-.06-.04.01-.08.03-.13.05-.07.03-.15.05-.22.07-.08.02-.17.05-.25.06-.04,0-.08.01-.12.02-.21.06.31-.02.15-.02-.15,0-.3.02-.45.02-.2,0-.24-.11.08.02-.07-.03-.15-.03-.22-.05s-.35-.13-.1-.02-.03-.02-.09-.05-.31-.22-.1-.05-.04-.04-.08-.09-.1-.15-.16-.18c.19.1.18.25.1.13-.03-.05-.06-.09-.09-.14-.05-.09-.1-.18-.15-.27-.11-.2.06.13.05.13-.03-.01-.07-.19-.08-.21-.23-.68-.95-1.2-1.69-.96-.67.22-1.21.96-.96,1.69h0Z"/></svg>