<svg xmlns="http://www.w3.org/2000/svg" width="520" height="520" viewBox="0 0 520 520"><defs><style>.cls-1{fill:#231f20;}</style></defs><title>Notioly New</title><g id="_176.Gestures" data-name="176.Gestures"><path class="cls-1" d="M82.54,267.28c1.76-.35,3.44-.52,5.06-.79.58-.1,1.14-.28,1.68-.41a7.33,7.33,0,0,0,1.32-.41,4,4,0,0,0,.51-.26,6.13,6.13,0,0,0,.56-.45c.79-.69,1.62-1.47,2.51-2.16A21.46,21.46,0,0,1,96.66,261a9.34,9.34,0,0,1,1.83-.87,3.89,3.89,0,0,1,1-.17c.18,0,.35,0,.52,0s.36.18.52.21c.43.1.34.43,0,.88-.15.2-.32.65-.52.87a2.06,2.06,0,0,1-.67.59c-1.89.61-3.63,2.06-5.57,3.64-.3.24-.58.49-.9.78a4.94,4.94,0,0,1-.57.44,3.32,3.32,0,0,1-.62.39,9.86,9.86,0,0,1-2.43.92c-1.73.42-3.41.63-5,.95a19.25,19.25,0,0,0-2.9.75,7.61,7.61,0,0,0-1.9.92,10,10,0,0,0-1.53,1.57,13.34,13.34,0,0,0-1,1.45l-1,1.45a5.27,5.27,0,0,1-.43.62,2.48,2.48,0,0,1-.74.71,1.62,1.62,0,0,1-.75.09c-.12,0-.24,0-.34,0s-.25-.18-.32-.43a1.71,1.71,0,0,1,0-1,13.07,13.07,0,0,1,1.46-3.23c.34-.48.7-.94,1.07-1.38l.57-.67.3-.32a3.66,3.66,0,0,1,.35-.37,11,11,0,0,1,5.43-2.54Z"/><path class="cls-1" d="M383,248a7.9,7.9,0,0,1-2.63,2,7.47,7.47,0,0,1-1.07.51,5.53,5.53,0,0,1-.7.18l-.35.07h-.48s0,.05,0,.08a2.73,2.73,0,0,1,.08.49,5.77,5.77,0,0,1-.07,1.86,3.58,3.58,0,0,1-1,2c-.18.16-.48-.11-.72-.48s-.43-.83-.3-1.12a4.2,4.2,0,0,0,.34-1.4,1.9,1.9,0,0,0,0-.34s0-.11,0-.17a.6.6,0,0,0-.06-.28c-.05-.15-.09-.29-.15-.45l-.25-.47c-.15-.31-.33-.65-.45-.92.16,0,.27-.1.44-.13a12,12,0,0,0,2.07-.51,7.24,7.24,0,0,0,1-.49,8.16,8.16,0,0,0,2-1.5,6.16,6.16,0,0,0,1-1.23,6.52,6.52,0,0,0,.95-2.22,4.08,4.08,0,0,0-.14-1.79,3.21,3.21,0,0,0-.12-.33c-.1-.4,0-.45.67-.84l.41-.25a.89.89,0,0,1,1.31.33,5.6,5.6,0,0,1,0,4.52A10,10,0,0,1,383,248Z"/><path class="cls-1" d="M391.26,235.14a5.21,5.21,0,0,1-.11,1.42,6.44,6.44,0,0,1-.4,1.38,5.5,5.5,0,0,1-.45.95,6,6,0,0,1-2.72,2.16,12,12,0,0,1-1.36.54,3.9,3.9,0,0,1-1.78.34c-.19,0-.21-.38-.11-.78s.28-.8.57-.88a12.76,12.76,0,0,0,2.81-1.11,4,4,0,0,0,.37-.25,2.24,2.24,0,0,0,.27-.34,3,3,0,0,0,.25-.37c0-.14.11-.28.17-.41a4.62,4.62,0,0,0,.31-.93,8.23,8.23,0,0,0,.1-1v-.65l-.1-.65c-.07-.33-.18-.65-.28-1a4.28,4.28,0,0,0-.47-.9,3.18,3.18,0,0,0-1.14-.94,1.13,1.13,0,0,1-.27-.13c-.31-.14-.29-.32-.12-.91l.1-.4a.79.79,0,0,1,1-.59,4.68,4.68,0,0,1,2.76,2.66,7.91,7.91,0,0,1,.7,2.76Z"/><path class="cls-1" d="M393.69,228.93a8.43,8.43,0,0,1-.81,1.26,3.45,3.45,0,0,1-.33.45,4.44,4.44,0,0,1-1.64,1.07c-.27.08-.53.21-.8.28a1.61,1.61,0,0,1-1.06.09c-.11,0-.08-.34,0-.65s.19-.63.34-.65a8.75,8.75,0,0,0,1.45-.41c.32-.1.5-.42.71-.69a5.3,5.3,0,0,0,.63-1,4.37,4.37,0,0,0,.28-.71,5,5,0,0,0,.28-1.14c0-.31-.07-.62-.07-.92a1.34,1.34,0,0,1,0-.2c.1-.24.24-.31.58-.34l.21,0a.78.78,0,0,1,.61.32,1.28,1.28,0,0,1,.23.47,1.36,1.36,0,0,1,.09.48,4.57,4.57,0,0,1-.15.95,7.91,7.91,0,0,1-.51,1.38Z"/><path class="cls-1" d="M427.82,318.51c-.95.42-1.95.76-2.92,1.13l-3,1c-.73.22-1.45.47-2.18.67-1.29.37-2.63.54-3.93.83l-2,.25a16.56,16.56,0,0,1-2,.2c-1.19.06-2.37.24-3.55.2a19.08,19.08,0,0,1-2.27,0,18.82,18.82,0,0,1-2.25-.36c-.46-.11-.34-.46.1-.8a3.31,3.31,0,0,1,2-.68,15.89,15.89,0,0,0,2.18-.08c.73-.06,1.45,0,2.18-.12s1.45-.12,2.19-.16,1.46-.19,2.2-.26a15.56,15.56,0,0,0,2.66-.56c.89-.21,1.75-.54,2.62-.81s1.91-.63,2.86-1,1.88-.73,2.82-1.11c1.16-.46,2.28-1,3.41-1.53a50.83,50.83,0,0,0,4.95-2.76,31.69,31.69,0,0,0,3.39-2.68c.24-.21.47-.43.71-.62.91-.74,1.33-.76,1.92-.48a3.91,3.91,0,0,1,.41.2c.39.26.28.9-.29,1.67a26.7,26.7,0,0,1-6.59,5.08,60.67,60.67,0,0,1-5.62,2.88Z"/><path class="cls-1" d="M472.11,366.41a6.13,6.13,0,0,0,5.5,4.61c4.78.63-1.06-2.9-1.06-2.9l-4.06-3.68Z"/><path class="cls-1" d="M416.12,378.55c-2.22-3.79-4.22-7.67-6.32-11.47L407.42,363a140.18,140.18,0,0,1-6.93-15.39l-1.37-3.48c-.22-.59-.45-1.14-.67-1.76s-.38-1.22-.53-1.83a30.59,30.59,0,0,1-.77-4.77,17.87,17.87,0,0,1,0-2.43,7.26,7.26,0,0,1,.48-2.45c.22-.51.44-.66.5-.6s0,.36,0,.77a32,32,0,0,0,.37,4,37,37,0,0,0,.87,4.63,20.55,20.55,0,0,0,.6,2.22c.25.71.56,1.5.85,2.24,1.16,3,2.34,6,3.58,9a83.17,83.17,0,0,0,5.35,10.57l6.5,11.44c1.34,2.34,2.78,4.6,4.28,6.82a48.3,48.3,0,0,0,7.89,9.14,33.94,33.94,0,0,0,7.73,4.89l1.85.74c2.31.95,3,1.29,3.43,1.93.08.14.21.29.26.41.14.4-.94.37-2.84-.05a11.49,11.49,0,0,1-2.06-.66c-.68-.28-1.38-.51-2-.83a31.34,31.34,0,0,1-3.9-2.2,35,35,0,0,1-3.64-2.71c-.58-.49-1.11-1-1.67-1.55l-.82-.79-.77-.84a62.91,62.91,0,0,1-7.85-10.87Z"/><path class="cls-1" d="M435,304.62s10.35-2.78,11.7-.45-6.67,7.75-6.67,7.75Z"/><path class="cls-1" d="M402.88,315.18s-5.95,2.74-7.06,5.58,9.67,2.66,9.67,2.66Z"/><path class="cls-1" d="M294.52,268.36a12.2,12.2,0,0,0-1.1-1.52l-.48-.5c-.57-.61-1.14-1.24-1.7-1.85q-.39-.4-.81-.78a7.11,7.11,0,0,1-1-1.06c-.18-.24.45-.32.89,0a18.64,18.64,0,0,1,2.25,1.84c.41.43.9.82,1.33,1.26a14,14,0,0,1,1.31,1.56,10.55,10.55,0,0,1,.69,1.05,16.83,16.83,0,0,1,.88,1.68l.69,1.3c0,.1.1.19.14.29.07.4,0,.55-.27.71l-.18.1a.57.57,0,0,1-.64-.24,13.45,13.45,0,0,1-1.13-2.2,15,15,0,0,0-.9-1.61Z"/><path class="cls-1" d="M303.91,265.65a12.68,12.68,0,0,0-.73-1.22l-.32-.41a17.41,17.41,0,0,0-1.14-1.46,8.07,8.07,0,0,0-.59-.58,4.43,4.43,0,0,1-.76-.74c-.14-.18.45-.44.81-.22a7.2,7.2,0,0,1,1.65,1.47c.27.36.63.65.94,1s.63.79.92,1.2l.51.77c.26.39.48.8.73,1.19s.45.56.68.84a1.3,1.3,0,0,1,.15.18c.16.25.1.39-.17.6l-.18.14a.59.59,0,0,1-.66,0,5.52,5.52,0,0,1-1.17-1.51c-.25-.4-.44-.84-.69-1.24Z"/><path class="cls-1" d="M268,280.11c0-.66,0-1.32,0-2,0-.24-.05-.47,0-.7a12.71,12.71,0,0,0-.11-2.47,9,9,0,0,0-.27-1.05c-.15-.44-.35-.85-.47-1.31,0-.15.11-.22.32-.19a1.05,1.05,0,0,1,.7.38,7.42,7.42,0,0,1,.74,1.39,6.37,6.37,0,0,1,.26,1.54c0,.62.17,1.24.22,1.86s0,1.35,0,2c0,.41,0,.82,0,1.22a7.62,7.62,0,0,0,.53,3.14l.09.28c.1.36.05.49-.21.67l-.18.12c-.21.11-.44,0-.62-.24a6.17,6.17,0,0,1-.65-1.25,6.61,6.61,0,0,1-.27-1.38c-.08-.69-.09-1.37-.12-2Z"/><path class="cls-1" d="M314.24,398.37s15-.6,23-6.7,10.2-5.68,10.2-5.68l8,12.38s-.09,2.86-5,3.65-7.43.63-9.64,3-4.67,1.89-9.12,2.84-5.08,1-9.44.35S314.24,398.37,314.24,398.37Z"/><path class="cls-1" d="M339.7,375.76c-1.95-3.49-3.87-7-5.69-10.56-.66-1.3-1.4-2.56-2-3.87q-3.41-6.93-6.22-14.14c-.81-2.15-1.68-4.28-2.36-6.46-.24-.69-.45-1.4-.65-2.1s-.41-1.42-.56-2.14c-.08-.37-.17-.72-.24-1.09l-.12-1.11a16.5,16.5,0,0,1-.09-2.23c0-.93.38-.81.88-.1a14.45,14.45,0,0,1,.85,1.45,9.24,9.24,0,0,1,.86,2.06,142.64,142.64,0,0,0,5.94,16.37c1.35,3.27,3.16,6.49,4.86,9.69q2.81,5.28,5.74,10.52c1.21,2.14,2.42,4.29,3.67,6.41,1.88,3.21,3.78,6.45,5.75,9.59,1.54,2.44,3.19,4.74,4.75,7.15.35.53.7,1,1,1.59,1.15,2.07,1.29,2.91.86,3.67a2.31,2.31,0,0,1-.31.51c-.42.41-1.19-.23-2.18-1.59-2.95-4.07-5.84-8.61-8.66-13.2-2.1-3.41-4.13-6.9-6.15-10.38Z"/><path class="cls-1" d="M197.26,235.25a25.26,25.26,0,0,1-3.48,0,10.69,10.69,0,0,1-1.26-.1,17.84,17.84,0,0,1-4.26-1.25c-.59-.27-1.21-.48-1.78-.77a6.23,6.23,0,0,1-2.09-1.34c-.18-.18,0-.37.32-.49a1.86,1.86,0,0,1,1.24,0c1.45.6,2.82,1.27,4.32,1.77a9.08,9.08,0,0,0,1.39.33c.48.07,1,.08,1.45.15a22.9,22.9,0,0,0,3.21,0c.66,0,1.32-.12,2-.22a21.31,21.31,0,0,0,3-.68,17,17,0,0,0,2.13-1,2.53,2.53,0,0,1,.48-.19,1.3,1.3,0,0,1,.69-.09,1,1,0,0,1,.46.32c.06.07.13.13.17.19a.42.42,0,0,1,0,.41,1.12,1.12,0,0,1-.37.55,6.38,6.38,0,0,1-1.94,1.16,16.14,16.14,0,0,1-2.19.75,22.19,22.19,0,0,1-3.45.58Z"/><path class="cls-1" d="M213.66,260.32a19.69,19.69,0,0,1-2.93,2,10.54,10.54,0,0,1-1.16.59,10.09,10.09,0,0,1-4.54.69A5,5,0,0,1,203,263a2.13,2.13,0,0,1-1-1.1,2.64,2.64,0,0,1-.11-1.38c0-.27.2-.22.41,0a3,3,0,0,1,.36.36,4.49,4.49,0,0,1,.44.36l.33.22a.9.9,0,0,0,.28.18,2.67,2.67,0,0,0,.78.22,17,17,0,0,0,2.08.07,6.45,6.45,0,0,0,2.6-.83,14.93,14.93,0,0,0,2.64-1.69c.51-.42,1-.85,1.5-1.32.72-.71,1.45-1.43,2.12-2.21.52-.6.92-1.29,1.42-1.92a4.38,4.38,0,0,1,.36-.39c.48-.45.78-.46,1.15-.29.08,0,.17.07.25.12.24.15.24.53.07,1l-.45,1c-.2.31-.41.6-.63.89-.43.59-.91,1.17-1.41,1.73a25.7,25.7,0,0,1-2.49,2.39Z"/><path class="cls-1" d="M196,251.92a13.77,13.77,0,0,0,3.35-1.49c.39-.24.74-.54,1.12-.8a39.13,39.13,0,0,0,3.85-3.14c.53-.52,1-1.07,1.51-1.63.64-.71,1.25-1.43,1.93-2.12.21-.21.29-.1.26.19a3.17,3.17,0,0,1-.4,1.3,18.1,18.1,0,0,1-3.72,4.65c-.92.78-1.79,1.69-2.78,2.45a16,16,0,0,1-3.58,2.08,16.77,16.77,0,0,1-2.42.81,8.76,8.76,0,0,1-4,.18,4.43,4.43,0,0,1-2.83-1.94c-.11-.22-.25-.43-.35-.67-.28-.89-.08-1.21.45-1.45a2.05,2.05,0,0,1,.38-.16,1,1,0,0,1,1.12.55,2.78,2.78,0,0,0,2.69,1.71,9.92,9.92,0,0,0,3.39-.57Z"/><path class="cls-1" d="M160.43,364l3.1-12.66c.38-1.53.71-3.08,1.1-4.62,1.39-5.4,2.92-10.78,4.54-16.12.7-2.38,1.41-4.77,2.1-7.14.45-1.51.89-3,1.41-4.55a15.86,15.86,0,0,1,2.06-4.4c.78-.93.86-.42.83.45,0,.47,0,1.07,0,1.81a9.91,9.91,0,0,1-.52,2.36c-2,6-3.78,12.21-5.74,18.39-1.19,3.69-2.14,7.61-3.16,11.45-1.12,4.21-2.24,8.43-3.25,12.68-.62,2.61-1.23,5.23-1.81,7.85-.87,4-1.74,8-2.45,11.94-.53,3.09-1,6.13-1.39,9.2-.09.67-.17,1.33-.26,2a14.79,14.79,0,0,1-.56,2.65,2.85,2.85,0,0,1-.57,1.14,4,4,0,0,1-.27.34c-.25.22-.46-.85-.46-2.75a105,105,0,0,1,2.38-17.2c.89-4.29,1.89-8.57,2.89-12.83Z"/><path class="cls-1" d="M199.35,318.45c-2.06-.37-4.14-.72-6.24-.94-.77-.09-1.54-.1-2.31-.17-2.71-.25-5.44-.41-8.18-.41-1.21,0-2.43.08-3.62.18-1.53.15-3.08.39-4.56.48-.43,0-.53-.38-.2-.89a2.9,2.9,0,0,1,2-1.17,50.33,50.33,0,0,1,9.66-.29c1.93.13,3.94.08,5.92.21,2.17.15,4.34.38,6.49.71,1.32.21,2.64.47,3.95.75a51.9,51.9,0,0,1,5.88,1.68,28.3,28.3,0,0,1,4.4,1.81,7.1,7.1,0,0,1,.91.55,3,3,0,0,1,1,1,1,1,0,0,1,.11.79,1.53,1.53,0,0,1-.09.34c-.16.33-.74.19-1.51-.2a41.78,41.78,0,0,0-7.46-3,53.85,53.85,0,0,0-6.12-1.41Z"/><path class="cls-1" d="M82,246.89a28.6,28.6,0,0,1-3.41-1.6c-.39-.23-.83-.38-1.21-.64a20.73,20.73,0,0,1-3.63-3.24c-.42-.58-1-1.08-1.35-1.68a3.74,3.74,0,0,1-1-2.56c.31-.42.07-.28.51-.21a2.11,2.11,0,0,1,1.32.6c.59.58.89,1.31,1.44,1.9a8.64,8.64,0,0,0,.78.94c.28.3.52.64.83.93a10.68,10.68,0,0,0,2.54,1.77,24.46,24.46,0,0,0,3.1,1.59,20.84,20.84,0,0,0,2,.77,23.66,23.66,0,0,0,3.19.81,17.69,17.69,0,0,0,2.51.14c.18,0,.36,0,.54,0,.68.07.89.17,1,.52a1.58,1.58,0,0,1,.11.23c.09.26-.19.49-.74.65-.4.11-.81.18-1.23.26s-.82,0-1.24,0a19.48,19.48,0,0,1-2.52-.22,23.17,23.17,0,0,1-3.65-1Z"/><path class="cls-1" d="M95.32,256.65c.09.61.14,1.25.18,1.91,0,.23.09.46.09.7a13.33,13.33,0,0,1-.18,2.59c-.06.38-.16.77-.24,1.15a6.84,6.84,0,0,1-.25.72,1.85,1.85,0,0,1-.47.61c-.12.11-.35-.09-.56-.36s-.42-.59-.36-.77c.12-.72,0-1.42.24-2.27a4.67,4.67,0,0,0-.17-1.56c-.1-.6-.19-1.2-.29-1.8l-.18-1.14c-.11-.58-.18-1.17-.32-1.75s-.3-.89-.39-1.38a1.5,1.5,0,0,1-.08-.32c0-.42.18-.55.66-.6a3.16,3.16,0,0,1,.32,0,1,1,0,0,1,.83.38,5.72,5.72,0,0,1,.85,2.11c.14.57.24,1.18.37,1.79Z"/><path class="cls-1" d="M70.58,270.11A11.79,11.79,0,0,1,69,267.82c-.17-.28-.33-.54-.47-.83a32.41,32.41,0,0,1-1.15-3.1c-.15-.45-.35-.88-.52-1.32a5.76,5.76,0,0,1-.58-1.71c0-.2.3-.31.68-.29a1.19,1.19,0,0,1,1,.45,10.91,10.91,0,0,1,.82,1.64c.21.57.39,1.15.55,1.73a8.66,8.66,0,0,0,1,1.95,11.89,11.89,0,0,0,1.29,1.94l.47.52c.16.16.34.3.52.45a7.86,7.86,0,0,0,.87.54,3.87,3.87,0,0,0,1,.27,3.29,3.29,0,0,0,.77-.05,4.34,4.34,0,0,1,.75-.19c.11,0,.21-.09.32-.11.41-.09.58,0,.83.53a3.65,3.65,0,0,1,.18.34.8.8,0,0,1-.3,1,3.35,3.35,0,0,1-1.86.71,5.32,5.32,0,0,1-2.11-.38,6.84,6.84,0,0,1-1.38-.76,11,11,0,0,1-1.12-1Z"/><path class="cls-1" d="M104,352.84S90.69,360,81.61,360.66l-3.2,1s8.13-.6,11-1.08c3.81-.64,15.92-4.84,15.6-5Z"/><path class="cls-1" d="M114.77,370.07c3,1.48,7.58,18.14,7.58,18.14s4.53,18.39,1.47,18.81-6.52,9-16.52,9.79-13.79-4.11-16.11-.95-14,4.42-19.16.74-12.91,1.68-12.91,1.68-2.45-5.47-3.42-19.58S58.2,376,58.2,376s15.1,5.45,28.63,2.7c0,0,13.76-3.17,17-5.21S114.77,370.07,114.77,370.07Z"/><path class="cls-1" d="M90.44,265.29a4.62,4.62,0,0,0,1.86-2.65,11.86,11.86,0,0,0,.23-1.37,20.42,20.42,0,0,0,.1-5.25,19.81,19.81,0,0,0-.45-2.32c-.25-1-.6-1.92-.78-2.91-.06-.31.3-.45.78-.36a2,2,0,0,1,1.41,1,13.14,13.14,0,0,1,1.11,3.17,16.19,16.19,0,0,1,.25,3.34,41.34,41.34,0,0,1-.07,4.15,7.73,7.73,0,0,1-2,4.45,7.65,7.65,0,0,1-2.44,1.74,11.55,11.55,0,0,1-4.24,1,15.38,15.38,0,0,1-3.39,0,4.64,4.64,0,0,1-.76-.13c-1-.23-1.1-.71-.9-1.46a3.76,3.76,0,0,1,.13-.48,1.3,1.3,0,0,1,.51-.59,1.08,1.08,0,0,1,.78-.23,21.13,21.13,0,0,0,4.7.09,6.47,6.47,0,0,0,3.09-1.19Z"/><path class="cls-1" d="M75.08,268.36a7,7,0,0,0,2.78-.57l.66-.33.32-.18c.07,0,.08,0,.08-.06a.05.05,0,0,1,0,0,2,2,0,0,0,.41-.84,11.54,11.54,0,0,0,.22-2.14,43.62,43.62,0,0,0-.65-8.52c-.2-1.28-.54-2.53-.84-3.78l-.61-2.39c-.09-.41-.1-.83-.16-1.25s0-.86-.06-1.28-.15-.43.16-.08a5.77,5.77,0,0,0,.79.69,6.43,6.43,0,0,1,1,1.07A22,22,0,0,1,81,253.57a30.4,30.4,0,0,1,.84,5.15,45.07,45.07,0,0,1,.34,6.56,8.82,8.82,0,0,1-.4,1.94,3.94,3.94,0,0,1-1.34,2,4.43,4.43,0,0,1-.46.29l-.43.22c-.28.14-.57.26-.87.38a11.56,11.56,0,0,1-1.82.55,8.68,8.68,0,0,1-4.68-.27,5.36,5.36,0,0,1-.86-.39,3.75,3.75,0,0,1-.79-.56A6,6,0,0,1,69.34,268,16,16,0,0,1,68,264.89c-.54-1.61-1.07-3.17-1.65-4.64-.14-.3-.27-.61-.41-.92-.39-1.17-.39-1.52-.08-2.1,0-.12.09-.25.13-.34s.25-.16.59-.07a2.07,2.07,0,0,1,1.1.82,6.93,6.93,0,0,1,.7,1c.17.36.36.73.5,1.09.31.73.57,1.47.81,2.18a39,39,0,0,0,1.48,4,4,4,0,0,0,1.43,1.8l.21.12.31.12c.21.06.42.13.64.17a5.4,5.4,0,0,0,1.34.13Z"/><path class="cls-1" d="M47.1,272.18a125.82,125.82,0,0,1,2.18-19,28.71,28.71,0,0,1,2.24-6.93,9.56,9.56,0,0,1,2.17-2.86,4.89,4.89,0,0,1,4-1.2,6.25,6.25,0,0,1,3.35,1.9,13.61,13.61,0,0,1,2,2.71,31.64,31.64,0,0,1,3.62,12,23.74,23.74,0,0,1,0,5.65,9.64,9.64,0,0,1-.86,2.89,4.38,4.38,0,0,1-2.5,2.28,5.06,5.06,0,0,1-4.14-.74,9.46,9.46,0,0,1-2.73-2.69,16.23,16.23,0,0,1-1.61-3.3,15.81,15.81,0,0,1-.69-3.51c-.13-1.47.15-1.29.84-.22.34.53.86,1.27,1.49,2.08l1.9,2.7.46.61a6.41,6.41,0,0,1,.49.55,8.21,8.21,0,0,0,1,1,3,3,0,0,0,1.9.82.86.86,0,0,0,.54-.21,2.11,2.11,0,0,0,.54-.74,7.77,7.77,0,0,0,.64-2.72,25.73,25.73,0,0,0-.42-6.5,34.8,34.8,0,0,0-1.81-6.42,14.92,14.92,0,0,0-1.87-3.43A4.45,4.45,0,0,0,57.25,245a1.86,1.86,0,0,0-1.21.25,3.74,3.74,0,0,0-1.14,1.09,13.43,13.43,0,0,0-1.68,3.51,51.84,51.84,0,0,0-2,9c-.45,3.1-.75,6.23-1,9.38l-.19,2.91c-.06,1-.13,2-.12,2.84a19.66,19.66,0,0,0,1,5.46,54.22,54.22,0,0,0,8.33,15.22,74,74,0,0,0,9,9.92c.72.67,1.45,1.29,2.19,1.94,2.76,2.39,3.62,3.11,3.88,4.1a3.45,3.45,0,0,1,.19.67c0,.61-1.55.16-3.77-1.54a69.38,69.38,0,0,1-9.16-8.62,80.17,80.17,0,0,1-8-10.16,47.69,47.69,0,0,1-4.68-8.69,27.78,27.78,0,0,1-1.48-4.87,18.43,18.43,0,0,1-.36-2.61,18.92,18.92,0,0,1,0-2.6Z"/><path class="cls-1" d="M66.91,238.25a5.77,5.77,0,0,0-2,1.25c-.2.22-.35.49-.57.7a12.29,12.29,0,0,0-1.79,2.85,5.9,5.9,0,0,0-.35,1.48l-.06,1a2.58,2.58,0,0,1-.19,1c-.09.2-.65.18-1.2,0s-1.08-.58-1.09-1A8.56,8.56,0,0,1,61,240.91c.56-.79.91-1.71,1.53-2.48A9.5,9.5,0,0,1,65,236.27a9.08,9.08,0,0,1,1.87-.8,7.13,7.13,0,0,1,1.52-.27c.51,0,1,0,1.53.05s.79.06,1.18.12.78.13,1.18.22a2.77,2.77,0,0,1,.49.15c.57.32.64.6.35,1.26-.07.16-.13.31-.2.45a1.38,1.38,0,0,1-1.12.76c-1.17-.09-2-.32-2.9-.3l-.24,0-.24,0-.49,0a5.43,5.43,0,0,0-1,.34Z"/><path class="cls-1" d="M91.92,233.34c1.62.37,3.28.67,5,1a32.53,32.53,0,0,1,5.29,1.27c.24.09.5.22.76.34a8.88,8.88,0,0,1,.78.53,7.1,7.1,0,0,1,.63.58l.52.61a15,15,0,0,1,1.47,2.49,36,36,0,0,1,1.82,5.05,75.24,75.24,0,0,1,1.75,7.42,120.1,120.1,0,0,1,1.56,13.24c.06,1.12.11,2.23.09,3.38a20,20,0,0,1-.53,3.47c-.51,2.21-1.22,4.31-1.93,6.41-1.3,3.71-2.69,7.39-4.1,11a141.68,141.68,0,0,1-6,13.72c-.71,1.38-1,1-.95-.39A23.46,23.46,0,0,1,99.63,297c.91-2.36,1.86-4.7,2.81-7.05s1.86-4.7,2.74-7.06,1.74-4.73,2.49-7.12c.37-1.19.72-2.38,1-3.57.15-.6.24-1.18.36-1.77a15.17,15.17,0,0,0,.14-1.71,67,67,0,0,0-.77-9.14c-.44-3.08-1-6.16-1.68-9.18a41.87,41.87,0,0,0-3.09-9.49,8.42,8.42,0,0,0-1.25-1.88,3.55,3.55,0,0,0-.71-.58,7,7,0,0,0-1-.39c-1.51-.44-3.23-.72-4.92-1-2.09-.38-4.2-.78-6.3-1.31s-4.14-1.24-6.15-2L78.8,232c-.75-.27-1.49-.52-2.23-.72a7.74,7.74,0,0,0-2.11-.35,1,1,0,0,0-.64.18c-.11.08-.13.15-.22.25a2.59,2.59,0,0,0-.25.39,3.54,3.54,0,0,0-.33,1.88,8.26,8.26,0,0,0,1.6,4,15.52,15.52,0,0,0,5.24,4.52,21,21,0,0,0,6.54,2.27,23.73,23.73,0,0,0,3,.32l4.09.13a4.75,4.75,0,0,1,1.93.43,3.78,3.78,0,0,1,.64.33c.24.21,0,.47-.74.79a6.38,6.38,0,0,1-1.39.47,13,13,0,0,1-2,.39,22.53,22.53,0,0,1-7-.27,21.75,21.75,0,0,1-6.87-2.55,18.86,18.86,0,0,1-5.67-5.08,12.54,12.54,0,0,1-1.85-3.65,7.31,7.31,0,0,1,0-4.67,4.63,4.63,0,0,1,.43-.9,5.42,5.42,0,0,1,.66-.9,3.49,3.49,0,0,1,2.24-1.13,4.93,4.93,0,0,1,1.06,0,7,7,0,0,1,.83.09,14.34,14.34,0,0,1,1.46.32c1.83.5,3.44,1.13,5.07,1.73a63.53,63.53,0,0,0,9.62,3Z"/><path class="cls-1" d="M101.76,327.68l1,6.93c.13.84.34,1.67.47,2.51.43,3,.87,6,1.3,8.95.19,1.33.45,2.65.67,4a17.31,17.31,0,0,1,.38,5.19c-.06.54-.49.46-1,0a4.15,4.15,0,0,1-1.22-2.11c-.59-3.32-1.16-6.72-1.58-10.2-.24-2.08-.81-4.18-1.22-6.29-.44-2.31-.87-4.64-1.24-7l-.67-4.32c-.34-2.17-.6-4.38-.94-6.55-.23-1.69-.63-3.33-.81-5a10.19,10.19,0,0,1-.13-1.11c0-1.42.21-1.87.8-2.17a3,3,0,0,1,.4-.2c.45-.13.86.43,1.15,1.4.32,1.44.65,2.93.9,4.43s.46,3.06.69,4.6c.34,2.29.68,4.61,1.06,6.93Z"/><path class="cls-1" d="M69,342.85c.19-2.46.39-4.93.54-7.41.06-.9,0-1.8.07-2.7.18-3.18.35-6.36.44-9.55,0-1.41,0-2.83-.12-4.22-.18-1.77-.3-3.59-.43-5.28,0-.53.32-.61.81-.24a3.81,3.81,0,0,1,.82.89,4.84,4.84,0,0,1,.59,1.4,41.26,41.26,0,0,1,.6,5.61,55.25,55.25,0,0,1,0,5.61c-.16,2.24,0,4.56-.11,6.85-.08,2.51-.21,5-.37,7.53L71.51,346c-.17,2.33-.4,4.67-.54,7-.13,1.81-.07,3.59-.18,5.39,0,.4,0,.79-.07,1.19-.23,1.47-.57,1.9-1.22,2.12a2.71,2.71,0,0,1-.44.13c-.48.07-.81-.59-.92-1.67-.08-.79-.07-1.59-.09-2.41s0-1.62.08-2.43c.08-1.64.19-3.3.3-5,.17-2.48.35-5,.52-7.46Z"/><path class="cls-1" d="M92.88,360.68c-2.47.5-5,.92-7.47,1.22-.91.11-1.81.3-2.74.36a65.82,65.82,0,0,1-9.73.21l-2.16-.11-2.16-.24a16.84,16.84,0,0,1-5.36-1.47c-.53-.24-.32-.52.26-.7a5.32,5.32,0,0,1,2.45,0,65.38,65.38,0,0,0,10.75.83c1.1,0,2.22-.09,3.34-.18l3.37-.44c1.23-.2,2.46-.36,3.68-.57s2.46-.43,3.67-.69c1.51-.31,3-.62,4.49-1,2.26-.56,4.52-1.17,6.7-1.93,1.69-.6,3.29-1.34,4.89-2.09l1-.5c1.31-.61,1.79-.65,2.34-.19a3.79,3.79,0,0,1,.37.31c.33.4-.06,1-1,1.56a44.85,44.85,0,0,1-9.31,3.83c-2.44.72-4.92,1.35-7.41,1.89Z"/><path class="cls-1" d="M76.91,377a64.64,64.64,0,0,0,13.63-1.19c1.65-.33,3.27-.79,4.9-1.2,2.87-.73,5.72-1.61,8.55-2.57s5.61-2.07,8.55-3.07c.22-.06.41-.14.64-.2l.35-.08c.11,0,.1,0,.18,0a1.05,1.05,0,0,1,.19-.05c.07,0,.1-.1.13-.15a2.56,2.56,0,0,0,.12-.43,15.29,15.29,0,0,0,.27-1.58,25.33,25.33,0,0,0,.16-3.26,22.78,22.78,0,0,0-.57-4.89,8.07,8.07,0,0,0-2.11-4.1c-.7-.56-.53-.9.51-.7a4,4,0,0,1,1.82,1.1,6.67,6.67,0,0,1,1.58,2.53,20.67,20.67,0,0,1,1.08,6.55,28.36,28.36,0,0,1-.18,3.31,15,15,0,0,1-.3,1.75,3.94,3.94,0,0,1-.55,1.37c-.1.23-.37.29-.51.49a5.54,5.54,0,0,1-.68.25,1.94,1.94,0,0,1-.48.16l-.21.05a2.87,2.87,0,0,0-.44.15l-.94.34-1.93.76c-1.3.52-2.62,1-4,1.53-4,1.48-8.13,3.05-12.36,4.16a69.32,69.32,0,0,1-14.25,2.22,44.05,44.05,0,0,1-4.45.07,41.28,41.28,0,0,1-4.44-.24,62.88,62.88,0,0,1-6.67-.92c-1.1-.18-2.18-.53-3.27-.77l-1.62-.4a7.79,7.79,0,0,1-1-.26,2.34,2.34,0,0,1-.93-.66,4.71,4.71,0,0,1-.83-1.53,10.74,10.74,0,0,1-.35-1.38,18,18,0,0,1-.26-2.7,22.56,22.56,0,0,1,.49-5.3,16.35,16.35,0,0,1,.62-2.3A7,7,0,0,1,59.08,361a2.05,2.05,0,0,1,1.63-.51,2.51,2.51,0,0,1,.62.1c.27.11.23.44.13.93a10.09,10.09,0,0,1-.62,2,21.57,21.57,0,0,0-1.19,8.19,15,15,0,0,0,.22,2,5.19,5.19,0,0,0,.2.82,1.82,1.82,0,0,0,.07.19h0l.93.22,2.22.54A58.8,58.8,0,0,0,76.9,377Z"/><path class="cls-1" d="M54.94,404.43c-.24-2.24-.4-4.5-.51-6.77,0-.82-.16-1.64-.16-2.47a69.15,69.15,0,0,1,.48-8.75c.09-.64.17-1.28.23-1.93s.12-1.29.22-1.93c.13-.81.22-1.64.41-2.45a16.6,16.6,0,0,1,.79-2.38c.2-.48.65-.26,1,.29a3.25,3.25,0,0,1,.57,2.3c-.16.78-.17,1.6-.29,2.38l-.19,1.18-.13,1.2c-.22,1.59-.33,3.21-.55,4.84-.08,1-.07,2-.07,3s.09,2,.14,3l.17,3.33.28,3.33c.16,1.37.28,2.74.49,4.1.28,2.07.59,4.14,1,6.17.32,1.59.86,3.09,1.22,4.66.08.34.18.68.25,1s.1.6.12.83a2,2,0,0,1-.1.61,1.36,1.36,0,0,1-.53.72,2.19,2.19,0,0,1-.33.23c-.36.17-.84-.3-1.29-1.16a44.26,44.26,0,0,1-2.32-8.61c-.41-2.23-.74-4.49-1-6.75Z"/><path class="cls-1" d="M121.38,392.57c-.32-2-.7-4-1.16-5.94-.16-.72-.39-1.41-.57-2.13-.6-2.53-1.31-5-2.16-7.49a31.8,31.8,0,0,0-1.33-3.18c-.66-1.31-1.31-2.6-1.89-3.95-.17-.43.09-.54.56-.37a3.89,3.89,0,0,1,1.69,1.34,25.11,25.11,0,0,1,2.11,4.13c.29.71.58,1.43.84,2.15s.48,1.47.7,2.21c.5,1.77,1.21,3.55,1.75,5.36.59,2,1.1,4,1.56,6,.27,1.25.55,2.49.79,3.74.4,1.89.65,3.81,1,5.7l.42,2.19c.16.72.31,1.45.41,2.2.05.32.12.64.15,1,0,1.24-.14,1.65-.83,1.9a2.9,2.9,0,0,1-.47.16c-.53.1-1-.38-1.18-1.22-.62-2.48-1-5.11-1.43-7.78-.37-2-.59-4-1-6Z"/><path class="cls-1" d="M183.19,216.73c-1.19.07-2.64,1.1-3.93,2.24a36.37,36.37,0,0,0-3.67,3.86,64.92,64.92,0,0,0-9.7,16.09,44.28,44.28,0,0,0-2.3,6.55,19.32,19.32,0,0,0-.75,6.65,25.26,25.26,0,0,0,1.78,6.55c.87,2.17,1.86,4.31,2.95,6.41,1.91,3.73,4.11,7.36,6.32,10.92,2.82,4.58,6,9,8.29,13.95.73,1.54.14,1.59-1.08.66a21.12,21.12,0,0,1-2.26-2.08,19,19,0,0,1-2.58-3.33c-2.91-4.66-5.86-9.33-8.6-14.18s-5.37-9.84-6.83-15.52c-.18-.87-.35-1.74-.48-2.64a19.75,19.75,0,0,1-.08-2.76,29,29,0,0,1,.86-5.27,50.09,50.09,0,0,1,3.69-9.79,72.81,72.81,0,0,1,5.81-9.78,45.29,45.29,0,0,1,7.57-8.59,11.85,11.85,0,0,1,3.16-2,6.43,6.43,0,0,1,3.92-.16,24.47,24.47,0,0,1,6.39,3.18c1.48.93,2.93,1.88,4.42,2.74s3,1.64,4.59,2.39,3.17,1.45,4.73,2.4a6.45,6.45,0,0,1,2.14,2,2.36,2.36,0,0,1,.32.8l.09.43,0,.44c0,.14,0,.29,0,.43l-.13.39a2.56,2.56,0,0,1-.32.71l-.3.51a5.32,5.32,0,0,1-.38.45,4.25,4.25,0,0,1-.86.79,10,10,0,0,1-1.91,1.11,16.57,16.57,0,0,1-4.07,1.08,26.67,26.67,0,0,1-8.27-.06l-1.79-.33-1.78-.47a17.55,17.55,0,0,1-2.71-1.1l-1-.52c-.28-.19-.52-.37-.73-.54a3.17,3.17,0,0,1-1.34-1.87,3.35,3.35,0,0,1-.17-.78c0-.34.47-.33,1.21-.07.37.13.79.35,1.34.55l.84.39c.3.13.64.25,1,.39a26.56,26.56,0,0,0,13.36,1.54,18.72,18.72,0,0,0,3.16-.8,6.85,6.85,0,0,0,1.27-.65l.28-.17a1.8,1.8,0,0,1,.19-.2,1.37,1.37,0,0,0,.37-.42,1.06,1.06,0,0,0,.29-.64s-.11-.28-.36-.57a12.67,12.67,0,0,0-2.72-1.76c-1.59-.84-3.33-1.6-5-2.46s-3.4-1.86-5-2.86-3.17-2-4.72-2.85a8.58,8.58,0,0,0-4.42-1.35Z"/><path class="cls-1" d="M180.47,239.38l-1.28,2.51c-.15.31-.27.63-.44.94a24,24,0,0,1-2.05,3.06l-1,1.29c-.22.27-.43.55-.66.81a4.73,4.73,0,0,1-.81.67c-.19.12-.37-.13-.47-.48a1.29,1.29,0,0,1,.1-1.09c.77-1,1.4-2.14,2.23-3.19a10.42,10.42,0,0,0,1.14-2.17c.39-.82.77-1.66,1.14-2.51l.67-1.57c.33-.81.7-1.6,1-2.42.22-.64.36-1.31.6-1.95a1.07,1.07,0,0,1,.18-.41c.35-.46.58-.54,1-.45a2.14,2.14,0,0,1,.27.06.88.88,0,0,1,.44.86,7.7,7.7,0,0,1-.88,3.51l-1.13,2.54Z"/><path class="cls-1" d="M197.33,252.27a16.13,16.13,0,0,1-3.51,1.32c-.32.08-.67.11-1,.17a7.59,7.59,0,0,1-1.07,0,4.52,4.52,0,0,1-2.24-.68,4.66,4.66,0,0,1-1.28-1.22,3.61,3.61,0,0,1-.43-.76,2.69,2.69,0,0,1-.22-1,6.31,6.31,0,0,1,.47-2.63,18,18,0,0,1,.95-2.13,44.74,44.74,0,0,1,2.24-3.89l2.12-3.29a20.9,20.9,0,0,1,1.42-2.06,12.26,12.26,0,0,1,.82-.94q.47-.44,1-.84c.45-.31.6-.11.69.49a6.54,6.54,0,0,1,.06,1.15,4.12,4.12,0,0,1-.05.7,3.23,3.23,0,0,1-.25.65,71.22,71.22,0,0,1-5.46,8.27,10.43,10.43,0,0,0-1.27,2.6c-.28.88-.42,1.81-.17,2.11a2,2,0,0,0,1.86,1.09,7.92,7.92,0,0,0,2.93-.68,20.54,20.54,0,0,0,3.58-1.9,33.5,33.5,0,0,0,5-3.81,29.64,29.64,0,0,0,3.13-3.62c.22-.27.39-.57.6-.84a3.53,3.53,0,0,1,.91-1,1.11,1.11,0,0,1,.39-.16,3.53,3.53,0,0,1,.46,0c.14,0,.28,0,.37,0,.28,0,.63.85.09,1.8a27,27,0,0,1-6.22,6.95,33.33,33.33,0,0,1-2.74,2.27,30.67,30.67,0,0,1-3.09,1.89Z"/><path class="cls-1" d="M212.22,215.55a9.34,9.34,0,0,1,1.46-.53,6.06,6.06,0,0,1,1.72-.15,4.67,4.67,0,0,1,3.12,1.49,6.84,6.84,0,0,1,1.34,1.84,11.94,11.94,0,0,1,.83,3.49,29.22,29.22,0,0,1,.2,3.35c0,1,0,2,0,2.94l0,.94c0,.31-.07.62-.13.93a4.51,4.51,0,0,1-.71,1.81c-.26.35-.5.22-.89-.18a9.68,9.68,0,0,1-.64-.76,1.7,1.7,0,0,1-.45-1,39.6,39.6,0,0,1,.23-7,7.17,7.17,0,0,0-1-3.83A3.42,3.42,0,0,0,216,217.6a2.6,2.6,0,0,0-1.76-.09,7.54,7.54,0,0,0-2.46,1.25,18,18,0,0,0-3.4,3,32.29,32.29,0,0,0-2.11,2.89c-.15.21-.28.44-.44.65a1.74,1.74,0,0,1-.79.68,1,1,0,0,1-.38,0,3.33,3.33,0,0,1-.45-.13l-.36-.12a1.19,1.19,0,0,1-.17-1.49,26.29,26.29,0,0,1,4.16-5.34,21.42,21.42,0,0,1,1.91-1.9,13.62,13.62,0,0,1,2.42-1.57Z"/><path class="cls-1" d="M203.59,252a58.43,58.43,0,0,1,7.15-10.13c1-1.14,1.93-2.3,3-3.37a49.33,49.33,0,0,1,6-5.22,26.23,26.23,0,0,1,3.45-2.14,11.17,11.17,0,0,1,4.13-1.28,5.18,5.18,0,0,1,2.16.31,4.42,4.42,0,0,1,1.77,1.31,8.3,8.3,0,0,1,1.63,3.54,14.51,14.51,0,0,1,.27,4.68,14.77,14.77,0,0,1-1.28,4.42c-.42.86-.75.56-1-.31a21.36,21.36,0,0,1-.48-3.85c0-.34,0-.68,0-1a8.29,8.29,0,0,0,0-1,13.21,13.21,0,0,0-.25-1.93,5.06,5.06,0,0,0-1.36-2.78,1.49,1.49,0,0,0-.89-.39,2.68,2.68,0,0,0-.7,0c-.27,0-.55.08-.84.16a16,16,0,0,0-3.68,1.62,38.71,38.71,0,0,0-8,7,61.35,61.35,0,0,0-7.33,9.38,34.2,34.2,0,0,0-1.77,3.18,15.61,15.61,0,0,0-1.25,3.3,5.65,5.65,0,0,0-.14,2.39,1,1,0,0,0,1.23.78,7.15,7.15,0,0,0,2.38-.81,21.52,21.52,0,0,0,2.32-1.42,53.35,53.35,0,0,0,6.44-5.58l1.32-1.33c1.74-1.57,2.4-1.95,3.23-1.84a2.35,2.35,0,0,1,.55.08c.51.18.13,1.18-1,2.55a44.9,44.9,0,0,1-5.69,5.68c-1,.89-2.14,1.75-3.31,2.56a21.58,21.58,0,0,1-3.88,2.21,9,9,0,0,1-1.89.54l-.56,0a6,6,0,0,1-.74,0,3.75,3.75,0,0,1-1.41-.48,2.56,2.56,0,0,1-.58-.46,3,3,0,0,1-.48-.58,5.32,5.32,0,0,1-.57-1.31c-.06-.37-.13-.75-.15-1.1l0-1a18.53,18.53,0,0,1,2.17-6.4Z"/><path class="cls-1" d="M171.13,174.8a51.52,51.52,0,0,1,.41-8.33,8.38,8.38,0,0,1,.75-2.38,4.08,4.08,0,0,1,4.47-2.12,4.35,4.35,0,0,1,1.49.66,7.49,7.49,0,0,1,1.81,1.85,23.42,23.42,0,0,1,2.78,5.64,84.58,84.58,0,0,1,2.65,10.14c.7,3.39,1.29,6.78,1.85,10.18.51,3,1,6,1.54,9,.32,1.92.66,3.83,1,5.76s.42,3.87.59,5.78c.11,1.16-.4,1.15-1.15.24a13,13,0,0,1-2.25-4.87c-1.53-7.78-2.61-15.58-3.94-23.39a65.37,65.37,0,0,0-4-13.76,15.08,15.08,0,0,0-1.77-3.18,3.51,3.51,0,0,0-1-.93.84.84,0,0,0-.8,0,.79.79,0,0,0-.34.21,1.64,1.64,0,0,0-.25.48,11.62,11.62,0,0,0-.45,1.7,32.06,32.06,0,0,0-.47,3.86,84.85,84.85,0,0,0,0,9.83c.24,5,.64,10,1.27,14.9.47,3.82,1.25,7.53,1.93,11.26.17.82.33,1.62.49,2.44.47,3.08.58,4,.26,4.84-.06.17-.09.4-.14.51-.1.37-1-.72-1.8-3a45.23,45.23,0,0,1-1.47-5.06c-.43-1.72-.76-3.47-1.06-5.24-.6-3.54-1.08-7.14-1.46-10.76-.57-5.38-.95-10.81-1-16.28Z"/><path class="cls-1" d="M213.82,168.11a36.14,36.14,0,0,0,.5-4.33,13.72,13.72,0,0,0,0-2,3.92,3.92,0,0,0-.15-.81c0-.14,0-.06,0-.12a.13.13,0,0,0-.06-.07l0,0-.17-.08a3,3,0,0,0-.39-.13,1.36,1.36,0,0,0-.39-.08,1.23,1.23,0,0,0-.38,0,3.21,3.21,0,0,0-1.53.36,8.66,8.66,0,0,0-2.81,2.6,29.88,29.88,0,0,0-3,5.49c-3,6.9-5,14.4-6.7,21.86-.75,3.33-1.36,6.71-1.9,10.05-.75,4.29-1.31,8.62-2.37,12.87-.3,1.34-.49,1.12-.66-.06-.09-.59-.16-1.43-.27-2.44,0-.51-.11-1.06-.12-1.64s0-1.18.11-1.81c.23-2.23.46-4.45.78-6.67s.75-4.42,1.18-6.62c.87-4.4,1.87-8.8,3.17-13.14,1.57-5.18,3.06-10.65,5.62-15.72a24.64,24.64,0,0,1,2.52-4,9.47,9.47,0,0,1,3.94-3.15,5.33,5.33,0,0,1,2.74-.29,5.64,5.64,0,0,1,1.31.37l.31.14a2.19,2.19,0,0,1,1,.82,3.29,3.29,0,0,1,.37.79,4.33,4.33,0,0,1,.16.67,11.05,11.05,0,0,1,.13,1.25,23.11,23.11,0,0,1-.07,2.37,109.29,109.29,0,0,1-1.7,11.13c-1.07,5.55-2.33,11.07-3.35,16.56-.79,4.26-1.37,8.48-1.82,12.7-.1.93-.15,1.84-.22,2.76-.14,1.72-.19,2.82-.33,3.59a4.86,4.86,0,0,1-.3.95,5.48,5.48,0,0,1-.44.69c-.13.19-.21.44-.3.57s-.4,0-.83-.65a5.72,5.72,0,0,1-.74-3.1c-.08-8,1.83-15.93,3.57-23.88,1.28-5.9,2.7-11.8,3.64-17.68Z"/><path class="cls-1" d="M223.52,270.63c-1.21,2.21-2.53,4.37-3.92,6.48-.49.77-1,1.56-1.51,2.31a89.78,89.78,0,0,1-6.27,7.37L209,290c-.62.68-1.24,1.37-1.91,2a11.86,11.86,0,0,1-2.26,1.64c-.51.28-.69-.12-.59-.77a4.65,4.65,0,0,1,1.12-2.28c2.5-2.43,4.73-5.34,7.32-8a38,38,0,0,0,4-5.37q2-3.06,3.83-6.32c.72-1.33,1.43-2.68,2.1-4.06,1-2.08,2-4.19,2.81-6.34.64-1.67,1.09-3.37,1.59-5.07.12-.37.21-.75.34-1.12.47-1.37.81-1.74,1.6-1.79a3.17,3.17,0,0,1,.53,0c.58.06.81.78.6,1.85a46,46,0,0,1-3.16,9.45c-1,2.32-2.14,4.6-3.31,6.85Z"/><path class="cls-1" d="M205.31,308.16l.66-3.81c.08-.46.09-.93.19-1.39.37-1.62.74-3.24,1.1-4.85.17-.72.29-1.45.4-2.16a12.34,12.34,0,0,1,.57-2.75c.11-.28.45-.18.78.11a1.89,1.89,0,0,1,.64,1.35,24.09,24.09,0,0,1-.76,5.65,30.33,30.33,0,0,0-.49,3.46l-.63,3.81-.36,2.36c-.17,1.19-.36,2.38-.45,3.57-.06.93-.06,1.84-.1,2.76a4.09,4.09,0,0,1-.07.6c-.14.74-.33,1-.79,1.08a1.73,1.73,0,0,1-.31.07c-.33,0-.59-.3-.72-.87a13.93,13.93,0,0,1-.22-5.15c.13-1.28.33-2.56.5-3.85Z"/><path class="cls-1" d="M159.67,362.6c1.33-5.61,2.75-11.2,4.2-16.78.53-2,1-4.08,1.56-6.11,2-7.14,4-14.25,6.07-21.37.9-3.15,1.7-6.35,2.52-9.5,1-4,2-8.16,3-12.09.21-1.15.64-1.1,1.06.1a11,11,0,0,1,.38,2.43,11.91,11.91,0,0,1-.26,3.34c-1.76,8.44-4.22,16.6-6.77,24.84-1.53,4.93-2.78,10.14-4.14,15.23-1.5,5.59-3,11.18-4.4,16.8-.85,3.46-1.7,6.93-2.47,10.4-1.17,5.26-2.29,10.57-3.14,15.85-.66,4.11-1.06,8.17-1.37,12.25,0,.9-.12,1.78-.16,2.68-.12,1.67-.26,2.78-.38,3.55a4.14,4.14,0,0,1-.57,1.58,4.56,4.56,0,0,1-.3.48c-.17.16-.31-.1-.45-.72a14,14,0,0,1-.34-2.86c0-.94-.05-1.88,0-2.82s.1-1.89.14-2.84c.13-1.9.28-3.82.51-5.74.42-3.85,1-7.72,1.71-11.58,1-5.73,2.25-11.44,3.53-17.12Z"/><path class="cls-1" d="M217.53,334.1c-.52,7.08-1.42,14.06-2.33,21-.36,2.55-.63,5.1-1,7.63-1.35,8.94-2.84,17.84-4.29,26.75-.65,3.95-1.23,7.93-1.79,11.86-.74,5.05-1.43,10.13-2.44,15.13-.32,1.56-.8,1.28-1.14-.13a21.39,21.39,0,0,1-.19-6.87l1-7.76c.35-2.58.75-5.15,1.14-7.73q1.2-7.74,2.54-15.49c1.08-6.19,1.81-12.68,2.64-19,.89-7,1.83-14,2.46-21a82.73,82.73,0,0,0,.45-12.83,7.66,7.66,0,0,0-.14-1.09l-.06-.3-.25-.23c-.24-.19-.51-.49-.82-.7l-1-.64a30.33,30.33,0,0,0-4.26-2.15,63.74,63.74,0,0,0-9.25-2.94,73.43,73.43,0,0,0-14.74-1.86l-3.21,0c-4,.15-5.14.31-6.19-.27a4.39,4.39,0,0,1-.72-.39c-.28-.24,0-.57.66-1a8.07,8.07,0,0,1,1.42-.64c.59-.17,1.28-.34,2.07-.49a50.33,50.33,0,0,1,14.18.23,76.91,76.91,0,0,1,14.14,3.38c.86.33,1.72.62,2.58,1s1.71.72,2.55,1.14l1.27.66.63.34.62.4,1.25.83,1.42,1.25c.14.14.34.28.47.44l.13.65.23,1.1c.06.5.1,1,.15,1.48.05.94.09,1.89.08,2.8,0,1.84-.1,3.63-.19,5.43Z"/><path class="cls-1" d="M268.41,298.18l.63,2.65c.11.46.22.86.34,1.25a10.33,10.33,0,0,0,.39,1.19,22.56,22.56,0,0,0,2.33,4.56,35.32,35.32,0,0,0,2.36,3,55.46,55.46,0,0,0,10.13,9.3,52.71,52.71,0,0,0,5.23,3.29c1.13.67,2.3,1.29,3.45,1.94a22.26,22.26,0,0,1,3.35,2.17c.67.55.41.78-.44.91a7.52,7.52,0,0,1-1.69.11,5.16,5.16,0,0,1-2.11-.48c-1.26-.57-2.51-1.18-3.74-1.82s-2.38-1.42-3.54-2.19a53.41,53.41,0,0,1-6.59-5.18,61.52,61.52,0,0,1-7.27-7.34,28.87,28.87,0,0,1-3.09-4.87A23.43,23.43,0,0,1,267,304c-.32-.92-.58-1.89-.79-2.77-.54-2.21-1.05-4.44-1.5-6.69a79.92,79.92,0,0,1-1.42-10.33c-.11-1.27-.31-2.63-.39-4a27.94,27.94,0,0,1,0-4.09c.07-.6.11-1.2.23-1.81A6,6,0,0,1,264,272a1.58,1.58,0,0,1,1.07-.73,3.25,3.25,0,0,1,.53-.12c.5,0,.65,1,.46,2.45a31.83,31.83,0,0,0-.19,6.71c.06,1.17.19,2.26.29,3.61.07,1.18.18,2.37.32,3.56a79.6,79.6,0,0,0,2,10.64Z"/><path class="cls-1" d="M260.15,226.73a20.82,20.82,0,0,0-2.45-4c-.29-.32-.26-.28-.32-.32a.17.17,0,0,0-.17,0,.21.21,0,0,0-.08.06l-.2.23a4.87,4.87,0,0,0-.55.84,10.86,10.86,0,0,0-1,4.32,26.73,26.73,0,0,0,.22,4.87,56.79,56.79,0,0,0,1.55,7.18,180.43,180.43,0,0,0,9,24.72l2.37,5.39,1.18,2.71a28.48,28.48,0,0,1,1.09,2.84,6.3,6.3,0,0,1,.21,1.05c0,.33.08.67.09,1,0,.65.06,1.29.07,1.92,0,1.27,0,2.52,0,3.77a44.82,44.82,0,0,0,.23,7.29c.06.36.11.58.12.75s0,.27-.13.31-.57-.15-1-.76a13.9,13.9,0,0,1-1.68-6.68c0-1.29,0-2.57-.06-3.83a30.56,30.56,0,0,0-.2-3.59,17.43,17.43,0,0,0-1.19-3.18l-1.56-3.47c-2.08-4.67-4.07-9.42-5.87-14.28-2.13-5.81-4.51-11.83-6-18.09a36.27,36.27,0,0,1-1.09-10.65,11.43,11.43,0,0,1,1.69-5.43,2.55,2.55,0,0,1,.45-.6l.59-.64a2.21,2.21,0,0,1,1.73-.77,3,3,0,0,1,1.78.79,8.75,8.75,0,0,1,1.05,1.14,33.6,33.6,0,0,1,3.27,5.72c.93,2,1.78,3.91,2.61,5.88,2.52,6,4.85,12,7.4,17.88a111.77,111.77,0,0,0,6.68,13c.56.9,1.14,1.76,1.75,2.62,1.12,1.6,1.93,2.51,2.45,3.18a6.91,6.91,0,0,1,1,1.63c.09.23.27.46.32.65s-.29.46-1.15.24a7.16,7.16,0,0,1-3.1-2.08,33.9,33.9,0,0,1-4.13-5.61c-1.2-2-2.28-4-3.32-6.1-2-4.17-3.91-8.46-5.67-12.79q-1.94-4.8-3.87-9.64c-1.31-3.19-2.63-6.39-4.14-9.39Z"/><path class="cls-1" d="M287.76,258.63a16.42,16.42,0,0,1,1.75,1.45l.82.77.74.82a11,11,0,0,1,1.07,1.19,29.31,29.31,0,0,1,2.88,4.73c.39.71.77,1.42,1.15,2.13a10.17,10.17,0,0,1,1.11,2.86c.06.33-.32.43-.8.35a2.12,2.12,0,0,1-1.4-.82,54.75,54.75,0,0,1-2.88-5.19,14.25,14.25,0,0,0-2.22-2.86c-.45-.48-.92-.95-1.38-1.41s-1-.89-1.52-1.25l-1-.69c-.34-.21-.71-.38-1.07-.57a10.27,10.27,0,0,0-1.68-.7,7.21,7.21,0,0,0-1.77-.4c-.24,0-.47-.06-.7-.06l-.7,0c-.46.06-.92.07-1.37.17-.2,0-.39.11-.6.14-.74.09-1-.14-1.28-.81a4.62,4.62,0,0,1-.19-.47c-.17-.52.1-1,.72-1.3a8.61,8.61,0,0,1,1.43-.49,15.44,15.44,0,0,1,1.54-.15,4.94,4.94,0,0,1,1.58.07c.52.09,1.05.19,1.56.32a21.18,21.18,0,0,1,2.21.88,17.5,17.5,0,0,1,2,1.18Z"/><path class="cls-1" d="M297.78,257.94a15.67,15.67,0,0,1,2.82,2.4,11.26,11.26,0,0,1,.9.93A30.94,30.94,0,0,1,304,265c.34.56.67,1.12,1,1.66a6.53,6.53,0,0,1,1.11,2.24c.05.26-.38.44-.9.47a1.7,1.7,0,0,1-1.41-.43c-.47-.64-.94-1.28-1.38-1.93a19.24,19.24,0,0,1-1.2-2.07,10.16,10.16,0,0,0-1.88-2.21,20.17,20.17,0,0,0-2.32-2.11c-.26-.19-.53-.34-.8-.52l-.4-.26-.43-.18a6,6,0,0,0-1.34-.49l-.69-.16c-.23,0-.46,0-.7,0a2.55,2.55,0,0,0-1.05.2l-1,.33a2.3,2.3,0,0,1-.42.2.93.93,0,0,1-.66,0,1.59,1.59,0,0,1-.54-.48l-.24-.28a.77.77,0,0,1-.11-.56,1.16,1.16,0,0,1,.37-.67,4.78,4.78,0,0,1,1-.81,11.92,11.92,0,0,1,1.27-.48,4.47,4.47,0,0,1,1.37-.14,5.32,5.32,0,0,1,1.38.09,8.05,8.05,0,0,1,2,.57l.92.39.83.49Z"/><path class="cls-1" d="M309.38,232.48c1.75,7.54,3.19,15.09,4.88,22.56.31,1.36.65,2.71,1,4.06l.54,2,.61,1.95c1.48,4.61,3.45,9.14,5.11,13.87a44.84,44.84,0,0,1,2.92,14.87c-.1,2.34-.4,4.47-.65,6.68s-.53,4.35-.8,6.52c-.32,2.77-.68,5.55-1.05,8.32s-.7,5.54-1.21,8.29c-.31,1.71-.61,1.46-1-.05a24.84,24.84,0,0,1-.48-7.53c.25-2.85.43-5.71.8-8.54s.67-5.66,1-8.49c.16-1.4.32-2.82.41-4.17,0-.35,0-.64.05-1l0-1c0-.67,0-1.35-.12-2a44.62,44.62,0,0,0-1.58-8.12c-1.81-6.48-5.3-12.87-7.18-19.87-1.92-7.6-3.35-15.19-5-22.74-.51-2.33-1-4.65-1.59-6.95l-.86-3.48c-.27-1.15-.56-2.28-.89-3.4a21.05,21.05,0,0,0-1.29-3.39l-.15-.28c0-.08-.09-.15-.13-.22a3.12,3.12,0,0,0-.32-.4.74.74,0,0,0-.94-.14,1.5,1.5,0,0,0-.48.81,4.07,4.07,0,0,0-.14.54c0,.26-.1.53-.14.81a27,27,0,0,0-.26,3.39,63.87,63.87,0,0,0,.28,6.91c.48,5.52,1.38,10.89,2.33,16.29.23,1.19.44,2.35.67,3.55s.35,2,.47,2.81.14,1.41.16,1.94a5.28,5.28,0,0,1-.28,2.22,6,6,0,0,1-.27.71c-.31.53-1.22-1.2-2.08-4.43-1.1-4.83-2-9.83-2.72-15a125.62,125.62,0,0,1-1.29-15.74,26.92,26.92,0,0,1,.16-3.43c.05-.32.07-.56.16-1a10.34,10.34,0,0,1,.47-1.49,4,4,0,0,1,1.82-2.07,4.2,4.2,0,0,1,.85-.27,3,3,0,0,1,.9,0,3.37,3.37,0,0,1,1.64.64,6.23,6.23,0,0,1,1.34,1.45c.18.27.39.62.52.85s.19.38.27.56a29,29,0,0,1,1.53,4.28c.4,1.39.73,2.84,1.05,4.13l1,4.13Z"/><path class="cls-1" d="M297.68,339.39c.09.9.16,1.8.27,2.7,0,.33.15.64.18,1,.12,1.16.23,2.31.42,3.45.09.51.24,1,.37,1.48a5.82,5.82,0,0,1,.46,1.89c0,.22-.42.34-.89.32a1.42,1.42,0,0,1-1.2-.54,11.4,11.4,0,0,1-.74-1.94,11.73,11.73,0,0,1-.27-2.06,17.24,17.24,0,0,0-.48-2.46c-.16-.91-.29-1.81-.42-2.72l-.24-1.67c-.13-.84-.22-1.69-.43-2.51a6.27,6.27,0,0,0-.32-.92c-.09-.31-.2-.61-.29-.92,0-.14-.09-.27-.12-.41a.8.8,0,0,1,.51-1l.28-.15a.86.86,0,0,1,1,.35,7.45,7.45,0,0,1,1,1.61,15.07,15.07,0,0,1,.49,1.78c.2.89.33,1.8.49,2.69Z"/><path class="cls-1" d="M310.54,394.66q-1.59-3.44-3.09-6.93c-.37-.84-.79-1.66-1.13-2.52-1.25-3-2.33-6.08-3.38-9.17-.43-1.39-1-2.74-1.36-4.13l-.43-1.33c-.11-.46-.23-.92-.32-1.38a9.4,9.4,0,0,1-.21-1.41c0-.49,0-1,0-1.46s.52-.5,1.06,0a4.1,4.1,0,0,1,.79.89,3.91,3.91,0,0,1,.31.57,3.14,3.14,0,0,1,.28.68c.81,3.42,2,6.91,3.14,10.46.36,1.06.79,2.12,1.24,3.17s1,2.09,1.42,3.14c1,2.3,2.06,4.59,3.15,6.87.67,1.4,1.34,2.8,2.05,4.18,1.07,2.09,2.13,4.21,3.31,6.22.92,1.56,2,3,3,4.47.22.32.46.62.68.95.79,1.23.91,1.68.5,2.35a3.29,3.29,0,0,1-.28.44c-.36.42-1.06.16-1.81-.68a45,45,0,0,1-5.54-8.47c-1.21-2.24-2.33-4.54-3.45-6.83Z"/><path class="cls-1" d="M292.28,351a2.75,2.75,0,0,0-3.4,1.64c-1.14,2.43-.69,5,1.31,4.77s3.27-3.51,3-4.77A2.31,2.31,0,0,0,292.28,351Z"/><path class="cls-1" d="M300.48,355s-2.6.64-2.37,2.41,2,3.18,3.19,2S302.93,355.52,300.48,355Z"/><path class="cls-1" d="M314.8,355.68s-3.86-.94-4.61,2.13.25,4.37,2.13,4.11,3.48-2.37,3.12-4A11.55,11.55,0,0,0,314.8,355.68Z"/><path class="cls-1" d="M328.33,350.84c-.61.26-2.91.54-3.14,2.72s.48,4.09,2.49,3.18,3.35-3.67,2.64-4.77A2.58,2.58,0,0,0,328.33,350.84Z"/><path class="cls-1" d="M335.22,336.65c-.32.08-3.55,1.11-2.37,3.79s3.67,2.44,4.56.59.45-3.51-.59-4.16S335.22,336.65,335.22,336.65Z"/><path class="cls-1" d="M292.64,356.9a3.16,3.16,0,0,1-1.86,1.2,2.73,2.73,0,0,1-2.23-.52,3.92,3.92,0,0,1-1-1,3.69,3.69,0,0,1-.64-2.38,5.19,5.19,0,0,1,.67-2.12,11,11,0,0,1,1-1.56,4.91,4.91,0,0,1,1.77-1.52c.23-.1.32.11.3.42a2,2,0,0,1-.33,1,9.56,9.56,0,0,0-1.87,3.42,1.86,1.86,0,0,0,.67,1.83c.65.58,1.1.83,1.72.42a2.93,2.93,0,0,0,1-1.21,4.43,4.43,0,0,0,.41-2.53,2.26,2.26,0,0,0-.89-1.49c-.11,0-.19-.11-.3-.15a.7.7,0,0,1-.5-.75c0-.1,0-.21,0-.31,0-.34.31-.62.89-.5a3,3,0,0,1,2,1.71,5,5,0,0,1,.43,2.51,6.82,6.82,0,0,1-1.2,3.51Z"/><path class="cls-1" d="M303.93,359.08a4.73,4.73,0,0,1-.51.9,6.74,6.74,0,0,1-.73.78,4.27,4.27,0,0,1-1.9.87l-.72.1a3.38,3.38,0,0,1-2.91-1.36,4.53,4.53,0,0,1-.94-2,7.63,7.63,0,0,1-.22-1.83,2.86,2.86,0,0,1,.8-2.23c.2-.18.5.14.76.52s.58.76.56,1a6.34,6.34,0,0,0,.53,2.71,1.17,1.17,0,0,0,1.18.67,1.68,1.68,0,0,0,1.5-.64,2.45,2.45,0,0,0,.46-1.15,2.15,2.15,0,0,0-.54-1.79,1.3,1.3,0,0,0-.61-.3,2.74,2.74,0,0,0-.7,0,1.54,1.54,0,0,1-.31,0c-.4.1-.56,0-.82-.59-.06-.13-.13-.25-.18-.37a.81.81,0,0,1,.41-1.09,3.58,3.58,0,0,1,2.54-.24,4,4,0,0,1,2.29,1.92,5.07,5.07,0,0,1,.12,4.07Z"/><path class="cls-1" d="M316.38,361.22a8.3,8.3,0,0,1-.65.94,5.64,5.64,0,0,1-.88.81,3.86,3.86,0,0,1-1.09.55l-.58.18-.53.05a4.52,4.52,0,0,1-1.63-.06,3.35,3.35,0,0,1-2.26-2,4.9,4.9,0,0,1-.27-2.53,10.33,10.33,0,0,1,.45-2,4,4,0,0,1,1.46-2.2c.24-.16.41.12.51.51a2.53,2.53,0,0,1,.11.6,1.14,1.14,0,0,1-.06.59,7.81,7.81,0,0,0-.45,3.82,1,1,0,0,0,.42.75c.13,0,.21.15.37.14a1.17,1.17,0,0,1,.2.06h.25a2.39,2.39,0,0,0,2.06-.79,4,4,0,0,0,.7-1.5,4.22,4.22,0,0,0-.16-2.61,1.47,1.47,0,0,0-1.23-.92c-.08,0-.18,0-.27,0-.3,0-.49-.15-.76-.79l-.2-.42c-.21-.46,0-1,.64-1.27a3.07,3.07,0,0,1,1.72,0,3.81,3.81,0,0,1,.44.15c.14.07.26.15.39.23a3.06,3.06,0,0,1,.7.57,5.06,5.06,0,0,1,1.31,2.84,7.2,7.2,0,0,1-.65,4.24Z"/><path class="cls-1" d="M330.86,355.21a4.51,4.51,0,0,1-2.57,2.66,3.87,3.87,0,0,1-.67.2,2,2,0,0,1-.7.09,3.11,3.11,0,0,1-2.28-1.16,4.31,4.31,0,0,1-.84-1.95,10.85,10.85,0,0,1-.16-1.69,3.11,3.11,0,0,1,.53-2.09c.16-.2.49,0,.8.34s.66.65.67.91a15.12,15.12,0,0,0,.48,2.78c.08.2.21.39.37.41s.17,0,.24.05.19,0,.32,0,.29,0,.38-.07a.85.85,0,0,0,.34-.15,1.88,1.88,0,0,0,.61-.64,3.19,3.19,0,0,0,.44-1.22,2.85,2.85,0,0,0-.29-1.93,1.29,1.29,0,0,0-1-.52,1,1,0,0,1-.24,0c-.31,0-.49-.22-.69-.69l-.14-.31c-.14-.33,0-.69.46-1a1.21,1.21,0,0,1,.59-.19,2.5,2.5,0,0,1,.67-.06,6.6,6.6,0,0,1,.73.13,3.82,3.82,0,0,1,.66.35,4.07,4.07,0,0,1,1.53,2.24,5.86,5.86,0,0,1-.15,3.52Z"/><path class="cls-1" d="M339.28,338.37a4.75,4.75,0,0,1-1,3.53,4.43,4.43,0,0,1-.93,1,3.93,3.93,0,0,1-2.27.59,5.32,5.32,0,0,1-2-.45,4.78,4.78,0,0,1-1.59-1.11,2.61,2.61,0,0,1-.39-.62c-.05-.12-.1-.24-.14-.36v-.39a1.68,1.68,0,0,1,.52-1.26c.19-.2.52.13.84.49l.44.51c.15.14.28.2.28.22s0,0,.12,0a3.56,3.56,0,0,0,.32.21,8.35,8.35,0,0,0,1.25.56,1.5,1.5,0,0,0,1.44-.34,2.73,2.73,0,0,0,.89-1.71,2.38,2.38,0,0,0-.25-1.21,2.18,2.18,0,0,0-1.43-1.21,1.89,1.89,0,0,0-1.26.41,1.31,1.31,0,0,1-.24.17c-.08,0-.15.09-.22.11a.61.61,0,0,1-.26,0,2,2,0,0,1-.54-.24c-.09-.06-.18-.1-.26-.16-.25-.16-.34-.53-.19-1.11a3.72,3.72,0,0,1,.81-.94,2.66,2.66,0,0,1,1.27-.52,3.83,3.83,0,0,1,2.73.57,4.79,4.79,0,0,1,2.16,3.25Z"/><path class="cls-1" d="M430,195.68a24.31,24.31,0,0,1-2.28,5l-1.29,2.21c-.21.37-.41.72-.59,1.06l-.24.48-.26.58c-1.39,3.09-2.69,6.17-3.81,9.33-.8,2.3-1.47,4.64-2.06,7a52.09,52.09,0,0,0-1.24,6.26c-.17,1.05-.22,2.1-.32,3.15,0,.52,0,1.05,0,1.57a11.73,11.73,0,0,0,0,1.57c0,.52,0,1.06.09,1.55s.15,1,.25,1.53l.64,3.2c.43,2.14.85,4.31,1.2,6.49a70,70,0,0,1,1,11.76,26.22,26.22,0,0,1-1.12,7.61,11.61,11.61,0,0,1-4.66,6.25c-1.46.79-1.35.39-.6-.72a22.39,22.39,0,0,0,1.2-2.34,30.4,30.4,0,0,0,1.15-3.29c1.47-4.3,1.3-9.29.78-14.13-.3-2.44-.67-4.89-1.07-7.36s-.9-4.92-1.3-7.51a38.68,38.68,0,0,1,.09-9.68,57.46,57.46,0,0,1,2-9.36,91.67,91.67,0,0,1,3.57-9.76c.67-1.59,1.39-3.17,2.1-4.72.83-1.71,1.78-3,2.58-4.54a19.43,19.43,0,0,0,1.32-2.72,6.35,6.35,0,0,0,.54-2.63c0-1.49-2.15-1.63-4-1.19a16,16,0,0,0-7.6,4.79,19.8,19.8,0,0,0-2.74,3.7,33.84,33.84,0,0,0-2,4.22c-.91,2.27-1.61,4.57-2.47,6.9a37.47,37.47,0,0,1-3.23,6.73c-.59.93-1.17,1.85-1.85,2.73a15.17,15.17,0,0,1-3,3.16,6.75,6.75,0,0,1-1,.61,6.26,6.26,0,0,1-.88.18c-.24,0-.5.13-.63.15-.38.14.29-1.55,2.11-3.71a38.16,38.16,0,0,0,6.43-11c.74-2.06,1.45-4.28,2.3-6.46a29.71,29.71,0,0,1,3.28-6.48,21.31,21.31,0,0,1,8.38-7.22c.43-.21.89-.38,1.34-.56a13.28,13.28,0,0,1,1.44-.41,7.37,7.37,0,0,1,3.26-.1,4.69,4.69,0,0,1,1.85.77,3.11,3.11,0,0,1,.83.79,3.26,3.26,0,0,1,.57,1,5.87,5.87,0,0,1,0,3.6Z"/><path class="cls-1" d="M372,226.11a40.08,40.08,0,0,1-5.48-4.23,15.53,15.53,0,0,1-4.23-6,8.38,8.38,0,0,1-.48-3,5.07,5.07,0,0,1,1.36-3.12,7.84,7.84,0,0,1,2.09-1.58,11.92,11.92,0,0,1,2.25-.91,17.52,17.52,0,0,1,4.56-.63,24.75,24.75,0,0,1,8.74,1.59,34,34,0,0,1,10.9,6.43A17.57,17.57,0,0,1,395,218.4c.57.86.19,1-.75.71-.48-.13-1.08-.39-1.79-.67a10.67,10.67,0,0,1-2.07-1.32,34.47,34.47,0,0,0-3.77-2.74,42.92,42.92,0,0,0-4-2.27,26.28,26.28,0,0,0-8.77-2.61,13.38,13.38,0,0,0-5.42.52,8,8,0,0,0-2.3,1.16,3.15,3.15,0,0,0-1.22,1.6,1.63,1.63,0,0,0-.06.47c0,.21,0,.43.05.64a5.74,5.74,0,0,0,.31,1.32,9.65,9.65,0,0,0,1.44,2.56,22.08,22.08,0,0,0,4.57,4.36,49.3,49.3,0,0,0,6.83,4.18,29,29,0,0,0,5.56,2.27,9.48,9.48,0,0,0,5.57.11,3.07,3.07,0,0,0,1.83-2c.06-.14,0-.22.05-.33s0-.23,0-.34a7,7,0,0,0-2.54-3c-.51-.39-1.06-.74-1.59-1.14a13,13,0,0,1-2.07-1.7,2.61,2.61,0,0,1-.56-1.38,4.54,4.54,0,0,1-.05-.6c0-.29.34-.39.87-.35a5.38,5.38,0,0,1,2.19.69,18.68,18.68,0,0,1,3.77,2.55,12,12,0,0,1,1.73,1.86,5.75,5.75,0,0,1,1.19,3l0,.49c0,.17-.05.35-.08.52l-.12.51c0,.16-.1.25-.15.38l-.33.71a7.15,7.15,0,0,1-.44.68,5.73,5.73,0,0,1-2.53,2,7.79,7.79,0,0,1-2.82.61,12.45,12.45,0,0,1-2.61-.13,23.3,23.3,0,0,1-6.84-2.24,57.38,57.38,0,0,1-6.05-3.32Z"/><path class="cls-1" d="M372.69,240.32a39.41,39.41,0,0,1-8.68-3.79,30.17,30.17,0,0,1-2.92-1.88,18.39,18.39,0,0,1-4.27-4.56,9.36,9.36,0,0,1-1.28-3,7.74,7.74,0,0,1,0-3.32c.14-.47.26-.95.44-1.4l.31-.66a3.66,3.66,0,0,1,.38-.68,5.67,5.67,0,0,1,2.43-1.84,11.58,11.58,0,0,1,3.5-.9,5.66,5.66,0,0,1,3.6.78c.68.51.31.68-.36.82-.33.09-.75.23-1.21.4-.23.09-.46.2-.7.27a6.17,6.17,0,0,1-.77.14,9.45,9.45,0,0,0-2.78.74,10.24,10.24,0,0,0-1.15.61,3.77,3.77,0,0,0-.4.3c-.07,0-.08.09-.12.13a.34.34,0,0,0-.06.06l-.08.15a5.6,5.6,0,0,0-.37,5.23,8.73,8.73,0,0,0,2.16,3.08,23.06,23.06,0,0,0,3.13,2.48,34.92,34.92,0,0,0,8,4,35.72,35.72,0,0,0,5.35,1.41,17.35,17.35,0,0,0,8.15-.18c.24-.1.48-.17.7-.28l.64-.35a3.14,3.14,0,0,0,.91-.83,3.35,3.35,0,0,0-.12-2.39c-.13-.4-.32-.78-.45-1.21a6.75,6.75,0,0,1-.44-1.75,1.69,1.69,0,0,1,.41-1.09,4.11,4.11,0,0,1,.37-.43c.22-.18.5-.14.84.06a3.15,3.15,0,0,1,1.1,1.21,9,9,0,0,1,1.17,3.11,7.34,7.34,0,0,1,.08,2,4.86,4.86,0,0,1-.92,2.29c-.15.17-.31.34-.47.5a4.28,4.28,0,0,1-.42.32,9.75,9.75,0,0,1-.83.54l-.86.42a8.82,8.82,0,0,1-.86.31,12.56,12.56,0,0,1-1.74.42,17,17,0,0,1-1.72.17,30.69,30.69,0,0,1-9.66-1.29Z"/><path class="cls-1" d="M368.07,249.93a33.57,33.57,0,0,1-7.52-2.38,26.25,26.25,0,0,1-2.61-1.28,19.52,19.52,0,0,1-4.05-3.22,12.71,12.71,0,0,1-1.61-2.1c-.24-.37-.42-.78-.64-1.17a4.79,4.79,0,0,1-.36-1.53,6.75,6.75,0,0,1,1.57-4.7,5.73,5.73,0,0,1,5.71-2.06c.63.14.46.59,0,1.11-.24.28-.56.53-.87.86a2.55,2.55,0,0,1-1,.69,4.32,4.32,0,0,0-1.57,1.1,5.88,5.88,0,0,0-1,1.63,3.1,3.1,0,0,0-.19,1.7c0,.07.13.32.19.49s.15.37.25.55a9.27,9.27,0,0,0,.64,1.08,9.55,9.55,0,0,0,2.19,2.26,23.18,23.18,0,0,0,2.8,1.7,30.31,30.31,0,0,0,11.4,3.22,15.71,15.71,0,0,0,6.69-.65,3.49,3.49,0,0,0,1.75-1.32c.06-.1.18-.33.28-.53l.29-.59c.18-.39.34-.77.47-1.14a6.49,6.49,0,0,0,.22-.93,6.63,6.63,0,0,1,.16-1,3.15,3.15,0,0,1,.53-.74c.12-.13.22-.3.34-.42a.6.6,0,0,1,.83-.05,2.06,2.06,0,0,1,.85,1.56,6.29,6.29,0,0,1-.56,3.08,13,13,0,0,1-.6,1.24l-.32.57c-.06.1-.09.16-.18.29l-.29.41a6.28,6.28,0,0,1-2.82,1.92,14.1,14.1,0,0,1-2.85.7,26.77,26.77,0,0,1-8.11-.29Z"/><path class="cls-1" d="M366.35,257a43.56,43.56,0,0,1-5.75-1.22c-.69-.19-1.4-.35-2.08-.61a16,16,0,0,1-3.5-1.82,7.4,7.4,0,0,1-1.54-1.43,4.47,4.47,0,0,1-1-2.08,5.34,5.34,0,0,1,1-3.72,4.7,4.7,0,0,1,1.92-1.65,3.23,3.23,0,0,1,1.29-.32,2.45,2.45,0,0,1,1.38.41c.51.4.07.63-.4.93a2.29,2.29,0,0,0-.61.63c-.15.26-.26.46-.46.55a3.13,3.13,0,0,0-.93.83c-.1.13-.26.42-.41.61a4.28,4.28,0,0,0-.26.61,1.52,1.52,0,0,0,0,1.07,3.26,3.26,0,0,0,.8,1.25,10.33,10.33,0,0,0,4.21,2.12,35.75,35.75,0,0,0,5.4,1.31c1.13.19,2.28.34,3.43.42.87.06,1.74.09,2.6.07a8.45,8.45,0,0,0,2.44-.3,2,2,0,0,0,1-1,2.41,2.41,0,0,0,.16-1.44c0-.23-.11-.47-.17-.72-.23-1-.2-1.36.41-1.76a3.32,3.32,0,0,1,.41-.28c.49-.23,1,.06,1.39.87a6.65,6.65,0,0,1,.52,2.15,4.51,4.51,0,0,1-.69,2.65,5.82,5.82,0,0,1-.91,1.05c-.18.13-.3.26-.57.43a3.21,3.21,0,0,1-.8.36,9.71,9.71,0,0,1-2.29.39,37.27,37.27,0,0,1-6-.27Z"/><path class="cls-1" d="M378.12,270.23c.77.63,1.53,1.28,2.34,1.87l1.21.9,1.26.83c.61.41,1.29.71,1.93,1.07a39.85,39.85,0,0,0,7.07,3.36,27.9,27.9,0,0,0,3.36.94c.73.16,1.46.29,2.18.46a21,21,0,0,1,2.18.54c.45.15.34.55-.11.92a3.33,3.33,0,0,1-2.17.71,24.75,24.75,0,0,1-9.16-2.56c-1.73-.82-3.59-1.53-5.31-2.45-.95-.5-1.86-1.08-2.78-1.64s-1.79-1.18-2.62-1.87L376,272.07l-1.47-1.33c-.76-.65-1.42-1.41-2.13-2.11l-2-2.22c-.49-.6-1-1.16-1.53-1.72s-1-1.19-1.44-1.8a5.23,5.23,0,0,1-.59-.83,2.51,2.51,0,0,1-.43-1.3,1.21,1.21,0,0,1,.3-.83,3.39,3.39,0,0,1,.28-.34c.34-.3,1-.06,1.64.54,1.83,1.89,3.36,4,5.22,5.94.65.75,1.4,1.41,2.08,2.13s1.48,1.36,2.26,2Z"/><path class="cls-1" d="M427.58,289.35c.9,1.87,1.85,3.73,2.81,5.59.36.67.79,1.3,1.14,2,1.27,2.37,2.56,4.74,4,7.05.61,1,1.29,2,2,3a35.47,35.47,0,0,1,2.49,3.84c.22.43-.16.63-.74.55a3.18,3.18,0,0,1-2-1.11,50.61,50.61,0,0,1-5.13-7.92c-.88-1.68-2-3.29-3-5q-1.62-2.76-3.07-5.61c-.62-1.16-1.17-2.35-1.77-3.52-.87-1.79-1.66-3.63-2.48-5.44-.6-1.42-1.36-2.75-1.88-4.23-.11-.33-.25-.64-.34-1a3.58,3.58,0,0,1-.09-1.4,1.24,1.24,0,0,1,.54-.7,2.92,2.92,0,0,1,.34-.23c.19-.08.39,0,.63.17a2,2,0,0,1,.68.87c.24.59.57,1.17.86,1.77s.49,1.21.78,1.83c.52,1.25,1.09,2.51,1.64,3.78.86,1.88,1.74,3.78,2.68,5.65Z"/><path class="cls-1" d="M401.43,299.46c.41,1.92.78,3.85,1.16,5.77.14.7.35,1.38.48,2.08.46,2.47.87,4.94,1.4,7.38.22,1.09.54,2.15.86,3.2A23.78,23.78,0,0,1,406.4,322c.05.44-.4.54-1,.34a2.89,2.89,0,0,1-1.64-1.47,19.85,19.85,0,0,1-.77-2.07q-.28-1.06-.54-2.13c-.32-1.43-.59-2.87-.79-4.33-.23-1.75-.76-3.49-1.14-5.23l-1.25-5.74c-.26-1.18-.53-2.35-.84-3.51-.45-1.76-.94-3.52-1.53-5.22a36.53,36.53,0,0,0-1.73-3.75c-.13-.27-.25-.54-.37-.82a3,3,0,0,1-.33-1.16,1.38,1.38,0,0,1,.32-.75c.08-.1.14-.22.22-.3s.31-.12.56,0a2.12,2.12,0,0,1,.85.68,17,17,0,0,1,1.16,1.62,19.75,19.75,0,0,1,.9,1.78,34.77,34.77,0,0,1,1.45,3.76c.59,1.91,1.07,3.85,1.53,5.78Z"/><path class="cls-1" d="M413,320.55a85.17,85.17,0,0,0,12-3.21c1.43-.49,2.82-1.09,4.23-1.64,2.49-1,4.94-2,7.31-3.2a40.07,40.07,0,0,0,6.75-4.07,7.44,7.44,0,0,0,2.09-2.35c.34-.69-.1-1.19-.94-1.37a42.6,42.6,0,0,0-4.4-.39,37,37,0,0,1-4.56-.42c-.95-.15-.83-.44,0-.87a13.82,13.82,0,0,1,1.68-.74,8.73,8.73,0,0,1,2.42-.41,25.54,25.54,0,0,1,4.9.19,6.35,6.35,0,0,1,.71.14l.4.11c.16.05.36.14.52.21a5.34,5.34,0,0,1,.84.56,4,4,0,0,1,.75.89,3.21,3.21,0,0,1,.36,2.21,4.13,4.13,0,0,1-.69,1.7,9.79,9.79,0,0,1-1.85,2.09,19.18,19.18,0,0,1-2,1.56,34.62,34.62,0,0,1-4.21,2.48c-3.46,1.71-7,3.48-10.66,4.88a95.84,95.84,0,0,1-12.29,3.78,73.53,73.53,0,0,1-7.82,1.39,39.36,39.36,0,0,1-6.05.27,20.19,20.19,0,0,1-6.07-1.07A8,8,0,0,1,394,322a2.75,2.75,0,0,1-.63-3,7.54,7.54,0,0,1,1.33-2.26,14.65,14.65,0,0,1,1.7-1.73,16.32,16.32,0,0,1,1.67-1.31,7,7,0,0,1,2.63-1.19,1.59,1.59,0,0,1,1.54.44c.15.17.27.38.22.52s-.14.17-.21.26l-.09.15a1.1,1.1,0,0,1-.12.16,8.73,8.73,0,0,1-1.38,1,17.71,17.71,0,0,0-2.85,2.43,11.14,11.14,0,0,0-1.15,1.39,6.75,6.75,0,0,0-.43.67,2,2,0,0,0-.21.51c0,.05,0,.06.06.07a9.9,9.9,0,0,0,1.2.55,13.76,13.76,0,0,0,3.63.78,42.51,42.51,0,0,0,12.06-.95Z"/><path class="cls-1" d="M463.92,346c-1.14-3.19-2.33-6.37-3.6-9.52-.46-1.15-1-2.27-1.46-3.42l-4.93-12.21c-.37-.9-.7-1.85-1.05-2.77a11.46,11.46,0,0,1-.44-3.1c-.09-2.47-.29-4.86-2-6.34-.5-.45-.29-.78.52-.71a1.92,1.92,0,0,1,.68.18,2.74,2.74,0,0,1,.8.46,4.22,4.22,0,0,1,1.36,1.86c1,2.79.47,5.62,1.35,7.33,1,2.25,1.9,4.63,2.82,7,1.1,2.85,2.54,5.69,3.79,8.55,1.36,3.16,2.69,6.34,3.94,9.55.79,2,1.52,4,2.27,5.95.55,1.51,1.07,3,1.59,4.57s1,3.06,1.46,4.6c.74,2.38,1.57,4.69,2.13,7.15.12.54.27,1.07.37,1.62a7,7,0,0,1,.11.72c0,.22,0,.42,0,.61a5,5,0,0,1-.14.92,1.59,1.59,0,0,1-.71,1,3.53,3.53,0,0,1-.47.29c-.52.19-1.05-.62-1.44-2-1-4.05-2.26-8.34-3.69-12.65-1.06-3.2-2.14-6.44-3.33-9.64Z"/><path class="cls-1" d="M431.62,328.92c-1.86.64-3.73,1.23-5.61,1.8-.69.2-1.35.48-2.05.66-1.22.33-2.45.62-3.69.89s-2.45.49-3.7.72-2.22.43-3.35.58a7.57,7.57,0,0,1-4.44-.39c-.45-.23-.22-.51.23-.75a5.34,5.34,0,0,1,1.8-.62,80.33,80.33,0,0,0,8.1-1.57,38.5,38.5,0,0,0,5-1.44c1.83-.58,3.67-1.19,5.49-1.86,1.12-.41,2.24-.83,3.34-1.28,1.68-.67,3.38-1.33,5-2.12,1.25-.61,2.42-1.34,3.64-2a7.61,7.61,0,0,1,.81-.4c1.06-.43,1.47-.42,1.91-.07a1.86,1.86,0,0,1,.3.24c.27.29,0,.8-.65,1.37a26.08,26.08,0,0,1-6.68,4.05c-.89.42-1.79.81-2.7,1.19L431.64,329Z"/><path class="cls-1" d="M415.28,380.93c-2.88-4.43-5.37-9.05-7.87-13.65-.9-1.68-1.86-3.32-2.73-5q-2.28-4.5-4.43-9.05l-2.13-4.57c-.35-.77-.69-1.51-1-2.36s-.58-1.61-.84-2.42a37.19,37.19,0,0,1-1.18-4.44c-.15-.75-.27-1.52-.35-2.28a7.66,7.66,0,0,1,.26-2.51l.6-2.29a4.24,4.24,0,0,0,.15-1.83.8.8,0,0,0-.22-.29,4.26,4.26,0,0,0-.53-.43c-.41-.3-.89-.58-1.41-1a3.26,3.26,0,0,1-.69-.85,5.46,5.46,0,0,1-.41-.89,5.73,5.73,0,0,1-.31-1.87c0-.68.22-.95.4-.91s.42.37.71.81a9.39,9.39,0,0,0,1.14,1.52,3.81,3.81,0,0,0,.37.34c.1.06.17.06.33.16a11.58,11.58,0,0,1,1.3.71,6.84,6.84,0,0,1,.85.66,3,3,0,0,1,.86,1.3,4.58,4.58,0,0,1,.16,2,10.47,10.47,0,0,1-.28,1.53c-.21.93-.47,1.77-.58,2.51a3.62,3.62,0,0,0-.07.93c0,.07,0,.36.06.54l.1.62c.14.81.33,1.63.55,2.45a44,44,0,0,0,1.68,4.88l2.13,4.86c1.88,4.24,4.27,8.46,6.52,12.63,2.48,4.59,5,9.15,7.76,13.59,1.66,2.73,3.38,5.44,5.27,8a36,36,0,0,0,4.69,5.34,34.84,34.84,0,0,0,2.87,2.09c1,.67,2,1.31,3,1.91a41.88,41.88,0,0,0,10.05,4.28l1.15.27,1.15.2c.73.16,1.32.16,1.83.25s.9.05,1.24.1a4.08,4.08,0,0,1,1.44.31,3.2,3.2,0,0,1,.49.24c.18.14,0,.33-.57.55a8,8,0,0,1-2.66.53,27.46,27.46,0,0,1-10.45-2.07,56.81,56.81,0,0,1-9.59-5l-.84-.55c-.3-.2-.62-.44-.92-.66a16.48,16.48,0,0,1-1.63-1.45,38.08,38.08,0,0,1-2.77-3.11c-1.72-2.12-3.25-4.32-4.74-6.53Z"/><path class="cls-1" d="M483.85,374.48a36.39,36.39,0,0,1-4.06-2.24,16,16,0,0,1-1.43-.87,14.78,14.78,0,0,1-1.17-.92c-.37-.31-.75-.62-1.1-1-.72-.68-1.37-1.4-2-2.1s-1.2-1.21-1.78-1.81a9.49,9.49,0,0,1-2.08-2.47c-.16-.31.29-.63.9-.79a2.05,2.05,0,0,1,1.82.2c1.57,1.4,3.09,2.74,4.53,4.25a14,14,0,0,0,3,2.22,28.82,28.82,0,0,0,3.65,2,25.45,25.45,0,0,0,2.41,1,24.14,24.14,0,0,0,3.83,1.06c1,.16,2.06.09,3.08.18a3,3,0,0,1,.67,0c.82.18,1.05.46,1.14,1.23,0,.18.05.36.05.53a1.25,1.25,0,0,1-1.07,1.19,9.36,9.36,0,0,1-3,.34,18.47,18.47,0,0,1-3-.54,32.69,32.69,0,0,1-4.41-1.49Z"/><path class="cls-1" d="M51.29,206.07s-.83-2.52,1.06-2.42,1.81,1.73,1.09,2.42S51.45,206.86,51.29,206.07Z"/><path class="cls-1" d="M55,204.66a6.23,6.23,0,0,1-.07.86,3.1,3.1,0,0,1-.29.84,3,3,0,0,1-1.23,1.27l-.53.27a1.74,1.74,0,0,1-.53.14,3.13,3.13,0,0,1-1.93-.22,3.87,3.87,0,0,1-1.41-1.1,4.19,4.19,0,0,1-.77-1.37,1.93,1.93,0,0,1,.38-2c.18-.15.49.17.81.51s.66.64.69.71a1.6,1.6,0,0,0,.23.57,3.79,3.79,0,0,0,.54.78.77.77,0,0,0,.52.23c.16,0,.4-.1.62-.12a1,1,0,0,0,.8-.77,1.81,1.81,0,0,0-.09-.91c-.17-.46-.54-.89-.91-.87a.54.54,0,0,0-.37.22,1.59,1.59,0,0,0-.27.43,1.74,1.74,0,0,0-.1.23c-.14.29-.32.27-.92,0l-.41-.18c-.46-.23-.69-.6-.56-1a1.89,1.89,0,0,1,.47-.86,4.61,4.61,0,0,1,.37-.4,5,5,0,0,1,.55-.33,2.86,2.86,0,0,1,1.4-.28,6.36,6.36,0,0,1,.73.16,3.68,3.68,0,0,1,.63.31,3.81,3.81,0,0,1,1.7,2.94Z"/><path class="cls-1" d="M141.25,213.83a3.21,3.21,0,0,1-.19,1.1,3.59,3.59,0,0,1-.5,1,2.07,2.07,0,0,1-.62.63,2.2,2.2,0,0,1-1.5.25,2.14,2.14,0,0,1-1.19-.71,3.63,3.63,0,0,1-.61-1,1.57,1.57,0,0,1-.14-1.29c.06-.13.48-.08.88,0s.8.25.83.38a3.51,3.51,0,0,0,.13.52,1.89,1.89,0,0,0,.1.21,1.36,1.36,0,0,0,.1.21c.13.17.36.05.51-.07a.7.7,0,0,0,.24-.3,1.73,1.73,0,0,0,.16-.52,1.21,1.21,0,0,0-.06-.58.76.76,0,0,0-.66-.49,1.27,1.27,0,0,0-.74.33,1.66,1.66,0,0,1-.14.13.2.2,0,0,1-.27,0,2.81,2.81,0,0,1-.34-.5l-.18-.3a1.21,1.21,0,0,1-.16-.51c0-.18,0-.4.12-.49a2.46,2.46,0,0,1,2.9-.27,2.73,2.73,0,0,1,1.38,2.25Z"/><path class="cls-1" d="M271.89,131.43a3.61,3.61,0,0,1-2.41,1.26,3.55,3.55,0,0,1-1,0,2.74,2.74,0,0,1-1.56-.85,2.86,2.86,0,0,1-.69-1.5,3.94,3.94,0,0,1,0-1.37,1.91,1.91,0,0,1,.84-1.49c.17-.1.45.26.71.65s.49.76.45.88a2.26,2.26,0,0,0-.18,1.43c.09.32.43.41.77.42a2.1,2.1,0,0,0,1.27-.37,1,1,0,0,0,.4-.58,1.05,1.05,0,0,0-.34-1.08,1.07,1.07,0,0,0-.9-.13c-.07,0-.14.06-.2.07-.24,0-.33-.07-.5-.64l-.12-.39a.76.76,0,0,1,.35-1,2.47,2.47,0,0,1,1.87,0,3,3,0,0,1,1.55,1.45,3.18,3.18,0,0,1,.32,1.64,3.14,3.14,0,0,1-.6,1.55Z"/><path class="cls-1" d="M283.56,201.92s.74-3.43,2.42-2.11,1.26,1.83,0,2.49S283.88,202.55,283.56,201.92Z"/><path class="cls-1" d="M287.39,202.73a3.58,3.58,0,0,1-2.57,1,3,3,0,0,1-1-.12,3.74,3.74,0,0,1-1.21-.74,1.82,1.82,0,0,1-.25-.24,2.86,2.86,0,0,1-.3-.32c-.17-.22-.37-.43-.5-.64l.18-.49a3,3,0,0,1,.88-1.4,2.43,2.43,0,0,1,.47-.28,3.53,3.53,0,0,1,.43-.14,1.78,1.78,0,0,1,.76,0c.15,0,.18.37.12.74s-.24.76-.43.84-.18.1-.24.1a.2.2,0,0,0-.14.06c-.07,0-.07.09-.07.17s0,0,0,.06a.34.34,0,0,0,.12.12,1.1,1.1,0,0,0,.26.18,2.71,2.71,0,0,0,.55.18,1.51,1.51,0,0,0,1.18-.24,1.67,1.67,0,0,0,.56-.62,1.12,1.12,0,0,0,.15-.52.61.61,0,0,0-.18-.46c-.21-.17-.53-.11-.88-.05-.06,0-.15.05-.23.05-.28,0-.4-.15-.51-.72l-.09-.33a1,1,0,0,1,.39-1,2.41,2.41,0,0,1,1.79-.06,2.63,2.63,0,0,1,1.69,1.73,3,3,0,0,1-.08,1.85,3.73,3.73,0,0,1-.81,1.28Z"/><path class="cls-1" d="M341.4,154.86s-.42-3.16,1.53-2.58,1.84,2.09.92,2.69S341.4,154.86,341.4,154.86Z"/><path class="cls-1" d="M345.53,153.46a2.69,2.69,0,0,1-.47,1.49,3.84,3.84,0,0,1-1,1,2.69,2.69,0,0,1-1,.45,3.14,3.14,0,0,1-3-1.2,4.26,4.26,0,0,1-.74-1.19,1.82,1.82,0,0,1,.11-1.83c.12-.17.45.06.77.32s.63.49.63.6a2.35,2.35,0,0,0,.84,1.55,1.08,1.08,0,0,0,1.12.15,1.76,1.76,0,0,0,.88-1,.91.91,0,0,0-.05-.77,1.49,1.49,0,0,0-1.1-.83,1.35,1.35,0,0,0-1,.29c-.06,0-.1.11-.16.15s-.44,0-.76-.24l-.23-.16a.75.75,0,0,1-.13-.94,2.41,2.41,0,0,1,1.67-.91,3.32,3.32,0,0,1,2,.4,3.16,3.16,0,0,1,1.65,2.67Z"/><path class="cls-1" d="M404.46,163.51a5.12,5.12,0,0,1-1.06,2.63,4,4,0,0,1-.66.78,2.65,2.65,0,0,1-1.86.68,2.15,2.15,0,0,1-1.67-1,3.84,3.84,0,0,1-.56-1.43,2.59,2.59,0,0,1,.24-1.8c.09-.17.43,0,.73.23a1.3,1.3,0,0,1,.58.75,1.87,1.87,0,0,0,.53,1.67c.26.17.65-.09.94-.49a4.05,4.05,0,0,0,.76-1.61,1.11,1.11,0,0,0-.07-.84,1.24,1.24,0,0,0-1.19-.54,2,2,0,0,0-1.11.52c-.07,0-.12.12-.18.17-.27.12-.41.07-.86-.29l-.3-.22a.8.8,0,0,1-.21-1.08,2.94,2.94,0,0,1,1.63-1.17,3.47,3.47,0,0,1,3.79,1.14,3,3,0,0,1,.58,1.87Z"/><path class="cls-1" d="M241.67,374.49s.43-1.91,1.36-1.21,1.37,1.53.62,2.08S242,375.55,241.67,374.49Z"/><path class="cls-1" d="M243.92,371.66l.17.19.11.13a1.38,1.38,0,0,1,.19.28q.18.32.33.63a3.42,3.42,0,0,1,.22,1.46,2.54,2.54,0,0,1-.09.54,1.34,1.34,0,0,1-.18.52,2.28,2.28,0,0,1-1.51,1.19,2.85,2.85,0,0,1-.51.07l-.5-.07a2.11,2.11,0,0,1-.8-.53l-.27-.29a2.59,2.59,0,0,1-.19-.31,2.93,2.93,0,0,1-.31-.61,2.53,2.53,0,0,1-.28-1.58c0-.17.46-.17.89-.08s.86.24.9.47a3.49,3.49,0,0,0,.15.54,2,2,0,0,0,.15.42.89.89,0,0,0,.06.15.76.76,0,0,1,0,.11c0,.06,0,.08.1.17s.47-.2.54-.5a1.4,1.4,0,0,0-.25-1.2c0-.06-.11-.12-.16-.18l-.06-.11a1.65,1.65,0,0,0-.24-.22l-.21-.17a.63.63,0,0,0-.23.08,1.08,1.08,0,0,0-.33.4,2.92,2.92,0,0,0-.17.56c0,.22-.07.45-.12.67a2.8,2.8,0,0,1-.06.28c-.14.35-.32.44-.8.37a1.64,1.64,0,0,1-.32-.05.82.82,0,0,1-.66-.64,4.54,4.54,0,0,1-.07-.75,4,4,0,0,1,.14-.74,3,3,0,0,1,.13-.39l.08-.19A2.64,2.64,0,0,1,240,372a3.23,3.23,0,0,1,.84-1c1-1,2.21-.25,3.16.61Z"/><path class="cls-1" d="M136,345.1a5,5,0,0,1,.16.86,2.28,2.28,0,0,1,0,.69,3.42,3.42,0,0,1-.36,1.32,3,3,0,0,1-.56.84,2.93,2.93,0,0,1-1.53.81,2.56,2.56,0,0,1-1.7-.26,6.61,6.61,0,0,1-.6-.44c-.16-.18-.31-.36-.46-.55a5.57,5.57,0,0,1-.41-.76,2.09,2.09,0,0,1-.09-.82c0-.18.41-.19.82-.13s.83.15.88.35.15.29.2.44.15.24.23.3a1,1,0,0,0,.56.35c.35.09.71-.22.93-.53a1.81,1.81,0,0,0,.3-1.33,1.57,1.57,0,0,0-.15-.63,2.46,2.46,0,0,0-.28-.46.29.29,0,0,0-.45.1,1.65,1.65,0,0,0-.12.84.56.56,0,0,1-.06.26c-.17.41-.4.51-.84.33l-.29-.13a1,1,0,0,1-.52-.69,2.76,2.76,0,0,1,.05-.8,4.12,4.12,0,0,1,.38-1.25,1.87,1.87,0,0,1,1.7-1c.58,0,.91.44,1.31.77l.29.26.22.43.43.84Z"/><path class="cls-1" d="M471.72,231.1s-1-3.4.71-3.79,1.91.83,1.74,2.61-.95,2.85-1.74,2.29S471.72,231.1,471.72,231.1Z"/><path class="cls-1" d="M472.78,230.9a2.23,2.23,0,0,0,.43-.54,1.58,1.58,0,0,0,.12-.69,3.28,3.28,0,0,0-.17-.59,3.64,3.64,0,0,0-.52-1.09,3.51,3.51,0,0,0-.39-.45,1.34,1.34,0,0,0-.31-.22.43.43,0,0,0-.56.23,1.38,1.38,0,0,0-.07.43,2.34,2.34,0,0,1-.19.69c-.08.15-.63.15-1.15,0s-1-.55-1-1a3.93,3.93,0,0,1,.63-1.57,2.41,2.41,0,0,1,1.41-.91,2.58,2.58,0,0,1,1.66.22,3.78,3.78,0,0,1,.7.44,3,3,0,0,1,.43.45,7.42,7.42,0,0,1,1.48,2.35,3.78,3.78,0,0,1-.32,3.15c-.18.27-.35.48-.55.73a4.13,4.13,0,0,1-.81.67,2,2,0,0,1-1.58.31,2.94,2.94,0,0,1-1.37-.79,4.6,4.6,0,0,1-1.26-1.8,3,3,0,0,1-.15-.48c0-.66.25-.89.79-.92a2.32,2.32,0,0,1,.37,0,1.77,1.77,0,0,1,1,.46c.35.3.54.58.8.8.09.12.19.23.24.29s.06.05.06.05,0,0,0,0,.06,0,.23-.19Z"/><path class="cls-1" d="M114.06,158.15a2.69,2.69,0,0,1-1.48,1.43,3.24,3.24,0,0,1-1.78.12,4,4,0,0,1-1.11-.35,4.43,4.43,0,0,1-2.18-3,6.19,6.19,0,0,1-.11-1.6,3,3,0,0,1,.55-1.89c.14-.17.53.06.87.38s.64.7.59,1a4.36,4.36,0,0,0,0,2.58,2,2,0,0,0,1.24,1.06,1.38,1.38,0,0,0,1.44-.07,1.25,1.25,0,0,0,.31-.93,4.16,4.16,0,0,0-.15-1,.51.51,0,0,0-.29-.42.6.6,0,0,0-.72.42c0,.06,0,.12,0,.16a.33.33,0,0,1-.19.21,1.34,1.34,0,0,1-.57,0c-.12,0-.25,0-.37,0a.71.71,0,0,1-.66-.82,2.44,2.44,0,0,1,1.86-2,2.2,2.2,0,0,1,2.53,1.11l.12.24a9.44,9.44,0,0,1,.29,1,5.74,5.74,0,0,1,.1.74,3.93,3.93,0,0,1-.25,1.71Z"/><path class="cls-1" d="M126.78,202.81a1.36,1.36,0,0,1-1.14,1.66c-1.72.39-3.22-1.67-1.83-3S126.58,201.54,126.78,202.81Z"/><path class="cls-1" d="M28.17,275.31A1.36,1.36,0,0,1,27,277c-1.72.39-3.22-1.68-1.83-3S28,274,28.17,275.31Z"/><path class="cls-1" d="M200.8,135.5a1.37,1.37,0,0,1-1.14,1.66c-1.73.39-3.23-1.67-1.83-3S200.59,134.23,200.8,135.5Z"/><path class="cls-1" d="M71.83,163.68a1.37,1.37,0,0,1-1.14,1.66c-1.73.39-3.23-1.68-1.83-3S71.62,162.41,71.83,163.68Z"/><path class="cls-1" d="M247.52,202.81a1.37,1.37,0,0,1-1.14,1.66c-1.73.39-3.23-1.67-1.83-3S247.31,201.54,247.52,202.81Z"/><path class="cls-1" d="M324,153.68a1.36,1.36,0,0,1-1.14,1.66c-1.72.39-3.22-1.67-1.83-3S323.8,152.41,324,153.68Z"/><path class="cls-1" d="M268.58,159.06a1.37,1.37,0,0,1-1.14,1.66c-1.73.39-3.23-1.68-1.83-3S268.37,157.79,268.58,159.06Z"/><path class="cls-1" d="M384.2,109a1.37,1.37,0,0,1-1.14,1.66c-1.73.39-3.23-1.67-1.83-3S384,107.71,384.2,109Z"/><path class="cls-1" d="M380.53,174.66a1.37,1.37,0,0,1-1.14,1.66c-1.73.39-3.23-1.67-1.84-3S380.32,173.39,380.53,174.66Z"/><path class="cls-1" d="M452.13,151.65a1.37,1.37,0,0,1-1.14,1.66c-1.73.39-3.23-1.67-1.83-3S451.92,150.38,452.13,151.65Z"/><path class="cls-1" d="M66.67,370.35a5.55,5.55,0,0,1,.06-.82,2.8,2.8,0,0,1,0-.29,7.17,7.17,0,0,1,.32-1,1.58,1.58,0,0,0,.1-.43c0-.19,0-.41.2-.53a2.83,2.83,0,0,1,1.28.71,1.79,1.79,0,0,1-.39.78c-.14.17-.08.36-.1.55a4.2,4.2,0,0,0-.06.62,1.77,1.77,0,0,0,0,.4,2.46,2.46,0,0,0,.12.6,1.69,1.69,0,0,0,.29.37s.06.05.07.08,0,.18-.28.36l-.2.13a.66.66,0,0,1-.56.11,1.42,1.42,0,0,1-.77-.83,4.41,4.41,0,0,1-.13-.81Z"/><path class="cls-1" d="M73.77,369.75a5.07,5.07,0,0,1,.13-.56c0-.07,0-.14,0-.2a4.52,4.52,0,0,1,.38-.61.51.51,0,0,0,.09-.27c0-.12,0-.29.19-.31a8.38,8.38,0,0,1,1.41.92c0,.11-.13.17-.38.25s-.09.15-.13.23a2.59,2.59,0,0,0-.14.29c0,.07,0,.14-.06.2a.5.5,0,0,0,0,.32,1,1,0,0,0,.17.19l0,0c0,.07,0,.13-.28.28l-.16.11a.73.73,0,0,1-.47.16.78.78,0,0,1-.7-.46,1.86,1.86,0,0,1-.15-.56Z"/><path class="cls-1" d="M80.43,370.56l0-.21s0-.05,0-.07l.06-.28a.12.12,0,0,0,0-.11s-.11-.07,0-.14a3.89,3.89,0,0,1,1-.19c0,.1,0,.2-.1.33s0,.13,0,.2l0,.21a.69.69,0,0,0,0,.13.59.59,0,0,0,0,.19c0,.05.07.08.11.12l0,0s0,.06-.23.11l-.12,0a.73.73,0,0,1-.33,0c-.16,0-.26-.11-.28-.2a1.18,1.18,0,0,1,0-.2Z"/><path class="cls-1" d="M72.11,237.72l0,.06s0,0,0,0l0,.08,0,0s0,0,0,0-.11.1-.12.09a.41.41,0,0,1,0-.09.11.11,0,0,0,0-.05l0-.06,0,0s0,0,0,0,0,0,0,0h0s0,0,0,0h0l0,0,.08,0,0,.05Z"/><path class="cls-1" d="M198.58,329.68c-.05-.07,0-.12.24-.18a.83.83,0,0,1,.28,0l.14.12a5.32,5.32,0,0,1,.14.53,1.24,1.24,0,0,1,.05.38c0,.26,0,.51,0,.77a.55.55,0,0,1,0,.17,1.63,1.63,0,0,0,0,.58s0,.07,0,.1a1.76,1.76,0,0,1,0,.65c0,.17-.09.34-.13.51,0,0,0,.05,0,.07a.14.14,0,0,0-.07.15.79.79,0,0,1-.05.22s-.06.07-.1.11a.18.18,0,0,1-.16,0s-.09,0-.14,0h0a1.88,1.88,0,0,1-.24-.47s-.06-.62-.08-.69,0-.07,0-.11-.07-.5-.06-.52,0-.21,0-.31,0,0,0-.06a3,3,0,0,1,0-.52,2.43,2.43,0,0,0,0-.27.43.43,0,0,0,0-.05.14.14,0,0,0,0-.06c0-.21,0-.42,0-.63,0-.05.08-.28.06-.34S198.6,329.71,198.58,329.68Z"/><path class="cls-1" d="M200.9,331.42c.07-.05.13.05.18.24a.82.82,0,0,1,0,.28l-.12.14s-.4.11-.53.15a1.55,1.55,0,0,1-.37,0h-.77a.45.45,0,0,1-.16,0,1.44,1.44,0,0,0-.58,0s-.07,0-.1,0a2,2,0,0,1-.65,0,4.1,4.1,0,0,0-.5-.14s0,0-.07,0a.16.16,0,0,0-.16-.07,1,1,0,0,1-.22,0s-.07-.06-.1-.09,0-.15,0-.17,0-.09,0-.14,0,0,0-.05a2,2,0,0,1,.46-.24s.62-.06.69-.08.07,0,.11,0,.5-.06.52-.06a.45.45,0,0,1,.3,0s0,0,.06,0a3,3,0,0,1,.52,0h.32l.06,0a4.28,4.28,0,0,0,.62,0s.28.08.34.06S200.87,331.45,200.9,331.42Z"/><path class="cls-1" d="M197.2,330.79c-.08,0-.06-.11,0-.3a.74.74,0,0,1,.17-.21.59.59,0,0,1,.17,0s.37.15.49.19a1.23,1.23,0,0,1,.31.19l.58.43a.65.65,0,0,1,.11.12,1.32,1.32,0,0,0,.4.38s.05,0,.09,0a1.72,1.72,0,0,1,.5.36c.09.14.19.27.29.4s0,0,0,.07a.13.13,0,0,0,.07.14.55.55,0,0,1,.13.17.27.27,0,0,1,0,.13s-.08.13-.09.14-.06.06-.09.11l0,0a1.89,1.89,0,0,1-.5-.09,6.42,6.42,0,0,0-.56-.33.27.27,0,0,1-.07-.08s-.42-.24-.43-.26-.17-.1-.2-.21a.08.08,0,0,0,0,0,2.3,2.3,0,0,1-.37-.33l-.2-.15,0,0,0-.05a5.34,5.34,0,0,0-.48-.35s-.16-.23-.21-.25S197.24,330.79,197.2,330.79Z"/><path class="cls-1" d="M200.19,330.32c0-.08.12,0,.28.09a.77.77,0,0,1,.17.22,1,1,0,0,1,0,.18s-.23.32-.3.42a1.6,1.6,0,0,1-.26.26c-.19.14-.37.3-.56.45a.53.53,0,0,1-.15.08,1.26,1.26,0,0,0-.46.3s-.05,0-.06.07-.4.38-.46.4a4.62,4.62,0,0,0-.47.19s0,0-.07,0a.14.14,0,0,0-.16,0l-.19.09a.36.36,0,0,1-.14,0s-.1-.11-.1-.12-.05-.08-.09-.12l0,0a1.82,1.82,0,0,1,.21-.45l.46-.47s.06,0,.09,0,.34-.34.36-.35.13-.14.25-.14a.09.09,0,0,0,.05,0,3,3,0,0,1,.41-.28,1.46,1.46,0,0,0,.19-.16h0s0,0,.05,0a5.45,5.45,0,0,0,.47-.37s.26-.1.29-.14S200.18,330.36,200.19,330.32Z"/><path class="cls-1" d="M172.55,352.24c-.05-.09,0-.17.24-.23a.66.66,0,0,1,.28,0,1.07,1.07,0,0,1,.14.16s.11.52.14.68a2.07,2.07,0,0,1,0,.49c0,.33,0,.66,0,1a.89.89,0,0,1,0,.22,2.71,2.71,0,0,0,0,.75s0,.08,0,.12a3.35,3.35,0,0,1,0,.84c0,.22-.09.44-.13.65,0,0,0,.07,0,.1s-.07.13-.08.2a1.35,1.35,0,0,1,0,.28.61.61,0,0,1-.1.14s-.15,0-.16,0-.09,0-.14,0h0a3,3,0,0,1-.24-.6s-.07-.81-.08-.9a.36.36,0,0,1,0-.14s-.07-.65-.07-.67a.88.88,0,0,1,.05-.39.25.25,0,0,0,0-.08,3.72,3.72,0,0,1,0-.67c0-.12,0-.23,0-.35a.14.14,0,0,1,0-.06.11.11,0,0,0,0-.08c0-.27,0-.54,0-.81,0-.07.07-.36.06-.44S172.57,352.27,172.55,352.24Z"/><path class="cls-1" d="M175.45,354.56c.09-.05.16.05.23.24a.63.63,0,0,1,0,.28l-.15.14s-.52.11-.69.14a2,2,0,0,1-.48.05h-1a.83.83,0,0,1-.22,0,2.66,2.66,0,0,0-.74-.05s-.09,0-.13,0a2.87,2.87,0,0,1-.83,0l-.65-.13s-.07,0-.09,0a.22.22,0,0,0-.2-.07l-.28-.05a.61.61,0,0,1-.14-.1s0-.15,0-.16,0-.09,0-.14v0a2.78,2.78,0,0,1,.6-.24l.88-.08a.32.32,0,0,1,.14,0l.68-.07a.82.82,0,0,1,.38,0,.12.12,0,0,0,.08,0,4.93,4.93,0,0,1,.67,0h.4l.08,0c.27,0,.54,0,.81,0,.06,0,.36.08.43.06S175.41,354.58,175.45,354.56Z"/><path class="cls-1" d="M170.74,353.59c-.1,0-.09-.13,0-.32a.67.67,0,0,1,.17-.22l.2,0s.46.22.6.29a1.7,1.7,0,0,1,.39.24l.74.57a1,1,0,0,1,.15.14,2.43,2.43,0,0,0,.53.48.19.19,0,0,0,.11.05,2.75,2.75,0,0,1,.63.46c.13.17.27.33.41.49s0,0,0,.08.06.13.1.17a1.12,1.12,0,0,1,.18.2.38.38,0,0,1,.05.15s-.08.13-.1.14-.06.07-.09.11l0,0a2.42,2.42,0,0,1-.59-.17l-.72-.45s-.06-.06-.09-.09-.52-.33-.54-.34-.21-.14-.26-.27a.15.15,0,0,0-.06-.05,6.12,6.12,0,0,1-.48-.41l-.26-.2,0-.05s0,0-.05-.05c-.21-.15-.39-.34-.61-.47-.06,0-.22-.27-.29-.3S170.78,353.59,170.74,353.59Z"/><path class="cls-1" d="M174.59,353.13c0-.1.15-.06.32.05a.64.64,0,0,1,.16.23.54.54,0,0,1,0,.19s-.32.39-.42.52a1.67,1.67,0,0,1-.34.31l-.72.58a.87.87,0,0,1-.18.11,2.36,2.36,0,0,0-.59.4.18.18,0,0,0-.08.09,2.66,2.66,0,0,1-.6.5c-.2.08-.39.18-.58.27a.08.08,0,0,1-.08,0c-.1,0-.14,0-.2.06a.92.92,0,0,1-.24.13.29.29,0,0,1-.16,0s-.1-.1-.1-.12-.05-.08-.08-.12l0,0a2.69,2.69,0,0,1,.31-.53l.61-.58a.29.29,0,0,1,.12-.07l.46-.44a.74.74,0,0,1,.32-.19.07.07,0,0,0,.06,0,6.15,6.15,0,0,1,.52-.37l.26-.2.05,0,.07,0c.19-.17.42-.3.6-.48s.32-.15.36-.2S174.57,353.17,174.59,353.13Z"/><path class="cls-1" d="M184,330.37c-.06-.09.05-.17.26-.23a.7.7,0,0,1,.29,0,.75.75,0,0,1,.15.16s.11.52.15.69a2,2,0,0,1,.05.48c0,.33,0,.66,0,1a.89.89,0,0,1,0,.22,2.37,2.37,0,0,0,0,.75.18.18,0,0,0,0,.12,2.94,2.94,0,0,1,0,.84c-.06.22-.1.44-.14.65,0,0,0,.07,0,.1s-.07.13-.08.2a1.37,1.37,0,0,1,0,.28c0,.05-.06.09-.1.14a.17.17,0,0,1-.17,0s-.1,0-.16,0h-.05a3,3,0,0,1-.25-.6s-.07-.81-.09-.89a.39.39,0,0,1,0-.15s-.07-.65-.07-.67a.88.88,0,0,1,0-.39.12.12,0,0,0,0-.08c0-.23,0-.45,0-.67s0-.23,0-.35a.14.14,0,0,1,0-.06s0,0,0-.08a7.3,7.3,0,0,0,0-.81,2.89,2.89,0,0,0,.07-.44S184.05,330.4,184,330.37Z"/><path class="cls-1" d="M187,332.67c.08-.05.16.05.22.26a.75.75,0,0,1,0,.3l-.15.14s-.52.12-.69.16a2.59,2.59,0,0,1-.48,0h-1l-.22,0a2.11,2.11,0,0,0-.75-.05.17.17,0,0,0-.12,0,3.27,3.27,0,0,1-.83,0l-.65-.15s-.07,0-.1,0-.13-.07-.2-.08a1,1,0,0,1-.28-.05.38.38,0,0,1-.13-.1s0-.16,0-.17,0-.1,0-.15a.06.06,0,0,1,0-.06,2.43,2.43,0,0,1,.59-.24l.89-.09a.34.34,0,0,1,.14,0l.67-.07c.13,0,.26,0,.39.05h.08a3.76,3.76,0,0,1,.67,0h.4l.08,0a7.3,7.3,0,0,0,.81,0c.06,0,.36.08.43.07S186.91,332.7,187,332.67Z"/><path class="cls-1" d="M182.23,331.74c-.11,0-.1-.14,0-.34a.75.75,0,0,1,.19-.23l.2,0s.46.21.61.27a1.62,1.62,0,0,1,.39.25l.74.56.15.15a2.11,2.11,0,0,0,.52.47s.07,0,.11,0a2.85,2.85,0,0,1,.64.47c.13.17.27.33.4.49s.05,0,.05.08.06.13.1.18a.86.86,0,0,1,.18.2.38.38,0,0,1,0,.16s-.08.13-.1.14-.07.07-.1.11l0,0a2.92,2.92,0,0,1-.6-.15l-.72-.45s-.06-.06-.09-.1-.53-.32-.55-.34-.21-.13-.26-.26a.08.08,0,0,0-.05-.05,3.21,3.21,0,0,1-.48-.42,2.48,2.48,0,0,0-.26-.19.1.1,0,0,0,0-.05s0,0,0-.06c-.21-.15-.39-.34-.61-.47-.06,0-.22-.27-.28-.3S182.27,331.74,182.23,331.74Z"/><path class="cls-1" d="M186.07,331.24c0-.09.16-.05.33.07a.63.63,0,0,1,.18.24,1.2,1.2,0,0,1,0,.2,5,5,0,0,1-.41.52,1.7,1.7,0,0,1-.34.32l-.72.58-.18.11a1.84,1.84,0,0,0-.59.39s-.07.05-.08.1a3,3,0,0,1-.61.5c-.2.08-.38.17-.57.26,0,0-.05.05-.09,0s-.14,0-.2.06a.9.9,0,0,1-.24.12.29.29,0,0,1-.16,0c-.06,0-.12-.11-.11-.13s-.06-.08-.09-.12l0-.05a2.68,2.68,0,0,1,.3-.54s.55-.52.61-.59a.34.34,0,0,1,.12-.06l.46-.45a.74.74,0,0,1,.32-.19s0,0,.06,0a4.87,4.87,0,0,1,.52-.37l.26-.2,0,0,.07,0c.19-.16.42-.29.6-.47s.32-.15.36-.2S186.06,331.28,186.07,331.24Z"/><path class="cls-1" d="M196.39,369.38c0-.09.05-.16.24-.22a.51.51,0,0,1,.28,0,.93.93,0,0,1,.14.14s.11.5.14.66a1.8,1.8,0,0,1,.05.46c0,.32,0,.63,0,.94a.76.76,0,0,1,0,.21,2.5,2.5,0,0,0-.05.72s0,.08,0,.12a2.66,2.66,0,0,1,0,.8c-.05.2-.09.41-.13.62,0,0,0,.06,0,.09a.19.19,0,0,0-.07.19,2.56,2.56,0,0,1-.05.27c0,.05-.06.09-.1.13s-.15,0-.16,0-.09,0-.14,0h0a2.51,2.51,0,0,1-.24-.57s-.07-.77-.08-.85a.34.34,0,0,1,0-.14s-.07-.62-.06-.64a.71.71,0,0,1,0-.38s0-.05,0-.07a4.57,4.57,0,0,1,0-.64c0-.11,0-.22,0-.33s0,0,0-.06a.19.19,0,0,0,0-.07c0-.26,0-.52,0-.78,0-.06.08-.35.06-.41S196.41,369.41,196.39,369.38Z"/><path class="cls-1" d="M199.17,371.58c.09-.05.16.05.22.24a.51.51,0,0,1,0,.28l-.14.14s-.5.11-.66.15a2.32,2.32,0,0,1-.46,0h-.93l-.21,0a2.14,2.14,0,0,0-.71,0,.17.17,0,0,0-.12,0,3,3,0,0,1-.79,0c-.21-.06-.42-.1-.63-.14,0,0-.06,0-.08,0a.21.21,0,0,0-.2-.07,1.32,1.32,0,0,1-.26-.05c-.05,0-.09-.06-.13-.09s0-.15,0-.17,0-.09,0-.14,0,0,0-.05a2.51,2.51,0,0,1,.57-.24s.76-.06.84-.08a.34.34,0,0,1,.14,0s.61-.06.64-.06a.68.68,0,0,1,.37,0s0,0,.07,0a4.5,4.5,0,0,1,.64,0c.11,0,.22,0,.33,0h.06l.07,0a6.57,6.57,0,0,0,.77,0c.06,0,.35.08.41.06S199.14,371.61,199.17,371.58Z"/><path class="cls-1" d="M194.67,370.68c-.1,0-.09-.13,0-.32a.78.78,0,0,1,.18-.21l.19,0s.44.21.58.27a1.57,1.57,0,0,1,.37.24l.71.53a.93.93,0,0,1,.14.14,2.17,2.17,0,0,0,.5.46.21.21,0,0,0,.11,0,2.6,2.6,0,0,1,.61.45c.12.16.25.31.38.47s.05,0,.05.07.05.13.1.17a1.54,1.54,0,0,1,.17.19.66.66,0,0,1,0,.15c0,.05-.08.13-.1.13s-.06.07-.09.11l0,0a2.68,2.68,0,0,1-.57-.15l-.69-.43s-.06-.06-.09-.09-.5-.31-.52-.33-.2-.12-.25-.25l-.05,0a5.58,5.58,0,0,1-.46-.39,2.23,2.23,0,0,0-.24-.19.1.1,0,0,1,0,0,.1.1,0,0,0,0-.05c-.2-.14-.37-.32-.59-.45-.05,0-.2-.26-.26-.29S194.71,370.68,194.67,370.68Z"/><path class="cls-1" d="M198.34,370.22c0-.09.15-.06.31.06a.62.62,0,0,1,.17.22,1.23,1.23,0,0,1,0,.2s-.31.37-.4.49a2.24,2.24,0,0,1-.32.3l-.7.56a1,1,0,0,1-.17.1,2.13,2.13,0,0,0-.56.38.13.13,0,0,0-.07.09,3.44,3.44,0,0,1-.58.48,5.45,5.45,0,0,0-.55.25s0,0-.09,0-.13,0-.18.05a1.27,1.27,0,0,1-.23.12.29.29,0,0,1-.16,0s-.11-.11-.1-.12-.05-.08-.09-.12l0,0a3,3,0,0,1,.28-.52s.53-.49.59-.56.07,0,.11-.06.42-.41.44-.42a.69.69,0,0,1,.31-.18s0,0,.06,0a4.34,4.34,0,0,1,.49-.35,2.23,2.23,0,0,0,.24-.19l.06,0,.06,0a6.51,6.51,0,0,0,.58-.46s.3-.14.34-.19S198.33,370.25,198.34,370.22Z"/><path class="cls-1" d="M170.36,378.51c-.05-.07,0-.12.21-.18a.62.62,0,0,1,.24,0l.12.12s.1.4.13.53a1.63,1.63,0,0,1,0,.38c0,.26,0,.51,0,.77a.35.35,0,0,1,0,.17,1.89,1.89,0,0,0,0,.58.18.18,0,0,0,0,.1,2,2,0,0,1,0,.65c-.05.16-.08.34-.12.51s0,.05,0,.07a.14.14,0,0,0-.06.15.79.79,0,0,1,0,.22s-.05.07-.08.11-.13,0-.14,0-.08,0-.13,0h0a1.85,1.85,0,0,1-.21-.47s-.06-.62-.07-.69,0-.07,0-.11-.06-.51-.06-.53,0-.2,0-.3,0,0,0-.06a3,3,0,0,1,0-.52c0-.09,0-.18,0-.27s0,0,0-.05,0,0,0-.06c0-.21,0-.42,0-.63a3.43,3.43,0,0,0,.06-.34S170.38,378.54,170.36,378.51Z"/><path class="cls-1" d="M172.64,380.29c.06-.05.12,0,.17.21a.48.48,0,0,1,0,.24.68.68,0,0,1-.12.12s-.4.1-.53.13a1.64,1.64,0,0,1-.38,0H171l-.17,0a1.61,1.61,0,0,0-.58,0s-.06,0-.09,0a2.35,2.35,0,0,1-.65,0l-.51-.12s-.05,0-.07,0a.14.14,0,0,0-.15-.06l-.22,0s-.07,0-.11-.09,0-.13,0-.14,0-.08,0-.12v-.05a2.55,2.55,0,0,1,.47-.2s.62-.06.69-.08l.1,0s.51-.06.53-.05a.45.45,0,0,1,.3,0h.06a3,3,0,0,1,.52,0h.37c.21,0,.42,0,.63,0,.05,0,.28.06.34.05S172.61,380.31,172.64,380.29Z"/><path class="cls-1" d="M169,379.59c-.08,0-.07-.11,0-.27a.6.6,0,0,1,.15-.19l.16,0s.36.16.48.21a1.53,1.53,0,0,1,.3.19l.58.44.11.11a1.44,1.44,0,0,0,.41.37.15.15,0,0,0,.09,0,2.37,2.37,0,0,1,.49.36c.1.14.21.26.31.39s0,0,0,.06,0,.11.07.14a1.07,1.07,0,0,1,.14.16.42.42,0,0,1,0,.13s-.07.11-.09.11,0,.06-.07.1l0,0a3.26,3.26,0,0,1-.48-.11l-.56-.35s0,0-.07-.07-.41-.25-.42-.26-.17-.1-.2-.21l0,0a2.92,2.92,0,0,1-.38-.32,1.56,1.56,0,0,0-.2-.16.05.05,0,0,1,0,0l0,0a4.29,4.29,0,0,0-.48-.36s-.16-.22-.21-.24S169,379.59,169,379.59Z"/><path class="cls-1" d="M172,379.18c0-.08.12,0,.26.06a.61.61,0,0,1,.15.2.7.7,0,0,1,0,.16,4.41,4.41,0,0,1-.32.41,1.18,1.18,0,0,1-.25.25l-.57.45a.39.39,0,0,1-.14.08,1.44,1.44,0,0,0-.46.31s0,0-.06.07a1.81,1.81,0,0,1-.47.39l-.45.2s0,0-.07,0-.11,0-.15,0a1.11,1.11,0,0,1-.19.09h-.13s-.1-.1-.09-.11-.05-.07-.08-.1l0,0a1.8,1.8,0,0,1,.23-.43l.47-.46a.16.16,0,0,1,.09,0l.36-.35c.08-.05.13-.13.25-.14s0,0,.05,0a2.86,2.86,0,0,1,.4-.28l.2-.16,0,0,.06,0c.15-.13.32-.23.46-.37s.25-.11.29-.15S171.94,379.21,172,379.18Z"/><path class="cls-1" d="M203,349.64c0-.05,0-.09.22-.13a.62.62,0,0,1,.24,0,1.25,1.25,0,0,1,.12.08s.09.3.13.4a.86.86,0,0,1,0,.28c0,.18,0,.37,0,.56a.32.32,0,0,1,0,.13,1,1,0,0,0,0,.43.11.11,0,0,0,0,.07,1.22,1.22,0,0,1,0,.47c-.05.13-.08.25-.12.38s0,0,0,.05-.06.08-.07.12a.32.32,0,0,1,0,.16s-.05.05-.08.08a.22.22,0,0,1-.14,0s-.08,0-.13,0h0a1.21,1.21,0,0,1-.21-.35s-.06-.45-.07-.51,0-.05,0-.08-.06-.37-.06-.38,0-.15,0-.23a.06.06,0,0,0,0,0,2.55,2.55,0,0,1,0-.39,1.21,1.21,0,0,0,0-.19s0,0,0,0l0,0a3.69,3.69,0,0,0,0-.47s.07-.21.06-.25S203,349.66,203,349.64Z"/><path class="cls-1" d="M204.74,350.89c0-.05.09,0,.13.21a1,1,0,0,1,0,.24,1.25,1.25,0,0,1-.09.12s-.3.09-.39.13a.86.86,0,0,1-.28,0h-.56a.25.25,0,0,1-.12,0,1.05,1.05,0,0,0-.43,0,.1.1,0,0,0-.07,0,1.28,1.28,0,0,1-.48,0c-.12-.05-.24-.08-.37-.12s0,0-.05,0-.08-.06-.12-.07a.34.34,0,0,1-.16,0,.29.29,0,0,1-.07-.08s0-.13,0-.14,0-.08,0-.13a0,0,0,0,1,0,0,1.15,1.15,0,0,1,.34-.21l.5-.07a.11.11,0,0,1,.08,0l.39-.06c.07,0,.15,0,.22,0h0a2.48,2.48,0,0,1,.38,0h.19l0,0h0a3.69,3.69,0,0,0,.47,0s.2.07.24.06S204.72,350.9,204.74,350.89Z"/><path class="cls-1" d="M202,350.49c-.06,0,0-.09,0-.24a.6.6,0,0,1,.15-.19l.14-.05.37.13a.86.86,0,0,1,.23.13l.42.32a.34.34,0,0,1,.08.09.89.89,0,0,0,.3.28s0,0,.06,0a1,1,0,0,1,.37.26c.06.11.14.2.21.31s0,0,0,.05,0,.09.05.12a.38.38,0,0,1,.09.12s0,.07,0,.11-.07.11-.08.12-.06.06-.08.09l0,0a1.23,1.23,0,0,1-.38,0l-.43-.24s0,0-.05-.06l-.32-.18s-.12-.07-.14-.16,0,0,0,0a2,2,0,0,1-.27-.24.53.53,0,0,0-.15-.11l0,0a.05.05,0,0,0,0,0c-.12-.08-.22-.2-.35-.27s-.11-.17-.15-.18S202,350.49,202,350.49Z"/><path class="cls-1" d="M204.19,350.08c0-.06.1,0,.23.09a1.15,1.15,0,0,1,.15.2c0,.05,0,.1,0,.14a3.72,3.72,0,0,1-.22.33.66.66,0,0,1-.18.19l-.42.34-.1.05a.8.8,0,0,0-.35.22s0,0,0,.06a1.07,1.07,0,0,1-.34.29,3.59,3.59,0,0,0-.35.12s0,0-.06,0a.1.1,0,0,0-.12,0,.67.67,0,0,1-.15.06s-.07,0-.11,0a.29.29,0,0,1-.09-.11s0-.07-.07-.1l0,0a1.3,1.3,0,0,1,.13-.36s.31-.31.34-.35,0,0,.07,0l.25-.27c.06,0,.1-.1.19-.1l0,0a2,2,0,0,1,.3-.2l.15-.12h.07a2.3,2.3,0,0,0,.34-.28s.2-.06.22-.1S204.19,350.11,204.19,350.08Z"/><path class="cls-1" d="M191.47,397.81c-.05-.05,0-.09.21-.13h.24l.12.09a3.8,3.8,0,0,1,.13.4.84.84,0,0,1,0,.27c0,.19,0,.38,0,.57a.27.27,0,0,1,0,.12,1.07,1.07,0,0,0,0,.43s0,.05,0,.07a1.29,1.29,0,0,1,0,.48c0,.13-.08.25-.12.38s0,0,0,.05a.11.11,0,0,0-.06.12,1.24,1.24,0,0,1,0,.16l-.09.08a.22.22,0,0,1-.14,0s-.08,0-.12,0h0a1.68,1.68,0,0,1-.2-.35s-.06-.46-.08-.51a.31.31,0,0,1,0-.08s-.06-.37-.06-.39,0-.15.05-.22,0,0,0,0a1.71,1.71,0,0,1,0-.39v-.2a0,0,0,0,1,0,0s0,0,0-.05a2.36,2.36,0,0,0,0-.46,2.27,2.27,0,0,0,.06-.25S191.49,397.83,191.47,397.81Z"/><path class="cls-1" d="M193.22,399.05c.05,0,.09,0,.13.21a.67.67,0,0,1,0,.25l-.08.12s-.3.09-.4.13a.83.83,0,0,1-.27,0H192l-.13,0a.89.89,0,0,0-.43,0,.11.11,0,0,0-.07,0,1.22,1.22,0,0,1-.47,0l-.37-.12s0,0-.06,0-.07-.06-.11-.07a.42.42,0,0,1-.16,0s0,0-.08-.08a.22.22,0,0,1,0-.14s0-.09,0-.13v0a1.3,1.3,0,0,1,.34-.21l.51-.07s.05,0,.08,0l.38-.06c.08,0,.15,0,.23,0h0a2.36,2.36,0,0,1,.38,0h.23l0,0a3.53,3.53,0,0,0,.46,0s.21.07.25.06S193.19,399.07,193.22,399.05Z"/><path class="cls-1" d="M190.47,398.66c-.07,0-.05-.09,0-.25a.71.71,0,0,1,.15-.18l.14-.05.37.13a.86.86,0,0,1,.23.13l.43.32a.36.36,0,0,1,.08.09.86.86,0,0,0,.29.28s0,0,.07,0a1.31,1.31,0,0,1,.37.26,3.45,3.45,0,0,0,.2.32s0,0,0,0a.09.09,0,0,0,0,.11.64.64,0,0,1,.1.13.4.4,0,0,1,0,.11.2.2,0,0,1-.08.11s0,.07-.08.1l0,0a1.3,1.3,0,0,1-.38,0l-.42-.24s0,0,0-.06l-.33-.18c0-.05-.12-.07-.14-.16s0,0,0,0a3.08,3.08,0,0,1-.27-.24,1.49,1.49,0,0,0-.14-.12s0,0,0,0l0,0a2.33,2.33,0,0,0-.35-.27s-.11-.17-.15-.19S190.49,398.65,190.47,398.66Z"/><path class="cls-1" d="M192.67,398.25c0-.07.09,0,.23.09a.73.73,0,0,1,.14.2.71.71,0,0,1,0,.14,3.27,3.27,0,0,1-.21.33.69.69,0,0,1-.19.19l-.41.33a.24.24,0,0,1-.11.06.72.72,0,0,0-.34.22s0,0,0,.05a1.27,1.27,0,0,1-.35.3c-.12,0-.23.08-.35.12s0,0-.05,0a.11.11,0,0,0-.13,0,.59.59,0,0,1-.14.06l-.11,0s-.09-.1-.09-.11-.05-.07-.08-.1l0,0a1.74,1.74,0,0,1,.13-.36s.31-.31.34-.35a.08.08,0,0,1,.07,0s.24-.27.25-.27.1-.11.19-.1l0,0a2,2,0,0,1,.3-.2l.15-.12h0l0,0a3,3,0,0,0,.35-.27s.19-.07.22-.1S192.66,398.28,192.67,398.25Z"/><path class="cls-1" d="M191.13,321.06c-.65-.16-1.31-.3-2-.41-.24,0-.49,0-.73-.09a18.73,18.73,0,0,0-2.58-.23,8.77,8.77,0,0,0-1.15.05c-.49.07-1,.17-1.45.2-.31,0-.05-.61.53-.75a10.82,10.82,0,0,1,3.11-.19c.61.05,1.26,0,1.89.09s1.38.16,2.07.27l1.25.21c.64.11,1.27.24,1.9.33s1,.07,1.47.1h.33c.4,0,.51.15.53.5a1,1,0,0,1,0,.24.48.48,0,0,1-.51.46,10.71,10.71,0,0,1-2.69-.33l-2-.44Z"/><path class="cls-1" d="M338.31,392.94q-3,1.57-6.05,2.85c-.74.32-1.47.68-2.24,1a42.92,42.92,0,0,1-8.36,2.06c-1.27.15-2.54.34-3.82.39a11.31,11.31,0,0,1-4.89-.58c-.48-.18-.3-.6.2-1a3.84,3.84,0,0,1,2.14-.78c1.5-.06,3,0,4.52-.17s3.05-.38,4.61-.65a26.8,26.8,0,0,0,5.49-1.88c2-.82,3.93-1.75,5.83-2.77,1.16-.64,2.33-1.29,3.46-2a51.81,51.81,0,0,0,5-3.44,37.45,37.45,0,0,0,3.34-3.19c.24-.24.45-.5.69-.74a2.59,2.59,0,0,1,1.11-.72,1.34,1.34,0,0,1,.95.11l.43.15c.36.15.46,1-.09,1.86a26,26,0,0,1-6.54,6,65.73,65.73,0,0,1-5.72,3.55Z"/><path class="cls-1" d="M405.94,329.69l-.1-.31s-.06-.06-.07-.09-.07-.29-.12-.42a.22.22,0,0,0-.12-.13c-.06-.05-.17-.05-.13-.19a3.81,3.81,0,0,1,1-.66.55.55,0,0,1,.13.47c0,.14.08.18.12.27l.12.3a1,1,0,0,0,.08.18,1.3,1.3,0,0,0,.14.26c.05.06.14.07.21.11l.05,0c0,.05,0,.11-.18.27l-.13.12a.87.87,0,0,1-.36.21.65.65,0,0,1-.5-.13,2.46,2.46,0,0,1-.17-.27Z"/><path class="cls-1" d="M415.52,327.39a.29.29,0,0,0,0-.09s0,0,0,0a.58.58,0,0,0,0-.18s0,0-.06,0-.08.07-.06,0a4,4,0,0,1,.46-1c.1,0,.17.14.18.31s.08.11.11.17a1.67,1.67,0,0,1,.08.2l0,.13c0,.05,0,.12.06.16s.09.06.13.09l0,0s0,.06-.23.13l-.13.05-.34.08a1.41,1.41,0,0,1-.25,0,.07.07,0,0,1,0,0Z"/><path class="cls-1" d="M424,325.28a.53.53,0,0,1-.05-.15s0,0,0,0,0-.21,0-.3,0,0-.06,0-.13.13-.07-.05.23-.47.44-.86l.28-.54a1.37,1.37,0,0,1,.14-.24c.06,0,.07.1,0,.35s0,.09,0,.14a1.23,1.23,0,0,1,0,.2.45.45,0,0,0,0,.12c0,.05,0,.12.05.13s.09-.07.14-.1l0,0s0,.09-.17.4l-.1.21a3.66,3.66,0,0,1-.28.51c-.16.22-.24.28-.3.29a.18.18,0,0,1-.11,0Z"/><path class="cls-1" d="M316.93,186.62c-.05.27-.35.31-.78.22-.14,0-.46-.26-.46-.35a2.86,2.86,0,0,1,0-.5c0-.09.52-1.31.63-1.74a7.82,7.82,0,0,1,.49-1.19c.36-.78.69-1.57,1-2.38a2.53,2.53,0,0,1,.28-.51,5.42,5.42,0,0,0,.81-1.8.56.56,0,0,0,0-.34,8.43,8.43,0,0,1,.72-2.08c.35-.48.63-1,1-1.5.05-.07.05-.17.17-.21.28-.09.3-.27.39-.44a6.87,6.87,0,0,1,.45-.65,2.25,2.25,0,0,1,.36-.28c.11-.08.34,0,.36.1s.19.08.3.1l.12,0s.08.42.18.86a3.28,3.28,0,0,1,.11,1l-.07.37c0,.21-.08.5-.15.78l-.3,1.28a.88.88,0,0,1-.2.35c0,.05-.45,1.77-.51,1.82-.18.32-.26.69-.61.93a.45.45,0,0,0-.11.19,13.23,13.23,0,0,1-.94,1.63c-.17.27-.31.56-.47.84,0,0-.08.09-.12.13s-.1.11-.14.17c-.36.67-.83,1.27-1.18,1.94-.08.16-.72.74-.81.92S317,186.52,316.93,186.62Z"/><path class="cls-1" d="M433.7,133.09c0,.22-.27.21-.71.08a1.34,1.34,0,0,1-.5-.36,1.82,1.82,0,0,1-.07-.44A14.44,14.44,0,0,1,433,131a4.42,4.42,0,0,1,.54-.88l1.23-1.65a1.67,1.67,0,0,1,.32-.33,4.76,4.76,0,0,0,1-1.16c0-.07.11-.14.1-.24a6,6,0,0,1,1-1.4,11.37,11.37,0,0,0,1.07-.88c.05,0,.07-.11.16-.11s.28-.15.37-.25a4,4,0,0,1,.4-.42,1,1,0,0,1,.32-.14c.1,0,.28.12.28.16s.15.11.24.16l.08.05a6.26,6.26,0,0,1-.25,1.36s-.75,1.5-.86,1.7a.63.63,0,0,1-.22.21c0,.06-.72,1.19-.74,1.23-.19.21-.3.47-.59.58a.23.23,0,0,0-.12.12,10.18,10.18,0,0,1-.91,1.06,6,6,0,0,0-.44.56s-.07.05-.1.08a.35.35,0,0,0-.13.11,14.43,14.43,0,0,0-1,1.33c-.06.11-.58.49-.64.63S433.7,133,433.7,133.09Z"/><path class="cls-1" d="M181.82,114.27c0,.31-.28.45-.8.53a1,1,0,0,1-.66-.21,3.27,3.27,0,0,1-.19-.58,18.47,18.47,0,0,1,.4-2.38,7.25,7.25,0,0,1,.53-1.59c.47-1,1-2.06,1.5-3a3,3,0,0,1,.44-.61,16.12,16.12,0,0,0,1.48-2.05.75.75,0,0,0,.18-.38,10.59,10.59,0,0,1,1.67-2.22c.6-.46,1.09-1,1.7-1.43.08-.07.13-.16.26-.18a.94.94,0,0,0,.59-.39,8.32,8.32,0,0,1,.69-.63,2.6,2.6,0,0,1,.44-.23c.14-.06.28.13.27.19s.13.13.22.18.07,0,.08.06a7.2,7.2,0,0,1-.29.93,10.54,10.54,0,0,1-.36,1.06s-.29.63-.65,1.21-.7,1.22-.76,1.35a1.43,1.43,0,0,1-.31.34c-.06.05-1,1.87-1,1.94-.24.34-.4.73-.82.94a.44.44,0,0,0-.17.19c-.38.61-.84,1.15-1.26,1.73-.22.29-.37.62-.56.93,0,0-.1.09-.14.14a.78.78,0,0,0-.16.2,15.11,15.11,0,0,0-1.15,2.27,12.32,12.32,0,0,0-.68,1.19C182.24,113.86,181.79,114.14,181.82,114.27Z"/><path class="cls-1" d="M296.26,121.38c-.22-.13-.14-.4.12-.79a1.06,1.06,0,0,1,.51-.33,2.27,2.27,0,0,1,.48.18,14.44,14.44,0,0,1,1.28,1.44,5.49,5.49,0,0,1,.71,1.15c.4.82.79,1.64,1.11,2.48a2.26,2.26,0,0,1,.16.58,9.14,9.14,0,0,0,.53,2,.54.54,0,0,0,.17.3,8.31,8.31,0,0,1,.69,2.13c0,.6.07,1.18.09,1.76,0,.09.06.17,0,.26s-.09.38-.06.56a3.09,3.09,0,0,1,0,.75,1.12,1.12,0,0,1-.16.41c-.07.13-.41.15-.45.12s-.26,0-.39.09l-.14,0a6.89,6.89,0,0,1-1-1.39s-.17-.51-.34-1-.35-1.07-.4-1.17a.92.92,0,0,1,0-.37c0-.07-.57-1.59-.59-1.65a2.36,2.36,0,0,1-.15-1,.31.31,0,0,0,0-.19c-.2-.54-.31-1.11-.46-1.66a7.87,7.87,0,0,0-.3-.81.88.88,0,0,1,0-.16,1.18,1.18,0,0,0,0-.2,11.61,11.61,0,0,0-.86-1.86c-.08-.13-.27-.88-.39-1S296.35,121.43,296.26,121.38Z"/><path class="cls-1" d="M81,136.13c-.29-.12-.24-.48,0-1,.08-.16.47-.49.57-.47a2.77,2.77,0,0,1,.6.13,22.31,22.31,0,0,1,1.76,1.5A7.66,7.66,0,0,1,85,137.52c.65.88,1.3,1.75,1.9,2.65a3.55,3.55,0,0,1,.34.64A12.15,12.15,0,0,0,88.46,143a.83.83,0,0,0,.28.31,5.21,5.21,0,0,1,.78,1.08,6.44,6.44,0,0,1,.61,1.25c.18.71.43,1.39.66,2.07,0,.1.1.18.08.3a1,1,0,0,0,.16.66,5.89,5.89,0,0,1,.33.86,2.44,2.44,0,0,1,0,.48c0,.15-.21.2-.26.17s-.16.07-.23.12-.06.05-.08.05a16.15,16.15,0,0,1-1.51-1.37s-.41-.53-.83-1.07-.87-1.08-1-1.19a1.39,1.39,0,0,1-.21-.4c0-.07-1.23-1.69-1.27-1.76a3.17,3.17,0,0,1-.55-1.12.49.49,0,0,0-.11-.23c-.41-.58-.74-1.21-1.1-1.83-.18-.31-.41-.59-.61-.89a1.54,1.54,0,0,1-.08-.19.76.76,0,0,0-.11-.22A19.58,19.58,0,0,0,81.94,138c-.14-.15-.54-1-.72-1.18S81.12,136.17,81,136.13Z"/></g></svg>